<?xml version="1.0" encoding="UTF-8" standalone="no"?>
<!-- Created with Inkscape (http://www.inkscape.org/) -->

<svg
   xmlns:dc="http://purl.org/dc/elements/1.1/"
   xmlns:cc="http://creativecommons.org/ns#"
   xmlns:rdf="http://www.w3.org/1999/02/22-rdf-syntax-ns#"
   xmlns:svg="http://www.w3.org/2000/svg"
   xmlns="http://www.w3.org/2000/svg"
   xmlns:sodipodi="http://sodipodi.sourceforge.net/DTD/sodipodi-0.dtd"
   xmlns:inkscape="http://www.inkscape.org/namespaces/inkscape"
   width="1800.9062"
   height="3892.6562"
   id="svg2"
   version="1.1"
   inkscape:version="0.48.5 r10040"
   sodipodi:docname="White 6.svg">
  <defs
     id="defs4" />
  <sodipodi:namedview
     id="base"
     pagecolor="#ffffff"
     bordercolor="#666666"
     borderopacity="1.0"
     inkscape:pageopacity="0.0"
     inkscape:pageshadow="2"
     inkscape:zoom="0.29979529"
     inkscape:cx="900.45313"
     inkscape:cy="1946.3281"
     inkscape:document-units="in"
     inkscape:current-layer="layer1"
     showgrid="false"
     units="in"
     inkscape:window-width="2445"
     inkscape:window-height="1343"
     inkscape:window-x="59"
     inkscape:window-y="0"
     inkscape:window-maximized="0"
     fit-margin-top="0"
     fit-margin-left="0"
     fit-margin-right="0"
     fit-margin-bottom="0"
     showguides="true"
     inkscape:guide-bbox="true" />
  <metadata
     id="metadata7">
    <rdf:RDF>
      <cc:Work
         rdf:about="">
        <dc:format>image/svg+xml</dc:format>
        <dc:type
           rdf:resource="http://purl.org/dc/dcmitype/StillImage" />
        <dc:title />
      </cc:Work>
    </rdf:RDF>
  </metadata>
  <g
     inkscape:label="Layer 1"
     inkscape:groupmode="layer"
     id="layer1"
     transform="translate(-15783.219,3134.9063)">
    <g
       transform="matrix(1.25,0,0,1.25,1046.4795,-8017.6529)"
       id="g3029" />
    <g
       transform="matrix(1.25,0,0,1.25,1046.4795,-8017.6529)"
       id="g3033" />
    <g
       transform="matrix(1.25,0,0,1.25,1046.4795,-8017.6529)"
       id="g3037" />
    <g
       transform="matrix(1.25,0,0,1.25,1046.4795,-8017.6529)"
       id="g3041" />
    <g
       transform="matrix(1.25,0,0,1.25,1046.4795,-8017.6529)"
       id="g3045" />
    <g
       transform="matrix(1.25,0,0,1.25,1046.4795,-8017.6529)"
       id="g3049" />
    <g
       transform="matrix(1.25,0,0,1.25,1046.4795,-8017.6529)"
       id="g3053" />
    <g
       transform="matrix(1.25,0,0,1.25,1046.4795,-8017.6529)"
       id="g3057" />
    <g
       transform="matrix(1.25,0,0,1.25,1046.4795,-8017.6529)"
       id="g3061" />
    <g
       transform="matrix(1.25,0,0,1.25,1046.4795,-8017.6529)"
       id="g3065" />
    <g
       transform="matrix(1.25,0,0,1.25,1046.4795,-8017.6529)"
       id="g3069" />
    <g
       transform="matrix(1.25,0,0,1.25,1046.4795,-8017.6529)"
       id="g3073" />
    <g
       transform="matrix(1.25,0,0,1.25,1046.4795,-8017.6529)"
       id="g3077" />
    <g
       transform="matrix(1.25,0,0,1.25,1046.4795,-8017.6529)"
       id="g3081" />
    <g
       transform="matrix(1.25,0,0,1.25,1046.4795,-8017.6529)"
       id="g3085" />
    <g
       transform="matrix(1.25,0,0,1.25,1046.4795,-8017.6529)"
       id="g3089" />
    <g
       transform="matrix(1.25,0,0,1.25,1046.4795,-8017.6529)"
       id="g3093" />
    <g
       transform="matrix(1.25,0,0,1.25,1046.4795,-8017.6529)"
       id="g3097" />
    <g
       transform="matrix(1.25,0,0,1.25,1046.4795,-8017.6529)"
       id="g3101" />
    <g
       transform="matrix(1.25,0,0,1.25,1046.4795,-8017.6529)"
       id="g3105" />
    <g
       transform="matrix(1.25,0,0,1.25,1046.4795,-8017.6529)"
       id="g3109" />
    <g
       transform="matrix(1.25,0,0,1.25,1046.4795,-8017.6529)"
       id="g3113" />
    <g
       transform="matrix(1.25,0,0,1.25,1046.4795,-8017.6529)"
       id="g3117" />
    <g
       transform="matrix(1.25,0,0,1.25,1046.4795,-8017.6529)"
       id="g3121" />
    <g
       transform="matrix(1.25,0,0,1.25,1046.4795,-8017.6529)"
       id="g3125" />
    <g
       transform="matrix(1.25,0,0,1.25,1046.4795,-8017.6529)"
       id="g3129" />
    <g
       transform="matrix(1.25,0,0,1.25,1046.4795,-8017.6529)"
       id="g3133" />
    <g
       transform="matrix(1.25,0,0,1.25,1046.4795,-8017.6529)"
       id="g3137" />
    <g
       transform="matrix(1.25,0,0,1.25,1046.4795,-8017.6529)"
       id="g3141" />
    <g
       transform="matrix(1.25,0,0,1.25,1046.4795,-8017.6529)"
       id="g3145" />
    <g
       transform="matrix(1.25,0,0,1.25,1046.4795,-8017.6529)"
       id="g3149" />
    <g
       transform="matrix(1.25,0,0,1.25,1046.4795,-8017.6529)"
       id="g3153" />
    <g
       transform="matrix(1.25,0,0,1.25,1046.4795,-8017.6529)"
       id="g3157" />
    <g
       transform="matrix(1.25,0,0,1.25,1046.4795,-8017.6529)"
       id="g3161" />
    <g
       transform="matrix(1.25,0,0,1.25,1046.4795,-8017.6529)"
       id="g3165" />
    <g
       transform="matrix(1.25,0,0,1.25,1046.4795,-8017.6529)"
       id="g3169" />
    <g
       transform="matrix(1.25,0,0,1.25,1046.4795,-8017.6529)"
       id="g3173" />
    <g
       transform="matrix(1.25,0,0,1.25,1046.4795,-8017.6529)"
       id="g3177" />
    <g
       transform="matrix(1.25,0,0,1.25,1046.4795,-8017.6529)"
       id="g3181" />
    <g
       transform="matrix(1.25,0,0,1.25,1046.4795,-8017.6529)"
       id="g3185" />
    <g
       transform="matrix(1.25,0,0,1.25,1046.4795,-8017.6529)"
       id="g3189" />
    <g
       transform="matrix(1.25,0,0,1.25,1046.4795,-8017.6529)"
       id="g3193" />
    <g
       transform="matrix(1.25,0,0,1.25,1046.4795,-8017.6529)"
       id="g3197" />
    <g
       transform="matrix(1.25,0,0,1.25,1046.4795,-8017.6529)"
       id="g3201" />
    <g
       transform="matrix(1.25,0,0,1.25,1046.4795,-8017.6529)"
       id="g3205" />
    <g
       transform="matrix(1.25,0,0,1.25,1046.4795,-8017.6529)"
       id="g3209" />
    <g
       transform="matrix(1.25,0,0,1.25,1046.4795,-8017.6529)"
       id="g3213" />
    <g
       transform="matrix(1.25,0,0,1.25,1046.4795,-8017.6529)"
       id="g3217" />
    <g
       transform="matrix(1.25,0,0,1.25,1046.4795,-8017.6529)"
       id="g3221" />
    <g
       transform="matrix(1.25,0,0,1.25,1046.4795,-8017.6529)"
       id="g3225" />
    <g
       transform="matrix(1.25,0,0,1.25,1046.4795,-8017.6529)"
       id="g3229" />
    <g
       transform="matrix(1.25,0,0,1.25,1046.4795,-8017.6529)"
       id="g3233" />
    <g
       transform="matrix(1.25,0,0,1.25,1046.4795,-8017.6529)"
       id="g3237" />
    <g
       transform="matrix(1.25,0,0,1.25,1046.4795,-8017.6529)"
       id="g3241" />
    <g
       transform="matrix(1.25,0,0,1.25,1046.4795,-8017.6529)"
       id="g3245" />
    <g
       transform="matrix(1.25,0,0,1.25,1046.4795,-8017.6529)"
       id="g3249" />
    <g
       transform="matrix(1.25,0,0,1.25,1046.4795,-8017.6529)"
       id="g3253" />
    <g
       transform="matrix(1.25,0,0,1.25,1046.4795,-8017.6529)"
       id="g3257" />
    <g
       transform="matrix(1.25,0,0,1.25,1046.4795,-8017.6529)"
       id="g3261" />
    <g
       transform="matrix(1.25,0,0,1.25,1046.4795,-8017.6529)"
       id="g3265" />
    <g
       transform="matrix(1.25,0,0,1.25,1046.4795,-8017.6529)"
       id="g3269" />
    <g
       transform="matrix(1.25,0,0,1.25,1046.4795,-8017.6529)"
       id="g3273" />
    <g
       transform="matrix(1.25,0,0,1.25,1046.4795,-8017.6529)"
       id="g3277" />
    <g
       transform="matrix(1.25,0,0,1.25,1046.4795,-8017.6529)"
       id="g3281" />
    <g
       transform="matrix(1.25,0,0,1.25,1046.4795,-8017.6529)"
       id="g3285" />
    <g
       transform="matrix(1.25,0,0,1.25,1046.4795,-8017.6529)"
       id="g3289" />
    <g
       transform="matrix(1.25,0,0,1.25,1046.4795,-8017.6529)"
       id="g3293" />
    <g
       transform="matrix(1.25,0,0,1.25,1046.4795,-8017.6529)"
       id="g3297" />
    <g
       transform="matrix(1.25,0,0,1.25,1046.4795,-8017.6529)"
       id="g3301" />
    <g
       transform="matrix(1.25,0,0,1.25,1046.4795,-8017.6529)"
       id="g3305" />
    <g
       transform="matrix(1.25,0,0,1.25,1046.4795,-8017.6529)"
       id="g3309" />
    <g
       transform="matrix(1.25,0,0,1.25,1046.4795,-8017.6529)"
       id="g3313" />
    <g
       transform="matrix(1.25,0,0,1.25,1046.4795,-8017.6529)"
       id="g3317" />
    <g
       transform="matrix(1.25,0,0,1.25,1046.4795,-8017.6529)"
       id="g3321" />
    <g
       transform="matrix(1.25,0,0,1.25,1046.4795,-8017.6529)"
       id="g3325" />
    <g
       transform="matrix(1.25,0,0,1.25,1046.4795,-8017.6529)"
       id="g3329" />
    <g
       transform="matrix(1.25,0,0,1.25,1046.4795,-8017.6529)"
       id="g3333" />
    <g
       transform="matrix(1.25,0,0,1.25,1046.4795,-8017.6529)"
       id="g3337" />
    <g
       transform="matrix(1.25,0,0,1.25,1046.4795,-8017.6529)"
       id="g3341" />
    <g
       transform="matrix(1.25,0,0,1.25,1046.4795,-8017.6529)"
       id="g3345" />
    <g
       transform="matrix(1.25,0,0,1.25,1046.4795,-8017.6529)"
       id="g3349" />
    <g
       transform="matrix(1.25,0,0,1.25,1046.4795,-8017.6529)"
       id="g3353" />
    <g
       transform="matrix(1.25,0,0,1.25,1046.4795,-8017.6529)"
       id="g3361" />
    <g
       transform="matrix(1.25,0,0,1.25,1046.4795,-8017.6529)"
       id="g3365" />
    <g
       transform="matrix(1.25,0,0,1.25,1046.4795,-8017.6529)"
       id="g3373" />
    <g
       transform="matrix(1.25,0,0,1.25,1046.4795,-8017.6529)"
       id="g3377" />
    <g
       transform="matrix(1.25,0,0,1.25,1046.4795,-8017.6529)"
       id="g3381" />
    <g
       transform="matrix(1.25,0,0,1.25,1046.4795,-8017.6529)"
       id="g3385" />
    <g
       transform="matrix(1.25,0,0,1.25,1046.4795,-8017.6529)"
       id="g3389" />
    <g
       transform="matrix(1.25,0,0,1.25,1046.4795,-8017.6529)"
       id="g3393" />
    <g
       transform="matrix(1.25,0,0,1.25,1046.4795,-8017.6529)"
       id="g3397" />
    <g
       transform="matrix(1.25,0,0,1.25,1046.4795,-8017.6529)"
       id="g3401" />
    <g
       transform="matrix(1.25,0,0,1.25,1046.4795,-8017.6529)"
       id="g3405" />
    <g
       transform="matrix(1.25,0,0,1.25,1046.4795,-8017.6529)"
       id="g3409" />
    <g
       transform="matrix(1.25,0,0,1.25,1046.4795,-8017.6529)"
       id="g3413" />
    <g
       transform="matrix(1.25,0,0,1.25,1046.4795,-8017.6529)"
       id="g3417" />
    <g
       transform="matrix(1.25,0,0,1.25,1046.4795,-8017.6529)"
       id="g3421" />
    <g
       transform="matrix(1.25,0,0,1.25,1046.4795,-8017.6529)"
       id="g3425" />
    <g
       transform="matrix(1.25,0,0,1.25,1046.4795,-8017.6529)"
       id="g3429" />
    <g
       transform="matrix(1.25,0,0,1.25,1046.4795,-8017.6529)"
       id="g3433" />
    <g
       transform="matrix(1.25,0,0,1.25,1046.4795,-8017.6529)"
       id="g3437" />
    <g
       transform="matrix(1.25,0,0,1.25,1046.4795,-8017.6529)"
       id="g3441" />
    <g
       transform="matrix(1.25,0,0,1.25,1046.4795,-8017.6529)"
       id="g3445" />
    <g
       transform="matrix(1.25,0,0,1.25,1046.4795,-8017.6529)"
       id="g3449" />
    <g
       transform="matrix(1.25,0,0,1.25,1046.4795,-8017.6529)"
       id="g3453" />
    <g
       transform="matrix(1.25,0,0,1.25,1046.4795,-8017.6529)"
       id="g3457" />
    <g
       transform="matrix(1.25,0,0,1.25,1046.4795,-8017.6529)"
       id="g3461" />
    <g
       transform="matrix(1.25,0,0,1.25,1046.4795,-8017.6529)"
       id="g3465" />
    <g
       transform="matrix(1.25,0,0,1.25,1046.4795,-8017.6529)"
       id="g3469" />
    <g
       transform="matrix(1.25,0,0,1.25,1046.4795,-8017.6529)"
       id="g3473" />
    <g
       transform="matrix(1.25,0,0,1.25,1046.4795,-8017.6529)"
       id="g3477" />
    <g
       transform="matrix(1.25,0,0,1.25,1046.4795,-8017.6529)"
       id="g3481" />
    <g
       transform="matrix(1.25,0,0,1.25,1046.4795,-8017.6529)"
       id="g3485" />
    <g
       transform="matrix(1.25,0,0,1.25,1046.4795,-8017.6529)"
       id="g3489" />
    <g
       transform="matrix(1.25,0,0,1.25,1046.4795,-8017.6529)"
       id="g3493" />
    <g
       transform="matrix(1.25,0,0,1.25,1046.4795,-8017.6529)"
       id="g3497" />
    <g
       transform="matrix(1.25,0,0,1.25,1046.4795,-8017.6529)"
       id="g3501" />
    <g
       transform="matrix(1.25,0,0,1.25,1046.4795,-8017.6529)"
       id="g3505" />
    <g
       transform="matrix(1.25,0,0,1.25,1046.4795,-8017.6529)"
       id="g3509" />
    <g
       transform="matrix(1.25,0,0,1.25,1046.4795,-8017.6529)"
       id="g3513" />
    <g
       transform="matrix(1.25,0,0,1.25,1046.4795,-8017.6529)"
       id="g3517" />
    <g
       transform="matrix(1.25,0,0,1.25,1046.4795,-8017.6529)"
       id="g3525" />
    <g
       transform="matrix(1.25,0,0,1.25,1046.4795,-8017.6529)"
       id="g3529" />
    <g
       transform="matrix(1.25,0,0,1.25,1046.4795,-8017.6529)"
       id="g3533" />
    <g
       transform="matrix(1.25,0,0,1.25,1046.4795,-8017.6529)"
       id="g3537" />
    <g
       transform="matrix(1.25,0,0,1.25,1046.4795,-8017.6529)"
       id="g3541" />
    <g
       transform="matrix(1.25,0,0,1.25,1046.4795,-8017.6529)"
       id="g3545" />
    <g
       transform="matrix(1.25,0,0,1.25,1046.4795,-8017.6529)"
       id="g3549" />
    <g
       transform="matrix(1.25,0,0,1.25,1046.4795,-8017.6529)"
       id="g3553" />
    <g
       transform="matrix(1.25,0,0,1.25,1046.4795,-8017.6529)"
       id="g3557" />
    <g
       transform="matrix(1.25,0,0,1.25,1046.4795,-8017.6529)"
       id="g3561" />
    <g
       transform="matrix(1.25,0,0,1.25,1046.4795,-8017.6529)"
       id="g3565" />
    <g
       transform="matrix(1.25,0,0,1.25,1046.4795,-8017.6529)"
       id="g3569" />
    <g
       transform="matrix(1.25,0,0,1.25,1046.4795,-8017.6529)"
       id="g3573" />
    <g
       transform="matrix(1.25,0,0,1.25,1046.4795,-8017.6529)"
       id="g3581" />
    <g
       transform="matrix(1.25,0,0,1.25,1046.4795,-8017.6529)"
       id="g3585" />
    <g
       transform="matrix(1.25,0,0,1.25,1046.4795,-8017.6529)"
       id="g3589" />
    <g
       transform="matrix(1.25,0,0,1.25,1046.4795,-8017.6529)"
       id="g3593" />
    <g
       transform="matrix(1.25,0,0,1.25,1046.4795,-8017.6529)"
       id="g3597" />
    <g
       transform="matrix(1.25,0,0,1.25,1046.4795,-8017.6529)"
       id="g3601" />
    <g
       transform="matrix(1.25,0,0,1.25,1046.4795,-8017.6529)"
       id="g3605" />
    <g
       transform="matrix(1.25,0,0,1.25,1046.4795,-8017.6529)"
       id="g3609" />
    <g
       transform="matrix(1.25,0,0,1.25,1046.4795,-8017.6529)"
       id="g3613" />
    <g
       transform="matrix(1.25,0,0,1.25,1046.4795,-8017.6529)"
       id="g3617" />
    <g
       transform="matrix(1.25,0,0,1.25,1046.4795,-8017.6529)"
       id="g3621" />
    <g
       transform="matrix(1.25,0,0,1.25,1046.4795,-8017.6529)"
       id="g3625" />
    <g
       transform="matrix(1.25,0,0,1.25,1046.4795,-8017.6529)"
       id="g3629" />
    <g
       transform="matrix(1.25,0,0,1.25,1046.4795,-8017.6529)"
       id="g3633" />
    <g
       transform="matrix(1.25,0,0,1.25,1046.4795,-8017.6529)"
       id="g3637" />
    <g
       transform="matrix(1.25,0,0,1.25,1046.4795,-8017.6529)"
       id="g3641" />
    <g
       transform="matrix(1.25,0,0,1.25,1046.4795,-8017.6529)"
       id="g3645" />
    <g
       transform="matrix(1.25,0,0,1.25,1046.4795,-8017.6529)"
       id="g3649" />
    <g
       transform="matrix(1.25,0,0,1.25,1046.4795,-8017.6529)"
       id="g3653" />
    <g
       transform="matrix(1.25,0,0,1.25,1046.4795,-8017.6529)"
       id="g3657" />
    <g
       transform="matrix(1.25,0,0,1.25,1046.4795,-8017.6529)"
       id="g3661" />
    <g
       transform="matrix(1.25,0,0,1.25,1046.4795,-8017.6529)"
       id="g3665" />
    <g
       transform="matrix(1.25,0,0,1.25,1046.4795,-8017.6529)"
       id="g3669" />
    <g
       transform="matrix(1.25,0,0,1.25,1046.4795,-8017.6529)"
       id="g3673" />
    <g
       transform="matrix(1.25,0,0,1.25,1046.4795,-8017.6529)"
       id="g3677" />
    <g
       transform="matrix(1.25,0,0,1.25,1046.4795,-8017.6529)"
       id="g3681" />
    <g
       transform="matrix(1.25,0,0,1.25,1046.4795,-8017.6529)"
       id="g3685" />
    <g
       transform="matrix(1.25,0,0,1.25,1046.4795,-8017.6529)"
       id="g3689" />
    <g
       transform="matrix(1.25,0,0,1.25,1046.4795,-8017.6529)"
       id="g3693" />
    <g
       transform="matrix(1.25,0,0,1.25,1046.4795,-8017.6529)"
       id="g3697" />
    <g
       transform="matrix(1.25,0,0,1.25,1046.4795,-8017.6529)"
       id="g3701" />
    <g
       transform="matrix(1.25,0,0,1.25,1046.4795,-8017.6529)"
       id="g3705" />
    <g
       transform="matrix(1.25,0,0,1.25,1046.4795,-8017.6529)"
       id="g3709" />
    <g
       transform="matrix(1.25,0,0,1.25,1046.4795,-8017.6529)"
       id="g3713" />
    <g
       transform="matrix(1.25,0,0,1.25,1046.4795,-8017.6529)"
       id="g3717" />
    <g
       transform="matrix(1.25,0,0,1.25,1046.4795,-8017.6529)"
       id="g3721" />
    <g
       transform="matrix(1.25,0,0,1.25,1046.4795,-8017.6529)"
       id="g3725" />
    <g
       transform="matrix(1.25,0,0,1.25,1046.4795,-8017.6529)"
       id="g3729" />
    <g
       transform="matrix(1.25,0,0,1.25,1046.4795,-8017.6529)"
       id="g3733" />
    <g
       transform="matrix(1.25,0,0,1.25,1046.4795,-8017.6529)"
       id="g3737" />
    <g
       transform="matrix(1.25,0,0,1.25,1046.4795,-8017.6529)"
       id="g3741" />
    <g
       transform="matrix(1.25,0,0,1.25,1046.4795,-8017.6529)"
       id="g3745" />
    <g
       transform="matrix(1.25,0,0,1.25,1046.4795,-8017.6529)"
       id="g3749" />
    <g
       transform="matrix(1.25,0,0,1.25,1046.4795,-8017.6529)"
       id="g3753" />
    <g
       transform="matrix(1.25,0,0,1.25,1046.4795,-8017.6529)"
       id="g3757" />
    <g
       transform="matrix(1.25,0,0,1.25,1046.4795,-8017.6529)"
       id="g3761" />
    <g
       transform="matrix(1.25,0,0,1.25,1046.4795,-8017.6529)"
       id="g3765" />
    <g
       transform="matrix(1.25,0,0,1.25,1046.4795,-8017.6529)"
       id="g3769" />
    <g
       transform="matrix(1.25,0,0,1.25,1046.4795,-8017.6529)"
       id="g3773" />
    <g
       transform="matrix(1.25,0,0,1.25,1046.4795,-8017.6529)"
       id="g3777" />
    <g
       transform="matrix(1.25,0,0,1.25,1046.4795,-8017.6529)"
       id="g3781" />
    <g
       transform="matrix(1.25,0,0,1.25,1046.4795,-8017.6529)"
       id="g3785" />
    <g
       transform="matrix(1.25,0,0,1.25,1046.4795,-8017.6529)"
       id="g3789" />
    <g
       transform="matrix(1.25,0,0,1.25,1046.4795,-8017.6529)"
       id="g3793" />
    <g
       transform="matrix(1.25,0,0,1.25,1046.4795,-8017.6529)"
       id="g3797" />
    <g
       transform="matrix(1.25,0,0,1.25,1046.4795,-8017.6529)"
       id="g3803" />
    <g
       transform="matrix(1.25,0,0,1.25,1046.4795,-8017.6529)"
       id="g3807" />
    <g
       transform="matrix(1.25,0,0,1.25,1046.4795,-8017.6529)"
       id="g3811" />
    <g
       transform="matrix(1.25,0,0,1.25,1046.4795,-8017.6529)"
       id="g3817" />
    <g
       transform="matrix(1.25,0,0,1.25,1046.4795,-8017.6529)"
       id="g3821" />
    <g
       transform="matrix(1.25,0,0,1.25,1046.4795,-8017.6529)"
       id="g3833" />
    <g
       transform="matrix(1.25,0,0,1.25,1046.4795,-8017.6529)"
       id="g3837" />
    <g
       transform="matrix(1.25,0,0,1.25,1046.4795,-8017.6529)"
       id="g3841" />
    <g
       transform="matrix(1.25,0,0,1.25,1046.4795,-8017.6529)"
       id="g3845" />
    <g
       transform="matrix(1.25,0,0,1.25,1046.4795,-8017.6529)"
       id="g3849" />
    <g
       transform="matrix(1.25,0,0,1.25,1046.4795,-8017.6529)"
       id="g3853" />
    <g
       transform="matrix(1.25,0,0,1.25,1046.4795,-8017.6529)"
       id="g3857" />
    <g
       transform="matrix(1.25,0,0,1.25,1046.4795,-8017.6529)"
       id="g3865" />
    <g
       transform="matrix(1.25,0,0,1.25,1046.4795,-8017.6529)"
       id="g3869" />
    <g
       transform="matrix(1.25,0,0,1.25,1046.4795,-8017.6529)"
       id="g3885" />
    <g
       style="font-size:123.45613098px;font-style:normal;font-weight:normal;line-height:125%;letter-spacing:0px;word-spacing:0px;fill:none;stroke:#000000;stroke-opacity:1;font-family:Sans"
       id="text8129" />
    <g
       style="font-size:123.45613098px;font-style:normal;font-weight:normal;line-height:125%;letter-spacing:0px;word-spacing:0px;fill:none;stroke:#000000;stroke-opacity:1;font-family:Sans"
       id="text8134" />
    <text
       xml:space="preserve"
       style="font-size:123.45613098px;font-style:normal;font-weight:normal;line-height:125%;letter-spacing:0px;word-spacing:0px;fill:#000000;fill-opacity:1;stroke:none;font-family:Sans"
       x="14825.353"
       y="-3042.7715"
       id="text9052"
       sodipodi:linespacing="125%"><tspan
         sodipodi:role="line"
         id="tspan9054"
         x="14825.353"
         y="-3042.7715" /></text>
    <g
       style="font-size:123.45613098px;font-style:normal;font-weight:normal;line-height:125%;letter-spacing:0px;word-spacing:0px;fill:none;stroke:#000000;stroke-opacity:1;font-family:Sans"
       id="text9274">
      <path
         id="path25213"
         style="fill:none;stroke:#000000;stroke-opacity:1"
         d="m 17254.884,-3044.6402 0,-11.0918 c 3.054,1.4468 6.148,2.552 9.283,3.3155 3.135,0.7636 6.209,1.1454 9.223,1.1454 8.037,0 14.166,-2.6926 18.386,-8.0777 4.26,-5.4253 6.691,-13.6437 7.294,-24.6551 -2.331,3.4562 -5.285,6.1085 -8.862,7.9571 -3.576,1.8487 -7.535,2.773 -11.875,2.773 -9.002,0 -16.135,-2.7127 -21.4,-8.138 -5.224,-5.4655 -7.836,-12.9203 -7.836,-22.3644 0,-9.243 2.732,-16.6576 8.198,-22.2438 5.465,-5.586 12.739,-8.379 21.822,-8.3791 10.408,1e-4 18.345,3.9988 23.811,11.996 5.505,7.9572 8.258,19.5312 8.258,34.722 0,14.1863 -3.375,25.5191 -10.127,33.9987 -6.711,8.4394 -15.753,12.6591 -27.126,12.6591 -3.055,0 -6.149,-0.3014 -9.284,-0.9042 -3.134,-0.6029 -6.39,-1.5071 -9.765,-2.7127 m 24.233,-38.1581 c 5.465,10e-5 9.785,-1.8687 12.96,-5.6061 3.215,-3.7374 4.823,-8.8613 4.823,-15.3718 0,-6.4701 -1.608,-11.5739 -4.823,-15.3114 -3.175,-3.7776 -7.495,-5.6664 -12.96,-5.6665 -5.466,1e-4 -9.806,1.8889 -13.021,5.6665 -3.175,3.7375 -4.762,8.8413 -4.762,15.3114 0,6.5105 1.587,11.6344 4.762,15.3718 3.215,3.7374 7.555,5.6062 13.021,5.6061 m 246.647,3748.30019 57.87,0 0,5.18419 -32.672,84.81581 -12.72,0 30.744,-79.75218 -43.222,0 0,-10.24782 m -1709.902,40.14736 c -5.465,5e-5 -9.805,1.86876 -13.02,5.60616 -3.175,3.73748 -4.763,8.86139 -4.763,15.37173 0,6.47022 1.588,11.59413 4.763,15.37174 3.215,3.73745 7.555,5.60617 13.02,5.60616 5.466,10e-6 9.786,-1.86871 12.961,-5.60616 3.215,-3.77761 4.822,-8.90152 4.822,-15.37174 0,-6.51034 -1.607,-11.63425 -4.822,-15.37173 -3.175,-3.7374 -7.495,-5.60611 -12.961,-5.60616 m 24.173,-38.15808 0,11.09177 c -3.054,-1.44668 -6.148,-2.55183 -9.283,-3.31548 -3.095,-0.76348 -6.169,-1.14526 -9.223,-1.14534 -8.038,8e-5 -14.186,2.71274 -18.446,8.13798 -4.22,5.42538 -6.631,13.62363 -7.234,24.59477 2.371,-3.49626 5.345,-6.16873 8.922,-8.01741 3.576,-1.88876 7.515,-2.83317 11.815,-2.83322 9.042,5e-5 16.175,2.7529 21.4,8.25854 5.264,5.46555 7.896,12.92033 7.897,22.36436 0,9.24316 -2.733,16.65775 -8.199,22.24381 -5.465,5.58607 -12.739,8.3791 -21.822,8.3791 -10.408,0 -18.365,-3.97856 -23.871,-11.9357 -5.506,-7.9973 -8.258,-19.5713 -8.258,-34.72204 0,-14.22633 3.375,-25.5592 10.127,-33.99866 6.751,-8.47948 15.814,-12.71926 27.187,-12.71936 3.054,10e-5 6.128,0.3015 9.223,0.90422 3.134,0.60291 6.389,1.50713 9.765,2.71266 M 17333.452,559.5596 c -20.659,11.1175 -39.365,16.67375 -56.118,16.67375 -8.237,0 -19.336,-2.075 -33.296,-6.225 -13.96,-4.2975 -23.73,-6.445 -29.316,-6.445 -9.356,0 -18.638,2.95875 -27.851,8.89125 -4.659,2.925 -8.927,6.49875 -12.804,10.7125 l 136.67,-0.54125 c 6.524,-4.0775 13.804,-7.91 21.885,-11.495 0.371,-3.66625 0.732,-7.32875 1.099,-10.99625 l -0.269,-0.575 z m -203.413,-86.3825 0,33.13 15.742,0 11.938,-33.13 -27.68,0 z m 47.993,-108.50625 c -2.515,8.30125 -6.005,14.3075 -10.474,18.01375 -4.467,3.55375 -9.911,5.33125 -16.332,5.33125 -6.299,0 -13.365,-1.445 -21.187,-4.32125 l 0,40.28375 c 0.864,0.0388 1.714,0.0588 2.549,0.0588 10.61,0 20.313,-2.66625 29.106,-8.00375 8.794,-5.33625 15.43,-12.52375 19.893,-21.5675 3.212,-6.82125 5.097,-16.7525 5.659,-29.795 l -9.214,0 z m 155.42,-204.17875 c -20.659,11.1175 -39.365,16.67375 -56.118,16.67375 -8.237,0 -19.336,-2.075 -33.296,-6.225 -13.96,-4.29625 -23.73,-6.445 -29.316,-6.445 -9.356,0 -18.638,2.96375 -27.851,8.89125 -9.215,5.78125 -16.89,14.0825 -23.033,24.9025 -3.911,7.265 -6.982,17.715 -9.214,31.3525 l 10.679,0 c 1.953,-11.5625 4.888,-19.4925 8.794,-23.79375 4.052,-4.44375 8.515,-6.67 13.402,-6.67 2.653,0 7.955,0.815 15.914,2.44625 20.381,3.8525 32.949,5.78125 37.695,5.78125 5.445,0 15.981,-2.66625 31.616,-8.0025 -15.776,12.5975 -27.011,24.6775 -33.711,36.24 -9.214,16.1575 -13.822,33.13 -13.822,50.9175 0,4.74625 0.21,10.60125 0.63,17.56875 -6.978,-0.7425 -13.12,-1.11375 -18.429,-1.11375 -8.651,0 -16.821,2.075 -24.501,6.22625 -7.677,4.00375 -13.819,9.63375 -18.423,16.89875 -2.935,4.8925 -5.24,12.15375 -6.915,21.7875 l 7.75,2.44625 c 4.048,-7.705 8.095,-12.89625 12.143,-15.56125 4.048,-2.8175 9.566,-4.22875 16.543,-4.22875 11.309,0 19.965,3.48625 25.967,10.45375 6.142,6.81625 9.566,19.195 10.263,37.12875 -8.935,0.7425 -16.055,2.745 -21.362,6.00625 -6.84,4.29625 -11.934,9.4875 -15.283,15.56125 -3.35,6.07875 -5.66,14.97625 -6.913,26.685 l 9.213,0 c 5.165,-12.74875 11.938,-19.12125 20.313,-19.12125 4.467,0 8.027,1.48 10.684,4.44875 2.651,2.96375 3.973,7.04 3.973,12.22625 0,6.81625 -1.816,13.78375 -5.443,20.89875 -3.629,7.11875 -11.588,17.27 -23.873,30.46375 -12.144,13.04125 -20.029,22.9 -23.662,29.57 -3.492,6.82125 -5.234,13.71625 -5.234,20.67875 0,5.78125 1.606,10.67375 4.814,14.6775 3.213,3.99875 6.495,6.00125 9.843,6.00125 2.653,0 5.025,-1.18625 7.12,-3.56 2.095,-2.3675 3.139,-5.405 3.139,-9.11125 0,-3.26125 -1.186,-6.675 -3.559,-10.22875 -3.35,-5.3375 -5.025,-9.415 -5.025,-12.2325 0,-3.99875 1.959,-8.52 5.865,-13.56375 5.167,-6.51875 14.097,-11.85625 26.802,-16.00625 12.705,-4.29625 27.221,-6.45 43.555,-6.45 14.521,0 28.832,1.7825 42.93,5.33625 9.677,2.4175 20.507,6.03125 32.436,10.7725 1.484,-15.09375 2.959,-30.18125 4.429,-45.26375 -17.379,-1.75375 -31.373,-2.6375 -41.895,-2.6375 -4.742,0 -11.934,0.22 -21.568,0.665 23.038,-22.2325 43.35,-37.725 60.938,-46.47 2.51,-1.245 5.025,-2.3975 7.543,-3.4675 0.255,-2.61625 0.509,-5.23875 0.758,-7.85125 0.125,-1.245 0.239,-2.485 0.356,-3.725 -2.725,1.06375 -5.469,2.21625 -8.237,3.48125 l 0,-55.80625 c 4.302,1.8025 8.56,3.38375 12.773,4.73625 0.342,-3.56875 0.674,-7.12875 1.012,-10.6975 -4.508,-1.47 -9.103,-3.18375 -13.785,-5.15625 l 0,-10.005 16.508,-13.73125 c 0.45,-4.79875 0.899,-9.59375 1.348,-14.38375 l -17.856,15.215 0,-46.02625 c 0,-17.33875 1.323,-29.8675 3.975,-37.5775 2.656,-7.705 8.378,-15.04375 17.172,-22.0125 1.646,-1.29875 3.458,-2.5975 5.435,-3.89625 0.464,-5.0825 0.928,-10.16125 1.386,-15.24375 -16.332,6.48875 -28.608,12.5775 -36.762,18.25125 -12.564,8.74625 -21.43,18.82875 -26.596,30.24 -5.025,11.41625 -7.54,28.90625 -7.54,52.475 l 0,75.59625 c 0,22.3825 -1.254,38.16875 -3.769,47.3625 -2.374,9.03875 -8.096,18.82375 -17.169,29.34625 -9.071,10.37625 -22.129,20.67875 -39.16,30.90875 12.285,-16.1575 20.171,-29.2775 23.663,-39.35625 3.632,-10.22875 5.448,-24.53125 5.448,-42.91 l 0,-103.8375 c 0,-25.9425 3.487,-44.62 10.469,-56.03 10.606,-17.34375 30.084,-31.87125 58.419,-43.58 l -4.395,-9.34 z m -203.413,-86.3825 0,33.13 15.742,0 11.938,-33.13 -27.68,0 z m 47.993,-108.50625 c -2.515,8.30125 -6.005,14.3025 -10.474,18.00875 -4.467,3.55875 -9.911,5.34125 -16.332,5.34125 -6.299,0 -13.365,-1.45 -21.187,-4.32625 l 0,40.28375 c 0.864,0.03375 1.714,0.05875 2.549,0.05875 10.61,0 20.313,-2.66625 29.106,-8.00375 8.794,-5.33625 15.43,-12.52375 19.893,-21.5675 3.212,-6.81625 5.097,-16.7475 5.659,-29.795 l -9.214,0 z m 155.42,-204.17875 c -20.659,11.1175 -39.365,16.675 -56.118,16.675 -8.237,0 -19.336,-2.07625 -33.296,-6.22625 -13.96,-4.29625 -23.73,-6.445 -29.316,-6.445 -9.356,0 -18.638,2.96375 -27.851,8.89125 -9.215,5.78125 -16.89,14.0825 -23.033,24.9025 -3.911,7.26625 -6.982,17.715 -9.214,31.3525 l 10.679,0 c 1.953,-11.5625 4.888,-19.4925 8.794,-23.78875 4.052,-4.44875 8.515,-6.67 13.402,-6.67 2.653,0 7.955,0.81 15.914,2.44125 20.381,3.8575 32.949,5.78125 37.695,5.78125 5.445,0 15.981,-2.66625 31.616,-8.0025 -15.776,12.6025 -27.011,24.6825 -33.711,36.245 -9.214,16.1575 -13.822,33.13 -13.822,50.9175 0,4.74125 0.21,10.59625 0.63,17.56375 -6.978,-0.7425 -13.12,-1.11375 -18.429,-1.11375 -8.651,0 -16.821,2.075 -24.501,6.22625 -7.677,4.00375 -13.819,9.63375 -18.423,16.89875 -2.935,4.8925 -5.24,12.15375 -6.915,21.7925 l 7.75,2.44125 c 4.048,-7.705 8.095,-12.895 12.143,-15.56125 4.048,-2.8175 9.566,-4.22375 16.543,-4.22375 11.309,0 19.965,3.48125 25.967,10.44875 6.142,6.81625 9.566,19.195 10.263,37.12875 -8.935,0.7425 -16.055,2.745 -21.362,6.00625 -6.84,4.2975 -11.934,9.4875 -15.283,15.56625 -3.35,6.075 -5.66,14.97125 -6.913,26.68 l 9.213,0 c 5.165,-12.74875 11.938,-19.12125 20.313,-19.12125 4.467,0 8.027,1.48 10.684,4.44375 2.651,2.96875 3.973,7.045 3.973,12.23125 0,6.82125 -1.816,13.78375 -5.443,20.90375 -3.629,7.11375 -11.588,17.265 -23.873,30.45875 -12.144,13.04125 -20.029,22.9 -23.662,29.57 -3.492,6.82125 -5.234,13.71125 -5.234,20.67875 0,5.78125 1.606,10.67375 4.814,14.6775 3.213,3.99875 6.495,6.00125 9.843,6.00125 2.653,0 5.025,-1.18625 7.12,-3.555 2.095,-2.3725 3.139,-5.41 3.139,-9.11625 0,-3.26125 -1.186,-6.67 -3.559,-10.22875 -3.35,-5.3375 -5.025,-9.415 -5.025,-12.2275 0,-4.00375 1.959,-8.525 5.865,-13.56375 5.167,-6.52375 14.097,-11.86 26.802,-16.01125 12.705,-4.29625 27.221,-6.45 43.555,-6.45 14.521,0 28.832,1.7825 42.93,5.3375 14.237,3.55875 30.917,9.63875 50.043,18.23625 l 22.114,-33.06125 c 0.781,-8.78375 1.558,-17.5675 2.334,-26.3425 -1.103,0.9175 -2.201,1.7625 -3.295,2.48 -5.308,3.56 -11.378,5.3375 -18.219,5.3375 -3.91,0 -8.446,-0.2975 -13.612,-0.88875 -18.565,-1.92875 -33.365,-2.89125 -44.395,-2.89125 -4.742,0 -11.934,0.22 -21.568,0.665 23.038,-22.23125 43.35,-37.725 60.938,-46.47 14.825,-7.37375 29.8,-11.62125 44.922,-12.78375 0.308,-3.49625 0.61,-6.98625 0.913,-10.4825 -14.429,0.55625 -29.565,4.4525 -45.415,11.70375 l 0,-55.81125 c 16.748,7.03125 32.842,10.65 48.286,10.88 0.297,-3.48625 0.596,-6.97375 0.894,-10.46 -15.162,-0.2675 -31.553,-4.10625 -49.18,-11.5325 l 0,-10.01 54.887,-45.64875 c 0.425,-5.035 0.855,-10.07375 1.275,-15.10375 l -56.162,47.8625 0,-46.03125 c 0,-17.34375 1.323,-29.8675 3.975,-37.5725 2.656,-7.71 8.378,-15.04875 17.172,-22.0125 8.794,-6.9675 22.408,-13.86125 40.835,-20.67875 l -3.979,-9.34 c -31.968,10.67375 -54.233,20.38 -66.797,29.13 -12.564,8.74625 -21.43,18.82375 -26.596,30.235 -5.025,11.41625 -7.54,28.90625 -7.54,52.475 l 0,75.60125 c 0,22.3825 -1.254,38.16875 -3.769,47.35875 -2.374,9.0425 -8.096,18.8225 -17.169,29.35 -9.071,10.37625 -22.129,20.67875 -39.16,30.90375 12.285,-16.1575 20.171,-29.2725 23.663,-39.35625 3.632,-10.22375 5.448,-24.53125 5.448,-42.91 l 0,-103.8375 c 0,-25.9375 3.487,-44.615 10.469,-56.03 10.606,-17.34375 30.084,-31.87 58.419,-43.58 l -4.395,-9.34 z m -203.413,-86.3825 0,33.13 15.742,0 11.938,-33.13 -27.68,0 z m 284.043,-9.8775 c -1.793,2.44625 -3.658,4.95625 -5.664,7.5875 -13.54,17.6425 -22.056,30.02 -25.547,37.13375 -3.349,7.26625 -5.024,13.565 -5.024,18.90125 0,7.705 2.3,14.22875 6.909,19.56625 4.605,5.4825 10.122,8.2275 16.542,8.2275 1.915,0 3.726,-0.21 5.455,-0.58625 0.713,-8.68125 1.411,-17.34875 2.119,-26.025 -1.363,0.12125 -3.043,0.39 -5.064,0.82 -2.651,0.7375 -4.741,1.10875 -6.279,1.10875 -2.51,0 -4.467,-0.7375 -5.865,-2.2225 -1.396,-1.48375 -2.093,-3.1875 -2.093,-5.11625 0,-3.555 1.816,-7.8575 5.443,-12.89625 2.559,-3.55 8.164,-9.13125 16.68,-16.66 0.802,-9.94625 1.597,-19.8975 2.388,-29.83875 z m -236.05,-98.6275 c -2.515,8.3 -6.005,14.30625 -10.474,18.0125 -4.467,3.55375 -9.911,5.33125 -16.332,5.33125 -6.299,0 -13.365,-1.445 -21.187,-4.32125 l 0,40.28375 c 0.864,0.0387 1.714,0.0638 2.549,0.0638 10.61,0 20.313,-2.67125 29.106,-8.00875 8.794,-5.33625 15.43,-12.52375 19.893,-21.56625 3.212,-6.8175 5.097,-16.74875 5.659,-29.795 l -9.214,0 z m 155.42,-204.18 c -20.659,11.1175 -39.365,16.675 -56.118,16.675 -8.237,0 -19.336,-2.07125 -33.296,-6.22125 -13.96,-4.30125 -23.73,-6.45 -29.316,-6.45 -9.356,0 -18.638,2.96375 -27.851,8.89125 -9.215,5.78125 -16.89,14.0825 -23.033,24.9025 -3.911,7.26625 -6.982,17.715 -9.214,31.3525 l 10.679,0 c 1.953,-11.5625 4.888,-19.4925 8.794,-23.78875 4.052,-4.44875 8.515,-6.675 13.402,-6.675 2.653,0 7.955,0.82 15.914,2.45125 20.381,3.8525 32.949,5.78125 37.695,5.78125 5.445,0 15.981,-2.67125 31.616,-8.0075 -15.776,12.5975 -27.011,24.6825 -33.711,36.245 -9.214,16.1575 -13.822,33.125 -13.822,50.9125 0,4.74625 0.21,10.60125 0.63,17.56875 -6.978,-0.7425 -13.12,-1.11375 -18.429,-1.11375 -8.651,0 -16.821,2.07625 -24.501,6.22625 -7.677,4.00375 -13.819,9.63375 -18.423,16.89875 -2.935,4.8925 -5.24,12.15875 -6.915,21.7925 l 7.75,2.44625 c 4.048,-7.71 8.095,-12.9 12.143,-15.56625 4.048,-2.8175 9.566,-4.22375 16.543,-4.22375 11.309,0 19.965,3.48125 25.967,10.44875 6.142,6.81625 9.566,19.195 10.263,37.13375 -8.935,0.7375 -16.055,2.74 -21.362,6.00125 -6.84,4.3025 -11.934,9.4875 -15.283,15.56625 -3.35,6.075 -5.66,14.97125 -6.913,26.68 l 9.213,0 c 5.165,-12.74875 11.938,-19.12125 20.313,-19.12125 4.467,0 8.027,1.48 10.684,4.44875 2.651,2.96375 3.973,7.03625 3.973,12.22625 0,6.81625 -1.816,13.78875 -5.443,20.90375 -3.629,7.11375 -11.588,17.265 -23.873,30.45875 -12.144,13.04625 -20.029,22.9 -23.662,29.575 -3.492,6.81625 -5.234,13.71125 -5.234,20.67375 0,5.78125 1.606,10.67375 4.814,14.6775 3.213,4.00375 6.495,6.00125 9.843,6.00125 2.653,0 5.025,-1.18125 7.12,-3.555 2.095,-2.3725 3.139,-5.41 3.139,-9.11625 0,-3.26125 -1.186,-6.67 -3.559,-10.22875 -3.35,-5.3375 -5.025,-9.415 -5.025,-12.23125 0,-4 1.959,-8.52125 5.865,-13.56 5.167,-6.52375 14.097,-11.86 26.802,-16.01125 12.705,-4.29625 27.221,-6.445 43.555,-6.445 14.521,0 28.832,1.7775 42.93,5.3325 14.237,3.55875 30.917,9.63875 50.043,18.2325 l 46.699,-69.815 -9.004,-5.33625 c -5.586,8.5975 -11.098,14.6775 -16.542,18.23125 -5.308,3.56 -11.378,5.3375 -18.219,5.3375 -3.91,0 -8.446,-0.2975 -13.612,-0.88875 -18.565,-1.92875 -33.365,-2.89 -44.395,-2.89 -4.742,0 -11.934,0.21875 -21.568,0.66375 23.038,-22.23125 43.35,-37.725 60.938,-46.47 17.588,-8.745 35.391,-13.115 53.398,-13.115 7.583,0 15.64,1.255 24.155,3.745 0.264,-3.39875 0.528,-6.7975 0.797,-10.195 -1.842,-0.5125 -3.604,-0.9675 -5.269,-1.33375 -7.26,-1.63 -15.146,-2.44625 -23.663,-2.44625 -15.497,0 -31.83,3.93125 -48.998,11.7875 l 0,-55.81125 c 17.31,7.26125 33.921,10.89375 49.833,10.89375 8.799,0 16.754,-0.815 23.873,-2.44625 2.3,-0.57125 4.79,-1.3175 7.436,-2.1975 0.274,-3.6075 0.553,-7.21125 0.83,-10.82 -2.29,0.84 -4.491,1.5575 -6.586,2.12375 -6.983,1.925 -15.146,2.89125 -24.503,2.89125 -15.635,0 -32.597,-3.8575 -50.883,-11.5625 l 0,-10.005 55.073,-45.805 c 13.297,7.95375 23.247,15.77625 29.859,23.47625 1.391,-18.355 2.768,-36.695 4.13,-55.02 -2.382,-1.70375 -4.824,-3.4125 -7.397,-5.14125 l -81.665,69.59 0,-46.02625 c 0,-17.33875 1.323,-29.8675 3.975,-37.5725 2.656,-7.71 8.378,-15.04375 17.172,-22.0125 8.794,-6.9675 22.408,-13.86125 40.835,-20.67875 l -3.979,-9.34 c -31.968,10.67375 -54.233,20.38125 -66.797,29.12625 -12.564,8.745 -21.43,18.8275 -26.596,30.24375 -5.025,11.41125 -7.54,28.90125 -7.54,52.47 l 0,75.60125 c 0,22.3825 -1.254,38.16875 -3.769,47.35875 -2.374,9.0425 -8.096,18.8225 -17.169,29.35 -9.071,10.37625 -22.129,20.67875 -39.16,30.90375 12.285,-16.1575 20.171,-29.2725 23.663,-39.35625 3.632,-10.22375 5.448,-24.53125 5.448,-42.91 l 0,-103.8375 c 0,-25.9425 3.487,-44.61875 10.469,-56.03 10.606,-17.34375 30.084,-31.87 58.419,-43.58 l -4.395,-9.34 z m -203.413,-86.3825 0,33.13 15.742,0 11.938,-33.13 -27.68,0 z m 47.993,-108.505 c -2.515,8.3 -6.005,14.30625 -10.474,18.0125 -4.467,3.555 -9.911,5.33625 -16.332,5.33625 -6.299,0 -13.365,-1.45 -21.187,-4.32625 l 0,40.28375 c 0.864,0.0388 1.714,0.0588 2.549,0.0588 10.61,0 20.313,-2.66625 29.106,-8.0025 8.794,-5.3375 15.43,-12.525 19.893,-21.5675 3.212,-6.8175 5.097,-16.74875 5.659,-29.795 l -9.214,0 z m 264.936,-35.86 0,57.13875 c -10.889,-4.595 -20.029,-7.705 -27.431,-9.33625 -7.26,-1.63 -15.146,-2.44625 -23.663,-2.44625 -15.497,0 -31.83,3.92625 -48.998,11.7825 l 0,-55.805 c 17.31,7.26 33.921,10.8925 49.833,10.8925 8.799,0 16.754,-0.815 23.873,-2.44625 7.124,-1.77625 15.917,-5.03875 26.386,-9.78 z m -45.019,-65.595 c 14.38,8.59875 24.849,17.05 31.412,25.35125 6.557,8.14875 11.093,17.71 13.607,28.68125 -9.35,5.03875 -17.587,8.52125 -24.706,10.45 -6.983,1.92875 -15.146,2.89 -24.503,2.89 -15.635,0 -32.597,-3.8525 -50.883,-11.5625 l 0,-10.005 55.073,-45.805 z m -64.497,-102.725 c -20.659,11.1175 -39.365,16.68 -56.118,16.68 -8.237,0 -19.336,-2.08 -33.296,-6.2312 -13.96,-4.2963 -23.73,-6.445 -29.316,-6.445 -9.356,0 -18.638,2.9637 -27.851,8.8962 -9.215,5.7813 -16.89,14.0775 -23.033,24.9025 -3.911,7.26125 -6.982,17.71 -9.214,31.3475 l 10.679,0 c 1.953,-11.5625 4.888,-19.4925 8.794,-23.78875 4.052,-4.44875 8.515,-6.67 13.402,-6.67 2.653,0 7.955,0.815 15.914,2.44625 20.381,3.8525 32.949,5.77625 37.695,5.77625 5.445,0 15.981,-2.66625 31.616,-8.0025 -15.776,12.6025 -27.011,24.6825 -33.711,36.245 -9.214,16.1575 -13.822,33.13 -13.822,50.9175 0,4.74125 0.21,10.59625 0.63,17.56375 -6.978,-0.7425 -13.12,-1.11375 -18.429,-1.11375 -8.651,0 -16.821,2.07625 -24.501,6.22625 -7.677,4.00375 -13.819,9.63875 -18.423,16.89875 -2.935,4.89375 -5.24,12.15375 -6.915,21.7925 l 7.75,2.44625 c 4.048,-7.71 8.095,-12.895 12.143,-15.56625 4.048,-2.8175 9.566,-4.22375 16.543,-4.22375 11.309,0 19.965,3.48125 25.967,10.44875 6.142,6.8175 9.566,19.2 10.263,37.13375 -8.935,0.7425 -16.055,2.745 -21.362,6.00125 -6.84,4.3025 -11.934,9.4875 -15.283,15.56625 -3.35,6.075 -5.66,14.97125 -6.913,26.68 l 9.213,0 c 5.165,-12.74375 11.938,-19.12125 20.313,-19.12125 4.467,0 8.027,1.485 10.684,4.44875 2.651,2.96375 3.973,7.04125 3.973,12.22625 0,6.82125 -1.816,13.78375 -5.443,20.90375 -3.629,7.11375 -11.588,17.27 -23.873,30.45875 -12.144,13.04625 -20.029,22.905 -23.662,29.575 -3.492,6.81625 -5.234,13.71125 -5.234,20.67875 0,5.78125 1.606,10.66875 4.814,14.6725 3.213,4 6.495,6.00125 9.843,6.00125 2.653,0 5.025,-1.18125 7.12,-3.555 2.095,-2.3725 3.139,-5.41 3.139,-9.11625 0,-3.26125 -1.186,-6.67 -3.559,-10.22875 -3.35,-5.3375 -5.025,-9.41375 -5.025,-12.22625 0,-4.005 1.959,-8.52625 5.865,-13.565 5.167,-6.52375 14.097,-11.86 26.802,-16.01125 12.705,-4.29625 27.221,-6.445 43.555,-6.445 14.521,0 28.832,1.7775 42.93,5.3375 14.237,3.55375 30.917,9.63375 50.043,18.2325 l 46.699,-69.82 -9.004,-5.33625 c -5.586,8.59875 -11.098,14.6775 -16.542,18.2325 -5.308,3.55875 -11.378,5.33625 -18.219,5.33625 -3.91,0 -8.446,-0.2975 -13.612,-0.88875 -18.565,-1.92875 -33.365,-2.89 -44.395,-2.89 -4.742,0 -11.934,0.22375 -21.568,0.66875 23.038,-22.23625 43.35,-37.73 60.938,-46.475 17.588,-8.745 35.391,-13.115 53.398,-13.115 14.097,0 29.805,4.29625 47.114,12.895 -1.532,13.0425 -4.326,24.16 -8.374,33.355 -3.911,9.0375 -12.636,22.45625 -26.176,40.24375 -13.54,17.6375 -22.056,30.015 -25.547,37.12875 -3.349,7.26625 -5.024,13.565 -5.024,18.90125 0,7.70625 2.3,14.22875 6.909,19.56625 4.605,5.48375 10.122,8.2275 16.542,8.2275 6.001,0 11.099,-1.85625 15.284,-5.56125 3.071,-2.66625 4.61,-6.075 4.61,-10.225 0,-3.41375 -0.909,-6.07875 -2.72,-8.0075 -1.816,-1.92375 -4.541,-2.89125 -8.169,-2.89125 -1.534,0 -3.701,0.2975 -6.495,0.89375 -2.651,0.7425 -4.741,1.10875 -6.279,1.10875 -2.51,0 -4.467,-0.7425 -5.865,-2.2225 -1.396,-1.48375 -2.093,-3.1875 -2.093,-5.11125 0,-3.56 1.816,-7.8575 5.443,-12.90125 3.633,-5.03875 13.263,-14.08125 28.897,-27.12375 7.461,-6.245 14.111,-12.10875 20.063,-17.64125 0.968,-13.6475 1.929,-27.295 2.882,-40.9275 3.97,-56.915 7.822,-113.70125 11.562,-170.39125 -8.457,-8.60875 -19.746,-17.67125 -33.877,-27.1825 l -81.665,69.595 0,-46.02625 c 0,-17.34375 1.323,-29.8675 3.975,-37.5775 2.656,-7.71 8.378,-15.04875 17.172,-22.01125 8.794,-6.9687 22.408,-13.8625 40.835,-20.6787 l -3.979,-9.3413 c -31.968,10.6738 -54.233,20.3813 -66.797,29.1313 -12.564,8.74495 -21.43,18.82245 -26.596,30.2387 -5.025,11.41125 -7.54,28.90125 -7.54,52.47125 l 0,75.6 c 0,22.3825 -1.254,38.16875 -3.769,47.35875 -2.374,9.0425 -8.096,18.8275 -17.169,29.35 -9.071,10.37625 -22.129,20.67875 -39.16,30.90875 12.285,-16.1575 20.171,-29.2775 23.663,-39.35625 3.632,-10.22875 5.448,-24.535 5.448,-42.915 l 0,-103.8375 c 0,-25.9375 3.487,-44.61375 10.469,-56.03 10.606,-17.3437 30.084,-31.87 58.419,-43.5787 l -4.395,-9.3413 z m 133.291,-35.7375 c -1.641,2.695 -3.105,5.655 -4.39,8.8825 -2.372,5.9275 -3.559,14.0088 -3.559,24.2325 l 5.752,1.455 c 0.737,-11.5275 1.47,-23.0512 2.197,-34.57 z m -336.704,-50.645 0,33.13 15.742,0 11.938,-33.13 -27.68,0 z m 47.993,-108.5 c -2.515,8.3 -6.005,14.3013 -10.474,18.0075 -4.467,3.56 -9.911,5.3363 -16.332,5.3363 -6.299,0 -13.365,-1.45 -21.187,-4.3213 l 0,40.2838 c 0.864,0.034 1.714,0.059 2.549,0.059 10.61,0 20.313,-2.6712 29.106,-8.0075 8.794,-5.3325 15.43,-12.525 19.893,-21.5675 3.212,-6.8162 5.097,-16.7487 5.659,-29.79 l -9.214,0 z m 264.936,-35.865 0,57.1438 c -10.889,-4.595 -20.029,-7.71 -27.431,-9.3413 -7.26,-1.63 -15.146,-2.4462 -23.663,-2.4462 -15.497,0 -31.83,3.9312 -48.998,11.7875 l 0,-55.81 c 17.31,7.265 33.921,10.8937 49.833,10.8937 8.799,0 16.754,-0.8162 23.873,-2.4475 7.124,-1.7762 15.917,-5.0387 26.386,-9.78 z m -45.019,-65.59 c 14.38,8.5938 24.849,17.04 31.412,25.3413 6.557,8.1537 11.093,17.715 13.607,28.6862 -9.35,5.04 -17.587,8.5263 -24.706,10.45 -6.983,1.9288 -15.146,2.89 -24.503,2.89 -15.635,0 -32.597,-3.8525 -50.883,-11.5625 l 0,-10.005 55.073,-45.8 z m -64.497,-102.725 c -20.659,11.1138 -39.365,16.675 -56.118,16.675 -8.237,0 -19.336,-2.075 -33.296,-6.2262 -13.96,-4.3013 -23.73,-6.45 -29.316,-6.45 -9.356,0 -18.638,2.9637 -27.851,8.8912 -9.215,5.7813 -16.89,14.0875 -23.033,24.9075 -3.911,7.2613 -6.982,17.71 -9.214,31.3475 l 10.679,0 c 1.953,-11.5625 4.888,-19.4912 8.794,-23.7887 4.052,-4.4488 8.515,-6.67 13.402,-6.67 2.653,0 7.955,0.815 15.914,2.4462 20.381,3.8525 32.949,5.7813 37.695,5.7813 5.445,0 15.981,-2.6713 31.616,-8.0075 -15.776,12.6025 -27.011,24.6825 -33.711,36.245 -9.214,16.1575 -13.822,33.13 -13.822,50.9175 0,4.7412 0.21,10.5962 0.63,17.5637 -6.978,-0.7425 -13.12,-1.1125 -18.429,-1.1125 -8.651,0 -16.821,2.08 -24.501,6.23 -7.677,3.9988 -13.819,9.6338 -18.423,16.895 -2.935,4.8925 -5.24,12.1575 -6.915,21.7913 l 7.75,2.4462 c 4.048,-7.71 8.095,-12.895 12.143,-15.5662 4.048,-2.8125 9.566,-4.2238 16.543,-4.2238 11.309,0 19.965,3.4813 25.967,10.45 6.142,6.8213 9.566,19.1988 10.263,37.1338 -8.935,0.7412 -16.055,2.7387 -21.362,6 -6.84,4.3025 -11.934,9.4875 -15.283,15.5662 -3.35,6.075 -5.66,14.9713 -6.913,26.68 l 9.213,0 c 5.165,-12.7487 11.938,-19.1212 20.313,-19.1212 4.467,0 8.027,1.485 10.684,4.4487 2.651,2.9638 3.973,7.0413 3.973,12.2263 0,6.8212 -1.816,13.7887 -5.443,20.9037 -3.629,7.1138 -11.588,17.27 -23.873,30.4638 -12.144,13.0425 -20.029,22.895 -23.662,29.57 -3.492,6.8162 -5.234,13.7112 -5.234,20.6787 0,5.7813 1.606,10.6688 4.814,14.6725 3.213,4.005 6.495,6.0063 9.843,6.0063 2.653,0 5.025,-1.1863 7.12,-3.56 2.095,-2.3725 3.139,-5.41 3.139,-9.1163 0,-3.2612 -1.186,-6.6687 -3.559,-10.2287 -3.35,-5.3375 -5.025,-9.4088 -5.025,-12.2263 0,-4.0037 1.959,-8.5262 5.865,-13.565 5.167,-6.5237 14.097,-11.86 26.802,-16.0112 12.705,-4.2963 27.221,-6.445 43.555,-6.445 14.521,0 28.832,1.7775 42.93,5.3375 14.237,3.555 30.917,9.6337 50.043,18.2325 l 46.699,-69.82 -9.004,-5.3363 c -5.586,8.5988 -11.098,14.6775 -16.542,18.2325 -5.308,3.5588 -11.378,5.3363 -18.219,5.3363 -3.91,0 -8.446,-0.2975 -13.612,-0.8888 -18.565,-1.9287 -33.365,-2.89 -44.395,-2.89 -4.742,0 -11.934,0.2238 -21.568,0.6688 23.038,-22.2363 43.35,-37.725 60.938,-46.47 17.588,-8.75 35.391,-13.12 53.398,-13.12 14.097,0 29.805,4.2975 47.114,12.895 -1.532,13.0475 -4.326,24.1612 -8.374,33.35 -3.911,9.0425 -12.636,22.4612 -26.176,40.2487 -13.54,17.6375 -22.056,30.015 -25.547,37.1288 -3.349,7.2662 -5.024,13.565 -5.024,18.9025 0,7.71 2.3,14.2275 6.909,19.565 4.605,5.4837 10.122,8.2275 16.542,8.2275 6.001,0 11.099,-1.8513 15.284,-5.5563 3.071,-2.6712 4.61,-6.08 4.61,-10.23 0,-3.4087 -0.909,-6.0787 -2.72,-8.0025 -1.816,-1.9287 -4.541,-2.8912 -8.169,-2.8912 -1.534,0 -3.701,0.2937 -6.495,0.8887 -2.651,0.7375 -4.741,1.1138 -6.279,1.1138 -2.51,0 -4.467,-0.7425 -5.865,-2.2275 -1.396,-1.4838 -2.093,-3.1875 -2.093,-5.1113 0,-3.56 1.816,-7.8575 5.443,-12.8962 3.633,-5.0438 13.263,-14.0863 28.897,-27.1288 21.782,-18.2325 37.133,-33.4225 46.07,-45.5812 0.825,-1.1125 1.601,-2.2263 2.348,-3.34 2.934,-48.0463 5.767,-95.995 8.535,-143.8813 -2.797,-10.22 -8.588,-20.44 -17.373,-30.655 -8.794,-10.2287 -21.777,-21.1225 -38.95,-32.685 l -81.665,69.595 0,-46.025 c 0,-17.3437 1.323,-29.8687 3.975,-37.5787 2.656,-7.705 8.378,-15.0438 17.172,-22.0113 8.794,-6.9687 22.408,-13.8625 40.835,-20.6787 l -3.979,-9.3363 c -31.968,10.6688 -54.233,20.3813 -66.797,29.1263 -12.564,8.745 -21.43,18.8225 -26.596,30.2387 -5.025,11.4113 -7.54,28.9063 -7.54,52.4713 l 0,75.6 c 0,22.3825 -1.254,38.1687 -3.769,47.3587 -2.374,9.0425 -8.096,18.8275 -17.169,29.35 -9.071,10.3763 -22.129,20.6788 -39.16,30.9088 12.285,-16.1575 20.171,-29.2775 23.663,-39.355 3.632,-10.23 5.448,-24.5363 5.448,-42.9163 l 0,-103.8375 c 0,-25.9375 3.487,-44.6137 10.469,-56.03 10.606,-17.3437 30.084,-31.87 58.419,-43.5787 l -4.395,-9.3363 z m 157.661,-54.585 c -4.457,1.1713 -8.74,3.2225 -12.846,6.1575 -6.841,4.8925 -12.144,12.08 -15.914,21.5675 -2.372,5.9275 -3.559,14.0088 -3.559,24.2325 l 8.794,2.2275 c 1.26,-6.5237 3.423,-11.265 6.494,-14.2287 3.071,-2.8175 6.562,-4.2288 10.469,-4.2288 0.971,0 2.525,0.2738 4.595,0.7863 0.663,-12.1775 1.313,-24.3463 1.967,-36.5138 z m -361.074,-31.8012 0,33.1337 15.742,0 11.938,-33.1337 -27.68,0 z m 47.993,-108.5063 c -2.515,8.3 -6.005,14.3063 -10.474,18.0125 -4.467,3.56 -9.911,5.3375 -16.332,5.3375 -6.299,0 -13.365,-1.4512 -21.187,-4.3212 l 0,40.2825 c 0.864,0.034 1.714,0.059 2.549,0.059 10.61,0 20.313,-2.6662 29.106,-8.0025 8.794,-5.3375 15.43,-12.53 19.893,-21.5725 3.212,-6.8162 5.097,-16.7487 5.659,-29.795 l -9.214,0 z m 322.129,-34.58 c -0.767,2.3 -1.504,4.6925 -2.207,7.1675 l 1.807,0.7913 c 0.136,-2.6563 0.268,-5.3075 0.4,-7.9588 z m -57.193,-1.28 0,57.1438 c -10.889,-4.595 -20.029,-7.71 -27.431,-9.34 -7.26,-1.6313 -15.146,-2.4463 -23.663,-2.4463 -15.497,0 -31.83,3.93 -48.998,11.7863 l 0,-55.81 c 17.31,7.265 33.921,10.8937 49.833,10.8937 8.799,0 16.754,-0.8112 23.873,-2.4425 7.124,-1.7812 15.917,-5.0437 26.386,-9.785 z m -45.019,-65.595 c 14.38,8.5988 24.849,17.05 31.412,25.3513 6.557,8.15 11.093,17.715 13.607,28.6812 -9.35,5.04 -17.587,8.5213 -24.706,10.45 -6.983,1.9288 -15.146,2.89 -24.503,2.89 -15.635,0 -32.597,-3.8525 -50.883,-11.5625 l 0,-10.005 55.073,-45.805 z m -64.497,-102.725 c -20.659,11.1188 -39.365,16.68 -56.118,16.68 -8.237,0 -19.336,-2.075 -33.296,-6.2262 -13.96,-4.3013 -23.73,-6.45 -29.316,-6.45 -9.356,0 -18.638,2.9637 -27.851,8.8962 -9.215,5.7813 -16.89,14.0825 -23.033,24.9025 -3.911,7.2663 -6.982,17.71 -9.214,31.3475 l 10.679,0 c 1.953,-11.5625 4.888,-19.4912 8.794,-23.7887 4.052,-4.4475 8.515,-6.67 13.402,-6.67 2.653,0 7.955,0.8162 15.914,2.4462 20.381,3.8525 32.949,5.7813 37.695,5.7813 5.445,0 15.981,-2.67 31.616,-8.0025 -15.776,12.5975 -27.011,24.6775 -33.711,36.24 -9.214,16.1575 -13.822,33.13 -13.822,50.9175 0,4.7412 0.21,10.5962 0.63,17.5637 -6.978,-0.7412 -13.12,-1.1075 -18.429,-1.1075 -8.651,0 -16.821,2.075 -24.501,6.225 -7.677,3.9988 -13.819,9.6338 -18.423,16.9 -2.935,4.8875 -5.24,12.1525 -6.915,21.7863 l 7.75,2.4462 c 4.048,-7.71 8.095,-12.895 12.143,-15.5662 4.048,-2.8175 9.566,-4.2238 16.543,-4.2238 11.309,0 19.965,3.4863 25.967,10.45 6.142,6.8213 9.566,19.1988 10.263,37.1338 -8.935,0.7412 -16.055,2.7437 -21.362,6 -6.84,4.3025 -11.934,9.4875 -15.283,15.5675 -3.35,6.0787 -5.66,14.97 -6.913,26.6787 l 9.213,0 c 5.165,-12.7437 11.938,-19.1212 20.313,-19.1212 4.467,0 8.027,1.485 10.684,4.4487 2.651,2.9638 3.973,7.0413 3.973,12.2313 0,6.8162 -1.816,13.785 -5.443,20.8987 -3.629,7.1138 -11.588,17.27 -23.873,30.4588 -12.144,13.0475 -20.029,22.905 -23.662,29.575 -3.492,6.8162 -5.234,13.7112 -5.234,20.6787 0,5.7813 1.606,10.6738 4.814,14.6738 3.213,4.0037 6.495,6.005 9.843,6.005 2.653,0 5.025,-1.1863 7.12,-3.5588 2.095,-2.3737 3.139,-5.4112 3.139,-9.1162 0,-3.2625 -1.186,-6.67 -3.559,-10.23 -3.35,-5.3325 -5.025,-9.4088 -5.025,-12.2263 0,-4.0037 1.959,-8.5262 5.865,-13.565 5.167,-6.5237 14.097,-11.855 26.802,-16.0062 12.705,-4.3013 27.221,-6.45 43.555,-6.45 14.521,0 28.832,1.7775 42.93,5.3375 14.237,3.56 30.917,9.6337 50.043,18.2325 l 46.699,-69.82 -9.004,-5.3363 c -5.586,8.5988 -11.098,14.6775 -16.542,18.2325 -5.308,3.5588 -11.378,5.3363 -18.219,5.3363 -3.91,0 -8.446,-0.2925 -13.612,-0.8888 -18.565,-1.9237 -33.365,-2.89 -44.395,-2.89 -4.742,0 -11.934,0.225 -21.568,0.6688 23.038,-22.2363 43.35,-37.725 60.938,-46.47 17.588,-8.745 35.391,-13.12 53.398,-13.12 14.097,0 29.805,4.2975 47.114,12.8962 -1.532,13.0463 -4.326,24.16 -8.374,33.3538 -3.911,9.0387 -12.636,22.4562 -26.176,40.2437 -13.54,17.6375 -22.056,30.015 -25.547,37.13 -3.349,7.265 -5.024,13.5638 -5.024,18.9013 0,7.71 2.3,14.2325 6.909,19.565 4.605,5.4887 10.122,8.2275 16.542,8.2275 6.001,0 11.099,-1.85 15.284,-5.5563 3.071,-2.6712 4.61,-6.08 4.61,-10.23 0,-3.4075 -0.909,-6.0787 -2.72,-8.0025 -1.816,-1.9287 -4.541,-2.8912 -8.169,-2.8912 -1.534,0 -3.701,0.2937 -6.495,0.8887 -2.651,0.7425 -4.741,1.1088 -6.279,1.1088 -2.51,0 -4.467,-0.7375 -5.865,-2.2213 -1.396,-1.48 -2.093,-3.1837 -2.093,-5.1125 0,-3.56 1.816,-7.8562 5.443,-12.8962 3.633,-5.0388 13.263,-14.0813 28.897,-27.1288 21.782,-18.2325 37.133,-33.4225 46.07,-45.5812 6.142,-8.3 10.195,-16.6738 12.148,-25.1263 2.094,-8.4475 3.139,-21.3425 3.139,-38.6862 l 0,-33.13 c 0,-23.2725 -1.465,-40.025 -4.399,-50.25 -2.793,-10.2288 -8.583,-20.4588 -17.378,-30.6825 -8.794,-10.23 -21.777,-21.1238 -38.95,-32.6863 l -81.665,69.595 0,-46.025 c 0,-17.3437 1.323,-29.8687 3.975,-37.5787 2.656,-7.71 8.378,-15.0438 17.172,-22.0113 8.794,-6.9675 22.408,-13.8575 40.835,-20.6787 l -3.979,-9.3413 c -31.968,10.6738 -54.233,20.3863 -66.797,29.1313 -12.564,8.745 -21.43,18.8225 -26.596,30.2387 -5.025,11.4113 -7.54,28.9063 -7.54,52.4763 l 0,75.595 c 0,22.3825 -1.254,38.1687 -3.769,47.3587 -2.374,9.0425 -8.096,18.8275 -17.169,29.35 -9.071,10.3763 -22.129,20.6788 -39.16,30.9088 12.285,-16.1575 20.171,-29.2775 23.663,-39.355 3.632,-10.23 5.448,-24.5313 5.448,-42.915 l 0,-103.8338 c 0,-25.9425 3.487,-44.6187 10.469,-56.035 10.606,-17.3387 30.084,-31.87 58.419,-43.5787 l -4.395,-9.3413 z m -203.413,-86.3762 0,33.125 15.742,0 11.938,-33.125 -27.68,0 z m 47.993,-108.5063 c -2.515,8.3 -6.005,14.3013 -10.474,18.0075 -4.467,3.56 -9.911,5.3375 -16.332,5.3375 -6.299,0 -13.365,-1.4462 -21.187,-4.3212 l 0,40.2825 c 0.864,0.035 1.714,0.059 2.549,0.059 10.61,0 20.313,-2.6662 29.106,-8.0025 8.794,-5.3375 15.43,-12.525 19.893,-21.5675 3.212,-6.8212 5.097,-16.7537 5.659,-29.795 l -9.214,0 z m 264.936,-35.865 0,57.1438 c -10.889,-4.5938 -20.029,-7.71 -27.431,-9.34 -7.26,-1.6313 -15.146,-2.4463 -23.663,-2.4463 -15.497,0 -31.83,3.93 -48.998,11.7863 l 0,-55.81 c 17.31,7.265 33.921,10.8987 49.833,10.8987 8.799,0 16.754,-0.8212 23.873,-2.4512 7.124,-1.7775 15.917,-5.04 26.386,-9.7813 z m -45.019,-65.59 c 14.38,8.5938 24.849,17.0463 31.412,25.3463 6.557,8.15 11.093,17.715 13.607,28.6812 -9.35,5.04 -17.587,8.5263 -24.706,10.45 -6.983,1.9288 -15.146,2.89 -24.503,2.89 -15.635,0 -32.597,-3.8525 -50.883,-11.5625 l 0,-10.005 55.073,-45.8 z m -64.497,-102.725 c -20.659,11.1138 -39.365,16.675 -56.118,16.675 -8.237,0 -19.336,-2.075 -33.296,-6.2262 -13.96,-4.2963 -23.73,-6.45 -29.316,-6.45 -9.356,0 -18.638,2.9637 -27.851,8.8975 -9.215,5.7812 -16.89,14.0812 -23.033,24.9012 -3.911,7.2613 -6.982,17.715 -9.214,31.3525 l 10.679,0 c 1.953,-11.5625 4.888,-19.4912 8.794,-23.7937 4.052,-4.4475 8.515,-6.67 13.402,-6.67 2.653,0 7.955,0.8162 15.914,2.4462 20.381,3.8525 32.949,5.7813 37.695,5.7813 5.445,0 15.981,-2.665 31.616,-8.0025 -15.776,12.5975 -27.011,24.6775 -33.711,36.24 -9.214,16.1575 -13.822,33.13 -13.822,50.9187 0,4.745 0.21,10.6 0.63,17.5625 -6.978,-0.7362 -13.12,-1.1075 -18.429,-1.1075 -8.651,0 -16.821,2.075 -24.501,6.225 -7.677,3.9988 -13.819,9.6338 -18.423,16.895 -2.935,4.8925 -5.24,12.1575 -6.915,21.7913 l 7.75,2.4462 c 4.048,-7.71 8.095,-12.895 12.143,-15.5662 4.048,-2.8125 9.566,-4.2238 16.543,-4.2238 11.309,0 19.965,3.4863 25.967,10.455 6.142,6.8163 9.566,19.1938 10.263,37.1288 -8.935,0.7412 -16.055,2.7437 -21.362,6.005 -6.84,4.2975 -11.934,9.4875 -15.283,15.5625 -3.35,6.0787 -5.66,14.97 -6.913,26.6837 l 9.213,0 c 5.165,-12.7487 11.938,-19.125 20.313,-19.125 4.467,0 8.027,1.4838 10.684,4.4475 2.651,2.9638 3.973,7.0413 3.973,12.2313 0,6.8162 -1.816,13.785 -5.443,20.8987 -3.629,7.1138 -11.588,17.27 -23.873,30.4638 -12.144,13.0425 -20.029,22.9 -23.662,29.57 -3.492,6.8162 -5.234,13.7112 -5.234,20.6787 0,5.7813 1.606,10.6738 4.814,14.6738 3.213,4.0037 6.495,6.005 9.843,6.005 2.653,0 5.025,-1.1863 7.12,-3.5588 2.095,-2.3737 3.139,-5.41 3.139,-9.1162 0,-3.2625 -1.186,-6.67 -3.559,-10.225 -3.35,-5.3375 -5.025,-9.4138 -5.025,-12.2313 0,-3.9987 1.959,-8.525 5.865,-13.565 5.167,-6.5225 14.097,-11.855 26.802,-16.005 12.705,-4.3025 27.221,-6.4512 43.555,-6.4512 14.521,0 28.832,1.7775 42.93,5.3375 14.237,3.555 30.917,9.6337 50.043,18.2325 l 46.699,-69.82 -9.004,-5.3313 c -5.586,8.5938 -11.098,14.6725 -16.542,18.2325 -5.308,3.5538 -11.378,5.3313 -18.219,5.3313 -3.91,0 -8.446,-0.2925 -13.612,-0.8888 -18.565,-1.9237 -33.365,-2.89 -44.395,-2.89 -4.742,0 -11.934,0.225 -21.568,0.6688 23.038,-22.2363 43.35,-37.725 60.938,-46.47 17.588,-8.75 35.391,-13.12 53.398,-13.12 14.097,0 29.805,4.3025 47.114,12.8962 -1.532,13.0463 -4.326,24.165 -8.374,33.3538 -3.911,9.0437 -12.636,22.4562 -26.176,40.245 -13.54,17.6362 -22.056,30.0137 -25.547,37.1337 -3.349,7.26 -5.024,13.5588 -5.024,18.8963 0,7.71 2.3,14.2287 6.909,19.565 4.605,5.4837 10.122,8.2275 16.542,8.2275 6.001,0 11.099,-1.85 15.284,-5.5563 3.071,-2.6662 4.61,-6.0787 4.61,-10.23 0,-3.4075 -0.909,-6.0787 -2.72,-8.0025 -1.816,-1.9287 -4.541,-2.8912 -8.169,-2.8912 -1.534,0 -3.701,0.2987 -6.495,0.8887 -2.651,0.7425 -4.741,1.1138 -6.279,1.1138 -2.51,0 -4.467,-0.7425 -5.865,-2.2263 -1.396,-1.48 -2.093,-3.1887 -2.093,-5.1125 0,-3.56 1.816,-7.8562 5.443,-12.8962 3.633,-5.0388 13.263,-14.0813 28.897,-27.1288 21.782,-18.2325 37.133,-33.4225 46.07,-45.5812 6.142,-8.3 10.195,-16.6738 12.148,-25.1213 2.094,-8.4525 3.139,-21.3475 3.139,-38.6912 l 0,-33.13 c 0,-23.2713 -1.465,-40.02 -4.399,-50.2488 -2.793,-10.23 -8.583,-20.455 -17.378,-30.6837 -8.794,-10.23 -21.777,-21.1238 -38.95,-32.6863 l -81.665,69.595 0,-46.025 c 0,-17.3437 1.323,-29.8687 3.975,-37.5787 2.656,-7.705 8.378,-15.0438 17.172,-22.0113 8.794,-6.9675 22.408,-13.8575 40.835,-20.6787 l -3.979,-9.3363 c -31.968,10.6688 -54.233,20.3813 -66.797,29.1263 -12.564,8.745 -21.43,18.8225 -26.596,30.2387 -5.025,11.4163 -7.54,28.9063 -7.54,52.4763 l 0,75.595 c 0,22.3837 -1.254,38.1687 -3.769,47.3587 -2.374,9.0425 -8.096,18.8288 -17.169,29.3513 -9.071,10.375 -22.129,20.6775 -39.16,30.9075 12.285,-16.1575 20.171,-29.2775 23.663,-39.355 3.632,-10.23 5.448,-24.5313 5.448,-42.915 l 0,-103.8338 c 0,-25.9425 3.487,-44.6187 10.469,-56.03 10.606,-17.3437 30.084,-31.87 58.419,-43.5837 l -4.395,-9.3363 z m -203.413,-86.3812 0,33.13 15.742,0 11.938,-33.13 -27.68,0 z m 47.993,-108.5063 c -2.515,8.3013 -6.005,14.3013 -10.474,18.0075 -4.467,3.56 -9.911,5.3375 -16.332,5.3375 -6.299,0 -13.365,-1.45 -21.187,-4.3212 l 0,40.2825 c 0.864,0.035 1.714,0.059 2.549,0.059 10.61,0 20.313,-2.6662 29.106,-8.0025 8.794,-5.3375 15.43,-12.525 19.893,-21.5675 3.212,-6.8212 5.097,-16.7525 5.659,-29.795 l -9.214,0 z m 264.936,-35.8637 0,57.1425 c -10.889,-4.5938 -20.029,-7.71 -27.431,-9.34 -7.26,-1.6313 -15.146,-2.4413 -23.663,-2.4413 -15.497,0 -31.83,3.925 -48.998,11.7813 l 0,-55.81 c 17.31,7.265 33.921,10.8937 49.833,10.8937 8.799,0 16.754,-0.8112 23.873,-2.4412 7.124,-1.7826 15.917,-5.0438 26.386,-9.785 z m -45.019,-65.5913 c 14.38,8.5988 24.849,17.0463 31.412,25.3463 6.557,8.155 11.093,17.715 13.607,28.6825 -9.35,5.0387 -17.587,8.525 -24.706,10.4487 -6.983,1.9288 -15.146,2.89 -24.503,2.89 -15.635,0 -32.597,-3.8525 -50.883,-11.5625 l 0,-10.0037 55.073,-45.8013 z m -64.497,-102.725 c -20.659,11.1188 -39.365,16.675 -56.118,16.675 -8.237,0 -19.336,-2.075 -33.296,-6.225 -13.96,-4.2975 -23.73,-6.4512 -29.316,-6.4512 -9.356,0 -18.638,2.9687 -27.851,8.8975 -9.215,5.7812 -16.89,14.0812 -23.033,24.9012 -3.911,7.2663 -6.982,17.715 -9.214,31.3538 l 10.679,0 c 1.953,-11.5625 4.888,-19.4925 8.794,-23.795 4.052,-4.4425 8.515,-6.67 13.402,-6.67 2.653,0 7.955,0.8162 15.914,2.4462 20.381,3.8525 32.949,5.7813 37.695,5.7813 5.445,0 15.981,-2.67 31.616,-8.0025 -15.776,12.5975 -27.011,24.6825 -33.711,36.24 -9.214,16.1575 -13.822,33.13 -13.822,50.9187 0,4.7413 0.21,10.6 0.63,17.5675 -6.978,-0.7412 -13.12,-1.1125 -18.429,-1.1125 -8.651,0 -16.821,2.075 -24.501,6.225 -7.677,3.9988 -13.819,9.6338 -18.423,16.9 -2.935,4.8875 -5.24,12.1525 -6.915,21.7863 l 7.75,2.4462 c 4.048,-7.705 8.095,-12.895 12.143,-15.5612 4.048,-2.8175 9.566,-4.2288 16.543,-4.2288 11.309,0 19.965,3.4863 25.967,10.45 6.142,6.8213 9.566,19.1988 10.263,37.1338 -8.935,0.7425 -16.055,2.7437 -21.362,6.0062 -6.84,4.2963 -11.934,9.4863 -15.283,15.5613 -3.35,6.0787 -5.66,14.975 -6.913,26.6837 l 9.213,0 c 5.165,-12.7487 11.938,-19.125 20.313,-19.125 4.467,0 8.027,1.4838 10.684,4.4475 2.651,2.9638 3.973,7.0413 3.973,12.2313 0,6.8162 -1.816,13.785 -5.443,20.8987 -3.629,7.1188 -11.588,17.2713 -23.873,30.4638 -12.144,13.0425 -20.029,22.9012 -23.662,29.57 -3.492,6.8212 -5.234,13.7112 -5.234,20.6787 0,5.7813 1.606,10.6738 4.814,14.6788 3.213,3.9987 6.495,6 9.843,6 2.653,0 5.025,-1.1863 7.12,-3.5588 2.095,-2.3687 3.139,-5.41 3.139,-9.1162 0,-3.2625 -1.186,-6.67 -3.559,-10.225 -3.35,-5.3363 -5.025,-9.4138 -5.025,-12.2313 0,-4.0037 1.959,-8.52 5.865,-13.565 5.167,-6.5175 14.097,-11.855 26.802,-16.005 12.705,-4.3025 27.221,-6.45 43.555,-6.45 14.521,0 28.832,1.7763 42.93,5.3363 14.237,3.56 30.917,9.6337 50.043,18.2325 l 46.699,-69.815 -9.004,-5.3363 c -5.586,8.5988 -11.098,14.6725 -16.542,18.2325 -5.308,3.555 -11.378,5.3363 -18.219,5.3363 -3.91,0 -8.446,-0.2975 -13.612,-0.8888 -18.565,-1.9287 -33.365,-2.89 -44.395,-2.89 -4.742,0 -11.934,0.22 -21.568,0.6638 23.038,-22.2363 43.35,-37.725 60.938,-46.47 17.588,-8.745 35.391,-13.12 53.398,-13.12 14.097,0 29.805,4.2975 47.114,12.8962 -1.532,13.0463 -4.326,24.165 -8.374,33.3538 -3.911,9.0437 -12.636,22.4562 -26.176,40.245 -13.54,17.6412 -22.056,30.0187 -25.547,37.1337 -3.349,7.26 -5.024,13.5588 -5.024,18.8963 0,7.71 2.3,14.2337 6.909,19.565 4.605,5.4887 10.122,8.2275 16.542,8.2275 6.001,0 11.099,-1.85 15.284,-5.5563 3.071,-2.6712 4.61,-6.0787 4.61,-10.23 0,-3.4075 -0.909,-6.0787 -2.72,-8.0025 -1.816,-1.9287 -4.541,-2.8912 -8.169,-2.8912 -1.534,0 -3.701,0.2987 -6.495,0.8887 -2.651,0.7425 -4.741,1.1138 -6.279,1.1138 -2.51,0 -4.467,-0.7425 -5.865,-2.2213 -1.396,-1.485 -2.093,-3.1887 -2.093,-5.1175 0,-3.56 1.816,-7.8562 5.443,-12.895 3.633,-5.04 13.263,-14.0825 28.897,-27.125 21.782,-18.2325 37.133,-33.4275 46.07,-45.585 6.142,-8.3012 10.195,-16.675 12.148,-25.1225 2.094,-8.4525 3.139,-21.3475 3.139,-38.6862 l 0,-33.135 c 0,-23.2713 -1.465,-40.02 -4.399,-50.2488 -2.793,-10.225 -8.583,-20.455 -17.378,-30.6837 -8.794,-10.225 -21.777,-21.1238 -38.95,-32.6863 l -81.665,69.595 0,-46.025 c 0,-17.3437 1.323,-29.8687 3.975,-37.5787 2.656,-7.705 8.378,-15.0438 17.172,-22.0113 8.794,-6.9625 22.408,-13.8575 40.835,-20.6787 l -3.979,-9.3363 c -31.968,10.6738 -54.233,20.3813 -66.797,29.1263 -12.564,8.745 -21.43,18.8275 -26.596,30.2387 -5.025,11.4163 -7.54,28.9063 -7.54,52.4763 l 0,75.595 c 0,22.3837 -1.254,38.17 -3.769,47.3637 -2.374,9.0388 -8.096,18.8238 -17.169,29.3463 -9.071,10.375 -22.129,20.6787 -39.16,30.9075 12.285,-16.1575 20.171,-29.2775 23.663,-39.355 3.632,-10.23 5.448,-24.5313 5.448,-42.91 l 0,-103.8388 c 0,-25.9425 3.487,-44.6187 10.469,-56.035 10.606,-17.3387 30.084,-31.87 58.419,-43.5787 l -4.395,-9.3363 z m -203.413,-86.3812 0,33.13 15.742,0 11.938,-33.13 -27.68,0 z m 47.993,-108.5063 c -2.515,8.3012 -6.005,14.3013 -10.474,18.0075 -4.467,3.56 -9.911,5.3375 -16.332,5.3375 -6.299,0 -13.365,-1.445 -21.187,-4.3212 l 0,40.2825 c 0.864,0.035 1.714,0.059 2.549,0.059 10.61,0 20.313,-2.6663 29.106,-8.0025 8.794,-5.3375 15.43,-12.525 19.893,-21.5675 3.212,-6.8163 5.097,-16.7475 5.659,-29.795 l -9.214,0 z m 264.936,-35.8637 0,57.1425 c -10.889,-4.5938 -20.029,-7.705 -27.431,-9.335 -7.26,-1.6313 -15.146,-2.4463 -23.663,-2.4463 -15.497,0 -31.83,3.925 -48.998,11.7813 l 0,-55.81 c 17.31,7.2662 33.921,10.8987 49.833,10.8987 8.799,0 16.754,-0.8162 23.873,-2.4462 7.124,-1.7776 15.917,-5.0388 26.386,-9.7851 z m -45.019,-65.5913 c 14.38,8.5987 24.849,17.0463 31.412,25.3463 6.557,8.155 11.093,17.7149 13.607,28.6825 -9.35,5.0387 -17.587,8.5249 -24.706,10.4537 -6.982,1.9238 -15.146,2.89 -24.503,2.89 -15.634,0 -32.597,-3.8575 -50.883,-11.5625 l 0,-10.0087 55.073,-45.8013 z m -218.944,-83.945 c -5.807,5.1025 -10.866,11.44 -15.167,19.0188 -3.911,7.2649 -6.982,17.7137 -9.213,31.3525 l 10.678,0 c 1.953,-11.5625 4.888,-19.4925 8.794,-23.79 4.053,-4.4475 8.515,-6.6738 13.403,-6.6738 2.652,0 7.954,0.815 15.913,2.4462 20.381,3.8563 32.949,5.7813 37.695,5.7813 5.445,0 15.982,-2.6662 31.616,-8.0038 -15.776,12.5976 -27.011,24.6776 -33.711,36.2401 -9.213,16.1575 -13.822,33.13 -13.822,50.9187 0,4.7463 0.21,10.6 0.63,17.5675 -6.978,-0.7412 -13.12,-1.1125 -18.429,-1.1125 -8.651,0 -16.821,2.075 -24.501,6.225 -7.676,4.0037 -13.819,9.6337 -18.423,16.9 -2.935,4.8925 -5.24,12.1525 -6.915,21.7875 l 7.75,2.4463 c 4.048,-7.7063 8.095,-12.8963 12.143,-15.5625 4.049,-2.8175 9.566,-4.2238 16.544,-4.2238 11.308,0 19.965,3.4825 25.966,10.45 6.142,6.8163 9.566,19.1937 10.264,37.1288 -8.935,0.7425 -16.055,2.7437 -21.363,6.0062 -6.84,4.2963 -11.934,9.4863 -15.282,15.5613 -3.351,6.0787 -5.66,14.97 -6.914,26.6837 l 9.214,0 c 5.164,-12.7487 11.937,-19.12 20.312,-19.12 4.467,0 8.028,1.4787 10.684,4.4425 2.651,2.9688 3.973,7.0412 3.973,12.2313 0,6.8174 -1.816,13.785 -5.443,20.8987 -3.629,7.115 -11.588,17.2713 -23.873,30.4638 -12.144,13.0424 -20.028,22.9012 -23.662,29.5712 -3.491,6.8213 -5.234,13.71 -5.234,20.6788 0,5.7812 1.606,10.6737 4.814,14.6725 3.213,4.0037 6.495,6.005 9.844,6.005 2.652,0 5.025,-1.1863 7.119,-3.5538 2.096,-2.3737 3.139,-5.415 3.139,-9.1212 0,-3.2625 -1.186,-6.67 -3.558,-10.225 -3.351,-5.3363 -5.025,-9.4138 -5.025,-12.2313 0,-3.9987 1.958,-8.52 5.864,-13.56 5.167,-6.5225 14.097,-11.86 26.802,-16.01 12.705,-4.3025 27.221,-6.45 43.555,-6.45 14.521,0 28.832,1.7813 42.93,5.3363 14.237,3.56 30.917,9.6337 50.043,18.2325 l 46.699,-69.8138 -9.004,-5.3375 c -5.586,8.5988 -11.098,14.6725 -16.542,18.2325 -5.307,3.56 -11.378,5.3363 -18.219,5.3363 -3.91,0 -8.446,-0.2975 -13.612,-0.8925 -18.565,-1.9238 -33.365,-2.8913 -44.395,-2.8913 -4.742,0 -11.934,0.225 -21.568,0.6688 23.038,-22.2313 43.35,-37.7238 60.938,-46.47 17.588,-8.745 35.391,-13.12 53.398,-13.12 14.097,0 29.805,4.3025 47.114,12.8962 -1.532,13.0463 -4.326,24.165 -8.374,33.3538 -3.911,9.0437 -12.636,22.4562 -26.176,40.245 -13.54,17.6412 -22.056,30.0137 -25.547,37.1337 -3.349,7.26 -5.024,13.5638 -5.024,18.8963 0,7.71 2.3,14.2337 6.909,19.57 4.605,5.4837 10.122,8.2225 16.542,8.2225 6.001,0 11.099,-1.85 15.284,-5.5563 3.071,-2.6662 4.61,-6.0787 4.61,-10.23 0,-3.4075 -0.909,-6.0737 -2.72,-8.0025 -1.816,-1.9287 -4.541,-2.89 -8.169,-2.89 -1.534,0 -3.701,0.2975 -6.495,0.8875 -2.651,0.7425 -4.741,1.1138 -6.279,1.1138 -2.509,0 -4.467,-0.7425 -5.864,-2.2263 -1.397,-1.48 -2.094,-3.1837 -2.094,-5.1125 0,-3.555 1.816,-7.8562 5.443,-12.895 3.633,-5.04 13.263,-14.0825 28.897,-27.13 21.782,-18.2312 37.134,-33.4225 46.07,-45.575 6.142,-8.3012 10.195,-16.68 12.149,-25.1275 2.093,-8.4475 3.138,-21.3475 3.138,-38.6912 l 0,-33.125 c 0,-23.2763 -1.465,-40.025 -4.399,-50.2538 -2.793,-10.225 -8.583,-20.455 -17.378,-30.6837 -8.794,-10.225 -21.776,-21.1238 -38.95,-32.6863 l -81.665,69.595 0,-46.025 c 0,-17.3437 1.323,-29.8687 3.975,-37.5737 2.656,-7.71 8.378,-15.0488 17.172,-22.0163 4.756,-3.765 10.938,-7.515 18.511,-11.235 l -30,0 c -7.538,3.5838 -13.696,7.0363 -18.452,10.3463 -12.564,8.745 -21.43,18.8287 -26.596,30.2387 -5.025,11.4163 -7.54,28.9063 -7.54,52.4763 l 0,75.5962 c 0,22.3825 -1.254,38.1738 -3.769,47.3625 -2.374,9.0438 -8.096,18.8238 -17.169,29.3513 -9.071,10.375 -22.129,20.6787 -39.16,30.9025 12.285,-16.1575 20.172,-29.2725 23.663,-39.355 3.632,-10.225 5.448,-24.5313 5.448,-42.915 l 0,-103.8338 c 0,-25.9412 3.487,-44.6187 10.469,-56.03 7.92,-12.9537 20.791,-24.3312 38.604,-34.14 l -139.027,0 z m 321.253,1122.6563 c -7.821,0 -15.151,2.4462 -21.991,7.3387 -6.841,4.8925 -12.144,12.08 -15.914,21.5675 -2.372,5.9275 -3.559,14.0088 -3.559,24.2375 l 8.794,2.2225 c 1.26,-6.5237 3.423,-11.265 6.494,-14.2287 3.071,-2.8175 6.562,-4.2238 10.469,-4.2238 2.958,0 11.122,2.4263 24.257,7.1775 0.66,-14.355 1.319,-28.7112 1.959,-43.0512 -3.775,-0.6838 -7.285,-1.04 -10.509,-1.04 z m 19.39,-208.4913 c -8.94,8.6225 -16.171,22.6025 -21.694,41.9525 l 8.164,3.56 c 3.765,-6.2162 7.871,-11.5237 12.329,-15.9275 0.245,-5.9325 0.499,-11.885 0.737,-17.8125 0.157,-3.9312 0.308,-7.8475 0.464,-11.7725 z m -19.39,-190.5712 c -7.821,0 -15.151,2.4412 -21.991,7.3337 -6.841,4.8925 -12.144,12.08 -15.914,21.5675 -2.372,5.9325 -3.559,14.0088 -3.559,24.2375 l 8.794,2.2225 c 1.26,-6.5237 3.423,-11.265 6.494,-14.2287 3.071,-2.8175 6.562,-4.2288 10.469,-4.2288 4.033,0 17.587,4.4538 40.488,13.2625 0.4,-10.8062 0.815,-21.6262 1.207,-32.4225 0.151,-4.1312 0.287,-8.2475 0.433,-12.3725 -10.238,-3.575 -19.052,-5.3712 -26.421,-5.3712 z m 36.475,-220.6113 c -6.22,3.1788 -11.821,7.12 -16.791,11.8213 -9.078,8.5987 -16.406,22.6812 -21.988,42.2462 l 8.164,3.56 c 7.539,-12.4512 16.475,-21.27 26.801,-26.46 0.338,-0.1712 0.694,-0.3325 1.04,-0.4975 0.125,-1.6112 0.235,-3.2237 0.362,-4.835 0.684,-8.6762 1.495,-17.29 2.412,-25.835 z m -36.475,-178.4612 c -7.821,0 -15.151,2.4462 -21.991,7.3387 -6.841,4.8925 -12.144,12.08 -15.914,21.5675 -2.372,5.9325 -3.559,14.0088 -3.559,24.2388 l 8.794,2.2212 c 1.26,-6.5237 3.423,-11.265 6.494,-14.2287 3.071,-2.8175 6.562,-4.2238 10.469,-4.2238 4.467,0 20.522,5.41 48.163,16.2313 l 28.97,-10.2788 c 0,-0.054 0.02,-0.1075 0.04,-0.1612 1.787,-6.7925 3.652,-13.4963 5.566,-20.1513 -0.629,-0.1563 -1.264,-0.3325 -1.914,-0.5375 -2.651,-0.8888 -10.117,-4.2237 -22.402,-10.005 -17.451,-8.0075 -31.689,-12.0113 -42.719,-12.0113 l 0,0 z m -1629.272,-323.9751 -29.624,32.7 0,27.8713 54.766,-60.5713 -25.142,0 z m 86.108,0 -115.732,127.9988 0,40.5663 234.736,-40 8.492,15.61 14.687,-7.9838 -32.695,-60.1362 -14.687,7.9837 14.902,27.4063 -218.794,36.8462 134.345,-148.2912 -25.253,0 z m 49.112,0 6.016,11.0651 14.687,-7.9838 -1.669,-3.0813 -19.034,0 z m 41.134,0 35.517,65.3326 14.682,-7.9838 -19.048,-35.0388 41.031,-22.31 -39.41,0 -10.61,5.7713 -3.14,-5.7713 -19.022,0 z m 134.393,0 13.096,24.0876 -34.579,18.7987 8.548,15.7275 82.456,-44.825 -7.49,-13.7888 -4.633,0 -29.614,16.1038 -8.755,-16.1038 -19.029,0 z m 131.396,0 6.07,11.1625 -50.307,27.3488 8.238,15.1512 64.995,-35.3375 -9.967,-18.325 -19.029,0 z m 38.712,0 26.426,48.6088 14.687,-7.9838 -7.983,-14.6875 23.447,-25.9375 -25.269,0 -7.676,8.4763 -4.604,-8.4763 -19.028,0 z m 127.32,0 -79.513,87.9401 11.07,20.3562 243.256,-41.455 8.492,15.615 14.687,-7.9838 -32.695,-60.1362 -14.687,7.9837 14.902,27.4063 -218.799,36.8462 78.428,-86.5725 -25.141,0 z m 179.603,0 1.963,3.6138 6.641,-3.6138 -8.604,0 z m 193.902,0 -81.435,44.2725 8.55,15.7275 33.192,-18.0412 27.285,50.19 -86.737,47.1538 -50.23,-92.4025 50.302,-27.3488 -8.236,-15.1512 -64.991,35.3362 82.422,151.6113 14.688,-7.9826 -14.962,-27.525 190.474,-103.55 14.961,27.525 14.688,-7.9887 -39.047,-71.8263 -17.34,0 -1.304,0.7138 19.048,35.0387 -89.048,48.4075 -27.285,-50.19 34.58,-18.7937 -8.251,-15.1763 -1.324,0 z m 139.776,0 -16.724,18.4963 11.069,20.3513 142.354,-24.2576 0,-14.59 -25.533,0 -101.665,17.12 15.508,-17.12 -25.009,0 z m -630.684,54.4488 -14.687,7.9838 19.052,35.0387 -89.047,48.4125 -27.29,-50.19 34.58,-18.7988 -8.55,-15.7274 -82.457,44.8287 8.55,15.7275 33.189,-18.0463 27.29,50.19 -86.739,47.1588 -50.235,-92.4025 50.309,-27.3538 -8.237,-15.1462 -64.995,35.3312 82.426,151.6163 14.687,-7.9875 -14.961,-27.525 190.469,-103.545 14.966,27.52 14.683,-7.9838 -43.003,-79.1012 z m 322.813,33.6663 -14.688,7.9887 14.903,27.4075 -190.474,103.55 -14.903,-27.4075 -14.687,7.9838 40.43,74.3599 14.687,-7.9837 -16.221,-29.8387 89.048,-48.4125 61.298,112.7587 -89.047,48.4125 -16.534,-30.415 -14.687,7.9838 39.922,73.4375 14.688,-7.9888 -14.145,-26.015 190.468,-103.555 14.965,27.5238 14.688,-7.9825 -40.743,-74.9413 -14.687,7.9875 16.534,30.415 -86.734,47.1538 -61.299,-112.7588 86.734,-47.1537 16.221,29.8387 14.688,-7.9825 -40.425,-74.3662 z m 307.308,0.7137 -14.687,7.9875 14.146,26.0163 -190.474,103.555 -14.961,-27.5301 -14.687,7.9888 40.742,74.9412 14.688,-7.9887 -16.539,-30.415 86.739,-47.1525 61.298,112.7538 -86.733,47.1575 -16.225,-29.8388 -14.683,7.9837 40.425,74.365 14.688,-7.9887 -14.903,-27.4062 190.474,-103.55 14.902,27.4075 14.683,-7.9838 -40.425,-74.36 -14.688,7.9825 16.22,29.8388 -89.047,48.4087 -61.299,-112.7538 89.048,-48.4137 16.533,30.415 14.688,-7.9825 -39.923,-73.4375 z m 137.262,36.835 -58.76,31.9488 -14.903,-27.4075 -14.687,7.9837 40.43,74.36 14.687,-7.9825 -16.225,-29.84 49.458,-26.8838 0,-22.1787 z m -1022.447,24.175 -14.687,7.9838 14.902,27.4075 -190.473,103.55 -14.898,-27.4076 -14.687,7.9838 40.425,74.365 14.687,-7.9887 -16.221,-29.8338 89.047,-48.4125 61.3,112.7588 -89.048,48.4075 -16.533,-30.415 -14.687,7.9887 39.921,73.4325 14.687,-7.9837 -14.145,-26.02 190.474,-103.55 14.96,27.5237 14.688,-7.9875 -40.737,-74.9362 -14.687,7.9825 16.532,30.415 -86.737,47.1537 -61.3,-112.7537 86.739,-47.1538 16.221,29.8338 14.687,-7.9825 -40.43,-74.3613 z m 307.31,0.7138 -14.687,7.9825 14.145,26.0212 -190.469,103.55 -14.961,-27.525 -14.693,7.9838 40.743,74.9412 14.687,-7.9837 -16.533,-30.415 86.733,-47.1525 61.299,112.7537 -86.732,47.1525 -16.222,-29.8337 -14.687,7.9837 40.425,74.36 14.687,-7.9837 -14.897,-27.4063 190.469,-103.555 14.902,27.4125 14.688,-7.9887 -40.425,-74.36 -14.688,7.9825 16.22,29.8387 -89.052,48.4138 -61.299,-112.7588 89.047,-48.4087 16.539,30.415 14.688,-7.9875 -39.927,-73.4325 z m -572.642,77.2312 0,44.9025 4.155,-2.2613 16.539,30.415 14.687,-7.9837 -35.381,-65.0725 z m 1283.086,29.2863 -14.687,7.9837 19.38,35.645 0,-35 -4.693,-8.6288 z m -321.744,48.35 -14.687,7.9837 14.966,27.5238 -190.474,103.55 -14.961,-27.5238 -14.691,7.9825 43.007,79.1075 14.688,-7.9887 -19.053,-35.0388 89.053,-48.4137 27.285,50.1912 -34.58,18.7988 8.55,15.7325 82.456,-44.83 -8.55,-15.7275 -33.189,18.0425 -27.285,-50.19 86.734,-47.1538 50.234,92.4025 -50.308,27.3488 8.238,15.1512 64.995,-35.3375 -82.428,-151.6112 z m -897.416,39.9412 -14.687,7.9838 16.22,29.8387 -65.459,35.5863 0,22.1725 74.766,-40.6438 14.898,27.4063 14.687,-7.9825 -40.425,-74.3613 z m 319.546,21.7775 -14.692,7.9888 14.965,27.5237 -190.474,103.55 -14.96,-27.5237 -14.687,7.9825 43.007,79.1025 14.683,-7.9838 -19.048,-35.0437 89.048,-48.4088 27.285,50.1913 -34.575,18.7987 8.55,15.7275 82.456,-44.825 -8.55,-15.7325 -33.194,18.0475 -27.285,-50.195 86.734,-47.1487 50.234,92.4025 -50.303,27.3487 8.233,15.1463 64.995,-35.3325 -82.422,-151.6163 z m 904.307,25.7038 -217.623,37.08 -8.486,-15.6113 -14.688,7.9838 32.695,60.1375 14.688,-7.9838 -14.901,-27.4075 208.315,-35.0775 0,-19.1212 z m 0,28.925 -138.78,153.1787 -14.96,-27.5237 -14.688,7.9875 32.441,59.6737 14.688,-7.9837 -7.984,-14.6875 129.283,-142.9888 0,-27.6562 z m -552.232,28.4275 -243.262,41.4512 -8.486,-15.6112 -14.688,7.9837 32.696,60.1363 14.683,-7.9825 -14.898,-27.4125 218.794,-36.8413 -149.257,164.7513 -14.967,-27.5238 -14.687,7.9825 32.441,59.6738 14.688,-7.9838 -7.984,-14.6875 165.991,-183.5837 -11.064,-20.3525 z m 327.862,42.96 -14.688,7.9825 19.048,35.045 -89.048,48.4075 -27.285,-50.19 34.575,-18.7988 -8.55,-15.7275 -82.456,44.8288 8.55,15.7275 33.194,-18.0475 27.285,50.1962 -86.739,47.1525 -50.234,-92.4012 50.308,-27.3488 -8.238,-15.1512 -64.99,35.3312 82.421,151.6163 14.688,-7.9838 -14.96,-27.5237 190.469,-103.55 14.965,27.525 14.687,-7.9888 -43.002,-79.1012 z m -295.415,16.7237 -14.688,7.9825 7.984,14.6875 -165.988,183.5838 11.065,20.3575 243.257,-41.455 8.491,15.615 14.687,-7.9838 -32.695,-60.1362 -14.687,7.9825 14.902,27.4075 -218.798,36.8412 149.257,-164.7462 14.966,27.5237 14.688,-7.9875 -32.441,-59.6725 z m 519.785,6.9675 -118.277,130.815 11.064,20.3513 107.213,-18.2663 0,-18.96 -92.052,15.5025 92.052,-101.6062 0,-27.8363 z m -1129.419,2.2163 -158.36,26.9825 0,18.8575 143.199,-24.1113 -143.199,158.0563 0,45.045 11.416,-6.2063 -7.984,-14.6875 165.992,-183.58 -11.064,-20.3562 z m 327.172,35.8112 -14.687,7.9875 19.047,35.04 -89.047,48.4125 -27.285,-50.19 34.58,-18.7987 -8.55,-15.7275 -82.461,44.8287 8.555,15.7225 33.188,-18.0425 27.285,50.1913 -86.733,47.1575 -50.234,-92.4063 50.302,-27.3487 -8.232,-15.1475 -64.995,35.3325 82.426,151.6112 14.688,-7.9837 -14.965,-27.5238 190.473,-103.55 14.96,27.525 14.688,-7.9837 -43.003,-79.1063 z m -298.398,17.1238 -14.688,7.9837 7.984,14.6875 -165.986,183.5838 11.065,20.3512 243.261,-41.45 8.486,15.61 14.688,-7.9837 -32.695,-60.1363 -14.688,7.9838 14.903,27.4112 -218.799,36.8413 149.262,-164.7513 14.96,27.525 14.688,-7.9837 -32.441,-59.6725 z m 928.521,17.26 -14.688,7.9837 14.145,26.0213 -190.473,103.5537 -14.962,-27.5287 -14.687,7.9887 40.742,74.9363 14.688,-7.9838 -16.538,-30.415 86.733,-47.1537 61.304,112.7537 -86.738,47.1588 -16.221,-29.8388 -14.688,7.9837 40.43,74.3651 14.688,-7.9888 -14.903,-27.4075 190.474,-103.5487 14.898,27.4062 14.687,-7.9825 -40.425,-74.3663 -14.687,7.9888 16.221,29.8337 -89.049,48.4138 -61.299,-112.7538 89.049,-48.4137 16.533,30.415 14.687,-7.9838 -39.921,-73.4375 z m -577.876,61.7187 -14.688,7.9888 14.145,26.0212 -190.469,103.5488 -14.965,-27.5238 -14.687,7.9838 40.741,74.9412 14.688,-7.9837 -16.538,-30.415 86.739,-47.1588 61.299,112.7588 -86.734,47.1537 -16.221,-29.8337 -14.688,7.9837 40.425,74.36 14.688,-7.9837 -14.903,-27.4075 190.474,-103.5538 14.902,27.4113 14.688,-7.9875 -40.43,-74.3613 -14.688,7.9838 16.222,29.8387 -89.048,48.4138 -61.298,-112.7588 89.047,-48.4137 16.537,30.42 14.683,-7.9888 -39.921,-73.4375 z m 342.441,65.3325 -14.688,7.9888 14.898,27.4075 -190.469,103.5487 -14.902,-27.4112 -14.688,7.9875 40.43,74.3612 14.688,-7.9837 -16.222,-29.8388 89.049,-48.4137 61.299,112.7587 -89.049,48.4138 -16.532,-30.415 -14.688,7.9825 39.921,73.4375 14.688,-7.9875 -14.145,-26.0163 190.469,-103.5537 14.966,27.5237 14.687,-7.9837 -40.742,-74.9413 -14.688,7.9888 16.533,30.41 -86.733,47.1587 -61.298,-112.7587 86.732,-47.1538 16.221,29.8388 14.688,-7.9838 -40.425,-74.365 z m 369.042,43.0613 -14.687,7.9837 40.425,74.365 12.779,-6.9475 0,-4.5512 -14.312,-26.3238 14.312,-7.7825 0,-22.1725 -23.619,12.8363 -14.898,-27.4075 z m -949.901,19.0575 -14.687,7.9837 14.901,27.4075 -190.473,103.55 -14.902,-27.4075 -14.683,7.9838 40.424,74.3649 14.688,-7.9887 -16.22,-29.8337 89.047,-48.4125 61.299,112.7537 -89.048,48.4125 -16.533,-30.415 -14.688,7.9888 39.923,73.4324 14.687,-7.9837 -14.146,-26.02 190.474,-103.55 14.961,27.5238 14.687,-7.9825 -40.742,-74.9413 -14.688,7.9825 16.539,30.415 -86.739,47.1538 -61.298,-112.7538 86.733,-47.1537 16.22,29.8337 14.688,-7.9825 -40.424,-74.3612 z m -299.361,13.9112 0,1.2263 0.517,-0.2788 -0.517,-0.9475 z m 29.057,53.4525 -14.687,7.9838 16.226,29.8387 -30.596,16.6313 0,22.1725 39.897,-21.69 14.903,27.4075 14.687,-7.9838 -40.43,-74.36 z m 1249.498,43.11 -243.261,41.45 -8.487,-15.61 -14.687,7.9837 32.695,60.1363 14.687,-7.9825 -14.902,-27.4075 218.799,-36.8463 -149.263,164.7513 -14.961,-27.525 -14.693,7.9837 32.447,59.6725 14.682,-7.9825 -7.977,-14.6875 164.145,-181.5487 0,-5.4188 -9.224,-16.9687 z m -280.2,44.7125 -14.688,7.9838 14.967,27.5237 -190.474,103.55 -14.961,-27.525 -14.688,7.9838 43.003,79.1062 14.687,-7.9875 -19.052,-35.04 89.052,-48.4125 27.285,50.19 -34.58,18.7988 8.555,15.7325 82.456,-44.8288 -8.555,-15.7275 -33.188,18.0425 -27.285,-50.1913 86.733,-47.1525 50.234,92.4013 -50.307,27.3488 8.237,15.1512 64.995,-35.3363 -82.426,-151.6112 z m -297.676,17.0113 -243.257,41.45 -8.486,-15.61 -14.687,7.9837 32.69,60.1363 14.687,-7.9838 -14.902,-27.4112 218.798,-36.8413 -149.262,164.7513 -14.961,-27.53 -14.688,7.9887 32.441,59.6725 14.688,-7.9825 -7.983,-14.6875 165.987,-183.585 -11.065,-20.3512 z m 587.1,28.0912 -153.14,169.375 11.065,20.3513 142.075,-24.2088 0,-18.8862 -126.919,21.3712 126.919,-140.0875 0,-27.915 z m -870.279,17.0113 -14.688,7.9837 14.962,27.525 -190.469,103.5488 -14.966,-27.5188 -14.688,7.9825 43.004,79.1025 14.687,-7.9837 -19.048,-35.0388 89.048,-48.4137 27.285,50.1912 -34.58,18.7988 8.555,15.7275 82.455,-44.83 -8.548,-15.7275 -33.194,18.0475 -27.285,-50.19 86.732,-47.1588 50.24,92.4025 -50.312,27.3538 8.237,15.1462 64.995,-35.3325 -82.422,-151.6162 z m 315.63,14.58 -14.688,7.9837 7.984,14.6875 -165.991,183.5838 11.069,20.3562 243.257,-41.455 8.491,15.6163 14.683,-7.9838 -32.69,-60.1375 -14.688,7.9838 14.898,27.4075 -218.795,36.845 149.259,-164.75 14.965,27.5237 14.687,-7.9875 -32.441,-59.6737 z m -609.639,9.185 -123.491,21.045 0,18.9212 108.335,-18.2425 -108.335,119.575 0,27.8713 134.561,-148.8188 -11.07,-20.3512 z m 28.78,52.93 -14.687,7.9875 7.982,14.6875 -145.566,160.9912 0,41.3475 233.901,-39.8525 8.491,15.61 14.683,-7.9837 -32.69,-60.1363 -14.688,7.9838 14.903,27.4062 -218.799,36.8463 149.258,-164.7513 14.966,27.525 14.687,-7.9837 -32.441,-59.6775 z m 948.149,48.925 -14.688,7.9837 19.048,35.0438 -89.048,48.4087 -27.285,-50.1912 34.575,-18.7988 -8.55,-15.7275 -82.455,44.83 8.549,15.7275 33.194,-18.0475 27.285,50.195 -86.738,47.1538 -50.235,-92.4025 50.308,-27.3488 -8.238,-15.1512 -64.99,35.3325 82.423,151.6162 14.687,-7.9837 -14.961,-27.5238 190.469,-103.55 14.966,27.5238 14.688,-7.9875 -43.004,-79.1025 z m -580.859,62.12 -14.687,7.9825 19.052,35.04 -89.052,48.4125 -27.285,-50.19 34.58,-18.7988 -8.555,-15.7275 -82.456,44.8238 8.549,15.7325 33.194,-18.0475 27.285,50.1912 -86.734,47.1525 -50.235,-92.4012 50.309,-27.3488 -8.237,-15.1512 -64.995,35.3362 82.426,151.6163 14.682,-7.9888 -14.961,-27.5237 190.469,-103.55 14.966,27.525 14.688,-7.9838 -43.003,-79.1012 z m 325.795,33.2712 -14.687,7.9875 14.897,27.4075 -190.469,103.55 -14.901,-27.4075 -14.687,7.9838 40.428,74.36 14.683,-7.9825 -16.215,-29.8388 89.042,-48.4137 61.304,112.7587 -89.047,48.4138 -16.534,-30.415 -14.693,7.9825 39.928,73.4375 14.687,-7.9875 -14.151,-26.0213 190.474,-103.55 14.966,27.525 14.688,-7.9837 -40.743,-74.9413 -14.687,7.9888 16.533,30.415 -86.733,47.1525 -61.299,-112.7588 86.734,-47.1525 16.22,29.8388 14.687,-7.9838 -40.425,-74.365 z m 307.31,0.7125 -14.687,7.9838 14.145,26.02 -190.473,103.55 -14.961,-27.5238 -14.688,7.9875 40.743,74.9363 14.682,-7.9825 -16.533,-30.415 86.738,-47.1538 61.299,112.7538 -86.739,47.1587 -16.22,-29.8387 -14.687,7.9825 40.429,74.3662 14.687,-7.9887 -14.902,-27.4075 190.473,-103.55 14.898,27.4075 14.687,-7.9838 -40.423,-74.365 -14.688,7.9888 16.22,29.8337 -89.047,48.4125 -61.304,-112.7587 89.052,-48.4075 16.534,30.415 14.688,-7.9838 -39.923,-73.4375 z m 135.113,37.9638 -58.482,31.7925 -14.897,-27.4075 -14.688,7.9837 40.426,74.36 14.687,-7.9837 -16.221,-29.8338 49.175,-26.7375 0,-22.1737 z m -1023.282,23.4425 -14.687,7.9837 14.902,27.4075 -190.473,103.55 -14.903,-27.4075 -14.687,7.9825 40.43,74.3613 14.687,-7.9838 -16.221,-29.8337 89.047,-48.4138 61.3,112.7538 -89.048,48.4137 -16.533,-30.415 -14.687,7.9888 39.921,73.4325 14.687,-7.9838 -14.145,-26.02 190.469,-103.55 14.965,27.5238 14.688,-7.9875 -40.742,-74.9375 -14.687,7.9837 16.532,30.415 -86.732,47.1538 -61.3,-112.7538 86.734,-47.1537 16.221,29.8337 14.687,-7.9837 -40.425,-74.36 z m 307.31,0.7125 -14.687,7.9837 14.145,26.0213 -190.469,103.5487 -14.966,-27.5237 -14.688,7.9837 40.743,74.9413 14.687,-7.9838 -16.537,-30.42 86.737,-47.1487 61.299,112.7537 -86.732,47.1538 -16.222,-29.8388 -14.687,7.9888 40.425,74.36 14.687,-7.9838 -14.902,-27.4112 190.474,-103.55 14.902,27.4062 14.688,-7.9825 -40.43,-74.3612 -14.688,7.9837 16.221,29.8388 -89.048,48.4137 -61.299,-112.7587 89.049,-48.4088 16.532,30.41 14.688,-7.9825 -39.922,-73.4337 z m -571.807,72.8812 0,50.025 6.304,-3.4275 16.538,30.415 14.688,-7.9837 -37.53,-69.0288 z m 1283.37,34.2138 -14.688,7.9837 19.097,35.1313 0,-35.0038 -4.409,-8.1112 z m -319.879,47.3787 -14.687,7.9825 14.966,27.525 -190.474,103.55 -14.966,-27.525 -14.688,7.9888 43.009,79.1012 14.688,-7.9887 -19.054,-35.0388 89.054,-48.4125 27.285,50.19 -34.58,18.7988 8.548,15.7325 82.457,-44.8288 -8.55,-15.7275 -33.188,18.0413 -27.285,-50.19 86.733,-47.1538 50.235,92.4025 -50.308,27.3488 8.238,15.1512 64.995,-35.3362 -82.428,-151.6113 z m -897.421,39.9413 -14.682,7.9825 16.219,29.84 -67.607,36.7475 0,22.1775 76.91,-41.8113 14.901,27.4075 14.688,-7.9837 -40.429,-74.36 z m 316.562,22.1725 -14.687,7.9837 14.965,27.5238 -190.474,103.55 -14.96,-27.52 -14.692,7.9837 43.007,79.1013 14.688,-7.9825 -19.053,-35.0438 89.053,-48.4087 27.285,50.19 -34.58,18.7987 8.55,15.7275 82.456,-44.8287 -8.55,-15.7275 -33.189,18.0425 -27.285,-50.1913 86.734,-47.1525 50.234,92.4025 -50.308,27.3525 8.238,15.1475 64.995,-35.3325 -82.427,-151.6162 z m 905.147,25.6687 -215.474,36.7188 -8.486,-15.61 -14.688,7.9837 32.695,60.1363 14.688,-7.9838 -14.903,-27.4075 206.168,-34.7162 0,-19.1213 z m 0,30.9325 -136.632,150.8113 -14.961,-27.525 -14.691,7.9837 32.446,59.6725 14.688,-7.9837 -7.984,-14.6875 127.134,-140.61 0,-27.6613 z m -553.072,26.45 -243.261,41.455 -8.487,-15.615 -14.688,7.9888 32.696,60.1362 14.688,-7.9875 -14.903,-27.4075 218.799,-36.8412 -149.257,164.7462 -14.967,-27.52 -14.687,7.9838 32.441,59.6725 14.688,-7.9825 -7.984,-14.6875 165.986,-183.5838 -11.064,-20.3575 z m 330.85,42.5688 -14.687,7.9837 19.047,35.0438 -89.047,48.4087 -27.29,-50.1912 34.58,-18.7988 -8.55,-15.7275 -82.456,44.8288 8.55,15.7275 33.192,-18.0463 27.286,50.195 -86.738,47.1538 -50.235,-92.4025 50.308,-27.3488 -8.237,-15.1512 -64.99,35.3325 82.421,151.6162 14.688,-7.9837 -14.962,-27.525 190.469,-103.5538 14.966,27.5288 14.688,-7.9888 -43.003,-79.1012 z m -298.398,17.1187 -14.688,7.9838 7.984,14.6875 -165.991,183.5837 11.063,20.3563 243.263,-41.455 8.486,15.6162 14.688,-7.9887 -32.691,-60.1363 -14.688,7.9875 14.898,27.4075 -218.794,36.8413 149.257,-164.7463 14.967,27.5238 14.687,-7.9825 -32.441,-59.6788 z m -606.65,8.79 -160.509,27.3488 0,18.8525 145.348,-24.4775 -145.348,160.4287 0,43.8438 13.565,-7.3738 -7.984,-14.6875 165.992,-183.5837 -11.064,-20.3513 z m 1127.27,0.1613 -116.128,128.4375 11.064,20.3512 105.064,-17.905 0,-18.955 -89.903,15.1363 89.903,-99.2338 0,-27.8312 z m -803.081,36.045 -14.688,7.9875 19.048,35.0387 -89.048,48.4138 -27.285,-50.19 34.575,-18.8 -8.55,-15.7275 -82.456,44.825 8.55,15.7275 33.194,-18.0425 27.285,50.1912 -86.739,47.1525 -50.234,-92.4025 50.308,-27.3487 -8.238,-15.1513 -64.99,35.3375 82.423,151.6113 14.687,-7.9838 -14.961,-27.5237 190.468,-103.55 14.966,27.5237 14.687,-7.9825 -43.002,-79.1062 z m -295.415,16.7225 -14.688,7.9887 7.984,14.6875 -165.987,183.5838 11.064,20.3512 243.258,-41.45 8.491,15.6113 14.687,-7.9838 -32.696,-60.1362 -14.687,7.9825 14.902,27.4075 -218.798,36.8462 149.258,-164.7512 14.965,27.5237 14.688,-7.9825 -32.441,-59.6787 z m 928.52,17.2662 -14.688,7.9838 14.146,26.02 -190.474,103.555 -14.961,-27.53 -14.687,7.9887 40.742,74.9363 14.683,-7.9838 -16.534,-30.415 86.734,-47.1525 61.303,112.7538 -86.737,47.1575 -16.221,-29.8388 -14.688,7.9838 40.425,74.36495 14.688,-7.9875 -14.898,-27.40745 190.474,-103.55 14.897,27.4075 14.688,-7.9838 -40.425,-74.36 -14.688,7.9838 16.22,29.8337 -89.047,48.4125 -61.304,-112.7538 89.053,-48.4124 16.534,30.415 14.687,-7.9838 -39.922,-73.4375 z m -580.859,62.1138 -14.688,7.9837 14.145,26.025 -190.473,103.55 -14.961,-27.5237 -14.687,7.9825 40.741,74.9425 14.684,-7.9838 -16.534,-30.42 86.734,-47.1537 61.304,112.7587 -86.739,47.15375 -16.221,-29.83875 -14.688,7.9875 40.43,74.36125 14.688,-7.98375 -14.903,-27.4125 190.474,-103.55 14.897,27.4075 14.688,-7.9825 -40.425,-74.3612 -14.688,7.9837 16.222,29.8388 -89.048,48.4087 -61.304,-112.755 89.053,-48.4125 16.533,30.415 14.687,-7.9837 -39.921,-73.4375 z m 342.441,65.3325 -14.687,7.9837 14.897,27.4113 -190.469,103.55 -14.902,-27.4075 -14.688,7.9837 40.425,74.36 14.688,-7.9825 -16.222,-29.8387 89.054,-48.4088 61.299,112.75375 -89.049,48.41375 -16.537,-30.415 -14.688,7.9825 39.927,73.4375 14.682,-7.9825 -14.14,-26.02625 190.469,-103.55 14.961,27.525 14.692,-7.98375 -40.742,-74.9412 -14.687,7.9887 16.532,30.415 -86.732,47.1525 -61.299,-112.7587 86.732,-47.1525 16.222,29.8387 14.687,-7.9887 -40.425,-74.36 z m 372.026,42.6662 -14.687,7.9825 40.425,74.3663 10.63,-5.7813 0,-9.6687 -12.164,-22.3725 12.164,-6.6113 0,-22.1775 -21.465,11.67 -14.903,-27.4075 z m -949.902,19.0575 -14.688,7.9838 14.903,27.4062 -190.474,103.55 -14.903,-27.4075 -14.687,7.98375 40.43,74.36 14.687,-7.9825 -16.22,-29.83875 89.048,-48.40875 61.299,112.75375 -89.048,48.41375 -16.534,-30.415 -14.687,7.9825 39.922,73.4375 14.688,-7.9825 -14.146,-26.02125 190.468,-103.55 14.967,27.525 14.687,-7.98875 -40.742,-74.93625 -14.688,7.98375 16.534,30.415 -86.734,47.1525 -61.299,-112.75375 86.734,-47.1525 16.22,29.8338 14.688,-7.9838 -40.425,-74.36 z m -301.509,9.9613 0,6.3425 2.661,-1.45 -2.661,-4.8925 z m 31.206,57.4012 -14.687,7.9838 16.221,29.8337 -32.74,17.79875 0,22.1775 42.046,-22.85625 14.898,27.40625 14.687,-7.9825 -40.425,-74.36125 z m 1249.498,43.11125 -243.263,41.45 -8.486,-15.61 -14.688,7.9825 32.697,60.1375 14.687,-7.98375 -14.902,-27.4075 218.798,-36.845 -149.262,164.75 -14.966,-27.52375 -14.688,7.98375 32.441,59.6725 14.688,-7.98375 -7.984,-14.6875 162.003,-179.175 0,-11.7425 -7.075,-13.0175 z m -283.184,45.1075 -14.688,7.9825 14.967,27.525 -190.474,103.55 -14.966,-27.525 -14.683,7.98375 43.003,79.10625 14.687,-7.9875 -19.052,-35.04 89.047,-48.4125 27.29,50.19 -34.58,18.79875 8.55,15.7275 82.456,-44.82375 -8.55,-15.7275 -33.188,18.04125 -27.29,-50.19 86.738,-47.15375 50.234,92.4025 -50.307,27.34875 8.237,15.15125 64.995,-35.33625 -82.426,-151.61125 z m -297.676,17.00625 -243.262,41.455 -8.486,-15.615 -14.687,7.98875 32.695,60.13625 14.687,-7.98875 -14.902,-27.40625 218.798,-36.84125 -149.262,164.74625 -14.966,-27.525 -14.688,7.98375 32.446,59.6775 14.684,-7.9825 -7.984,-14.6925 165.992,-183.58 -11.065,-20.35625 z m 587.935,30.07875 -150.992,166.99125 11.066,20.3575 139.926,-23.84375 0,-18.89125 -124.77,21.01125 124.77,-137.72 0,-27.905 z m -868.135,14.63375 -14.683,7.9825 14.961,27.525 -190.473,103.55 -14.962,-27.52 -14.687,7.98375 43.002,79.10125 14.688,-7.98375 -19.053,-35.04375 89.053,-48.4075 27.286,50.19 -34.58,18.79875 8.549,15.7275 82.456,-44.82875 -8.55,-15.7275 -33.187,18.04125 -27.287,-50.19 86.734,-47.15375 50.235,92.4025 -50.307,27.35375 8.236,15.14625 64.996,-35.33125 -82.427,-151.61625 z m 312.651,14.975 -14.693,7.98375 7.989,14.6875 -165.991,183.58375 11.065,20.35625 243.261,-41.455 8.486,15.615 14.688,-7.9875 -32.695,-60.1375 -14.688,7.98875 14.903,27.4075 -218.799,36.84 149.263,-164.745 14.965,27.51875 14.682,-7.98375 -32.436,-59.6725 z m -606.655,8.78875 -125.64,21.40625 0,18.92125 110.484,-18.60375 -110.484,121.94875 0,27.87625 136.705,-151.19625 -11.065,-20.3525 z m 28.779,52.93 -14.688,7.98875 7.984,14.6875 -147.715,163.36875 0,39.33625 236.05,-40.22 8.486,15.61 14.688,-7.9825 -32.69,-60.1375 -14.688,7.98375 14.898,27.4075 -218.794,36.845 149.257,-164.75 14.967,27.52375 14.687,-7.98375 -32.442,-59.6775 z m 945.161,49.32125 -14.688,7.98375 19.054,35.04375 -89.049,48.40875 -27.29,-50.19125 34.58,-18.79875 -8.55,-15.7275 -82.455,44.82875 8.549,15.72875 33.189,-18.0425 27.29,50.19 -86.738,47.15375 -50.235,-92.4025 50.308,-27.35375 -8.238,-15.14625 -64.995,35.3325 82.428,151.61625 14.687,-7.98375 -14.966,-27.53 190.474,-103.54375 14.966,27.51875 14.688,-7.98375 -43.009,-79.10125 z m -577.871,61.71875 -14.688,7.98875 19.049,35.03875 -89.049,48.41375 -27.285,-50.19625 34.575,-18.79875 -8.549,-15.7225 -82.456,44.82375 8.55,15.72875 33.193,-18.0425 27.285,50.19 -86.738,47.15375 -50.235,-92.4025 50.308,-27.34875 -8.237,-15.15125 -64.991,35.3375 82.423,151.61125 14.687,-7.98375 -14.961,-27.525 190.469,-103.54875 14.966,27.52375 14.687,-7.98375 -43.003,-79.10625 z m 322.808,33.6725 -14.687,7.9825 14.901,27.4125 -190.472,103.55 -14.898,-27.4075 -14.687,7.98375 40.423,74.36 14.688,-7.98375 -16.22,-29.83875 89.047,-48.4125 61.304,112.75875 -89.052,48.4075 -16.534,-30.41 -14.688,7.98375 39.923,73.4325 14.687,-7.98375 -14.146,-26.02 190.474,-103.55 14.961,27.525 14.688,-7.98375 -40.743,-74.94125 -14.682,7.98375 16.533,30.42 -86.733,47.1525 -61.304,-112.75875 86.739,-47.1525 16.22,29.83875 14.687,-7.98875 -40.429,-74.36 z m 307.309,0.7125 -14.687,7.98375 14.151,26.02 -190.474,103.55 -14.966,-27.525 -14.683,7.98875 40.738,74.93625 14.687,-7.9825 -16.533,-30.415 86.738,-47.15375 61.299,112.75375 -86.739,47.15375 -16.22,-29.835 -14.687,7.98375 40.429,74.36 14.687,-7.9825 -14.901,-27.4075 190.469,-103.55 14.901,27.4075 14.687,-7.98375 -40.423,-74.36 -14.688,7.98375 16.22,29.83375 -89.047,48.4125 -61.304,-112.75375 89.047,-48.4125 16.539,30.415 14.688,-7.98875 -39.928,-73.4325 z m 135.953,38.735 -56.333,30.625 -14.897,-27.40625 -14.688,7.9825 40.424,74.365 14.687,-7.9875 -16.22,-29.83375 47.027,-25.5675 0,-22.1775 z m -1021.133,22.27625 -14.687,7.9825 14.897,27.4075 -190.469,103.55 -14.902,-27.4075 -14.688,7.98375 40.43,74.36 14.688,-7.98375 -16.221,-29.83375 89.047,-48.4125 61.299,112.75375 -89.048,48.4125 -16.537,-30.415 -14.688,7.98375 39.927,73.4375 14.687,-7.98375 -14.15,-26.02 190.474,-103.55 14.965,27.525 14.687,-7.98875 -40.742,-74.93625 -14.688,7.98375 16.534,30.415 -86.734,47.1525 -61.298,-112.75375 86.733,-47.15375 16.222,29.835 14.687,-7.98375 -40.425,-74.36 z m 307.309,0.7075 -14.688,7.98375 14.147,26.025 -190.474,103.545 -14.961,-27.52 -14.688,7.98375 40.743,74.94125 14.687,-7.9875 -16.539,-30.415 86.734,-47.15375 61.304,112.75875 -86.739,47.15375 -16.22,-29.84 -14.687,7.98375 40.43,74.365 14.687,-7.9825 -14.902,-27.4125 190.473,-103.55 14.898,27.4075 14.687,-7.98375 -40.425,-74.36 -14.687,7.98375 16.22,29.83875 -89.048,48.4075 -61.303,-112.75375 89.052,-48.4125 16.534,30.415 14.687,-7.98375 -39.922,-73.4375 z m -573.955,73.345 0,50.6925 6.587,-3.58375 16.533,30.415 14.687,-7.9825 -37.807,-69.54125 z m 1285.517,33.755 -14.687,7.9825 16.949,31.1825 0,-35.005 -2.262,-4.16 z m -322.861,47.76875 -14.687,7.9875 14.961,27.525 -190.469,103.55 -14.966,-27.525 -14.688,7.98375 43.004,79.10125 14.688,-7.98375 -19.049,-35.03875 89.049,-48.4125 27.285,50.19 -34.58,18.79875 8.555,15.7275 82.455,-44.82375 -8.549,-15.7325 -33.194,18.04625 -27.285,-50.19 86.738,-47.15375 50.235,92.4025 -50.308,27.34875 8.238,15.15125 64.99,-35.33625 -82.423,-151.61625 z m -896.304,40.5225 -14.687,7.9825 16.221,29.83875 -67.886,36.905 0,22.1725 77.193,-41.9625 14.897,27.41125 14.687,-7.9875 -40.425,-74.36 z m 318.428,21.2 -14.688,7.98375 14.967,27.525 -190.474,103.55 -14.965,-27.52 -14.684,7.98375 43.004,79.10125 14.687,-7.98375 -19.052,-35.04375 89.052,-48.40875 27.285,50.19125 -34.58,18.79875 8.55,15.7275 82.457,-44.82875 -8.545,-15.7275 -33.194,18.04125 -27.285,-50.19 86.734,-47.15375 50.233,92.4025 -50.307,27.35375 8.237,15.14625 64.995,-35.3325 -82.427,-151.61625 z m 902.999,25.92375 -216.309,36.86 -8.486,-15.61 -14.688,7.9825 32.69,60.1375 14.688,-7.98375 -14.898,-27.4075 207.003,-34.8575 0,-19.12125 z m 0,30.15125 -137.467,151.73375 -14.965,-27.525 -14.687,7.98375 32.446,59.6775 14.688,-7.98875 -7.989,-14.6875 127.974,-141.5375 0,-27.65625 z m -550.923,26.9775 -243.262,41.455 -8.487,-15.615 -14.687,7.9875 32.695,60.1375 14.687,-7.98875 -14.901,-27.4075 218.799,-36.84 -149.264,164.74625 -14.965,-27.525 -14.687,7.98375 32.446,59.6775 14.687,-7.98875 -7.988,-14.6875 165.991,-183.57875 -11.064,-20.35625 z m 327.861,42.96375 -14.687,7.98375 19.052,35.03875 -89.052,48.4125 -27.285,-50.19 34.58,-18.79875 -8.55,-15.7275 -82.456,44.82875 8.55,15.7275 33.188,-18.04625 27.285,50.19 -86.733,47.15875 -50.235,-92.4025 50.303,-27.35375 -8.232,-15.14625 -64.995,35.33125 82.426,151.61625 14.688,-7.9825 -14.967,-27.53 190.474,-103.55 14.962,27.525 14.687,-7.98375 -43.003,-79.10125 z m -295.41,16.72375 -14.692,7.98375 7.987,14.6875 -165.991,183.58375 11.065,20.35625 243.261,-41.455 8.487,15.615 14.687,-7.98875 -32.695,-60.13625 -14.687,7.98875 14.902,27.40625 -218.794,36.84125 149.258,-164.74625 14.966,27.52 14.683,-7.98375 -32.437,-59.6725 z m 518.472,8.4175 -116.963,129.36125 11.064,20.35625 105.899,-18.0475 0,-18.96 -90.743,15.28375 90.743,-100.16125 0,-27.8325 z m -1126.993,1.3475 -160.786,27.3975 0,18.8475 145.63,-24.52125 -145.63,160.7375 0,43.68625 13.847,-7.52375 -7.987,-14.6875 165.991,-183.58375 -11.065,-20.3525 z m 326.06,35.23 -14.687,7.98875 19.047,35.03875 -89.047,48.4125 -27.285,-50.195 34.575,-18.79375 -8.55,-15.7275 -82.456,44.82375 8.549,15.7275 33.194,-18.04125 27.285,50.19 -86.739,47.15375 -50.233,-92.4025 50.307,-27.34875 -8.237,-15.15125 -64.99,35.33625 82.421,151.61125 14.687,-7.9825 -14.96,-27.525 190.469,-103.55 14.965,27.525 14.688,-7.98375 -43.003,-79.10625 z m -297.285,17.7 -14.682,7.98375 7.982,14.6875 -165.991,183.58375 11.065,20.35625 243.261,-41.455 8.487,15.615 14.687,-7.9875 -32.69,-60.1375 -14.687,7.98875 14.897,27.4075 -218.794,36.84 149.258,-164.75 14.966,27.52375 14.688,-7.98375 -32.447,-59.6725 z m 927.403,16.685 -14.688,7.9825 14.145,26.02125 -190.473,103.55 -14.962,-27.525 -14.687,7.98375 40.742,74.94125 14.688,-7.98375 -16.533,-30.415 86.733,-47.1525 61.299,112.75375 -86.733,47.1525 -16.221,-29.83375 -14.688,7.98375 40.425,74.36 14.688,-7.9825 -14.898,-27.4075 190.469,-103.55 14.902,27.4075 14.688,-7.98375 -40.43,-74.36 -14.688,7.9825 16.222,29.835 -89.049,48.4125 -61.299,-112.75375 89.049,-48.41375 16.533,30.415 14.687,-7.9875 -39.921,-73.4325 z m -577.872,61.71875 -14.687,7.9825 14.145,26.02625 -190.474,103.545 -14.961,-27.52 -14.687,7.98375 40.742,74.94125 14.682,-7.98875 -16.532,-30.415 86.737,-47.1525 61.299,112.75875 -86.737,47.1525 -16.222,-29.83875 -14.687,7.98875 40.425,74.36 14.687,-7.9875 -14.897,-27.4075 190.474,-103.55 14.897,27.4075 14.688,-7.98375 -40.425,-74.36 -14.688,7.9825 16.221,29.83875 -89.048,48.40875 -61.304,-112.75375 89.054,-48.41375 16.532,30.415 14.688,-7.9825 -39.921,-73.4375 z m 342.437,65.33125 -14.683,7.98375 14.898,27.4125 -190.474,103.55 -14.897,-27.4125 -14.688,7.98875 40.425,74.36 14.687,-7.98875 -16.221,-29.83375 89.053,-48.4125 61.299,112.75875 -89.053,48.4075 -16.533,-30.41 -14.687,7.98375 39.921,73.4325 14.688,-7.98375 -14.145,-26.02 190.473,-103.55 14.965,27.52375 14.683,-7.9825 -40.736,-74.94125 -14.688,7.9825 16.533,30.42 -86.734,47.14875 -61.304,-112.75375 86.739,-47.15375 16.221,29.83875 14.688,-7.9875 -40.43,-74.36125 z m 369.047,43.0625 -14.687,7.9825 40.425,74.36125 11.465,-6.23125 0,-7.68 -12.999,-23.91125 12.999,-7.06625 0,-22.1725 -22.305,12.12375 -14.898,-27.40625 z m -948.784,19.63375 -14.687,7.9825 14.897,27.4125 -190.468,103.55 -14.903,-27.4125 -14.687,7.98875 40.425,74.36 14.687,-7.98875 -16.221,-29.83375 89.049,-48.4125 61.302,112.75875 -89.047,48.4075 -16.538,-30.415 -14.687,7.98875 39.926,73.4325 14.687,-7.98375 -14.15,-26.02 190.474,-103.55 14.965,27.525 14.688,-7.98375 -40.741,-74.94125 -14.688,7.98375 16.532,30.41875 -86.733,47.14875 -61.303,-112.75375 86.738,-47.15375 16.221,29.84 14.687,-7.98875 -40.425,-74.36 z m -301.792,9.4475 0,7.0125 2.945,-1.6025 -2.945,-5.41 z m 31.49,57.915 -14.688,7.98375 16.221,29.83875 -33.023,17.94875 0,22.17375 42.325,-23.00875 14.903,27.4125 14.687,-7.9875 -40.425,-74.36125 z m 1248.374,42.535 -243.258,41.45 -8.491,-15.61125 -14.687,7.98375 32.696,60.1375 14.687,-7.98375 -14.902,-27.4125 218.798,-36.84 -149.257,164.75 -14.966,-27.52375 -14.688,7.9825 32.441,59.67375 14.688,-7.98375 -7.984,-14.6875 162.838,-180.0975 0,-9.2825 -7.915,-14.555 z m -280.195,44.70625 -14.688,7.98875 14.96,27.52375 -190.469,103.55 -14.965,-27.52375 -14.687,7.9825 43.003,79.1025 14.687,-7.98375 -19.047,-35.03875 89.047,-48.41375 27.285,50.19125 -34.575,18.79875 8.55,15.7275 82.456,-44.825 -8.55,-15.7325 -33.194,18.0475 -27.284,-50.19 86.738,-47.15375 50.234,92.4025 -50.308,27.34875 8.238,15.15125 64.99,-35.3375 -82.421,-151.61625 z m -297.677,17.0125 -243.261,41.455 -8.486,-15.61625 -14.688,7.98875 32.695,60.13625 14.688,-7.9875 -14.903,-27.4075 218.799,-36.84125 -149.262,164.74625 -14.967,-27.52375 -14.687,7.9825 32.441,59.67875 14.693,-7.98375 -7.988,-14.6925 165.991,-183.57875 -11.065,-20.35625 z m 585.787,29.545 -151.831,167.92 11.07,20.35625 140.761,-23.98375 0,-18.89125 -125.605,21.1475 125.605,-138.63875 0,-27.91 z m -867.851,16.1375 -14.688,7.98875 14.96,27.525 -190.469,103.54875 -14.965,-27.52375 -14.687,7.98375 43.007,79.10125 14.688,-7.98375 -19.053,-35.03875 89.048,-48.41375 27.29,50.19125 -34.58,18.79875 8.55,15.7275 82.456,-44.82375 -8.55,-15.7325 -33.189,18.04625 -27.285,-50.19 86.734,-47.15375 50.234,92.4025 -50.308,27.34875 8.238,15.14625 64.995,-35.3325 -82.426,-151.61625 z m 314.511,14.005 -14.688,7.9825 7.984,14.6875 -165.986,183.585 11.064,20.35125 243.262,-41.45 8.486,15.61 14.688,-7.98375 -32.691,-60.13625 -14.693,7.98375 14.903,27.40625 -218.799,36.84625 149.262,-164.75125 14.962,27.525 14.687,-7.98375 -32.441,-59.6725 z m -608.515,9.76 -125.924,21.46 0,18.91625 110.763,-18.6475 -110.763,122.25625 0,27.875 136.988,-151.50375 -11.064,-20.35625 z m 28.774,52.935 -14.688,7.98375 7.989,14.6875 -147.999,163.68125 0,39.0775 236.329,-40.27375 8.491,15.615 14.688,-7.98875 -32.697,-60.13625 -14.682,7.98875 14.897,27.40625 -218.793,36.84125 149.257,-164.74625 14.961,27.52 14.688,-7.98375 -32.441,-59.6725 z m 947.031,48.345 -14.688,7.9825 19.053,35.04 -89.053,48.4125 -27.285,-50.19 34.58,-18.79875 -8.55,-15.7275 -82.456,44.82875 8.55,15.7275 33.189,-18.0475 27.285,50.19125 -86.734,47.1575 -50.234,-92.4025 50.308,-27.3525 -8.238,-15.1475 -64.995,35.3325 82.427,151.61625 14.687,-7.98375 -14.965,-27.52875 190.474,-103.55 14.965,27.525 14.682,-7.98375 -43.002,-79.10125 z m -579.741,62.69 -14.688,7.98875 19.053,35.03875 -89.048,48.4125 -27.29,-50.19 34.58,-18.79875 -8.55,-15.7325 -82.456,44.82875 8.55,15.7275 33.189,-18.04125 27.29,50.19 -86.739,47.15375 -50.234,-92.4025 50.308,-27.34875 -8.238,-15.14625 -64.995,35.33125 60.748,111.73875 29.657,-0.1175 182.218,-99.0675 14.965,27.525 14.682,-7.98375 -43.002,-79.10625 z m 324.677,32.7 -14.687,7.98375 14.902,27.4125 -164.135,89.2275 41.089,-0.16125 30.927,-16.81625 9.058,16.66 18.989,-0.0775 -13.359,-24.565 86.734,-47.15375 16.22,29.83375 14.692,-7.98375 -40.43,-74.36 z m 307.31,0.7125 -14.687,7.98375 14.145,26.02125 -163.139,88.69125 40.81,-0.16125 27.837,-15.1325 8.149,14.99125 18.99,-0.0738 -12.451,-22.9 89.047,-48.41375 16.538,30.415 14.682,-7.9875 -39.921,-73.43375 z m 133.804,38.6775 -57.168,31.07875 -14.902,-27.4075 -14.688,7.98375 38.804,71.3775 7.167,-0.03 9.146,-4.97 -16.22,-29.83875 47.861,-26.02125 0,-22.1725 z m -1020.855,23.305 -14.688,7.98375 14.903,27.4125 -52.216,28.38875 41.083,-0.16625 20.44,-11.10875 5.982,11.00625 18.988,-0.0788 -34.492,-63.4375 z m 307.31,0.70875 -14.683,7.9875 14.14,26.02125 -51.22,27.84625 40.805,-0.16125 19.659,-10.68875 5.756,10.58625 18.985,-0.0725 -33.442,-61.51875 z m 373.765,47.33875 -14.688,7.98375 2.667,4.8975 18.983,-0.0738 -6.962,-12.8075 z m -306.49,0.79125 -14.688,7.9825 2.892,5.3175 18.983,-0.0725 -7.187,-13.2275 z"
         inkscape:connector-curvature="0" />
    </g>
  </g>
</svg>
