<?xml version="1.0" encoding="UTF-8" standalone="no"?>
<!-- Created with Inkscape (http://www.inkscape.org/) -->

<svg
   xmlns:dc="http://purl.org/dc/elements/1.1/"
   xmlns:cc="http://creativecommons.org/ns#"
   xmlns:rdf="http://www.w3.org/1999/02/22-rdf-syntax-ns#"
   xmlns:svg="http://www.w3.org/2000/svg"
   xmlns="http://www.w3.org/2000/svg"
   xmlns:sodipodi="http://sodipodi.sourceforge.net/DTD/sodipodi-0.dtd"
   xmlns:inkscape="http://www.inkscape.org/namespaces/inkscape"
   width="1801.6782"
   height="3888.2734"
   id="svg2"
   version="1.1"
   inkscape:version="0.48.5 r10040"
   sodipodi:docname="White 1.svg">
  <defs
     id="defs4" />
  <sodipodi:namedview
     id="base"
     pagecolor="#ffffff"
     bordercolor="#666666"
     borderopacity="1.0"
     inkscape:pageopacity="0.0"
     inkscape:pageshadow="2"
     inkscape:zoom="0.30013321"
     inkscape:cx="970.80804"
     inkscape:cy="1974.1234"
     inkscape:document-units="in"
     inkscape:current-layer="layer1"
     showgrid="false"
     units="in"
     inkscape:window-width="2445"
     inkscape:window-height="1343"
     inkscape:window-x="9"
     inkscape:window-y="0"
     inkscape:window-maximized="0"
     fit-margin-top="0"
     fit-margin-left="0"
     fit-margin-right="0"
     fit-margin-bottom="0"
     showguides="true"
     inkscape:guide-bbox="true" />
  <metadata
     id="metadata7">
    <rdf:RDF>
      <cc:Work
         rdf:about="">
        <dc:format>image/svg+xml</dc:format>
        <dc:type
           rdf:resource="http://purl.org/dc/dcmitype/StillImage" />
        <dc:title />
      </cc:Work>
    </rdf:RDF>
  </metadata>
  <g
     inkscape:label="Layer 1"
     inkscape:groupmode="layer"
     id="layer1"
     transform="translate(-7114.9344,3132.7715)">
    <g
       transform="matrix(1.25,0,0,1.25,1046.4795,-8017.6529)"
       id="g3029" />
    <g
       transform="matrix(1.25,0,0,1.25,1046.4795,-8017.6529)"
       id="g3033" />
    <g
       transform="matrix(1.25,0,0,1.25,1046.4795,-8017.6529)"
       id="g3037" />
    <g
       transform="matrix(1.25,0,0,1.25,1046.4795,-8017.6529)"
       id="g3041" />
    <g
       transform="matrix(1.25,0,0,1.25,1046.4795,-8017.6529)"
       id="g3045" />
    <g
       transform="matrix(1.25,0,0,1.25,1046.4795,-8017.6529)"
       id="g3049" />
    <g
       transform="matrix(1.25,0,0,1.25,1046.4795,-8017.6529)"
       id="g3053" />
    <g
       transform="matrix(1.25,0,0,1.25,1046.4795,-8017.6529)"
       id="g3057" />
    <g
       transform="matrix(1.25,0,0,1.25,1046.4795,-8017.6529)"
       id="g3061" />
    <g
       transform="matrix(1.25,0,0,1.25,1046.4795,-8017.6529)"
       id="g3065" />
    <g
       transform="matrix(1.25,0,0,1.25,1046.4795,-8017.6529)"
       id="g3069" />
    <g
       transform="matrix(1.25,0,0,1.25,1046.4795,-8017.6529)"
       id="g3073" />
    <g
       transform="matrix(1.25,0,0,1.25,1046.4795,-8017.6529)"
       id="g3077" />
    <g
       transform="matrix(1.25,0,0,1.25,1046.4795,-8017.6529)"
       id="g3081" />
    <g
       transform="matrix(1.25,0,0,1.25,1046.4795,-8017.6529)"
       id="g3085" />
    <g
       transform="matrix(1.25,0,0,1.25,1046.4795,-8017.6529)"
       id="g3089" />
    <g
       transform="matrix(1.25,0,0,1.25,1046.4795,-8017.6529)"
       id="g3093" />
    <g
       transform="matrix(1.25,0,0,1.25,1046.4795,-8017.6529)"
       id="g3097" />
    <g
       transform="matrix(1.25,0,0,1.25,1046.4795,-8017.6529)"
       id="g3101" />
    <g
       transform="matrix(1.25,0,0,1.25,1046.4795,-8017.6529)"
       id="g3105" />
    <g
       transform="matrix(1.25,0,0,1.25,1046.4795,-8017.6529)"
       id="g3109" />
    <g
       transform="matrix(1.25,0,0,1.25,1046.4795,-8017.6529)"
       id="g3113" />
    <g
       transform="matrix(1.25,0,0,1.25,1046.4795,-8017.6529)"
       id="g3117" />
    <g
       transform="matrix(1.25,0,0,1.25,1046.4795,-8017.6529)"
       id="g3121" />
    <g
       transform="matrix(1.25,0,0,1.25,1046.4795,-8017.6529)"
       id="g3125" />
    <g
       transform="matrix(1.25,0,0,1.25,1046.4795,-8017.6529)"
       id="g3129" />
    <g
       transform="matrix(1.25,0,0,1.25,1046.4795,-8017.6529)"
       id="g3133" />
    <g
       transform="matrix(1.25,0,0,1.25,1046.4795,-8017.6529)"
       id="g3137" />
    <g
       transform="matrix(1.25,0,0,1.25,1046.4795,-8017.6529)"
       id="g3141" />
    <g
       transform="matrix(1.25,0,0,1.25,1046.4795,-8017.6529)"
       id="g3145" />
    <g
       transform="matrix(1.25,0,0,1.25,1046.4795,-8017.6529)"
       id="g3149" />
    <g
       transform="matrix(1.25,0,0,1.25,1046.4795,-8017.6529)"
       id="g3153" />
    <g
       transform="matrix(1.25,0,0,1.25,1046.4795,-8017.6529)"
       id="g3157" />
    <g
       transform="matrix(1.25,0,0,1.25,1046.4795,-8017.6529)"
       id="g3161" />
    <g
       transform="matrix(1.25,0,0,1.25,1046.4795,-8017.6529)"
       id="g3165" />
    <g
       transform="matrix(1.25,0,0,1.25,1046.4795,-8017.6529)"
       id="g3169" />
    <g
       transform="matrix(1.25,0,0,1.25,1046.4795,-8017.6529)"
       id="g3173" />
    <g
       transform="matrix(1.25,0,0,1.25,1046.4795,-8017.6529)"
       id="g3177" />
    <g
       transform="matrix(1.25,0,0,1.25,1046.4795,-8017.6529)"
       id="g3181" />
    <g
       transform="matrix(1.25,0,0,1.25,1046.4795,-8017.6529)"
       id="g3185" />
    <g
       transform="matrix(1.25,0,0,1.25,1046.4795,-8017.6529)"
       id="g3189" />
    <g
       transform="matrix(1.25,0,0,1.25,1046.4795,-8017.6529)"
       id="g3193" />
    <g
       transform="matrix(1.25,0,0,1.25,1046.4795,-8017.6529)"
       id="g3197" />
    <g
       transform="matrix(1.25,0,0,1.25,1046.4795,-8017.6529)"
       id="g3201" />
    <g
       transform="matrix(1.25,0,0,1.25,1046.4795,-8017.6529)"
       id="g3205" />
    <g
       transform="matrix(1.25,0,0,1.25,1046.4795,-8017.6529)"
       id="g3209" />
    <g
       transform="matrix(1.25,0,0,1.25,1046.4795,-8017.6529)"
       id="g3213" />
    <g
       transform="matrix(1.25,0,0,1.25,1046.4795,-8017.6529)"
       id="g3217" />
    <g
       transform="matrix(1.25,0,0,1.25,1046.4795,-8017.6529)"
       id="g3221" />
    <g
       transform="matrix(1.25,0,0,1.25,1046.4795,-8017.6529)"
       id="g3225" />
    <g
       transform="matrix(1.25,0,0,1.25,1046.4795,-8017.6529)"
       id="g3229" />
    <g
       transform="matrix(1.25,0,0,1.25,1046.4795,-8017.6529)"
       id="g3233" />
    <g
       transform="matrix(1.25,0,0,1.25,1046.4795,-8017.6529)"
       id="g3237" />
    <g
       transform="matrix(1.25,0,0,1.25,1046.4795,-8017.6529)"
       id="g3241" />
    <g
       transform="matrix(1.25,0,0,1.25,1046.4795,-8017.6529)"
       id="g3245" />
    <g
       transform="matrix(1.25,0,0,1.25,1046.4795,-8017.6529)"
       id="g3249" />
    <g
       transform="matrix(1.25,0,0,1.25,1046.4795,-8017.6529)"
       id="g3253" />
    <g
       transform="matrix(1.25,0,0,1.25,1046.4795,-8017.6529)"
       id="g3257" />
    <g
       transform="matrix(1.25,0,0,1.25,1046.4795,-8017.6529)"
       id="g3261" />
    <g
       transform="matrix(1.25,0,0,1.25,1046.4795,-8017.6529)"
       id="g3265" />
    <g
       transform="matrix(1.25,0,0,1.25,1046.4795,-8017.6529)"
       id="g3269" />
    <g
       transform="matrix(1.25,0,0,1.25,1046.4795,-8017.6529)"
       id="g3273" />
    <g
       transform="matrix(1.25,0,0,1.25,1046.4795,-8017.6529)"
       id="g3277" />
    <g
       transform="matrix(1.25,0,0,1.25,1046.4795,-8017.6529)"
       id="g3281" />
    <g
       transform="matrix(1.25,0,0,1.25,1046.4795,-8017.6529)"
       id="g3285" />
    <g
       transform="matrix(1.25,0,0,1.25,1046.4795,-8017.6529)"
       id="g3289" />
    <g
       transform="matrix(1.25,0,0,1.25,1046.4795,-8017.6529)"
       id="g3293" />
    <g
       transform="matrix(1.25,0,0,1.25,1046.4795,-8017.6529)"
       id="g3297" />
    <g
       transform="matrix(1.25,0,0,1.25,1046.4795,-8017.6529)"
       id="g3301" />
    <g
       transform="matrix(1.25,0,0,1.25,1046.4795,-8017.6529)"
       id="g3305" />
    <g
       transform="matrix(1.25,0,0,1.25,1046.4795,-8017.6529)"
       id="g3309" />
    <g
       transform="matrix(1.25,0,0,1.25,1046.4795,-8017.6529)"
       id="g3313" />
    <g
       transform="matrix(1.25,0,0,1.25,1046.4795,-8017.6529)"
       id="g3317" />
    <g
       transform="matrix(1.25,0,0,1.25,1046.4795,-8017.6529)"
       id="g3321" />
    <g
       transform="matrix(1.25,0,0,1.25,1046.4795,-8017.6529)"
       id="g3325" />
    <g
       transform="matrix(1.25,0,0,1.25,1046.4795,-8017.6529)"
       id="g3329" />
    <g
       transform="matrix(1.25,0,0,1.25,1046.4795,-8017.6529)"
       id="g3333" />
    <g
       transform="matrix(1.25,0,0,1.25,1046.4795,-8017.6529)"
       id="g3337" />
    <g
       transform="matrix(1.25,0,0,1.25,1046.4795,-8017.6529)"
       id="g3341" />
    <g
       transform="matrix(1.25,0,0,1.25,1046.4795,-8017.6529)"
       id="g3345" />
    <g
       transform="matrix(1.25,0,0,1.25,1046.4795,-8017.6529)"
       id="g3349" />
    <g
       transform="matrix(1.25,0,0,1.25,1046.4795,-8017.6529)"
       id="g3353" />
    <g
       transform="matrix(1.25,0,0,1.25,1046.4795,-8017.6529)"
       id="g3361" />
    <g
       transform="matrix(1.25,0,0,1.25,1046.4795,-8017.6529)"
       id="g3365" />
    <g
       transform="matrix(1.25,0,0,1.25,1046.4795,-8017.6529)"
       id="g3373" />
    <g
       transform="matrix(1.25,0,0,1.25,1046.4795,-8017.6529)"
       id="g3377" />
    <g
       transform="matrix(1.25,0,0,1.25,1046.4795,-8017.6529)"
       id="g3381" />
    <g
       transform="matrix(1.25,0,0,1.25,1046.4795,-8017.6529)"
       id="g3385" />
    <g
       transform="matrix(1.25,0,0,1.25,1046.4795,-8017.6529)"
       id="g3389" />
    <g
       transform="matrix(1.25,0,0,1.25,1046.4795,-8017.6529)"
       id="g3393" />
    <g
       transform="matrix(1.25,0,0,1.25,1046.4795,-8017.6529)"
       id="g3397" />
    <g
       transform="matrix(1.25,0,0,1.25,1046.4795,-8017.6529)"
       id="g3401" />
    <g
       transform="matrix(1.25,0,0,1.25,1046.4795,-8017.6529)"
       id="g3405" />
    <g
       transform="matrix(1.25,0,0,1.25,1046.4795,-8017.6529)"
       id="g3409" />
    <g
       transform="matrix(1.25,0,0,1.25,1046.4795,-8017.6529)"
       id="g3413" />
    <g
       transform="matrix(1.25,0,0,1.25,1046.4795,-8017.6529)"
       id="g3417" />
    <g
       transform="matrix(1.25,0,0,1.25,1046.4795,-8017.6529)"
       id="g3421" />
    <g
       transform="matrix(1.25,0,0,1.25,1046.4795,-8017.6529)"
       id="g3425" />
    <g
       transform="matrix(1.25,0,0,1.25,1046.4795,-8017.6529)"
       id="g3429" />
    <g
       transform="matrix(1.25,0,0,1.25,1046.4795,-8017.6529)"
       id="g3433" />
    <g
       transform="matrix(1.25,0,0,1.25,1046.4795,-8017.6529)"
       id="g3437" />
    <g
       transform="matrix(1.25,0,0,1.25,1046.4795,-8017.6529)"
       id="g3441" />
    <g
       transform="matrix(1.25,0,0,1.25,1046.4795,-8017.6529)"
       id="g3445" />
    <g
       transform="matrix(1.25,0,0,1.25,1046.4795,-8017.6529)"
       id="g3449" />
    <g
       transform="matrix(1.25,0,0,1.25,1046.4795,-8017.6529)"
       id="g3453" />
    <g
       transform="matrix(1.25,0,0,1.25,1046.4795,-8017.6529)"
       id="g3457" />
    <g
       transform="matrix(1.25,0,0,1.25,1046.4795,-8017.6529)"
       id="g3461" />
    <g
       transform="matrix(1.25,0,0,1.25,1046.4795,-8017.6529)"
       id="g3465" />
    <g
       transform="matrix(1.25,0,0,1.25,1046.4795,-8017.6529)"
       id="g3469" />
    <g
       transform="matrix(1.25,0,0,1.25,1046.4795,-8017.6529)"
       id="g3473" />
    <g
       transform="matrix(1.25,0,0,1.25,1046.4795,-8017.6529)"
       id="g3477" />
    <g
       transform="matrix(1.25,0,0,1.25,1046.4795,-8017.6529)"
       id="g3481" />
    <g
       transform="matrix(1.25,0,0,1.25,1046.4795,-8017.6529)"
       id="g3485" />
    <g
       transform="matrix(1.25,0,0,1.25,1046.4795,-8017.6529)"
       id="g3489" />
    <g
       transform="matrix(1.25,0,0,1.25,1046.4795,-8017.6529)"
       id="g3493" />
    <g
       transform="matrix(1.25,0,0,1.25,1046.4795,-8017.6529)"
       id="g3497" />
    <g
       transform="matrix(1.25,0,0,1.25,1046.4795,-8017.6529)"
       id="g3501" />
    <g
       transform="matrix(1.25,0,0,1.25,1046.4795,-8017.6529)"
       id="g3505" />
    <g
       transform="matrix(1.25,0,0,1.25,1046.4795,-8017.6529)"
       id="g3509" />
    <g
       transform="matrix(1.25,0,0,1.25,1046.4795,-8017.6529)"
       id="g3513" />
    <g
       transform="matrix(1.25,0,0,1.25,1046.4795,-8017.6529)"
       id="g3517" />
    <g
       transform="matrix(1.25,0,0,1.25,1046.4795,-8017.6529)"
       id="g3525" />
    <g
       transform="matrix(1.25,0,0,1.25,1046.4795,-8017.6529)"
       id="g3529" />
    <g
       transform="matrix(1.25,0,0,1.25,1046.4795,-8017.6529)"
       id="g3533" />
    <g
       transform="matrix(1.25,0,0,1.25,1046.4795,-8017.6529)"
       id="g3537" />
    <g
       transform="matrix(1.25,0,0,1.25,1046.4795,-8017.6529)"
       id="g3541" />
    <g
       transform="matrix(1.25,0,0,1.25,1046.4795,-8017.6529)"
       id="g3545" />
    <g
       transform="matrix(1.25,0,0,1.25,1046.4795,-8017.6529)"
       id="g3549" />
    <g
       transform="matrix(1.25,0,0,1.25,1046.4795,-8017.6529)"
       id="g3553" />
    <g
       transform="matrix(1.25,0,0,1.25,1046.4795,-8017.6529)"
       id="g3557" />
    <g
       transform="matrix(1.25,0,0,1.25,1046.4795,-8017.6529)"
       id="g3561" />
    <g
       transform="matrix(1.25,0,0,1.25,1046.4795,-8017.6529)"
       id="g3565" />
    <g
       transform="matrix(1.25,0,0,1.25,1046.4795,-8017.6529)"
       id="g3569" />
    <g
       transform="matrix(1.25,0,0,1.25,1046.4795,-8017.6529)"
       id="g3573" />
    <g
       transform="matrix(1.25,0,0,1.25,1046.4795,-8017.6529)"
       id="g3581" />
    <g
       transform="matrix(1.25,0,0,1.25,1046.4795,-8017.6529)"
       id="g3585" />
    <g
       transform="matrix(1.25,0,0,1.25,1046.4795,-8017.6529)"
       id="g3589" />
    <g
       transform="matrix(1.25,0,0,1.25,1046.4795,-8017.6529)"
       id="g3593" />
    <g
       transform="matrix(1.25,0,0,1.25,1046.4795,-8017.6529)"
       id="g3597" />
    <g
       transform="matrix(1.25,0,0,1.25,1046.4795,-8017.6529)"
       id="g3601" />
    <g
       transform="matrix(1.25,0,0,1.25,1046.4795,-8017.6529)"
       id="g3605" />
    <g
       transform="matrix(1.25,0,0,1.25,1046.4795,-8017.6529)"
       id="g3609" />
    <g
       transform="matrix(1.25,0,0,1.25,1046.4795,-8017.6529)"
       id="g3613" />
    <g
       transform="matrix(1.25,0,0,1.25,1046.4795,-8017.6529)"
       id="g3617" />
    <g
       transform="matrix(1.25,0,0,1.25,1046.4795,-8017.6529)"
       id="g3621" />
    <g
       transform="matrix(1.25,0,0,1.25,1046.4795,-8017.6529)"
       id="g3625" />
    <g
       transform="matrix(1.25,0,0,1.25,1046.4795,-8017.6529)"
       id="g3629" />
    <g
       transform="matrix(1.25,0,0,1.25,1046.4795,-8017.6529)"
       id="g3633" />
    <g
       transform="matrix(1.25,0,0,1.25,1046.4795,-8017.6529)"
       id="g3637" />
    <g
       transform="matrix(1.25,0,0,1.25,1046.4795,-8017.6529)"
       id="g3641" />
    <g
       transform="matrix(1.25,0,0,1.25,1046.4795,-8017.6529)"
       id="g3645" />
    <g
       transform="matrix(1.25,0,0,1.25,1046.4795,-8017.6529)"
       id="g3649" />
    <g
       transform="matrix(1.25,0,0,1.25,1046.4795,-8017.6529)"
       id="g3653" />
    <g
       transform="matrix(1.25,0,0,1.25,1046.4795,-8017.6529)"
       id="g3657" />
    <g
       transform="matrix(1.25,0,0,1.25,1046.4795,-8017.6529)"
       id="g3661" />
    <g
       transform="matrix(1.25,0,0,1.25,1046.4795,-8017.6529)"
       id="g3665" />
    <g
       transform="matrix(1.25,0,0,1.25,1046.4795,-8017.6529)"
       id="g3669" />
    <g
       transform="matrix(1.25,0,0,1.25,1046.4795,-8017.6529)"
       id="g3673" />
    <g
       transform="matrix(1.25,0,0,1.25,1046.4795,-8017.6529)"
       id="g3677" />
    <g
       transform="matrix(1.25,0,0,1.25,1046.4795,-8017.6529)"
       id="g3681" />
    <g
       transform="matrix(1.25,0,0,1.25,1046.4795,-8017.6529)"
       id="g3685" />
    <g
       transform="matrix(1.25,0,0,1.25,1046.4795,-8017.6529)"
       id="g3689" />
    <g
       transform="matrix(1.25,0,0,1.25,1046.4795,-8017.6529)"
       id="g3693" />
    <g
       transform="matrix(1.25,0,0,1.25,1046.4795,-8017.6529)"
       id="g3697" />
    <g
       transform="matrix(1.25,0,0,1.25,1046.4795,-8017.6529)"
       id="g3701" />
    <g
       transform="matrix(1.25,0,0,1.25,1046.4795,-8017.6529)"
       id="g3705" />
    <g
       transform="matrix(1.25,0,0,1.25,1046.4795,-8017.6529)"
       id="g3709" />
    <g
       transform="matrix(1.25,0,0,1.25,1046.4795,-8017.6529)"
       id="g3713" />
    <g
       transform="matrix(1.25,0,0,1.25,1046.4795,-8017.6529)"
       id="g3717" />
    <g
       transform="matrix(1.25,0,0,1.25,1046.4795,-8017.6529)"
       id="g3721" />
    <g
       transform="matrix(1.25,0,0,1.25,1046.4795,-8017.6529)"
       id="g3725" />
    <g
       transform="matrix(1.25,0,0,1.25,1046.4795,-8017.6529)"
       id="g3729" />
    <g
       transform="matrix(1.25,0,0,1.25,1046.4795,-8017.6529)"
       id="g3733" />
    <g
       transform="matrix(1.25,0,0,1.25,1046.4795,-8017.6529)"
       id="g3737" />
    <g
       transform="matrix(1.25,0,0,1.25,1046.4795,-8017.6529)"
       id="g3741" />
    <g
       transform="matrix(1.25,0,0,1.25,1046.4795,-8017.6529)"
       id="g3745" />
    <g
       transform="matrix(1.25,0,0,1.25,1046.4795,-8017.6529)"
       id="g3749" />
    <g
       transform="matrix(1.25,0,0,1.25,1046.4795,-8017.6529)"
       id="g3753" />
    <g
       transform="matrix(1.25,0,0,1.25,1046.4795,-8017.6529)"
       id="g3757" />
    <g
       transform="matrix(1.25,0,0,1.25,1046.4795,-8017.6529)"
       id="g3761" />
    <g
       transform="matrix(1.25,0,0,1.25,1046.4795,-8017.6529)"
       id="g3765" />
    <g
       transform="matrix(1.25,0,0,1.25,1046.4795,-8017.6529)"
       id="g3769" />
    <g
       transform="matrix(1.25,0,0,1.25,1046.4795,-8017.6529)"
       id="g3773" />
    <g
       transform="matrix(1.25,0,0,1.25,1046.4795,-8017.6529)"
       id="g3777" />
    <g
       transform="matrix(1.25,0,0,1.25,1046.4795,-8017.6529)"
       id="g3781" />
    <g
       transform="matrix(1.25,0,0,1.25,1046.4795,-8017.6529)"
       id="g3785" />
    <g
       transform="matrix(1.25,0,0,1.25,1046.4795,-8017.6529)"
       id="g3789" />
    <g
       transform="matrix(1.25,0,0,1.25,1046.4795,-8017.6529)"
       id="g3793" />
    <g
       transform="matrix(1.25,0,0,1.25,1046.4795,-8017.6529)"
       id="g3797" />
    <g
       transform="matrix(1.25,0,0,1.25,1046.4795,-8017.6529)"
       id="g3803" />
    <g
       transform="matrix(1.25,0,0,1.25,1046.4795,-8017.6529)"
       id="g3807" />
    <g
       transform="matrix(1.25,0,0,1.25,1046.4795,-8017.6529)"
       id="g3811" />
    <g
       transform="matrix(1.25,0,0,1.25,1046.4795,-8017.6529)"
       id="g3817" />
    <g
       transform="matrix(1.25,0,0,1.25,1046.4795,-8017.6529)"
       id="g3821" />
    <g
       transform="matrix(1.25,0,0,1.25,1046.4795,-8017.6529)"
       id="g3833" />
    <g
       transform="matrix(1.25,0,0,1.25,1046.4795,-8017.6529)"
       id="g3837" />
    <g
       transform="matrix(1.25,0,0,1.25,1046.4795,-8017.6529)"
       id="g3841" />
    <g
       transform="matrix(1.25,0,0,1.25,1046.4795,-8017.6529)"
       id="g3845" />
    <g
       transform="matrix(1.25,0,0,1.25,1046.4795,-8017.6529)"
       id="g3849" />
    <g
       transform="matrix(1.25,0,0,1.25,1046.4795,-8017.6529)"
       id="g3853" />
    <g
       transform="matrix(1.25,0,0,1.25,1046.4795,-8017.6529)"
       id="g3857" />
    <g
       transform="matrix(1.25,0,0,1.25,1046.4795,-8017.6529)"
       id="g3865" />
    <g
       transform="matrix(1.25,0,0,1.25,1046.4795,-8017.6529)"
       id="g3869" />
    <g
       transform="matrix(1.25,0,0,1.25,1046.4795,-8017.6529)"
       id="g3885" />
    <g
       style="font-size:123.45613098px;font-style:normal;font-weight:normal;line-height:125%;letter-spacing:0px;word-spacing:0px;fill:#000000;fill-opacity:1;stroke:none;font-family:Sans"
       id="text6925" />
    <g
       style="font-size:123.45613098px;font-style:normal;font-weight:normal;line-height:125%;letter-spacing:0px;word-spacing:0px;fill:#000000;fill-opacity:1;stroke:none;font-family:Sans"
       id="text6932" />
    <path
       id="path20461"
       style="font-size:123.45613098px;font-style:normal;font-weight:normal;line-height:125%;letter-spacing:0px;word-spacing:0px;fill:none;stroke:#000000;stroke-opacity:1;font-family:Sans"
       d="m 7246.142,-2933.8879 26.7637,-77.4512 63.9838,-0.1126 -42.8713,126.1713 c -15.7375,-18.4413 -31.8012,-34.6188 -47.8762,-48.6075 z m 196.055,158.945 c -14.8188,17.705 -31.5963,32.6075 -50.1563,44.9712 -8.545,-17.9987 -17.51,-35.24 -26.6987,-51.4262 11.7625,-8.5788 22.4212,-18.8138 31.9725,-30.62 31.225,-37.725 46.8362,-85.86 46.8362,-144.4 l 0,-54.8187 28.8525,-0.059 -0.1124,191.3912 c -8.4963,15.9475 -18.7351,30.9525 -30.6938,44.9613 z m -266.5963,-237.0062 -0.012,28.9249 c -21.1037,-10.6349 -41.1375,-17.9787 -60.1462,-22.5587 l -0.012,-6.3662 60.1662,0 z m 363.9163,1035.3899 110.81,-4.2624 0,36.5724 c -21.23,7.5238 -40.4588,16.25 -57.68,26.1813 -16.9875,10.2337 -32.9113,23.6275 -47.7688,40.185 -1.1725,1.3137 -2.32,2.6475 -3.355,3.6963 -0.1612,-35.2238 -0.8537,-69.1788 -2.0062,-102.3726 z m 248.6913,1222.9538 c 10.1462,11.1375 21.23,18.81375 33.2612,23.0275 12.0313,4.5125 26.3037,6.7675 42.8175,6.7675 27.6025,0 49.19,-9.62875 64.7563,-28.89125 15.805,-19.2625 23.7112,-49.66375 23.7112,-91.19625 0,-9.63375 -0.24,-21.82125 -0.7087,-36.5675 -0.2388,-14.44875 -0.4738,-26.64 -0.7075,-36.5725 l -192.8525,0 0,57.33875 c 0,24.6775 2.4762,45.7475 7.4275,63.20375 4.9562,17.75875 12.3875,32.055 22.295,42.89 m 192.6412,456.035 -0.024,73.995 -25.0587,0 c 8.94,-33.32125 17.3388,-57.67125 25.0775,-73.99875 l 0,0 z m -416.0688,244.005 c 2.9488,2.45 6.2013,4.91125 9.585,7.41625 22.1775,16.5575 40.1075,27.99375 53.7888,34.31625 l 0,32.05125 -63.8188,-5.79625 c 0.2488,-22.56375 0.4538,-45.24375 0.445,-67.9875 z m 283.75,299.56 -95.23,-0.0387 0,72.23625 c 0,5.6 0.097,10.835 0.3613,15.6975 -9.8388,2.6325 -19.8438,3.6775 -29.7313,3.21375 0.415,-5.79625 0.5863,-12.12 0.5863,-18.91125 l 0,-72.23625 -115.9475,0.0288 c -13.9163,-26.5425 -25.3075,-58.745 -33.0475,-96.27375 l 307.725,0.0188 c -8.8275,38.00375 -20.7425,70.06875 -34.7163,96.275 l 0,-0.0125 z m 130.6388,-3265.83 0,13.0325 c 2.3637,-2.8275 4.4875,-5.8063 6.3675,-8.9313 0.8113,-1.3762 1.5425,-2.7387 2.2362,-4.1012 l -8.6037,0 z m 28.8288,0 -5.445,3.8962 2.9637,4.1413 13.1888,-8.0375 -10.7075,0 z m 33.1737,0 c 1.46,1.2737 2.9887,2.8225 4.59,4.6625 l 9.0375,11.5337 87.9787,122.9 8.0025,12.2763 c 3.3113,5.7175 4.7363,10.4387 4.2675,14.165 -0.2875,3.6025 -2.6062,7.475 -6.9425,11.62 -4.2875,3.8538 -7.3975,6.6075 -9.3462,8.2575 l -4.9163,3.52 2.9638,4.1413 118.12,-84.5563 3.75,-2.685 120.4487,-86.2212 -2.9637,-4.14 -13.935,8.4075 c -5.845,3.14 -10.7525,4.3075 -14.7225,3.4962 -3.9688,-0.81 -8.1925,-3.7937 -12.6613,-8.94 l -9.0374,-11.5287 -4.9463,-6.9088 -96.27,0 38.12,53.2513 8.0037,12.2712 c 3.4326,5.8938 4.9163,10.6975 4.4526,14.4238 -0.4151,3.4275 -2.1625,6.6362 -5.2388,9.6237 -3.2038,2.8175 -6.5188,5.84 -9.9412,9.0725 l -4.2726,3.0563 -14.0087,8.8575 c -5.84,3.135 -10.4787,4.4974 -13.9062,4.0825 -3.3788,-0.7125 -7.3638,-3.7263 -11.9588,-9.0475 l -9.0375,-11.5338 -67.3288,-94.0575 -98.3012,0 z m 385.645,0 c -3.6087,1.3475 -7.33,3.0275 -11.1625,5.0437 -10.9912,5.7813 -24.5125,14.4088 -40.5563,25.8938 l -115.4687,83.0562 -117.8625,84.37 2.96,4.1413 14.7162,-8.965 c 5.84,-3.14 10.425,-4.2038 13.755,-3.1987 3.3788,0.7137 7.305,3.6424 11.7725,8.795 l 9.0426,11.5324 87.9787,122.9 8.0038,12.2763 c 3.31,5.7175 4.7312,10.4387 4.2675,14.165 -0.2938,3.5987 -2.6075,7.47 -6.9438,11.6162 -4.2875,3.8525 -7.4025,6.6063 -9.3512,8.2613 l -4.9113,3.52 2.9638,4.1412 118.12,-84.5562 3.75,-2.685 120.4487,-86.225 -2.9687,-4.1363 -13.935,8.4088 c -5.84,3.1337 -10.7476,4.3012 -14.7175,3.495 -3.9688,-0.81 -8.1926,-3.7938 -12.66,-8.94 l -9.0388,-11.5338 -43.345,-60.5462 c 3.6238,-2.5925 7.31,-5.1025 11.055,-7.52 3.745,-2.4212 7.7875,-3.8813 12.1288,-4.38 4.2137,-0.6687 10.855,3.3213 19.9125,11.9638 7.6312,8.105 17.085,18.0362 28.3687,29.7849 11.3338,11.4601 24.0388,18.2763 38.12,20.4538 14.1313,1.885 28.1838,-2.1725 42.1588,-12.1725 8.97,-6.4262 16.0737,-13.99 21.3175,-22.7 5.2937,-9.0087 8.0962,-17.6662 8.4087,-25.9775 0.19,-8.4812 -0.9912,-15.595 -3.535,-21.3375 -2.5487,-5.7462 -6.8462,-12.8412 -12.895,-21.2937 l -4.1412,2.9637 c 5.3075,7.4175 9.2875,14.615 11.9337,21.5875 2.695,6.6788 1.7962,11.625 -2.6863,14.8388 -3.4512,2.47 -7.2312,2.8312 -11.3525,1.0837 -4.2475,-1.9187 -10.2925,-5.8112 -18.1387,-11.67 -7.9688,-6.035 -16.2263,-10.82 -24.7613,-14.365 -8.4912,-3.8387 -16.3187,-5.6687 -23.4962,-5.4837 -7.1775,0.1762 -14.3988,1.5625 -21.675,4.16 -7.0988,2.4762 -15.7275,5.9137 -25.8838,10.3125 l -1.2937,-1.8113 c 14.4875,-10.3762 24.1462,-19.1113 28.975,-26.2212 4.995,-7.2263 8.1975,-14.6038 9.595,-22.1288 1.3962,-7.5237 0.9662,-15.0437 -1.285,-22.5625 -2.08,-7.6425 -5.2775,-14.4825 -9.6038,-20.5225 -5.8012,-8.1062 -12.7587,-13.8187 -20.8737,-17.1387 -0.5575,-0.25 -1.1188,-0.4638 -1.68,-0.6938 l -43.53,0 z m 116.66,0 69.2863,96.7875 8.0037,12.27 c 3.31,5.7175 4.7363,10.4437 4.2725,14.165 -0.2937,3.6037 -2.6075,7.4762 -6.9438,11.6212 -4.2875,3.8525 -7.4075,6.6013 -9.3499,8.2563 l -4.9175,3.5212 2.9637,4.14 118.12,-84.555 3.75,-2.6862 88.735,-63.52 -92.5337,0 7.8324,10.9375 8.0026,12.275 c 3.4325,5.8887 4.9175,10.6937 4.4537,14.4187 -0.4162,3.4288 -2.1637,6.6363 -5.24,9.625 -3.2025,2.8125 -6.5188,5.8388 -9.9413,9.0713 l -4.2724,3.0575 -14.0088,8.8575 c -5.845,3.1387 -10.4787,4.4962 -13.9063,4.0812 -3.3787,-0.7075 -7.3637,-3.725 -11.9574,-9.0475 l -9.0388,-11.5337 -37.0412,-51.7425 -96.2688,0 z m -156.495,36.3275 c 5.03,-0.077 11.06,2.0612 18.0962,6.4212 9.2525,5.635 16.9038,12.6813 22.9538,21.1325 7.4075,10.3526 12.4125,20.9863 15.015,31.9051 2.7737,10.7999 1.255,19.0674 -4.5613,24.7949 -2.7337,2.7388 -6.5125,5.835 -11.3475,9.2913 l -8.7987,6.2987 -61.1225,-85.3849 c 3.0562,-1.9288 6.5425,-4.1601 10.4637,-6.7038 3.9163,-2.545 8.7888,-4.8587 14.605,-6.9387 1.455,-0.5176 3.0175,-0.7913 4.6963,-0.8163 z m 373.0712,25.7425 c 0.9525,0 1.885,0.1025 2.8038,0.2937 3.6762,0.7613 7.7487,3.715 12.2163,8.8663 l 9.0374,11.5337 87.7988,122.6413 8.0025,12.275 c 3.4325,5.8887 4.9175,10.6987 4.4537,14.425 -0.415,3.4275 -2.1637,6.63 -5.245,9.6187 -3.2025,2.8175 -6.5137,5.84 -9.9412,9.0775 l -4.2675,3.0563 -14.0138,8.8525 c -5.84,3.14 -10.4737,4.5012 -13.9012,4.0862 -3.3788,-0.7125 -7.3675,-3.73 -11.9575,-9.0475 l -9.0388,-11.5375 -88.725,-123.9412 -8.0037,-12.27 c -3.6813,-6.235 -5.3363,-10.9175 -4.97,-14.0475 0.415,-3.4288 3.115,-7.32 8.09,-11.66 l 11.7237,-9.42 0,0 c 2.11,-1.2988 4.2538,-2.6263 6.5925,-4.0863 2.7588,-1.9775 6.22,-4.0625 10.385,-6.265 3.125,-1.645 6.1138,-2.465 8.96,-2.4462 z m -469.985,42.315 c 0.9475,0 1.885,0.1025 2.8025,0.2975 3.6775,0.7563 7.75,3.7113 12.2175,8.8625 l 9.0375,11.5325 87.7975,122.6425 8.0038,12.275 c 3.4325,5.8887 4.9162,10.6987 4.4525,14.4237 -0.415,3.4275 -2.1625,6.6313 -5.2388,9.6188 -3.2075,2.8175 -6.5187,5.84 -9.9412,9.0775 l -4.2725,3.0562 -14.0088,8.8525 c -5.845,3.14 -10.4787,4.5025 -13.9062,4.0875 -3.3838,-0.7125 -7.3638,-3.73 -11.9588,-9.0525 l -9.0375,-11.5287 -88.7212,-123.94 -8.0075,-12.2763 c -3.6762,-6.235 -5.3363,-10.9175 -4.97,-14.0475 0.4188,-3.4275 3.115,-7.3187 8.09,-11.665 l 11.7237,-9.4137 0,0 c 2.11,-1.3038 4.2575,-2.6275 6.5925,-4.0875 2.7626,-1.9775 6.2251,-4.0625 10.39,-6.2638 3.125,-1.6462 6.1088,-2.4662 8.955,-2.4462 z m 298.525,85.9275 c -1.1512,-0.013 -2.3087,0.015 -3.4762,0.069 -9.175,0.3025 -19.2575,3.3437 -30.2487,9.13 -10.9963,5.7812 -24.5113,14.415 -40.5563,25.8987 l -115.4738,83.0513 -117.8612,84.375 2.9638,4.1412 14.7162,-8.97 c 5.84,-3.135 10.425,-4.2038 13.755,-3.1975 3.3788,0.7125 7.305,3.6475 11.7725,8.7937 l 9.0387,11.5325 87.9825,122.9063 8.0038,12.27 c 3.31,5.7175 4.7313,10.4387 4.2675,14.165 -0.2937,3.6037 -2.6075,7.475 -6.9438,11.6212 -4.2875,3.8525 -7.4024,6.6063 -9.3499,8.2613 l -4.9125,3.5162 2.9637,4.14 97.3725,-69.7062 c 0.074,-0.245 0.1425,-0.5138 0.215,-0.7525 1.03,-3.545 2.075,-6.8263 3.13,-9.8588 0.025,-0.072 0.049,-0.1362 0.074,-0.21 -3.9499,1.705 -7.2225,2.4075 -9.805,2.09 -3.3787,-0.7075 -7.3637,-3.725 -11.9537,-9.0475 l -9.0425,-11.5337 -88.72,-123.94 -8.0038,-12.275 c -3.6812,-6.2313 -5.3362,-10.9138 -4.9699,-14.0488 0.4149,-3.4275 3.115,-7.3137 8.0899,-11.66 l 11.7238,-9.4187 c 2.11,-1.3038 4.2537,-2.6263 6.5925,-4.0913 2.7587,-1.9725 6.225,-4.0625 10.39,-6.26 4.165,-2.1975 8.0812,-2.92 11.7575,-2.1537 3.6775,0.7625 7.75,3.7162 12.2225,8.8675 l 9.0325,11.5287 87.7987,122.6463 8.0025,12.275 c 3.4326,5.8887 4.9175,10.6987 4.4525,14.4187 -0.415,3.4275 -2.1624,6.6363 -5.2387,9.625 -0.835,0.7313 -1.6938,1.5175 -2.5438,2.275 0.635,0.9275 1.2688,1.9288 1.8938,3.0325 0.43,0.7663 0.86,1.5913 1.29,2.4463 l 108.5538,-77.71 -2.9588,-4.1413 -13.94,8.4138 c -5.84,3.1337 -10.7475,4.3012 -14.7163,3.4912 -3.975,-0.8112 -8.1937,-3.79 -12.6612,-8.9412 l -9.0388,-11.5325 -43.345,-60.5475 c 3.6238,-2.5925 7.3101,-5.0975 11.055,-7.5188 3.745,-2.4225 7.7888,-3.8775 12.1288,-4.375 4.2137,-0.67 10.855,3.315 19.9125,11.9625 7.6312,8.105 17.085,18.0375 28.3688,29.785 11.3337,11.455 24.0387,18.2713 38.1199,20.4538 14.1363,1.885 28.1838,-2.1725 42.1588,-12.1775 8.97,-6.4213 16.0737,-13.9888 21.3188,-22.7 5.2925,-9.0038 8.0949,-17.6663 8.4074,-25.9763 0.1901,-8.4812 -0.9912,-15.5912 -3.5349,-21.3387 -2.5488,-5.7413 -6.8463,-12.8413 -12.8951,-21.2938 l -4.1412,2.9638 c 5.3075,7.4175 9.2875,14.615 11.9337,21.5925 2.695,6.68 1.7963,11.6263 -2.685,14.8337 -3.4525,2.4713 -7.2325,2.8363 -11.3525,1.0838 -4.2437,-1.9187 -10.2887,-5.805 -18.14,-11.67 -7.9687,-6.03 -16.2262,-10.82 -24.7612,-14.36 -8.4863,-3.8425 -16.3225,-5.6687 -23.4963,-5.4887 -7.1775,0.1812 -14.3987,1.5674 -21.675,4.165 -7.0987,2.4712 -15.7275,5.9087 -25.8787,10.3075 l -1.2988,-1.8113 c 14.4875,-10.3712 24.1513,-19.1062 28.975,-26.215 5,-7.2325 8.1938,-14.61 9.595,-22.13 1.3963,-7.5237 0.9713,-15.0437 -1.285,-22.5625 -2.075,-7.6475 -5.2775,-14.4875 -9.5987,-20.5225 -5.8063,-8.1112 -12.7638,-13.8187 -20.8788,-17.1437 -7.0612,-3.1638 -14.61,-4.78 -22.6475,-4.8488 z m -609.4237,31.22 0,84.385 69.18,-49.5213 -2.9588,-4.14 -13.94,8.4125 c -5.84,3.135 -10.7475,4.3013 -14.7175,3.4963 -3.975,-0.81 -8.1937,-3.7938 -12.6612,-8.945 l -9.0375,-11.5288 -15.865,-22.1587 z m 547.0225,9.2637 c 5.0338,-0.079 11.0637,2.06 18.095,6.4201 9.2575,5.6349 16.905,12.6812 22.9587,21.1337 7.4075,10.3513 12.4125,20.9862 15.0151,31.9087 2.7737,10.8013 1.25,19.0625 -4.5601,24.7901 -2.735,2.7387 -6.5187,5.84 -11.3487,9.2962 l -8.7988,6.3 -61.1224,-85.3863 c 3.0562,-1.9287 6.5424,-4.165 10.4637,-6.7087 3.9162,-2.5437 8.7837,-4.8538 14.605,-6.9338 1.455,-0.5174 3.0175,-0.7912 4.6925,-0.8199 z m -570.4764,-227.7948 c -0.4687,8.4275 -1.7825,17.5999 -3.9062,27.5313 -1.885,9.9324 -4.835,18.9687 -8.8438,27.0937 -4.955,9.9325 -10.2736,17.9213 -15.9375,23.9375 -5.425,6.02 -11.7787,10.8237 -19.0937,14.4375 -29.7213,14.4475 -86.9325,41.8551 -171.625,82.1875 -84.4777,40.2303 -172.2358,81.9651 -263.2813,125.1875 l 0,-18.8437 c -21.4449,0.8487 -36.9186,15.8011 -46.4687,45.0937 l -7.625,21.6563 c 19.7313,52.3137 38.0812,110.3962 53.9062,172.6875 l 0.1563,-182.5 c 85.8711,42.6188 168.3404,84.0526 247.4062,124.2812 79.4975,40.3326 137.99,70.5837 175.5,90.75 10.615,6.015 19.8063,12.0425 27.5938,18.0625 7.7838,6.3188 14.1687,14.615 19.125,24.8438 3.54,7.2275 6.4862,16.3924 8.8437,27.5312 2.5938,11.1325 4.0149,20.615 4.25,28.4375 l 25.125,0 0,-56.5 82.5313,-59.0937 3.75,-2.6875 120.4375,-86.2188 -2.9688,-4.1562 -13.9374,8.4062 c -5.8402,3.1399 -10.7488,4.3113 -14.7188,3.5 -3.9737,-0.81 -8.1825,-3.7863 -12.6562,-8.9375 l -9.0313,-11.5312 -43.3438,-60.5313 c 3.6237,-2.5925 7.3175,-5.1087 11.0625,-7.5312 3.745,-2.4163 7.7837,-3.8763 12.125,-4.375 4.2139,-0.6688 10.8438,3.3212 19.9063,11.9687 7.6263,8.1063 17.0962,18.0275 28.375,29.7813 11.3325,11.4549 24.0387,18.255 38.125,20.4375 14.1312,1.885 28.1811,-2.1563 42.1563,-12.1563 8.9687,-6.4213 16.0689,-14.0087 21.3124,-22.7187 5.2939,-9.0051 8.0938,-17.6575 8.4063,-25.9688 0.185,-8.4863 -0.9875,-15.5962 -3.5313,-21.3437 -2.5487,-5.7425 -6.8562,-12.8288 -12.9062,-21.2813 l -4.125,2.9688 c 5.3075,7.4162 9.2912,14.6162 11.9375,21.5937 2.695,6.68 1.795,11.6037 -2.6875,14.8125 -3.4513,2.47 -7.2537,2.8413 -11.375,1.0938 -4.2475,-1.9201 -10.2787,-5.7925 -18.125,-11.6563 -7.9737,-6.03 -16.2463,-10.8338 -24.7812,-14.375 -8.4863,-3.8375 -16.2963,-5.6813 -23.4688,-5.5 -7.1775,0.18 -14.4162,1.59 -21.6875,4.1875 -7.0987,2.47 -15.7188,5.9075 -25.875,10.3125 l -1.3125,-1.8125 c 14.4875,-10.3712 24.17,-19.1087 29,-26.2187 5,-7.2313 8.1925,-14.605 9.5938,-22.125 1.3974,-7.5251 0.97,-15.0787 -1.2813,-22.5938 -2.08,-7.6462 -5.3,-14.465 -9.625,-20.5 -5.8012,-8.105 -12.7538,-13.8349 -20.875,-17.1562 -7.055,-3.1637 -14.6137,-4.7751 -22.6563,-4.8438 -1.1475,-0.013 -2.3025,0.01 -3.4687,0.062 -9.175,0.3025 -19.2587,3.3437 -30.25,9.125 -10.9912,5.7812 -24.4863,14.4212 -40.5313,25.9063 l -65.1562,46.875 0,41.9375 4.1562,5.3125 87.8125,122.6562 8,12.2813 c 3.4326,5.8887 4.9325,10.6849 4.4688,14.4062 -0.4151,3.4275 -2.1687,6.6363 -5.25,9.625 -3.2037,2.8125 -6.5151,5.8562 -9.9375,9.0938 l -4.2813,3.0312 -14,8.875 c -5.84,3.14 -10.4787,4.5088 -13.9062,4.0938 -3.3838,-0.7138 -7.3788,-3.74 -11.9688,-9.0625 l -9.0312,-11.5313 -34.4063,-48.0937 0,-60.2188 -25.125,0 c -0.7075,10.5324 -1.6662,20.9226 -2.8437,31.1563 -1.1812,10.235 -2.9537,20.3186 -5.3125,30.25 -2.5975,10.235 -5.7575,18.355 -9.5313,24.375 -3.54,6.3186 -8.0437,9.4687 -13.4687,9.4687 -5.1912,0 -11.8988,-0.885 -20.1563,-2.6875 -8.2563,-1.5087 -23.1287,-7.225 -44.5937,-17.1562 -22.1775,-10.2351 -62.99,-30.2675 -122.4375,-60.0625 -59.4488,-29.8001 -110.9825,-56.125 -154.625,-79 96.4837,-46.0501 170.8037,-81.5501 222.9375,-106.5313 52.3725,-24.9801 90.0987,-43.0488 113.2187,-54.1875 2.12,-0.9025 4.96,-1.9549 8.5,-3.1562 3.54,-1.2063 6.595,-1.8125 9.1875,-1.8125 6.6062,0 11.22,7.6837 13.8125,23.0312 2.5975,15.6537 4.37,34.7701 5.3125,57.3438 l 25.125,0 0,-95.4688 c 3.736,1.7944 8.3737,5.351 13.9375,10.6563 7.6263,8.1113 17.0912,18.0337 28.375,29.7812 11.3276,11.46 24.0425,18.255 38.125,20.4375 14.1312,1.88 28.1813,-2.1562 42.1563,-12.1562 8.9688,-6.4201 16.0688,-14.0076 21.3125,-22.7188 5.2938,-9.0038 8.0937,-17.6587 8.4063,-25.9687 0.1897,-8.4862 -0.9876,-15.6025 -3.5313,-21.3438 -2.5488,-5.7425 -6.8562,-12.83 -12.9063,-21.2812 l -4.125,2.9687 c 5.3075,7.4163 9.2899,14.59 11.9376,21.5625 2.6947,6.68 1.8,11.6312 -2.6876,14.8438 -3.4524,2.4713 -7.2224,2.8424 -11.3437,1.0937 -4.2425,-1.9188 -10.3038,-5.7974 -18.1563,-11.6562 -7.9687,-6.0362 -16.21,-10.83 -24.75,-14.375 -8.4862,-3.8376 -16.3275,-5.6814 -23.5,-5.5 -7.1775,0.1799 -14.4125,1.5949 -21.6875,4.1875 -7.1,2.4749 -15.7187,5.9124 -25.875,10.3125 l -1.2812,-1.8125 c 14.4925,-10.3712 24.1437,-19.1151 28.9687,-26.2188 5,-7.2313 8.1926,-14.6324 9.5938,-22.1562 1.3975,-7.5251 0.9749,-15.0425 -1.2813,-22.5625 -2.075,-7.6414 -5.2725,-14.46 -9.5937,-20.5 -5.805,-8.105 -12.7913,-13.8363 -20.9063,-17.1563 -6.6328,-2.9723 -13.6919,-4.572 -21.1875,-4.8125 l 0,-35.1875 -25.125,0 z m 100.4951,270.1086 c 5.03,-0.078 11.06,2.0662 18.0963,6.4212 9.2525,5.64 16.9037,12.68 22.9537,21.1375 7.4075,10.3463 12.4125,20.9863 15.015,31.905 2.7725,10.8 1.25,19.0625 -4.5612,24.79 -2.7338,2.7388 -6.5188,5.8388 -11.3475,9.2963 l -8.7988,6.2987 -61.1225,-85.385 c 3.0563,-1.9287 6.5425,-4.1662 10.4588,-6.71 3.9212,-2.5437 8.7887,-4.8525 14.6087,-6.9337 1.4513,-0.5175 3.0175,-0.79 4.6975,-0.82 z m 671.5926,111.675 c -1.1475,-0.012 -2.305,0.013 -3.4775,0.064 -9.17,0.3075 -19.2525,3.35 -30.2438,9.1313 -10.9962,5.7812 -24.5162,14.4187 -40.5562,25.8975 l -101.5775,73.0612 c 0.5075,1.295 1.0112,2.6375 1.5087,4.0588 0.21,0.59 0.41,1.23 0.615,1.84 1.665,-0.9963 3.4763,-2.0163 5.4638,-3.0663 4.165,-2.1975 8.0862,-2.915 11.7625,-2.1537 3.6725,0.7625 7.745,3.7212 12.2175,8.8675 l 9.0375,11.5337 87.7937,122.6463 8.0025,12.27 c 3.4375,5.8937 4.9225,10.6987 4.4538,14.4237 -0.415,3.4288 -2.1638,6.6313 -5.24,9.62 -3.2025,2.8175 -6.5188,5.84 -9.9413,9.0763 l -4.2725,3.0575 -14.0087,8.8525 c -5.84,3.14 -10.4788,4.5012 -13.9063,4.0862 -3.3787,-0.7125 -7.3637,-3.73 -11.9575,-9.0525 l -9.0387,-11.5325 -53.335,-74.5075 c 0.43,5.44 0.84,11.0213 1.2112,16.7825 0.825,12.7538 1.4888,26.2888 1.9875,40.5863 0.4975,33.6375 1.02,67.2412 1.5575,100.83 l 96.7038,-69.2238 3.75,-2.6862 120.45,-86.225 -2.965,-4.1413 -13.935,8.4138 c -5.845,3.14 -10.7475,4.3012 -14.7213,3.4912 -3.97,-0.8062 -8.1937,-3.7887 -12.6612,-8.9362 l -9.0388,-11.5325 -43.3437,-60.5475 c 3.6225,-2.5925 7.3087,-5.1025 11.0537,-7.5188 3.745,-2.4225 7.7938,-3.8825 12.1288,-4.38 4.2187,-0.6687 10.855,3.315 19.9125,11.9625 7.6325,8.105 17.09,18.0375 28.3687,29.785 11.3338,11.46 24.0388,18.2763 38.1213,20.455 14.135,1.8838 28.1875,-2.1737 42.1575,-12.1787 8.97,-6.415 16.0787,-13.9838 21.3237,-22.695 5.2925,-9.0038 8.095,-17.6663 8.4075,-25.9763 0.1863,-8.4862 -0.9912,-15.5962 -3.54,-21.3375 -2.5437,-5.7425 -6.84,-12.8425 -12.895,-21.3 l -4.1412,2.9688 c 5.3125,7.4175 9.2925,14.615 11.9337,21.5875 2.695,6.68 1.8025,11.6262 -2.685,14.8387 -3.4475,2.4663 -7.2312,2.8325 -11.3525,1.0838 -4.2437,-1.9188 -10.2887,-5.81 -18.14,-11.67 -7.9687,-6.035 -16.225,-10.82 -24.7612,-14.365 -8.4863,-3.8375 -16.3175,-5.6638 -23.495,-5.4875 -7.1788,0.18 -14.4001,1.5662 -21.6751,4.165 -7.1,2.475 -15.7225,5.9125 -25.8787,10.3125 l -1.3,-1.8125 c 14.4925,-10.375 24.1512,-19.1113 28.975,-26.22 5,-7.2313 8.1988,-14.605 9.595,-22.1288 1.3963,-7.525 0.9713,-15.045 -1.2787,-22.5637 -2.0813,-7.6413 -5.2838,-14.4825 -9.605,-20.5225 -5.8013,-8.105 -12.7638,-13.8188 -20.8788,-17.1388 -7.0613,-3.1687 -14.61,-4.78 -22.6463,-4.8487 z m -62.3975,40.4837 c 5.0287,-0.079 11.0637,2.06 18.0949,6.4163 9.2538,5.6387 16.9051,12.685 22.9538,21.1375 7.4125,10.3512 12.4175,20.9862 15.02,31.9087 2.7738,10.7963 1.25,19.0575 -4.56,24.785 -2.74,2.74 -6.5187,5.84 -11.3475,9.2975 l -8.8,6.2988 -61.1225,-85.3863 c 3.0512,-1.9237 6.5425,-4.165 10.4588,-6.7037 3.9212,-2.5438 8.7887,-4.8588 14.6099,-6.9338 1.4501,-0.5175 3.0175,-0.7962 4.6926,-0.82 z m -407.5888,1.8313 c -1.1475,-0.012 -2.3037,0.012 -3.4712,0.062 -9.175,0.3075 -19.2575,3.35 -30.2488,9.1312 -10.9962,5.7863 -24.5125,14.4188 -40.5575,25.9038 l -115.4725,83.0512 -88.8975,63.6375 0,12.3488 c 0.8888,0.015 1.7138,0.1325 2.4713,0.3612 3.3787,0.7138 7.305,3.6425 11.7724,8.7938 l 9.0375,11.5337 87.9788,122.9 8.0075,12.2763 c 3.3113,5.7175 4.7325,10.4387 4.2675,14.165 -0.2925,3.5987 -2.6063,7.47 -6.9425,11.6212 -4.2875,3.8475 -7.4025,6.6013 -9.3513,8.2563 l -4.9162,3.52 2.9687,4.1412 118.1151,-84.5562 3.75,-2.685 120.4487,-86.2263 -2.9638,-4.135 -13.9349,8.4075 c -5.84,3.14 -10.7475,4.3025 -14.7225,3.4963 -3.9688,-0.81 -8.1926,-3.7938 -12.66,-8.94 l -9.0388,-11.5338 -43.34,-60.5462 c 3.6188,-2.5925 7.305,-5.1025 11.05,-7.52 3.745,-2.4213 7.7925,-3.8813 12.1338,-4.375 4.2137,-0.6738 10.85,3.3162 19.9125,11.9637 7.6262,8.105 17.085,18.0313 28.3637,29.785 11.3338,11.455 24.0388,18.2713 38.12,20.4488 14.1363,1.885 28.1888,-2.1725 42.1588,-12.1725 8.97,-6.4213 16.0787,-13.99 21.3225,-22.7 5.2937,-9.0038 8.0962,-17.6663 8.4087,-25.9775 0.185,-8.4863 -0.9912,-15.595 -3.54,-21.3375 -2.5437,-5.7425 -6.8412,-12.8413 -12.8912,-21.2938 l -4.14,2.9638 c 5.3075,7.4175 9.2875,14.6137 11.9337,21.5912 2.695,6.68 1.7963,11.6213 -2.6862,14.835 -3.4513,2.47 -7.2363,2.8313 -11.3575,1.0838 -4.2425,-1.9188 -10.2875,-5.8113 -18.1338,-11.67 -7.9737,-6.035 -16.2312,-10.82 -24.7662,-14.365 -8.4863,-3.8388 -16.3188,-5.665 -23.4963,-5.4838 -7.1725,0.1763 -14.3987,1.5625 -21.67,4.16 -7.0987,2.4763 -15.7275,5.9138 -25.8838,10.3125 l -1.2937,-1.8112 c 14.4875,-10.3763 24.1463,-19.1113 28.975,-26.2213 4.995,-7.2262 8.1925,-14.6037 9.59,-22.1287 1.4013,-7.5188 0.9713,-15.0438 -1.28,-22.5638 -2.08,-7.6412 -5.2825,-14.4825 -9.6037,-20.5225 -5.8013,-8.105 -12.7588,-13.8175 -20.8788,-17.1375 -7.0613,-3.165 -14.61,-4.7812 -22.6475,-4.8487 z m -62.3975,40.4825 c 5.035,-0.077 11.065,2.0612 18.0963,6.4162 9.2575,5.64 16.9037,12.6863 22.9587,21.1375 7.4075,10.3525 12.4125,20.9863 15.015,31.91 2.7738,10.795 1.25,19.0625 -4.5662,24.79 -2.7338,2.7388 -6.5125,5.835 -11.3425,9.2913 l -8.7988,6.2987 -61.1225,-85.385 c 3.0563,-1.9237 6.5425,-4.16 10.4588,-6.705 3.9212,-2.5437 8.7887,-4.8575 14.605,-6.9325 1.455,-0.5175 3.0225,-0.7912 4.6962,-0.8212 z m 314.2588,55.66 -89.4875,64.0625 2.9637,4.14 14.7113,-8.965 c 5.845,-3.1388 10.43,-4.2038 13.76,-3.1975 3.3787,0.7125 7.305,3.6425 11.7725,8.7937 l 9.0387,11.5288 20.5363,28.6912 c 0.9087,-8.6387 1.8512,-16.9387 2.8275,-24.825 1.66,-13.4075 3.4175,-25.7325 5.2487,-36.9875 1.8363,-11.2587 3.74,-21.45 5.7087,-30.595 0.9613,-4.4675 1.9338,-8.6775 2.9201,-12.6462 z m -411.1675,12.3975 c 0.9475,0 1.885,0.1025 2.8025,0.2925 3.6725,0.7612 7.745,3.7162 12.2175,8.8675 l 9.0374,11.5325 87.7926,122.6475 8.0087,12.27 c 3.4325,5.8887 4.9163,10.6987 4.4525,14.4237 -0.42,3.4275 -2.1625,6.6363 -5.2437,9.6238 -3.2038,2.8125 -6.5188,5.84 -9.9413,9.0725 l -4.2675,3.0562 -14.0137,8.8575 c -5.84,3.135 -10.4738,4.4975 -13.9063,4.0825 -3.3787,-0.7125 -7.3637,-3.7262 -11.9537,-9.0475 l -9.0425,-11.5337 -88.7213,-123.94 -8.0025,-12.2763 c -3.6812,-6.235 -5.3375,-10.9175 -4.9712,-14.0475 0.415,-3.4325 3.1112,-7.3137 8.0912,-11.66 l 11.7187,-9.4187 0,0 c 2.1151,-1.2988 4.2576,-2.6275 6.5963,-4.0875 2.7588,-1.9775 6.2213,-4.0625 10.3863,-6.2588 3.125,-1.6512 6.1087,-2.4712 8.96,-2.4512 z m 298.52,85.9275 c -1.1475,0 -2.3038,0.015 -3.4763,0.069 -9.17,0.3075 -19.2575,3.3488 -30.2487,9.13 -10.9913,5.7813 -24.5113,14.4138 -40.5513,25.8988 l -115.4737,83.0562 -117.8613,84.37 2.9638,4.1413 14.7112,-8.97 c 5.845,-3.135 10.425,-4.2038 13.755,-3.1938 3.3838,0.7088 7.305,3.6425 11.7775,8.79 l 9.0375,11.5325 87.9788,122.905 8.0037,12.2713 c 3.31,5.7175 4.7363,10.4387 4.2675,14.165 -0.2887,3.6037 -2.6075,7.475 -6.9437,11.6212 -4.2875,3.8525 -7.4025,6.6063 -9.3463,8.2613 l -4.9162,3.5162 2.9637,4.14 118.12,-84.555 3.75,-2.6862 120.4488,-86.22 -2.9638,-4.1413 -13.94,8.4088 c -5.84,3.1387 -10.7475,4.3062 -14.7162,3.4962 -3.975,-0.8112 -8.1938,-3.79 -12.6613,-8.9412 l -9.0387,-11.5275 -43.345,-60.5525 c 3.6237,-2.5925 7.31,-5.0975 11.055,-7.52 3.745,-2.4213 7.7887,-3.8763 12.1287,-4.375 4.2138,-0.6688 10.855,3.3162 19.9125,11.9637 7.6263,8.105 17.085,18.0325 28.3688,29.785 11.3337,11.455 24.0387,18.2713 38.12,20.4538 0.7862,0.1025 1.5675,0.1862 2.3487,0.2537 1.66,-29.6037 3.345,-59.2137 5.0638,-88.8175 -0.3663,-0.1562 -0.7325,-0.3275 -1.1038,-0.4787 -8.4862,-3.8375 -16.3225,-5.6688 -23.4962,-5.4888 -7.1775,0.1813 -14.3988,1.5675 -21.675,4.165 -7.0988,2.4763 -15.7225,5.9088 -25.8788,10.3075 l -1.2987,-1.8112 c 14.4875,-10.3713 24.1512,-19.1063 28.975,-26.2163 5,-7.2312 8.1937,-14.6087 9.595,-22.1287 1.3962,-7.5238 0.9712,-15.0438 -1.285,-22.5675 -2.075,-7.6375 -5.2775,-14.4825 -9.5988,-20.5175 -5.8062,-8.1063 -12.7637,-13.8188 -20.8787,-17.1438 -7.0613,-3.165 -14.61,-4.78 -22.6475,-4.8487 z m -62.3975,40.4875 c 5.03,-0.077 11.065,2.0562 18.0962,6.4162 9.2525,5.635 16.9038,12.6813 22.9538,21.1338 7.4075,10.3512 12.4175,20.9862 15.02,31.9087 2.7737,10.8 1.25,19.0625 -4.565,24.79 -2.735,2.7388 -6.5138,5.84 -11.3438,9.2963 l -8.7987,6.2987 -61.1225,-85.385 c 3.0512,-1.9287 6.5375,-4.165 10.4587,-6.7087 3.9163,-2.5438 8.7888,-4.8538 14.605,-6.9338 1.455,-0.5175 3.0225,-0.7912 4.6963,-0.8162 z m -96.9088,68.0575 c 0.9475,0 1.88,0.1025 2.7975,0.2925 3.6775,0.7625 7.75,3.7162 12.2225,8.8675 l 9.0325,11.5287 87.7988,122.6463 8.0025,12.27 c 3.4325,5.8937 4.9175,10.6987 4.4525,14.4237 -0.415,3.4275 -2.1625,6.6363 -5.2388,9.6238 -3.2025,2.8125 -6.5187,5.84 -9.9412,9.0725 l -4.2725,3.0575 -14.0088,8.8562 c -5.84,3.135 -10.4787,4.4975 -13.9062,4.0825 -3.3788,-0.7075 -7.3638,-3.725 -11.9588,-9.0475 l -9.0375,-11.5337 -88.7212,-123.935 -8.0025,-12.275 c -3.6813,-6.2363 -5.3413,-10.9188 -4.97,-14.0538 0.415,-3.4275 3.11,-7.3137 8.085,-11.66 l 11.7237,-9.4137 0,-0.012 c 2.115,-1.2988 4.2575,-2.6225 6.5925,-4.0813 2.7588,-1.9787 6.225,-4.0675 10.39,-6.265 3.125,-1.6512 6.1088,-2.4662 8.96,-2.4462 z m 339.3263,104.4037 c 0.4,24.1313 0.81,48.2525 1.23,72.3638 1.05,-1.255 1.9875,-2.4713 2.7787,-3.6325 5,-7.2325 8.1938,-14.61 9.595,-22.1338 1.3963,-7.525 0.9663,-15.045 -1.2837,-22.5637 -2.0813,-7.6425 -5.2788,-14.4825 -9.6,-20.5175 -0.8788,-1.2313 -1.7875,-2.3975 -2.72,-3.5163 z m -97.0025,4.19 c -5.6288,3.6913 -11.645,7.8175 -18.085,12.4313 l -115.4688,83.0512 -117.8612,84.3713 2.9587,4.14 14.7163,-8.965 c 5.84,-3.14 10.425,-4.2038 13.755,-3.1925 3.3787,0.7075 7.305,3.6425 11.7725,8.7887 l 9.0437,11.5325 87.9775,122.9013 8.0038,12.275 c 3.31,5.7175 4.7312,10.44 4.2675,14.16 -0.2938,3.6037 -2.6075,7.48 -6.9438,11.6262 -4.2875,3.8525 -7.4025,6.6013 -9.35,8.2563 l -4.9125,3.5212 2.9638,4.14 101.2937,-72.5137 c 0.1463,-2.8125 0.2938,-5.625 0.44,-8.4425 -4.37,2.0012 -7.9637,2.8562 -10.7425,2.5187 -3.3837,-0.7125 -7.3687,-3.73 -11.9575,-9.0475 l -9.0387,-11.5337 -88.72,-123.94 -8.0088,-12.275 c -3.6762,-6.2313 -5.3362,-10.9188 -4.97,-14.0488 0.42,-3.4275 3.115,-7.3187 8.09,-11.66 l 11.7238,-9.4187 0,0 c 2.11,-1.2988 4.2587,-2.6263 6.5925,-4.0863 2.7637,-1.9775 6.225,-4.0625 10.39,-6.26 4.165,-2.2025 8.0862,-2.92 11.7625,-2.1537 3.6725,0.7575 7.745,3.7162 12.2175,8.8675 l 9.0375,11.5287 68.135,95.18 c 2.2025,-41.7037 4.4337,-83.4125 6.6987,-125.1212 l -31.7475,-44.3513 c 3.0563,-1.9237 6.5475,-4.16 10.4638,-6.7037 3.9212,-2.5438 8.7887,-4.8588 14.605,-6.9338 2.8612,-1.02 6.1575,-1.0837 9.8775,-0.2 0.3375,-6.1475 0.6787,-12.29 1.02,-18.4375 z m 193.5312,69.14 -4.1412,2.9638 c 5.3075,7.4175 9.2875,14.615 11.9337,21.5875 2.695,6.68 1.7975,11.6262 -2.685,14.8387 -3.4525,2.4713 -7.2325,2.8375 -11.3525,1.0838 -4.2487,-1.9188 -10.2937,-5.81 -18.14,-11.67 -7.9687,-6.035 -16.2262,-10.82 -24.7612,-14.36 -8.4913,-3.8425 -16.3225,-5.6688 -23.4963,-5.4888 -7.1775,0.1763 -14.4037,1.5625 -21.6737,4.16 -0.235,0.084 -0.4988,0.1863 -0.7375,0.2688 0.1212,6.9587 0.2437,13.9212 0.3662,20.8787 0.2875,16.1825 0.5813,32.3538 0.8788,48.5213 0.083,0.088 0.1462,0.1563 0.2337,0.2437 11.3288,11.46 24.0388,18.2763 38.12,20.4588 14.1313,1.88 28.1838,-2.1775 42.1588,-12.1775 8.97,-6.4213 16.0737,-13.9888 21.3187,-22.7 5.2925,-9.0038 8.095,-17.6663 8.4075,-25.9763 0.1913,-8.4862 -0.9912,-15.5962 -3.535,-21.3387 -2.5487,-5.7413 -6.845,-12.8413 -12.895,-21.2938 z m 35.01,61.26 -9.9762,7.1388 2.9687,4.1412 6.07,-3.6975 c 0.3075,-2.5337 0.62,-5.0675 0.9375,-7.5825 z m -33.135,41.4013 c -1.1475,-0.013 -2.305,0.015 -3.4725,0.069 -9.1737,0.3025 -19.2575,3.35 -30.2487,9.1313 -10.9963,5.7812 -24.5113,14.4137 -40.5563,25.8975 l -20.1125,14.4687 c 0.8888,46.9088 1.8113,93.7788 2.7738,140.62 l 44.16,61.6938 8.0075,12.275 c 3.4325,5.8887 4.9175,10.6937 4.4537,14.42 -0.415,3.4275 -2.1637,6.635 -5.245,9.6237 -3.2025,2.8175 -6.5137,5.84 -9.9412,9.0725 l -4.2675,3.0563 -14.0138,8.8575 c -5.84,3.14 -10.4787,4.5012 -13.9062,4.0812 -2.0213,-0.4237 -4.2725,-1.6937 -6.7288,-3.7787 0.1563,7.1925 0.3125,14.38 0.4688,21.5625 l 33.3887,-23.8963 3.75,-2.6912 65.9375,-47.2013 1.7388,-51.0262 -0.5475,-0.6975 -43.3388,-60.5525 c 3.6175,-2.5925 7.3038,-5.0975 11.0538,-7.5188 3.745,-2.4225 7.7887,-3.8775 12.1287,-4.375 4.215,-0.6687 10.85,3.315 19.9125,11.9625 0.825,0.8788 1.9088,2.0125 2.7788,2.93 l 0.835,-24.57 c 0.1412,-3.0812 0.3025,-6.1137 0.4537,-9.165 -0.7862,0.3363 -1.5187,0.6388 -2.3237,0.9913 l -1.295,-1.8175 c 1.3187,-0.9413 2.5537,-1.86 3.795,-2.7775 0.8787,-16.9388 1.9237,-33.4675 3.1437,-49.58 1.3925,-18.4325 3.0088,-36.3338 4.795,-53.8138 -1.5912,-0.9037 -3.2375,-1.7087 -4.9312,-2.4025 -7.0613,-3.1637 -14.61,-4.78 -22.6463,-4.8487 z m -73.2187,19.6287 -13.935,8.4138 c -2.7338,1.47 -5.2588,2.49 -7.5875,3.095 0.064,3.34 0.1262,6.685 0.19,10.025 l 24.2975,-17.3925 -2.965,-4.1413 z m 10.8212,20.855 c 5.0338,-0.079 11.0638,2.06 18.095,6.4213 9.2588,5.6387 16.905,12.68 22.9588,21.1375 7.4075,10.3462 12.4125,20.9812 15.015,31.9037 2.7737,10.8013 1.25,19.0625 -4.56,24.79 -2.735,2.74 -6.5188,5.84 -11.3475,9.2975 l -8.7988,6.2988 -61.1237,-85.3863 c 3.0562,-1.9287 6.5437,-4.165 10.4587,-6.7087 3.9213,-2.5388 8.79,-4.8538 14.61,-6.9338 1.455,-0.5175 3.0175,-0.7912 4.6925,-0.82 z m -469.9812,42.3188 c 5.03,-0.078 11.06,2.0612 18.0962,6.4162 9.2525,5.64 16.9038,12.6813 22.9538,21.1375 7.4075,10.3525 12.4125,20.9813 15.015,31.905 2.7737,10.8 1.25,19.0625 -4.5613,24.79 -2.7337,2.7438 -6.5125,5.84 -11.3475,9.2963 l -8.7988,6.2987 -61.1224,-85.385 c 3.0562,-1.9287 6.5424,-4.16 10.4637,-6.7087 3.9162,-2.545 8.7837,-4.8538 14.605,-6.9338 1.45,-0.5175 3.0175,-0.7912 4.6962,-0.8162 z m 320.62,51.1037 -95.8538,68.6188 2.9638,4.14 14.7112,-8.97 c 5.845,-3.1338 10.43,-4.2038 13.76,-3.1975 3.3788,0.7125 7.305,3.6475 11.7725,8.7987 l 9.0388,11.5288 36.7575,51.3425 c 1.7675,-34.2438 3.535,-68.4863 5.3075,-102.735 0.5125,-9.8388 1.03,-19.6825 1.5425,-29.5263 z m -417.5338,16.9538 c 0.9475,0 1.885,0.1025 2.8025,0.2925 3.6775,0.7612 7.75,3.7162 12.2175,8.8675 l 9.0375,11.5275 87.7975,122.6475 8.0038,12.275 c 3.4325,5.8887 4.9162,10.6987 4.4525,14.4187 -0.415,3.4275 -2.1625,6.6363 -5.2438,9.6238 -3.2025,2.8125 -6.5187,5.84 -9.9412,9.0725 l -4.2675,3.0612 -14.0138,8.8525 c -5.84,3.14 -10.4737,4.5025 -13.9012,4.0825 -3.3838,-0.7075 -7.3688,-3.725 -11.9588,-9.0475 l -9.0375,-11.5337 -88.7212,-123.935 -8.0075,-12.2763 c -3.6763,-6.235 -5.3363,-10.9175 -4.97,-14.0475 0.415,-3.4325 3.115,-7.3187 8.09,-11.665 l 11.7237,-9.4137 0,0 c 2.11,-1.2988 4.2575,-2.6275 6.5925,-4.0875 2.7625,-1.9775 6.225,-4.0663 10.39,-6.2638 3.125,-1.6512 6.1088,-2.4662 8.955,-2.4462 z m 298.5213,85.9275 c -1.1475,-0.012 -2.305,0.013 -3.4725,0.064 -9.1751,0.3075 -19.2575,3.3538 -30.2488,9.135 -10.9962,5.7813 -24.5112,14.4138 -40.5562,25.8988 l -115.4738,83.0512 -117.8612,84.375 2.9637,4.1363 14.7113,-8.965 c 5.845,-3.14 10.43,-4.2038 13.7599,-3.1975 3.3788,0.7125 7.3051,3.6425 11.7726,8.7937 l 9.0387,11.5325 87.9775,122.9013 8.0088,12.275 c 3.3099,5.7175 4.7312,10.4387 4.2674,14.165 -0.2937,3.6037 -2.6075,7.47 -6.9437,11.6212 -4.2875,3.8475 -7.4025,6.6013 -9.35,8.2563 l -4.9175,3.5212 2.9637,4.14 118.1201,-84.555 3.75,-2.6862 120.4487,-86.225 -2.9637,-4.1413 -13.935,8.4138 c -5.84,3.1387 -10.7475,4.3062 -14.7213,3.4962 -3.97,-0.8112 -8.1937,-3.795 -12.6612,-8.9412 l -9.0388,-11.5325 -43.34,-60.5475 c 3.6188,-2.5925 7.305,-5.0975 11.05,-7.5188 3.745,-2.4225 7.7938,-3.8775 12.1338,-4.375 4.2137,-0.675 10.85,3.315 19.9125,11.9625 7.6262,8.105 17.085,18.0325 28.3637,29.785 11.3338,11.455 24.0388,18.2713 38.12,20.4538 7.2813,0.9675 14.5363,0.3512 21.7725,-1.8313 0.059,-1.1125 0.1175,-2.2262 0.1763,-3.3387 1.2787,-24.4388 2.5387,-48.8725 3.8037,-73.3113 -6.3087,-4.2775 -12.7925,-7.8025 -19.4437,-10.5662 -8.4863,-3.8375 -16.3175,-5.6638 -23.4963,-5.4838 -7.1725,0.1763 -14.3987,1.5675 -21.67,4.16 -7.0987,2.4763 -15.7275,5.9138 -25.8837,10.3125 l -1.2938,-1.8112 c 14.4875,-10.3713 24.1463,-19.1113 28.97,-26.2163 5,-7.2312 8.1988,-14.6087 9.595,-22.1337 1.4013,-7.5188 0.9713,-15.0438 -1.28,-22.5625 -2.08,-7.6425 -5.2825,-14.4825 -9.6037,-20.5225 -5.8013,-8.1063 -12.7638,-13.8188 -20.8788,-17.1388 -7.0613,-3.1637 -14.61,-4.78 -22.6462,-4.8487 z m 344.9212,29.3062 -64.6875,46.5288 -37.9,27.1337 c 0.82,37.285 1.67,74.55 2.5338,111.8013 l 57.735,80.645 7.9975,12.27 c 3.31,5.7187 4.7362,10.44 4.2725,14.165 -0.2925,3.5987 -2.6075,7.4762 -6.9438,11.6212 -4.2862,3.8525 -7.4025,6.6013 -9.35,8.2575 l -4.9175,3.52 2.9638,4.1413 38.33,-27.4375 3.7649,-110.5613 -60.8199,-84.9612 -8.0038,-12.275 c -3.6812,-6.235 -5.3362,-10.9175 -4.97,-14.0475 0.415,-3.4275 3.11,-7.315 8.0862,-11.66 l 11.7276,-9.4188 0,0 c 2.1099,-1.2987 4.2537,-2.6225 6.5925,-4.0875 2.7587,-1.9725 6.2249,-4.0625 10.39,-6.26 4.165,-2.2012 8.0812,-2.92 11.7587,-2.1525 3.6762,0.7613 7.7488,3.71 12.2163,8.8613 l 9.0387,11.5337 7.8513,10.9663 2.3337,-68.5788 z m -407.3187,11.1775 c 5.0337,-0.079 11.0637,2.06 18.095,6.42 9.2575,5.635 16.905,12.6813 22.9587,21.1338 7.4075,10.3512 12.4125,20.9862 15.015,31.9087 2.7738,10.7963 1.25,19.0625 -4.565,24.79 -2.735,2.7388 -6.5138,5.84 -11.3437,9.2963 l -8.7988,6.295 -61.1225,-85.3863 c 3.0562,-1.9237 6.5425,-4.16 10.4588,-6.7037 3.9212,-2.5438 8.7887,-4.8588 14.605,-6.9338 1.455,-0.5225 3.0225,-0.7962 4.6975,-0.82 z m -96.9101,68.0563 c 0.9475,0 1.885,0.1075 2.8026,0.2975 3.6775,0.7575 7.745,3.7162 12.2175,8.8625 l 9.0375,11.5337 87.7937,122.6463 8.0075,12.27 c 3.4325,5.8937 4.9175,10.6987 4.4525,14.4237 -0.42,3.4275 -2.1625,6.6363 -5.2437,9.6238 -3.2025,2.8125 -6.5188,5.84 -9.9413,9.0725 l -4.2675,3.0575 -14.0138,8.8575 c -5.8399,3.1337 -10.4737,4.4962 -13.9062,4.0812 -3.3788,-0.7125 -7.3637,-3.725 -11.9537,-9.0475 l -9.0426,-11.5337 -88.72,-123.94 -8.0037,-12.275 c -3.6813,-6.2363 -5.3363,-10.9188 -4.97,-14.0488 0.415,-3.4275 3.11,-7.3137 8.09,-11.66 l 11.7187,-9.4187 0,0 c 2.115,-1.2988 4.2588,-2.6263 6.5975,-4.0863 2.7588,-1.9775 6.22,-4.0625 10.385,-6.26 3.125,-1.65 6.1088,-2.4712 8.96,-2.4512 z m -229.7538,-684.2086 c -0.4737,8.7312 -1.9963,19.8925 -4.5938,33.4375 -2.3587,13.8425 -4.9487,25.2837 -7.7812,34.3125 -3.7738,12.3387 -8.4926,20.1588 -14.1563,23.4688 -5.425,3.3112 -12.2737,4.9687 -20.5312,4.9687 l -363.7813,0 c -9.4375,0 -16.8574,-2.265 -22.2812,-6.7812 -2.2175,-1.9289 -4.225,-4.3376 -5.9688,-7.0625 4.9025,36.9924 9.0788,75.3924 12.5313,115.5 5.7849,-3.6726 12.345,-5.5 19.625,-5.5 l 363.4062,0 c 7.7837,0 14.8776,1.9638 21.25,5.875 6.3663,3.9112 10.9538,11.5962 13.7813,23.0312 2.3575,9.6338 4.2401,20.8987 5.6562,33.8437 1.65,12.9439 2.6038,24.0763 2.8438,33.4063 l 23.5625,0 0,94.75 39.625,55.3437 8,12.2813 c 3.4325,5.8937 4.9013,10.7113 4.4375,14.4375 -0.415,3.4275 -2.1376,6.6062 -5.2188,9.5938 -3.2038,2.8174 -6.515,5.8612 -9.9375,9.0937 l -4.2812,3.0625 -14.0313,8.8438 c -5.84,3.1399 -10.4475,4.5087 -13.875,4.0937 -1.3666,-0.2878 -2.8422,-0.9901 -4.4062,-2.0313 -6.6577,-20.9845 -15.5202,-39.3842 -26.625,-55.1874 -12.9787,-18.3587 -27.7051,-32.5064 -44.2188,-42.4376 -16.5125,-9.931 -34.33,-14.9062 -53.4375,-14.9062 -33.2613,0 -60.2687,9.9488 -81.0312,29.8125 -20.5225,20.1663 -37.1663,48.2924 -49.9063,84.4063 -6.6063,18.3597 -13.67,40.1862 -21.2187,65.4687 -7.315,25.2837 -14.055,47.7151 -20.1875,67.2813 -8.965,28.5936 -22.1687,50.1138 -39.625,64.5624 -17.2213,14.4491 -35.8538,21.6563 -55.9063,21.6563 -13.6825,0 -25.8174,-2.4052 -36.4375,-7.2187 -2.4062,-1.0503 -4.7587,-2.2264 -7.0625,-3.125 0.3313,24.0859 0.75,48.3662 1.2188,73.1562 22.1962,17.3925 47.5888,26.125 76.25,26.125 18.6375,0 34.9274,-3.285 48.8437,-9.9062 14.155,-6.324 27.11,-16.2675 38.9063,-29.8126 10.3762,-12.3386 19.4675,-26.9312 27.25,-43.7812 7.7838,-16.5575 14.7425,-33.8813 20.875,-51.9375 6.8412,-19.8688 13.2275,-40.4715 19.125,-61.8437 6.1338,-21.0639 13.3063,-42.59 21.5625,-64.5626 9.1988,-24.6772 20.8762,-43.4974 35.0312,-56.4374 14.3901,-12.944 32.4526,-19.4063 54.1563,-19.4063 20.7613,0 38.3288,10.085 52.7187,30.25 14.3888,20.1662 21.5938,44.5362 21.5938,73.125 0,27.09 -4.1501,49.9625 -12.4063,68.625 -8.0175,18.6563 -18.8499,34.4624 -32.5312,47.4063 -14.155,13.2423 -29.9763,23.9374 -47.4375,32.0624 -17.455,8.4278 -35.7325,15.9412 -54.8438,22.5626 l 0,36.5624 165.0313,-3.5624 0,34.2812 c 6.5437,-2.08 13.0588,-5.4412 19.5625,-10.0938 8.9688,-6.4211 16.0688,-13.9761 21.3125,-22.6874 5.2938,-9.0038 8.0937,-17.689 8.4062,-26 0.185,-8.4814 -0.9825,-15.57 -3.5312,-21.3126 -2.5438,-5.7424 -6.8512,-12.8611 -12.9063,-21.3124 l -4.125,2.9687 c 5.3125,7.4162 9.2912,14.6163 11.9375,21.5937 2.695,6.6802 1.8,11.6363 -2.6875,14.8438 -3.4462,2.4712 -7.2537,2.815 -11.375,1.0625 -4.2425,-1.92 -10.2787,-5.7976 -18.125,-11.6563 -2.7937,-2.115 -5.6075,-4.0674 -8.4687,-5.875 l 0,6.75 -22.4063,-17.2187 c 9.4337,-19.2638 17.6702,-40.6487 24.75,-64.125 1.3115,-4.2959 2.5253,-8.7056 3.5938,-13.2187 l 52.9687,74.0312 8,12.25 c 3.31,5.7125 4.7451,10.4612 4.2813,14.1875 -0.2937,3.5987 -2.6326,7.4475 -6.9688,11.5937 -4.2875,3.8527 -7.3949,6.6263 -9.3437,8.2813 l -4.9063,3.5 2.9688,4.1563 118.0937,-84.5626 3.7813,-2.6874 120.4375,-86.2188 -2.9688,-4.1562 -13.9374,8.4374 c -5.8403,3.135 -10.7488,4.28 -14.7188,3.4688 -3.9737,-0.81 -8.1838,-3.7863 -12.6562,-8.9375 l -9.0313,-11.5313 -43.3437,-60.5312 c 3.6235,-2.5925 7.2863,-5.109 11.0312,-7.5312 3.7501,-2.4166 7.8151,-3.8765 12.1562,-4.375 4.2138,-0.669 10.8438,3.3212 19.9063,11.9687 7.6263,8.105 17.0651,18.0325 28.3437,29.7813 11.3339,11.4547 24.0388,18.2912 38.125,20.4687 14.1314,1.885 28.1813,-2.1875 42.1563,-12.1875 8.97,-6.4213 16.1002,-13.9725 21.3437,-22.6875 5.294,-9.0038 8.0938,-17.685 8.4063,-26 0.19,-8.4825 -0.9875,-15.5964 -3.5313,-21.3437 -2.5486,-5.7428 -6.8575,-12.8288 -12.9062,-21.2813 l -4.1562,2.9687 c 5.3073,7.4176 9.2913,14.6163 11.9374,21.5938 2.6952,6.6787 1.7949,11.6347 -2.6874,14.8438 -3.4516,2.4697 -7.2225,2.8099 -11.3438,1.0624 -4.2475,-1.9184 -10.2788,-5.7925 -18.125,-11.6562 -7.9738,-6.03 -16.2463,-10.83 -24.7812,-14.375 -8.4866,-3.8388 -16.3265,-5.6485 -23.5,-5.4688 -7.1779,0.1815 -14.385,1.5587 -21.6563,4.1563 -7.0987,2.4712 -15.7188,5.9087 -25.875,10.3125 l -1.3125,-1.8125 c 14.4875,-10.3762 24.14,-19.1087 28.9688,-26.2187 4.9946,-7.2266 8.1925,-14.6053 9.5937,-22.125 1.3963,-7.5239 0.9702,-15.0423 -1.2813,-22.5626 -2.0797,-7.6413 -5.2724,-14.495 -9.5937,-20.5312 -5.8012,-8.1051 -12.7549,-13.8313 -20.875,-17.1562 -7.0562,-3.1652 -14.6135,-4.7763 -22.6563,-4.8438 -0.5735,-0.01 -1.1409,-0.011 -1.7187,0 -0.5778,0.011 -1.1662,0.036 -1.75,0.062 -9.175,0.3037 -19.2588,3.3748 -30.25,9.1563 -10.9963,5.7811 -24.5187,14.3898 -40.5625,25.875 l -115.4688,83.0624 -29.9687,21.4376 c -0.5701,-2.5179 -1.1674,-5.0333 -1.8125,-7.5313 l 27.0937,-19.375 3.75,-2.6875 120.4375,-86.2188 -2.9687,-4.125 -13.9375,8.4063 c -5.84,3.14 -10.7488,4.2749 -14.7188,3.4687 -3.9738,-0.8098 -8.1874,-3.7864 -12.6562,-8.9374 l -9.0313,-11.5313 -43.3437,-60.5313 c 3.6238,-2.5923 7.3175,-5.1137 11.0625,-7.5312 3.745,-2.4213 7.7837,-3.8763 12.125,-4.375 4.2137,-0.6688 10.8487,3.3262 19.9062,11.9688 7.6262,8.1098 17.0913,18.0275 28.375,29.7812 11.3289,11.455 24.0388,18.2911 38.1251,20.4688 14.1313,1.8848 28.1812,-2.1876 42.1562,-12.1876 8.9687,-6.4211 16.0687,-13.9775 21.3125,-22.6874 5.2937,-9.009 8.0936,-17.689 8.4063,-26 0.1899,-8.4865 -0.9875,-15.5701 -3.5313,-21.3126 -2.5487,-5.7423 -6.8562,-12.8601 -12.9063,-21.3124 l -4.125,2.9687 c 5.3077,7.4175 9.2601,14.6213 11.9063,21.5937 2.695,6.6802 1.8313,11.6301 -2.6563,14.8438 -3.4461,2.47 -7.2536,2.81 -11.375,1.0625 -4.2424,-1.9188 -10.2737,-5.7975 -18.125,-11.6563 -7.9686,-6.0349 -16.2411,-10.8299 -24.7812,-14.375 -8.4862,-3.8386 -16.2962,-5.6499 -23.4688,-5.4687 -7.1774,0.1763 -14.4111,1.5637 -21.6875,4.1563 -7.0987,2.4748 -15.7237,5.9124 -25.875,10.3124 l -1.3125,-1.8124 c 14.4926,-10.3714 24.1438,-19.1138 28.9688,-26.2188 5,-7.2313 8.2225,-14.6 9.625,-22.125 1.3963,-7.52 0.9438,-15.0425 -1.3125,-22.5625 -2.075,-7.6412 -5.2725,-14.4914 -9.5938,-20.5312 -5.8063,-8.1051 -12.7587,-13.8351 -20.875,-17.1563 -7.0599,-3.1638 -14.6187,-4.7762 -22.6562,-4.8437 -1.1475,-0.013 -2.2976,0.01 -3.4688,0.062 -9.17,0.3024 -19.2537,3.37 -30.25,9.1562 -10.9912,5.7813 -24.4912,14.39 -40.5312,25.875 l -11.25,8.0938 0,-8.5 15.25,-10.9063 -2.9688,-4.1562 -12.2812,7.4375 0,-38.0938 c 8.6933,6.3414 18.0826,10.3092 28.1875,11.875 14.1362,1.885 28.1812,-2.1838 42.1562,-12.1875 8.9688,-6.4213 16.0738,-13.9762 21.3125,-22.6875 5.2939,-9.0087 8.0938,-17.6888 8.4063,-26 0.19,-8.4863 -0.9876,-15.57 -3.5313,-21.3125 -2.5438,-5.7475 -6.8562,-12.8612 -12.9062,-21.3125 l -4.125,2.9688 c 5.3125,7.4162 9.2899,14.6212 11.9375,21.5937 2.695,6.68 1.8,11.6312 -2.6875,14.8438 -3.4475,2.4661 -7.2538,2.81 -11.375,1.0625 -4.2425,-1.9251 -10.2775,-5.7976 -18.125,-11.6563 -7.9725,-6.0363 -16.215,-10.835 -24.75,-14.375 -8.4862,-3.8375 -16.3226,-5.6499 -23.5,-5.4687 -3.6522,0.094 -7.3227,0.4996 -11,1.2187 l 0,-33.75 c 0.2696,-1.0545 0.5227,-2.097 0.7187,-3.1562 1.2674,-6.8245 1.0145,-13.6491 -0.7187,-20.4688 l 0,-36.875 -25.125,0 z m 48.25,227.2187 c 5.0302,-0.079 11.0587,2.0488 18.0937,6.4063 9.2526,5.635 16.8875,12.6725 22.9375,21.125 7.4075,10.3475 12.4288,21.0138 15.0313,31.9375 2.7738,10.795 1.2537,19.0538 -4.5625,24.7812 -2.7338,2.739 -6.5151,5.8238 -11.3438,9.2813 l -8.8125,6.3125 -54.4687,-76.125 0,-13.5312 c 1.2233,-0.779 2.3825,-1.5093 3.8125,-2.4376 3.9162,-2.5437 8.7738,-4.8613 14.5937,-6.9374 1.4541,-0.52 3.0421,-0.7863 4.7188,-0.8126 z m 877.7788,521.6086 c 0.078,1.3388 0.1513,2.6763 0.2288,4.0138 l 1.7488,-1.25 -1.9776,-2.7638 z m -433.9262,31.8363 c -10.5375,5.7475 -23.2175,13.9162 -38.105,24.57 l -115.4737,83.0575 -117.8613,84.37 2.9638,4.14 14.7112,-8.97 c 5.845,-3.1338 10.425,-4.2038 13.755,-3.1925 3.3788,0.7125 7.305,3.6425 11.7775,8.7887 l 9.0388,11.5325 87.9774,122.9063 8.0038,12.27 c 3.31,5.7175 4.7362,10.44 4.2675,14.165 -0.2888,3.6037 -2.6025,7.4762 -6.9388,11.6212 -4.2875,3.8525 -7.4025,6.6063 -9.35,8.2613 l -4.9174,3.5212 2.9637,4.135 118.12,-84.555 3.145,-2.2512 c 0.1212,-2.1725 0.2437,-4.3463 0.3662,-6.5188 l -2.725,1.9538 -14.0087,8.8525 c -5.84,3.1387 -10.4788,4.5012 -13.9063,4.0862 -3.3787,-0.7125 -7.3637,-3.73 -11.9575,-9.0525 l -9.0387,-11.5325 -88.72,-123.9362 -8.0038,-12.275 c -3.6812,-6.2363 -5.3362,-10.9188 -4.97,-14.0525 0.415,-3.4288 3.1101,-7.315 8.085,-11.6613 l 11.7238,-9.4137 0,-0.013 c 2.115,-1.2988 4.2587,-2.6213 6.5975,-4.0813 2.7587,-1.9775 6.22,-4.0675 10.385,-6.265 4.165,-2.1975 8.0862,-2.92 11.7625,-2.1537 3.6725,0.7625 7.745,3.7162 12.2175,8.8675 l 9.0325,11.5337 86.25,120.4788 c 2.31,-41.6613 4.5762,-83.3213 6.8025,-124.9813 l -49.9563,-69.79 c 3.0513,-1.9287 6.5388,-4.165 10.4588,-6.7037 3.9212,-2.5488 8.7887,-4.8588 14.605,-6.9388 5.82,-2.075 13.4125,-0.21 22.7925,5.6013 2.085,1.2687 4.0775,2.6212 5.9962,4.0325 0.7125,-13.4663 1.4313,-26.9388 2.1338,-40.41 z m 173.5062,81.2787 -4.1412,2.9638 c 5.3125,7.4175 9.2925,14.615 11.9337,21.5925 2.695,6.68 1.8025,11.6262 -2.685,14.8387 -3.4524,2.4663 -7.2312,2.8325 -11.3525,1.0838 -4.2437,-1.9188 -10.2887,-5.81 -18.14,-11.67 -1.65,-1.25 -3.315,-2.4363 -4.99,-3.5788 0.6,24.7363 1.2113,49.4675 1.8313,74.1938 4.76,-2.0263 9.5062,-4.7213 14.2475,-8.115 8.97,-6.42 16.0787,-13.9838 21.3237,-22.695 5.2925,-9.0088 8.09,-17.6663 8.4025,-25.9763 0.1913,-8.4862 -0.9912,-15.5962 -3.535,-21.3387 -2.5487,-5.7463 -6.845,-12.8463 -12.895,-21.2988 z m 58.1,44.7363 -33.0612,23.6675 2.9637,4.1412 14.7125,-8.97 c 5.84,-3.135 10.4288,-4.205 13.7588,-3.1937 0.3525,0.074 0.7188,0.1862 1.085,0.3075 l 0.5412,-15.9525 z m -56.2199,57.93 c -1.1476,-0.013 -2.3101,0.015 -3.4776,0.069 -7.8899,0.2638 -16.4599,2.5638 -25.6925,6.875 0.4488,17.7688 0.9075,35.5225 1.3675,53.2813 2.3138,2.4612 4.4775,5.0537 6.455,7.8125 7.4063,10.3512 12.4113,20.9862 15.0138,31.9087 2.7737,10.7963 1.255,19.0625 -4.56,24.79 -2.735,2.74 -6.5138,5.84 -11.3475,9.2976 l -3.56,2.5487 c 0.059,2.3137 0.1225,4.6338 0.1812,6.9475 2.9538,-2.07 5.9326,-4.1063 8.9688,-6.0637 3.745,-2.4225 7.7887,-3.8775 12.13,-4.375 4.2137,-0.6688 10.8537,3.3149 19.9112,11.9624 7.6275,8.1063 17.085,18.0325 28.37,29.7851 1.44,1.455 2.905,2.8375 4.3888,4.1462 l 2.6025,-76.3625 c -2.5675,0.62 -5.1512,1.3812 -7.7337,2.305 -7.1001,2.47 -15.7276,5.9075 -25.8838,10.3075 l -1.2937,-1.8125 c 14.4862,-10.37 24.1449,-19.1112 28.9737,-26.215 2.92,-4.2287 5.21,-8.5012 6.9,-12.8275 l 1.1175,-32.8662 c -2.08,-7.2363 -5.175,-13.75 -9.3062,-19.5213 -5.8063,-8.11 -12.7638,-13.8237 -20.8788,-17.1437 -7.0612,-3.1638 -14.61,-4.78 -22.6462,-4.8488 z m -532.3838,82.7975 c 5.03,-0.078 11.06,2.0612 18.0962,6.4212 9.2525,5.635 16.9038,12.6813 22.9538,21.1325 7.4075,10.3525 12.4175,20.9875 15.015,31.91 2.7737,10.7963 1.255,19.0625 -4.56,24.79 -2.735,2.7388 -6.5138,5.835 -11.3438,9.2963 l -8.7987,6.2987 -61.1275,-85.39 c 3.0562,-1.9237 6.5425,-4.16 10.4637,-6.7037 3.9163,-2.545 8.7838,-4.8588 14.605,-6.9338 1.455,-0.5225 3.0175,-0.7912 4.6963,-0.8212 z m 340.5575,36.8362 -115.7862,82.8913 2.9587,4.135 14.7163,-8.965 c 5.84,-3.1388 10.425,-4.2038 13.755,-3.1975 3.38,0.7125 7.305,3.6475 11.7725,8.7937 l 9.0437,11.5338 53.5587,74.8237 c 2.5251,-41.5037 4.9813,-83.0075 7.3738,-124.5075 l -5.66,-8.6812 c -3.6812,-6.235 -5.3362,-10.9125 -4.97,-14.0475 0.415,-3.4275 3.11,-7.315 8.0913,-11.66 l 4.7362,-3.8038 c 0.1363,-2.4362 0.2725,-4.8787 0.41,-7.315 z m 166.3275,28.4325 c 1.2063,45.0588 2.4463,90.0975 3.7213,135.1275 l 68.0412,-48.7062 0.3225,-9.5363 c -3.5013,1.2313 -6.5862,1.5963 -9.2475,1.055 -3.97,-0.8112 -8.1938,-3.7937 -12.6612,-8.94 l -9.0388,-11.5337 -41.1375,-57.4663 z m -305.2775,88.7213 c -1.1475,-0.013 -2.305,0.012 -3.4725,0.064 -9.175,0.3075 -19.2575,3.3488 -30.2488,9.13 -10.9912,5.7813 -24.5112,14.415 -40.5562,25.8988 l -115.4738,83.0562 -117.8562,84.3713 2.9588,4.14 14.7162,-8.965 c 5.84,-3.14 10.425,-4.20875 13.755,-3.1975 3.3788,0.7075 7.305,3.6425 11.7725,8.79375 l 9.0387,11.5325 87.9825,122.90125 8.0038,12.275 c 3.31,5.7125 4.7313,10.43875 4.2675,14.16 -0.2937,3.60375 -2.6075,7.475 -6.9438,11.62125 -4.2875,3.8525 -7.4025,6.60625 -9.3499,8.26125 l -4.9125,3.52125 2.9637,4.135 118.115,-84.55 2.0163,-1.44625 c 0.2937,-2.33375 0.5762,-4.58 0.865,-6.88375 l -2.095,1.49875 -14.0088,8.8525 c -5.84,3.14 -10.4788,4.50125 -13.9063,4.08125 -3.3787,-0.7075 -7.3637,-3.725 -11.9575,-9.0475 l -9.0387,-11.5325 -88.72,-123.93625 -8.0038,-12.275 c -3.6812,-6.235 -5.3362,-10.9188 -4.9699,-14.0475 0.415,-3.4338 3.11,-7.32 8.09,-11.6613 l 11.7237,-9.4187 c 2.11,-1.3038 4.2537,-2.6263 6.5925,-4.0863 2.7588,-1.9775 6.225,-4.0625 10.39,-6.26 4.165,-2.2025 8.0813,-2.925 11.7575,-2.1675 3.6725,0.7613 7.75,3.72 12.2175,8.8663 l 9.0375,11.5337 87.7938,122.6463 0.8837,1.3575 c 0.8488,-6.5875 1.7238,-13.49625 2.5438,-19.77 3.3837,-25.86 6.5337,-48.995 9.4187,-68.73625 l 16.0938,116.1375 87.4762,-62.62125 -2.965,-4.14125 -13.935,8.41375 c -5.84,3.135 -10.7475,4.30125 -14.7163,3.49125 -3.975,-0.81125 -8.1937,-3.78875 -12.6612,-8.93625 l -9.0387,-11.5325 -43.3451,-60.5475 c 3.6238,-2.5925 7.31,-5.1025 11.055,-7.5188 3.745,-2.4225 7.7888,-3.8825 12.1288,-4.375 4.2138,-0.6737 10.85,3.315 19.9125,11.9625 7.6275,8.10005 17.085,18.03255 28.3638,29.78505 11.3337,11.455 24.0387,18.27125 38.125,20.44875 12.9837,1.73375 25.8987,-1.56625 38.75,-9.8725 1.2312,-18.975 2.4512,-37.94875 3.6474,-56.9238 -3.2325,-2.0362 -6.9962,-4.6487 -11.3274,-7.8812 -7.9738,-6.035 -16.2301,-10.82 -24.7663,-14.365 -8.4863,-3.8375 -16.3175,-5.6688 -23.4912,-5.4888 -7.1775,0.1813 -14.3988,1.5725 -21.6738,4.17 -7.1,2.4713 -15.7275,5.9088 -25.8838,10.3075 l -1.295,-1.8112 c 14.4876,-10.3712 24.1463,-19.1113 28.975,-26.22 5,-7.2312 8.1938,-14.605 9.5951,-22.1288 1.3962,-7.52 0.9662,-15.045 -1.2838,-22.5637 -2.0812,-7.6413 -5.2787,-14.4825 -9.605,-20.5225 -5.8012,-8.1062 -12.7587,-13.8188 -20.8788,-17.1388 -7.0562,-3.1637 -14.605,-4.785 -22.6462,-4.8487 l 0,0 z m 376.7425,6.4212 -67.5,48.5488 c 0.1075,3.765 0.215,7.535 0.3225,11.3 1.3325,-0.094 2.6362,-0.02 3.9112,0.2387 3.6763,0.7613 7.7488,3.72 12.2213,8.8675 l 9.0387,11.5275 37.48,52.3638 4.5263,-132.8463 z m -439.135,34.0625 c 5.0287,-0.079 11.0587,2.06 18.095,6.415 9.2525,5.64 16.905,12.6813 22.9537,21.1388 7.4075,10.3462 12.4125,20.9862 15.015,31.9037 2.7738,10.8013 1.25,19.0625 -4.56,24.79 -2.735,2.7388 -6.5137,5.84 -11.3475,9.2975 l -8.8,6.2988 -61.1225,-85.3863 c 3.0563,-1.9287 6.5425,-4.16 10.4588,-6.7037 3.9212,-2.5438 8.7887,-4.8588 14.61,-6.9388 1.45,-0.5175 3.0175,-0.7912 4.6975,-0.815 z m 674.2475,15.59 c 0.097,3.7363 0.205,7.4763 0.3025,11.2113 1.1188,2.275 2.115,4.5312 2.9587,6.7575 2.6425,6.5525 1.8213,11.4312 -2.4412,14.6437 0.195,8.115 0.4012,16.23 0.5762,24.3413 0.059,2.705 0.1025,5.405 0.1613,8.105 0.6687,-0.9963 1.3187,-2.0063 1.9337,-3.0325 5.2925,-9.0088 8.0963,-17.665 8.4088,-25.9763 0.185,-8.4862 -0.9913,-15.595 -3.5413,-21.3375 -1.8499,-4.185 -4.6475,-9.0925 -8.3587,-14.7125 z m -299.1213,119.0038 c 0.1325,4.5075 0.2638,9.01375 0.4,13.52125 1.4513,48.59875 2.945,97.1875 4.4738,145.77125 l 49.165,-35.195 1.5862,-46.6025 -1.7387,-2.21125 -53.8863,-75.28375 z m -192.885,22.4275 c -4.6,1.49375 -9.385,3.545 -14.3562,6.16125 -10.9963,5.78125 -24.5113,14.415 -40.5563,25.89875 l -82.3537,59.23375 2.095,15.1225 c 3.1438,1.26375 6.5575,3.99375 10.2437,8.24125 l 9.0388,11.52875 87.7975,122.64625 8.0025,12.27625 c 0.5575,0.95125 1.045,1.865 1.4987,2.7625 2.6963,-35.5175 5.3325,-71.035 7.8663,-106.5525 0.5175,-7.265 1.0112,-14.53125 1.5237,-21.79625 l -2.47,1.7725 -61.1237,-85.38625 c 3.0562,-1.92875 6.5437,-4.165 10.4587,-6.70875 3.9213,-2.54375 8.79,-4.85375 14.605,-6.93375 5.82,-2.075 13.4175,-0.21 22.7925,5.60125 8.1938,4.99 15.1226,11.08375 20.8013,18.28125 0.825,-12.1875 1.66,-24.375 2.47,-36.5675 0.5625,-8.52625 1.1087,-17.05125 1.6662,-25.58125 z m 246.615,110.7325 -48.5837,34.775 c 0.084,2.515 0.1612,5.025 0.245,7.53375 l 1.1425,-0.6975 c 5.84,-3.135 10.425,-4.20375 13.755,-3.19875 3.3787,0.71375 7.3037,3.6475 11.7725,8.79375 l 9.0375,11.53375 10.1462,14.175 2.485,-72.915 z m -420.9075,7.1775 -113.955,81.5775 2.9638,4.14 14.7112,-8.97 c 5.845,-3.13375 10.43,-4.20375 13.76,-3.1975 3.3788,0.7125 7.305,3.6475 11.7725,8.79375 l 9.0388,11.5325 42.7725,59.75125 c 4.9225,-40.01875 9.7325,-79.19375 14.215,-115.4875 l -1.71,-2.6275 c -3.6813,-6.23 -5.3363,-10.9125 -4.97,-14.0475 0.415,-3.4275 3.11,-7.315 8.09,-11.66 l 2.325,-1.87 c 0.195,-1.55375 0.4,-3.2375 0.5912,-4.78125 0.1363,-1.08875 0.2625,-2.07 0.395,-3.15375 z m -223.9876,-704.3736 c -1.1475,-0.013 -2.3012,0.04 -3.4687,0.094 -9.175,0.307 -19.2537,3.3434 -30.25,9.125 -0.3275,0.1708 -0.6625,0.3512 -1,0.5312 l 0,43.9688 c 5.1025,4.2145 9.5525,9.0025 13.375,14.3437 7.4125,10.3525 12.4337,20.9824 15.0312,31.9063 2.7738,10.7998 1.2537,19.0537 -4.5625,24.7812 -2.7338,2.7388 -6.5137,5.825 -11.3437,9.2812 l -8.8125,6.3126 -1.3125,-1.8438 0,-71.4688 -25.125,0 c -0.4687,8.7301 -1.9963,19.8613 -4.5938,33.4063 -2.3575,13.8438 -4.9812,25.2838 -7.8125,34.3125 -3.7749,12.3388 -8.4611,20.1573 -14.125,23.4688 -5.425,3.3096 -12.2749,4.9687 -20.5312,4.9687 l -359.9063,-0.062 c 0.5713,29.355 1.2901,63.36 1.9688,96.1875 l 361.4687,0.031 c 7.7876,0 14.8463,1.9634 21.2188,5.875 6.3675,3.9145 10.98,11.5962 13.8125,23.0312 2.3587,9.6301 4.2412,20.9363 5.6562,33.875 1.6513,12.945 2.6101,24.0752 2.8438,33.4062 l 25.125,0 0,-48.25 c 1.0478,-0.5921 2.1561,-1.2014 3.3125,-1.8124 4.1649,-2.2029 8.0737,-2.9126 11.75,-2.1563 3.6775,0.7625 7.7512,3.7237 12.2187,8.875 l 9.0313,11.5313 87.7812,122.625 8.0313,12.2812 c 3.4325,5.8937 4.9025,10.7125 4.4375,14.4375 -0.415,3.4288 -2.1687,6.6363 -5.25,9.625 -3.2024,2.8125 -6.51,5.83 -9.9375,9.0625 l -4.25,3.0625 -14.0313,8.8437 c -5.84,3.1387 -10.4737,4.5088 -13.9062,4.0938 -3.3788,-0.7125 -7.3475,-3.74 -11.9375,-9.0625 l -9.0625,-11.5313 -70.5625,-98.5937 0,50.0313 -23.5938,0 c -0.4687,7.5234 -1.6463,16.8622 -3.5312,28 -1.8901,11.1385 -4.6162,21.2209 -8.1563,30.25 -3.7736,10.2336 -8.7425,17.0012 -14.875,20.3124 -6.1324,3.6126 -13.1962,5.4063 -21.2187,5.4063 l -351.9063,0.062 c 0.6149,31.63 1.2138,63.5162 1.75,95.875 l 170.75,0.2188 c 0.2337,6.6212 0.4851,16.57 0.7188,29.8124 0.4738,13.2477 0.6875,29.4877 0.6875,48.75 0,47.2565 -9.545,83.5288 -28.6563,108.8126 -19.1063,25.5812 -43.5238,38.375 -73.25,38.375 -26.6162,0 -48.9275,-5.3063 -66.75,-15.8438 0.7325,37.8763 1.2701,75.8663 1.5625,113.7188 15.1864,9.0086 32.7326,13.625 52.4688,13.625 22.8863,-2e-4 42.33,-6.1564 58.375,-18.5 16.04,-12.3388 28.9987,-27.8426 38.9062,-46.5 9.9113,-17.759 17.6063,-38.0662 23.0313,-60.9376 5.6588,-22.5724 9.3175,-43.0462 10.9687,-61.4062 l 3.1875,0 c 3.54,20.7675 8.4763,40.0225 14.8438,57.7812 6.6062,18.0564 14.6237,34.0276 24.0625,47.875 9.9075,14.7464 21.6925,26.1513 35.375,34.2813 13.92,8.125 29.7425,12.1875 47.4375,12.1875 20.2838,0 37.5012,-5.69 51.6562,-17.125 14.1563,-11.4412 25.3676,-26.0538 33.625,-43.8125 8.9649,-18.96 15.2099,-38.9662 18.75,-60.0313 1.6518,-9.7053 2.9049,-19.6452 3.7813,-29.8124 l 0,3.1562 c 7.2612,7.69 15.8225,16.7313 26.125,27.4688 11.3337,11.455 24.0387,18.2549 38.125,20.4374 14.1312,1.8851 28.1812,-2.1824 42.1562,-12.1874 8.97,-6.4213 16.1001,-13.9775 21.3438,-22.6876 5.2938,-9.0037 8.0938,-17.6574 8.4062,-25.9687 0.1851,-8.4813 -1.0137,-15.5962 -3.5625,-21.3437 -2.5438,-5.7425 -6.8212,-12.8288 -12.875,-21.2813 l -4.1562,2.9375 c 5.3075,7.4175 9.2912,14.615 11.9375,21.5938 2.695,6.6787 1.7987,11.63 -2.6875,14.8437 -3.4475,2.47 -7.2275,2.8412 -11.3438,1.0937 -4.2474,-1.9187 -10.2788,-5.8237 -18.125,-11.6874 -7.9738,-6.03 -16.2462,-10.8038 -24.7812,-14.3438 -8.4862,-3.8387 -16.3263,-5.68 -23.5,-5.5 -7.1775,0.1813 -14.3851,1.5588 -21.6563,4.1562 -6.6345,2.3089 -14.6633,5.5078 -23.9687,9.5 0.015,-1.138 0.056,-2.263 0.062,-3.4062 12.6345,-9.3127 21.2482,-17.2695 25.6875,-23.8125 5,-7.2313 8.1925,-14.605 9.5937,-22.125 1.3962,-7.5237 0.97,-15.0425 -1.2812,-22.5625 -2.08,-7.6463 -5.2675,-14.495 -9.5938,-20.5312 -5.8012,-8.1052 -12.755,-13.8002 -20.875,-17.125 -1.1503,-0.5139 -2.3219,-0.9478 -3.5,-1.375 l 0,-43.6876 117.1563,-83.9062 3.75,-2.6875 120.4687,-86.2187 -2.9687,-4.125 -13.9375,8.4062 c -5.8401,3.1387 -10.7501,4.3112 -14.7188,3.5 -3.9747,-0.81 -8.1887,-3.7913 -12.6562,-8.9375 l -9.0312,-11.5313 -43.3438,-60.5624 c 3.6237,-2.5928 7.2863,-5.1088 11.0312,-7.5313 3.745,-2.4213 7.7852,-3.8763 12.125,-4.375 4.2142,-0.6738 10.8799,3.3213 19.9376,11.9687 7.6259,8.1051 17.0599,18.0288 28.3437,29.7813 11.3338,11.455 24.0438,18.2862 38.125,20.4687 14.1313,1.8804 28.1809,-2.1874 42.1563,-12.1874 8.9696,-6.4216 16.0987,-13.9763 21.3437,-22.6876 5.2925,-9.0036 8.0936,-17.6587 8.4063,-25.9687 0.1897,-8.4825 -1.0188,-15.6012 -3.5626,-21.3437 -2.5483,-5.7428 -6.8259,-12.86 -12.875,-21.3126 l -4.1562,2.9688 c 5.3075,7.4175 9.2912,14.6162 11.9375,21.5938 2.695,6.6784 1.7937,11.6349 -2.6875,14.8437 -3.4525,2.47 -7.2236,2.815 -11.3438,1.0625 -4.2435,-1.9187 -10.305,-5.7962 -18.1562,-11.6562 -7.9688,-6.0303 -16.215,-10.8038 -24.75,-14.3438 -8.4862,-3.8387 -16.3263,-5.68 -23.5,-5.5 -7.1775,0.1812 -14.3803,1.5588 -21.6562,4.1562 -7.0991,2.4715 -15.7187,5.9138 -25.875,10.3126 l -1.3126,-1.8126 c 14.4879,-10.3709 24.145,-19.1087 28.9688,-26.2187 5,-7.2313 8.1925,-14.605 9.5938,-22.125 1.396,-7.5237 0.9749,-15.0437 -1.2813,-22.5625 -2.075,-7.6425 -5.2728,-14.4963 -9.5937,-20.5312 -5.8062,-8.1116 -12.7601,-13.8053 -20.875,-17.125 -7.0616,-3.1653 -14.6188,-4.7763 -22.6563,-4.8438 -1.1475,-0.013 -2.2962,0.01 -3.4687,0.062 -9.1703,0.3037 -19.2538,3.3438 -30.25,9.125 -10.9914,5.7813 -24.5227,14.4212 -40.5626,25.9063 l -97.2812,69.9687 0,-8.75 101.3125,-72.5625 -2.9688,-4.125 -13.9375,8.4062 c -5.84,3.1404 -10.7487,4.3116 -14.7187,3.5 -3.9688,-0.8046 -8.1888,-3.7912 -12.6563,-8.9374 l -9.0312,-11.5313 -43.3438,-60.5625 c 3.6239,-2.5925 7.2863,-5.1138 11.0313,-7.5312 3.745,-2.4217 7.8149,-3.8766 12.1562,-4.375 4.2188,-0.6692 10.8438,3.3212 19.9063,11.9687 7.6262,8.105 17.0963,18.0326 28.375,29.7813 11.3338,11.4547 24.0126,18.2912 38.0937,20.4687 14.1363,1.885 28.1813,-2.1825 42.1563,-12.1875 8.97,-6.4213 16.1049,-13.9775 21.3438,-22.6875 5.2933,-9.0088 8.0987,-17.6575 8.4062,-25.9687 0.19,-8.4868 -0.9877,-15.6013 -3.5312,-21.3438 -2.5442,-5.7425 -6.8575,-12.86 -12.9063,-21.3125 l -4.1563,2.9687 c 5.313,7.4176 9.2913,14.6163 11.9376,21.5938 2.6947,6.68 1.8,11.6351 -2.6876,14.8438 -3.4458,2.4696 -7.2225,2.8412 -11.3437,1.0937 -4.2425,-1.9187 -10.2787,-5.8288 -18.125,-11.6875 -7.9737,-6.035 -16.2463,-10.835 -24.7813,-14.375 -8.4863,-3.8388 -16.3225,-5.6499 -23.5,-5.4688 -7.1775,0.1817 -14.3849,1.5587 -21.6562,4.1563 -7.0987,2.4762 -15.7188,5.9137 -25.875,10.3125 l -1.3125,-1.8125 c 14.4925,-10.3712 24.145,-19.1089 28.9687,-26.2187 5,-7.2317 8.1963,-14.6003 9.5938,-22.125 1.3963,-7.5241 0.97,-15.0426 -1.2813,-22.5626 -2.08,-7.6413 -5.2725,-14.495 -9.5937,-20.5312 -5.8063,-8.1051 -12.76,-13.8037 -20.875,-17.125 -7.0612,-3.1687 -14.6187,-4.8075 -22.6563,-4.875 z m -33.1875,525.1875 5.0313,7.0313 8,12.2812 c 3.3099,5.7175 4.7188,10.43 4.25,14.1562 -0.2887,3.5989 -2.5963,7.4791 -6.9375,11.625 -4.2875,3.8478 -7.4,6.5952 -9.3438,8.25 l -1,0.7188 0,-54.0625 z m 631.5889,272.0861 c 0.635,19.7125 1.275,39.42875 1.9237,59.14625 0.1125,3.36375 0.23,6.7325 0.3425,10.0975 0.3563,-0.47875 0.6925,-0.9525 1.005,-1.41625 5,-7.22625 8.1988,-14.605 9.595,-22.12875 1.3963,-7.52 0.9713,-15.04375 -1.2787,-22.56375 -2.08,-7.64125 -5.2838,-14.4825 -9.605,-20.5225 -0.645,-0.90375 -1.3087,-1.7675 -1.9825,-2.6125 z m -316.0938,34.17 14.6875,105.9575 65.41,-46.82625 3.75,-2.68625 11.2938,-8.08 c 0.1125,-1.43125 0.225,-2.8575 0.3375,-4.2875 0.1175,-1.5525 0.23,-3.11 0.3512,-4.66375 -0.2387,0.255 -0.4787,0.50875 -0.7325,0.7575 -3.2025,2.8125 -6.5187,5.84 -9.9412,9.0725 l -4.2725,3.05625 -14.0088,8.8575 c -5.845,3.14 -10.4787,4.5025 -13.9062,4.0825 -3.3788,-0.70875 -7.3625,-3.72625 -11.9575,-9.04875 l -9.0388,-11.5325 -31.9725,-44.65875 z m -317.0412,2.33875 0,46.95875 51.3525,-36.75875 -2.9638,-4.14 -13.935,8.4075 c -5.84,3.14 -10.7475,4.3075 -14.7175,3.49625 -3.9737,-0.81 -8.1925,-3.78875 -12.665,-8.94 l -7.0712,-9.02375 z m 59.21,26.915 c 5.0337,-0.0788 11.0637,2.06 18.095,6.415 9.2525,5.64 16.905,12.68625 22.9537,21.1375 7.4125,10.3525 12.4175,20.9875 15.02,31.91 2.7738,10.79625 1.25,19.0575 -4.565,24.785 -2.735,2.74375 -6.5137,5.84 -11.3437,9.29625 l -8.7988,6.3 -61.1275,-85.38625 c 3.0563,-1.92375 6.5475,-4.16 10.4638,-6.70375 3.9212,-2.545 8.7887,-4.85875 14.605,-6.93375 1.455,-0.5225 3.0225,-0.79625 4.6975,-0.82 z m 597.075,17.95875 c -6.7438,0.17 -13.5313,1.42 -20.3563,3.725 0.81,24.42375 1.635,48.8475 2.47,73.27125 9.6588,8.8775 20.2738,14.52625 31.8513,16.93875 l 3.1,-91.00625 c -6.05,-2.08 -11.7388,-3.06125 -17.065,-2.92875 z m -244.83,10.47375 -9.6138,6.91875 -68.9987,49.39375 7.3087,52.76875 55.875,78.0475 c 2.0113,-22.99875 3.9788,-45.99625 5.9025,-68.99875 1.4363,-17.115 2.8375,-34.22375 4.2238,-51.33875 l -6.645,-9.28625 -8.0038,-12.27625 c -3.6812,-6.235 -5.3362,-10.9175 -4.97,-14.0475 0.415,-3.4275 3.11,-7.32 8.0863,-11.665 l 11.7237,-9.41375 c 1.455,-0.89375 3.0075,-1.86125 4.545,-2.8175 0.1913,-2.4275 0.3813,-4.85875 0.5663,-7.29 l 0,0 z m 246.1337,102.86625 -13.9362,8.4125 c -1.2688,0.67875 -2.485,1.25 -3.6613,1.74375 0.097,2.83125 0.195,5.66375 0.2925,8.49125 l 20.2688,-14.5075 -2.9638,-4.14 z m 11.7775,6.5325 c -4.0875,2.76375 -8.355,5.7275 -12.8375,8.93625 l -15.9525,11.47375 c 0.084,2.325 0.1613,4.65375 0.245,6.9775 2.5625,-1.625 5.18,-3.295 8.2863,-5.3075 3.915,-2.54375 8.7887,-4.85875 14.6037,-6.93875 1.5875,-0.56625 3.315,-0.83 5.1663,-0.805 l 0.4887,-14.33625 z m -549.4763,-178.3098 c -0.5787,0.011 -1.1663,0.0368 -1.75,0.0624 -9.175,0.3075 -19.2537,3.3439 -30.25,9.125 -10.9912,5.7864 -24.5175,14.4226 -40.5625,25.9063 l -47.3125,34.0313 0,79.1562 74.125,103.5938 8,12.25 c 3.4325,5.8886 4.9324,10.7124 4.4687,14.4374 -0.4163,3.4289 -2.1738,6.6364 -5.25,9.625 -3.2025,2.8127 -6.515,5.8262 -9.9375,9.0626 l -4.2812,3.0624 -14,8.8438 c -5.845,3.1337 -10.4788,4.5088 -13.9063,4.0938 -3.3787,-0.7127 -7.3437,-3.74 -11.9375,-9.0626 l -9.0625,-11.5312 -16.5937,-23.1875 0,-47.9375 -25.125,0 c -0.4687,8.13 -2.11,18.38 -4.9375,30.7188 -2.5975,12.6412 -5.3237,22.42 -8.1563,29.3437 -3.7738,10.235 -8.7112,17.0025 -14.8437,20.3125 -6.1325,3.6138 -13.2275,5.4062 -21.25,5.4062 l -341.875,-0.4374 c 0.25,32.1136 0.4337,64.6562 0.2187,96.9062 2.315,-0.2537 5.0838,-0.2812 7.9688,-0.2812 l 337.25,0 c 7.7838,-2e-4 15.0975,1.7925 21.9375,5.4062 6.8413,3.9112 11.6675,10.985 14.5,21.2188 1.65,6.0211 3.5325,15.6637 5.6562,28.9062 2.1188,13.5437 3.2976,24.51 3.5313,32.9375 l 0.094,0 c 8.95,-33.3213 17.3287,-57.6712 25.0625,-74 l 0,-13.5 0.062,0.0937 c 1.445,-2.3237 2.8538,-4.3987 4.25,-6.1562 0.9725,-1.23 1.9538,-2.3187 2.9063,-3.2812 0.9512,-0.9563 1.8837,-1.7763 2.8125,-2.4688 0.9275,-0.6937 1.8463,-1.2525 2.75,-1.6875 0.9075,-0.43 1.8038,-0.73 2.6875,-0.9063 0.8788,-0.1749 1.735,-0.2287 2.5937,-0.1562 0.86,0.0738 1.7225,0.2763 2.5625,0.5938 0.835,0.3225 1.6576,0.7562 2.4688,1.3124 0.815,0.5563 1.6151,1.2401 2.4062,2.0313 1.5813,1.5825 3.1312,3.6188 4.625,6.0937 1.4937,2.4801 2.9376,5.3838 4.3438,8.7188 1.4013,3.335 2.75,7.1038 4.0625,11.25 1.3187,4.145 2.5825,8.6825 3.8125,13.5938 1.23,4.9124 2.42,10.205 3.5625,15.8437 1.1425,5.64 2.2538,11.6188 3.3125,17.9375 0.3863,2.29 0.7537,4.69 1.125,7.0625 l 41.4062,57.8437 8,12.2813 c 3.31,5.7175 4.7501,10.4312 4.2813,14.1563 -0.2887,3.6037 -2.6013,7.48 -6.9375,11.625 -4.2875,3.8524 -7.3963,6.5949 -9.3438,8.25 l -4.9375,3.5312 2.9688,4.125 86.375,-61.8125 c 0.21,-1.3125 0.4425,-2.5925 0.6563,-3.9063 0.7087,-4.3899 1.3849,-8.8849 2.0937,-13.3437 -2.9538,-1.255 -6.3151,-4.0575 -10.0937,-8.4375 l -9.0313,-11.5312 -88.7188,-123.9376 -8,-12.25 c -3.6813,-6.235 -5.335,-10.9274 -4.9687,-14.0624 0.415,-3.4275 3.1187,-7.3113 8.0937,-11.6563 l 11.7188,-9.4063 c 2.11,-1.3037 4.255,-2.6337 6.5937,-4.0937 2.7588,-1.9775 6.21,-4.0787 10.375,-6.2813 4.17,-2.1974 8.1038,-2.9137 11.7813,-2.1562 3.6762,0.7613 7.72,3.7288 12.1875,8.875 l 9.0625,11.5312 65,90.8438 c 4.795,-33.1588 9.5413,-67.3625 14.2187,-102.0938 0.4737,-3.5112 0.9639,-7.0475 1.4376,-10.5624 l -37.5626,-52.4688 c 3.0562,-1.9288 6.5175,-4.175 10.4376,-6.7188 3.9162,-2.5437 8.805,-4.8575 14.625,-6.9374 5.3612,-1.9138 12.2362,-0.4725 20.625,4.3124 1.3675,-10.5224 2.7412,-21.0312 4.0937,-31.5624 -9.2038,5.4112 -19.8513,12.4299 -31.9063,21.0624 l -115.4687,83.0626 -69.4063,49.6874 0,-8.8437 64.6875,-46.3125 3.75,-2.6875 120.4688,-86.25 -2.9687,-4.125 -13.9376,8.4063 c -5.8399,3.1336 -10.7449,4.3099 -14.7187,3.5 -3.97,-0.8064 -8.1888,-3.7913 -12.6563,-8.9376 l -9.0624,-11.5312 -43.3126,-60.5625 c 3.6188,-2.5925 7.2863,-5.0825 11.0313,-7.5 3.745,-2.4213 7.785,-3.8813 12.125,-4.375 4.2187,-0.6737 10.875,3.29 19.9375,11.9375 7.6262,8.105 17.065,18.06 28.3438,29.8125 11.3337,11.455 24.0437,18.26 38.125,20.4375 5.5861,0.7475 11.1611,0.5462 16.7187,-0.5625 3.315,-25.9813 6.5575,-51.8125 9.75,-77.4375 -6.5325,-4.4925 -13.2512,-8.165 -20.1563,-11.0312 -8.4861,-3.8376 -16.3211,-5.6801 -23.5,-5.5 -7.1723,0.1811 -14.3849,1.5587 -21.6562,4.1562 -7.0987,2.4762 -15.7499,5.9137 -25.9062,10.3125 l -1.2813,-1.8125 c 14.4925,-10.3713 24.145,-19.11 28.9687,-26.2188 5,-7.2325 8.1975,-14.6 9.5938,-22.125 1.4012,-7.5236 0.97,-15.0437 -1.2812,-22.5624 -2.08,-7.6425 -5.2725,-14.4913 -9.5938,-20.5313 -5.8012,-8.1063 -12.7549,-13.805 -20.875,-17.125 -7.0612,-3.165 -14.62,-4.7762 -22.6563,-4.8437 -0.5737,-0.006 -1.14,-0.0112 -1.7187,0 z m 521.0926,210.36105 c 1.22,34.8775 2.45,69.76 3.71,104.64375 0.445,12.29875 0.8987,24.59875 1.3475,36.89875 l 16.6262,23.2225 4.37,-128.37375 -26.0537,-36.39125 z m -283.2525,94.4675 11.2937,81.52375 c 5.2925,-2.08 10.5713,-5.005 15.835,-8.775 0.044,-0.0288 0.079,-0.0588 0.1225,-0.0875 1.63,-17.26625 3.2325,-34.52625 4.8138,-51.7925 -4.0625,-2.13875 -9.3888,-5.66875 -16.025,-10.62 -5.225,-3.955 -10.5713,-7.3625 -16.04,-10.24875 z m 25.9612,86.235 c -4.2712,1.1775 -8.71,2.85625 -13.315,5.035 l 7.5438,54.41875 c 1.9637,-19.815 3.8825,-39.63375 5.7712,-59.45375 z m 275.9913,71.5925 c -3.6913,1.7425 -6.83,2.675 -9.4188,2.7925 0.1463,3.8825 0.2938,7.76375 0.44,11.645 l 8.7013,-6.225 0.2775,-8.2125 z m -0.585,17.27 -8.0625,5.77125 c 1.3725,36.07 2.76,72.14875 4.18,108.2325 l 3.8825,-114.00375 z m -591.7138,43.13 -4.1412,2.96375 c 5.3075,7.4175 9.2875,14.615 11.9337,21.5875 2.695,6.68375 1.8013,11.625 -2.685,14.83875 -3.175,2.27 -6.6362,2.73875 -10.3762,1.44 0.5325,6.5625 1.05,13.2175 1.5375,20.03875 0.6012,7.115 1.2162,13.93125 1.8362,20.61125 3.8238,-3.97 7.1388,-8.2575 9.9175,-12.87125 5.2925,-9.00375 8.095,-17.66625 8.4075,-25.9775 0.19,-8.48125 -0.9912,-15.595 -3.535,-21.3375 -2.5487,-5.7425 -6.8462,-12.84125 -12.895,-21.29375 z m 104.8038,11.29875 -79.765,57.1 2.9637,4.14 14.7113,-8.965 c 5.84,-3.13875 10.425,-4.20375 13.755,-3.1975 3.38,0.7125 7.305,3.6425 11.7725,8.79375 l 9.0437,11.53375 12.2013,17.05 c 0.7275,-3.76875 1.4562,-7.47 2.1837,-11.3375 2.5675,-13.6775 5.1363,-27.98875 7.71,-42.85125 1.8063,-10.465 3.6175,-21.285 5.4238,-32.26625 z m -102.9288,91.3625 c -0.5675,0 -1.1425,0.02375 -1.7137,0.03375 0.4775,4.6875 0.9562,9.2675 1.445,13.71125 1.8312,16.7825 3.72,31.85 5.6537,45.2975 1.9388,13.4475 3.9213,25.26875 5.9525,35.5525 1.015,5.14125 2.0463,9.8925 3.0863,14.2725 1.035,4.38 2.085,8.38375 3.1437,12.02625 1.06,3.6375 2.1288,6.91375 3.2088,9.83375 1.0787,2.92 2.1675,5.48375 3.2662,7.705 1.0988,2.22125 2.2075,4.09625 3.325,5.64 1.1188,1.5425 2.2463,2.75375 3.3788,3.6375 1.1375,0.88375 2.28,1.445 3.4325,1.69375 1.1475,0.25 2.31,0.18125 3.4775,-0.185 1.1662,-0.37125 2.3437,-1.04 3.525,-2.0075 1.1812,-0.96625 2.3675,-2.22125 3.5637,-3.75875 1.1975,-1.54375 2.3975,-3.365 3.6038,-5.46 1.2112,-2.09375 2.4225,-4.4625 3.6425,-7.08875 1.2212,-2.6275 2.4462,-5.5225 3.6775,-8.6625 1.23,-3.145 2.465,-6.53875 3.7062,-10.17625 1.2013,-3.515 2.4013,-7.265 3.6125,-11.225 -6.6162,0.34125 -13.2712,1.69375 -19.965,4.08625 -7.1,2.47625 -15.7275,5.90875 -25.8837,10.3125 l -1.295,-1.81625 c 14.4875,-10.37125 24.1462,-19.10625 28.975,-26.215 5,-7.2325 8.1937,-14.61 9.595,-22.13 1.3962,-7.52375 0.9662,-15.04375 -1.2838,-22.5625 -2.0812,-7.6475 -5.2787,-14.4825 -9.605,-20.5225 -5.8012,-8.10625 -12.7587,-13.82375 -20.8787,-17.14375 -7.0563,-3.16375 -14.605,-4.78 -22.6463,-4.84875 z m -469.73,-3042.9361 15.3114,0 0,58.6537 12.84,0 0,10.1273 -12.84,0 0,21.219 -12.1165,0 0,-21.219 -40.6296,0 0,-11.7549 37.4347,-57.0261 m 3.1949,10.6095 -30.7435,48.0442 30.7435,0 0,-48.0442 m -465.2106,3867.41607 19.8929,0 0,-68.66042 -21.641,4.34026 0,-11.09177 21.5204,-4.34025 12.1768,0 0,79.75218 19.8929,0 0,10.24782 -51.842,0 0,-10.24782 m 1736.5354,0 42.4983,0 0,10.24782 -57.1467,0 0,-10.24782 c 4.6216,-4.7823 10.9109,-11.19221 18.8681,-19.22974 7.9973,-8.07766 13.0207,-13.28194 15.0703,-15.61286 3.8982,-4.38039 6.6108,-8.07764 8.138,-11.09176 1.5673,-3.0542 2.3509,-6.04817 2.351,-8.98192 -10e-5,-4.78225 -1.688,-8.68043 -5.0637,-11.69457 -3.3356,-3.01399 -7.6959,-4.52102 -13.081,-4.5211 -3.8179,8e-5 -7.8567,0.66317 -12.1166,1.98928 -4.2197,1.32627 -8.7408,3.33564 -13.5632,6.02813 l 0,-12.29739 c 4.9028,-1.9691 9.4842,-3.45603 13.7441,-4.46081 4.2598,-1.0046 8.158,-1.50694 11.6946,-1.50704 9.3234,10e-5 16.7581,2.33097 22.3041,6.99264 5.5458,4.66183 8.3187,10.8909 8.3188,18.6872 -1e-4,3.69732 -0.7034,7.21373 -2.1099,10.54923 -1.3664,3.29544 -3.8781,7.19362 -7.5351,11.69458 -1.0048,1.16548 -4.1997,4.54123 -9.5848,10.12726 -5.3851,5.54591 -12.9806,13.32219 -22.7863,23.32887" />
    <g
       style="font-size:123.45613098px;font-style:normal;font-weight:normal;line-height:125%;letter-spacing:0px;word-spacing:0px;fill:#000000;fill-opacity:1;stroke:none;font-family:Sans"
       id="text9052" />
  </g>
</svg>
