<?xml version="1.0" encoding="UTF-8" standalone="no"?>
<!-- Created with Inkscape (http://www.inkscape.org/) -->

<svg
   xmlns:dc="http://purl.org/dc/elements/1.1/"
   xmlns:cc="http://creativecommons.org/ns#"
   xmlns:rdf="http://www.w3.org/1999/02/22-rdf-syntax-ns#"
   xmlns:svg="http://www.w3.org/2000/svg"
   xmlns="http://www.w3.org/2000/svg"
   xmlns:sodipodi="http://sodipodi.sourceforge.net/DTD/sodipodi-0.dtd"
   xmlns:inkscape="http://www.inkscape.org/namespaces/inkscape"
   width="1795.3719"
   height="145.338"
   id="svg2"
   version="1.1"
   inkscape:version="0.48.5 r10040"
   sodipodi:docname="White 8.svg">
  <defs
     id="defs4" />
  <sodipodi:namedview
     id="base"
     pagecolor="#ffffff"
     bordercolor="#666666"
     borderopacity="1.0"
     inkscape:pageopacity="0.0"
     inkscape:pageshadow="2"
     inkscape:zoom="0.31065383"
     inkscape:cx="-83.419501"
     inkscape:cy="-49.943709"
     inkscape:document-units="in"
     inkscape:current-layer="layer1"
     showgrid="false"
     units="in"
     inkscape:window-width="2445"
     inkscape:window-height="1343"
     inkscape:window-x="116"
     inkscape:window-y="0"
     inkscape:window-maximized="0"
     fit-margin-top="0"
     fit-margin-left="0"
     fit-margin-right="0"
     fit-margin-bottom="0"
     showguides="true"
     inkscape:guide-bbox="true" />
  <metadata
     id="metadata7">
    <rdf:RDF>
      <cc:Work
         rdf:about="">
        <dc:format>image/svg+xml</dc:format>
        <dc:type
           rdf:resource="http://purl.org/dc/dcmitype/StillImage" />
        <dc:title></dc:title>
      </cc:Work>
    </rdf:RDF>
  </metadata>
  <g
     inkscape:label="Layer 1"
     inkscape:groupmode="layer"
     id="layer1"
     transform="translate(-19210.813,3134.894)">
    <text
       xml:space="preserve"
       style="font-size:123.45613098px;font-style:normal;font-weight:normal;line-height:125%;letter-spacing:0px;word-spacing:0px;fill:#000000;fill-opacity:1;stroke:none;font-family:Sans"
       x="-3045.9387"
       y="16951.15"
       id="text9052"
       sodipodi:linespacing="125%"
       transform="matrix(0,-1,1,0,0,0)"><tspan
         sodipodi:role="line"
         id="tspan9054"
         x="-3045.9387"
         y="16951.15" /></text>
    <path
       id="path26047"
       style="font-size:123.45613098px;font-style:normal;font-weight:normal;line-height:125%;letter-spacing:0px;word-spacing:0px;fill:none;stroke:#000000;stroke-width:0.99000001;stroke-miterlimit:4;stroke-opacity:1;stroke-dasharray:none;font-family:Sans"
       d="m 19699.346,-3012.717 0.752,11.099 0.288,0.645 c 4.756,0.01 9.565,0.02 14.316,0.03 l 0,-11.778 z m -49.111,0 c -0.362,1.299 -0.753,2.754 -1.207,4.541 l -2.773,7.075 c 4.443,0.01 8.897,0.02 13.335,0.03 l 1.636,-4.82 2.905,-6.826 z m -118.932,0 c 1.304,2.618 3.097,5.943 5.518,10.181 0.161,0.39 0.327,0.787 0.489,1.177 7.807,0.01 15.547,0.04 23.344,0.05 -1.748,-4.404 -3.442,-7.92 -5.078,-10.528 -0.19,-0.292 -0.347,-0.585 -0.518,-0.884 z m -53.827,0 c 0.435,0.611 0.845,1.201 1.416,1.949 -0.205,2.236 -0.558,3.814 -1.07,4.726 -0.508,0.815 -1.572,1.626 -3.197,2.441 0.194,0.714 0.433,1.427 0.692,2.139 5.62,0.01 11.241,0.01 16.861,0.02 l 0.434,-5.366 0,-5.914 z m -47.075,0 c 0,0.09 0.01,0.274 0.01,0.343 0,3.52 -0.21,7.138 -0.625,10.848 7.023,0.01 14.044,0.02 21.06,0.03 -1.44,-1.328 -2.564,-4.131 -3.355,-8.437 1.25,-0.919 2.228,-1.846 2.965,-2.784 l -20.069,0 0,0 z m -93.325,0 c -0.402,1.539 -0.733,2.851 -1.319,5.069 -0.307,1.117 -0.459,2.182 -0.459,3.202 0,0.86 0.288,1.793 0.84,2.784 0.341,0 0.683,0 1.03,0 9.478,0.01 18.95,0.03 28.428,0.04 -0.938,-4.14 -1.783,-7.89 -1.944,-8.617 l -1.289,-2.477 z m -125.768,0 c 0.567,2.051 1.29,3.701 2.178,4.918 2.139,2.72 3.633,4.682 4.615,6.04 7.968,0.01 15.942,0.01 23.916,0.02 0.712,-1.825 1.45,-3.71 2.265,-5.757 0.445,-1.903 1.045,-3.632 1.767,-5.22 z m 1727.438,21.084 -16.724,0.215 -25.401,0.352 c 17.217,0.332 34.336,0.664 51.05,1.015 -2.095,-1.05 -5.064,-1.582 -8.925,-1.582 z m -114.366,-21.581 -0.132,11.86 131.03,0 c 0,-4.199 -0.02,-7.998 -0.04,-11.86 l -130.865,0 z m -140.532,0 -0.147,18.696 c 14.633,0.2 29.415,0.395 43.799,0.605 29.712,0.435 58.692,0.899 87.276,1.377 l -0.162,-20.678 z m -182.115,0 -0.131,11.86 131.025,0 c 0,-4.199 -0.03,-7.998 -0.03,-11.86 l -130.865,0 z m -140.537,0 -0.113,15.195 c 17.608,0.151 35.293,0.297 52.68,0.453 26.388,0.245 52.487,0.499 78.335,0.763 l -0.126,-16.411 -130.772,0 z m -182.114,0 -0.131,11.86 131.03,0 c 0,-4.199 -0.03,-7.998 -0.04,-11.86 l -130.864,0 z m -140.538,0 -0.1,13.046 c 11.598,0.06 23.282,0.112 34.82,0.176 32.305,0.171 64.332,0.361 96.162,0.566 l -0.1,-13.788 -130.773,0 z m -182.108,0 -0.138,11.86 131.031,0 c 0,-4.199 -0.02,-7.998 -0.04,-11.86 l -130.859,0 z m -140.538,0 -0.09,11.772 c 43.881,0.126 87.5,0.274 130.957,0.434 l -0.1,-12.206 -130.771,0 0,0 z m -478.43,-39.806 19.893,0 0,-68.66 -21.641,4.34 0,-11.091 21.52,-4.341 12.177,0 0,79.752 19.893,0 0,10.248 -51.842,0 0,-10.248 m 78.607,0 19.892,0 0,-68.66 -21.641,4.34 0,-11.091 21.521,-4.341 12.177,0 0,79.752 19.892,0 0,10.248 -51.841,0 0,-10.248 m 1560.131,0 19.893,0 0,-68.66 -21.641,4.34 0,-11.091 21.52,-4.341 12.177,0 0,79.752 19.893,0 0,10.248 -51.842,0 0,-10.248 m 86.986,0 42.498,0 0,10.248 -57.146,0 0,-10.248 c 4.621,-4.782 10.91,-11.192 18.868,-19.229 7.997,-8.078 13.02,-13.282 15.07,-15.613 3.898,-4.381 6.611,-8.078 8.138,-11.092 1.567,-3.054 2.351,-6.048 2.351,-8.982 0,-4.782 -1.688,-8.68 -5.064,-11.694 -3.335,-3.014 -7.696,-4.521 -13.081,-4.522 -3.818,0 -7.856,0.664 -12.116,1.99 -4.22,1.326 -8.741,3.335 -13.564,6.028 l 0,-12.297 c 4.903,-1.97 9.485,-3.457 13.745,-4.461 4.259,-1.005 8.158,-1.507 11.694,-1.507 9.324,0 16.758,2.331 22.304,6.992 5.546,4.662 8.319,10.891 8.319,18.688 0,3.697 -0.703,7.213 -2.11,10.549 -1.366,3.295 -3.878,7.193 -7.535,11.694 -1.005,1.166 -4.2,4.542 -9.585,10.128 -5.385,5.545 -12.98,13.322 -22.786,23.328"
       inkscape:connector-curvature="0" />
  </g>
</svg>
