<?xml version="1.0" encoding="UTF-8" standalone="no"?>
<!-- Created with Inkscape (http://www.inkscape.org/) -->

<svg
   xmlns:dc="http://purl.org/dc/elements/1.1/"
   xmlns:cc="http://creativecommons.org/ns#"
   xmlns:rdf="http://www.w3.org/1999/02/22-rdf-syntax-ns#"
   xmlns:svg="http://www.w3.org/2000/svg"
   xmlns="http://www.w3.org/2000/svg"
   xmlns:sodipodi="http://sodipodi.sourceforge.net/DTD/sodipodi-0.dtd"
   xmlns:inkscape="http://www.inkscape.org/namespaces/inkscape"
   width="1870.547"
   height="390.56299"
   id="svg2"
   version="1.1"
   inkscape:version="0.48.5 r10040"
   sodipodi:docname="White 7.svg">
  <defs
     id="defs4" />
  <sodipodi:namedview
     id="base"
     pagecolor="#ffffff"
     bordercolor="#666666"
     borderopacity="1.0"
     inkscape:pageopacity="0.0"
     inkscape:pageshadow="2"
     inkscape:zoom="0.31065383"
     inkscape:cx="1878.7915"
     inkscape:cy="195.28128"
     inkscape:document-units="in"
     inkscape:current-layer="layer1"
     showgrid="false"
     units="in"
     inkscape:window-width="2445"
     inkscape:window-height="1343"
     inkscape:window-x="116"
     inkscape:window-y="0"
     inkscape:window-maximized="0"
     fit-margin-top="0"
     fit-margin-left="0"
     fit-margin-right="0"
     fit-margin-bottom="0"
     showguides="true"
     inkscape:guide-bbox="true" />
  <metadata
     id="metadata7">
    <rdf:RDF>
      <cc:Work
         rdf:about="">
        <dc:format>image/svg+xml</dc:format>
        <dc:type
           rdf:resource="http://purl.org/dc/dcmitype/StillImage" />
        <dc:title />
      </cc:Work>
    </rdf:RDF>
  </metadata>
  <g
     inkscape:label="Layer 1"
     inkscape:groupmode="layer"
     id="layer1"
     transform="translate(-17248.602,3134.894)">
    <text
       xml:space="preserve"
       style="font-size:123.45613098px;font-style:normal;font-weight:normal;line-height:125%;letter-spacing:0px;word-spacing:0px;fill:#000000;fill-opacity:1;stroke:none;font-family:Sans"
       x="-3045.9387"
       y="16951.15"
       id="text9052"
       sodipodi:linespacing="125%"
       transform="matrix(0,-1,1,0,0,0)"><tspan
         sodipodi:role="line"
         id="tspan9054"
         x="-3045.9387"
         y="16951.15" /></text>
    <path
       id="path25510"
       style="font-size:123.45613098px;font-style:normal;font-weight:normal;line-height:125%;letter-spacing:0px;word-spacing:0px;fill:none;stroke:#000000;stroke-width:0.99000001;stroke-miterlimit:4;stroke-opacity:1;stroke-dasharray:none;font-family:Sans"
       d="m 17704.683,-3013.263 c -4.053,5.269 -7.983,9.701 -11.777,13.237 -10.333,9.34 -23.107,17.417 -38.321,24.238 -15.214,6.67 -30.644,10.005 -46.279,10.005 l -14.449,-0.669 0,47.359 c -4.467,-0.148 -7.817,-0.22 -10.049,-0.22 -27.226,0 -48.515,7.265 -63.866,21.791 -9.077,8.594 -16.406,22.676 -21.987,42.246 l 8.163,3.555 c 7.539,-12.451 16.475,-21.27 26.802,-26.46 10.473,-5.336 26.455,-8.002 47.955,-8.002 l 12.982,0.224 0,141.133 c 2.5,-6.387 5.035,-12.705 7.633,-18.906 3.027,-7.241 6.122,-14.351 9.272,-21.329 3.149,-6.977 6.353,-13.817 9.604,-20.517 3.257,-6.704 6.557,-13.266 9.902,-19.688 2.223,-4.262 4.473,-8.432 6.729,-12.568 l 0,-118.833 c 12.003,-2.817 22.686,-6.895 32.036,-12.231 l 0,78.169 c 0.967,-1.435 1.934,-2.887 2.9,-4.297 3.56,-5.181 7.134,-10.201 10.709,-15.048 3.579,-4.849 7.163,-9.528 10.741,-14.029 3.58,-4.508 7.154,-8.834 10.724,-12.984 2.626,-3.056 5.244,-5.976 7.856,-8.832 l 0,-32.095 c 8.863,3.701 17.032,6.347 24.507,7.948 3.198,-2.792 6.377,-5.433 9.516,-7.885 3.375,-2.637 6.705,-5.068 9.996,-7.3 3.285,-2.231 6.528,-4.252 9.716,-6.07 3.184,-1.816 6.319,-3.422 9.395,-4.813 3.072,-1.392 6.084,-2.574 9.028,-3.53 2.945,-0.958 5.821,-1.695 8.619,-2.213 2.797,-0.512 5.522,-0.801 8.163,-0.859 0.669,-0.01 1.329,-0.01 1.983,0 l 0.4,0 c 0.986,-3.067 1.777,-6.592 2.392,-10.532 l -14.798,0 c -1.104,1.406 -2.277,2.636 -3.537,3.681 -4.467,3.555 -9.906,5.338 -16.332,5.338 -9.106,0 -19.805,-3.009 -32.09,-9.019 l -34.238,0 0,0 z m 138.75,0 c -5.923,1.03 -10.86,2.749 -14.791,5.166 -2.651,1.669 -5.034,3.476 -7.162,5.41 l 66.675,0.18 c 0.253,-3.402 0.435,-6.977 0.517,-10.756 z m 75.127,0 c -0.377,4.072 -0.83,7.724 -1.392,10.835 l 63.443,0.17 c 11.586,-3.735 23.261,-5.615 35.029,-5.615 9.438,0 19.6,1.939 30.478,5.791 l 58.52,0.156 c 0.187,-3.506 0.313,-7.285 0.372,-11.337 l -42.255,0 0,6.947 c -6.905,-2.915 -13.102,-5.228 -18.604,-6.947 l -63.271,0 c -5.968,1.806 -12.037,4.121 -18.219,6.947 l 0,-6.947 z m 295.082,0 0,11.63 43.14,0.117 0,-11.747 z m 75.176,0 0,11.835 42.93,0.112 0,-11.947 z m 129.303,0 c -3.893,3.486 -7.438,7.539 -10.64,12.152 l 15.269,0.04 0,-12.197 z m 680.316,0.546 c -0.03,1.363 -0.03,1.153 -0.06,3.238 -0.1,3.252 -0.865,5.591 -2.287,7.011 l -0.512,0.64 c 3.584,0 7.139,0 10.722,0 0.684,-1.24 2.603,-2.421 5.797,-3.54 4.37,-1.524 6.557,-2.998 6.557,-4.419 l -0.151,-0.459 c -0.464,-0.967 -0.805,-1.767 -1.079,-2.476 l -18.994,0 0,0 z m -417.969,0 0.382,1.578 0.609,8.993 0.08,0.328 c 8.038,0 16.299,0 24.365,0 l -0.04,-1.089 -3.051,-3.052 c 1.625,-2.032 2.49,-3.554 2.592,-4.57 l 0,-2.188 -24.927,0 z m -100.038,0 c -0.669,0.976 -1.43,2.12 -2.334,3.56 -0.303,0.508 -0.659,2.69 -1.065,6.553 l -0.547,0.82 c 9.068,0 17.979,0 27.091,-0.01 -0.416,-0.86 -0.631,-1.49 -0.631,-1.875 l 0.152,-2.292 -0.303,-4.418 0.336,-2.339 -22.7,0 z m -1301.313,-70.082 c 5.465,0 9.785,-1.868 12.96,-5.606 3.215,-3.737 4.823,-8.861 4.823,-15.371 0,-6.471 -1.608,-11.574 -4.823,-15.312 -3.175,-3.777 -7.495,-5.666 -12.96,-5.666 -5.466,0 -9.806,1.889 -13.021,5.666 -3.175,3.738 -4.762,8.841 -4.762,15.312 0,6.51 1.587,11.634 4.762,15.371 3.215,3.738 7.555,5.607 13.021,5.606 m -24.233,38.159 0,-11.092 c 3.054,1.447 6.148,2.552 9.283,3.315 3.135,0.764 6.209,1.146 9.223,1.146 8.037,0 14.166,-2.693 18.386,-8.078 4.26,-5.425 6.691,-13.644 7.294,-24.655 -2.331,3.456 -5.285,6.108 -8.862,7.957 -3.576,1.849 -7.535,2.773 -11.875,2.773 -9.002,0 -16.135,-2.713 -21.4,-8.138 -5.224,-5.466 -7.836,-12.92 -7.836,-22.364 0,-9.243 2.732,-16.658 8.198,-22.244 5.465,-5.586 12.739,-8.379 21.822,-8.379 10.408,0 18.345,3.998 23.811,11.996 5.505,7.957 8.258,19.531 8.258,34.722 0,14.186 -3.375,25.519 -10.127,33.998 -6.711,8.44 -15.753,12.659 -27.126,12.659 -3.055,0 -6.149,-0.301 -9.284,-0.904 -3.134,-0.603 -6.39,-1.507 -9.765,-2.712 m 1660.468,-8.38 19.893,0 0,-68.66 -21.641,4.34 0,-11.091 21.521,-4.341 12.177,0 0,79.752 19.892,0 0,10.248 -51.842,0 0,-10.248 m 102.539,-81.379 c 10.087,0 17.783,3.998 23.088,11.996 5.345,7.957 8.017,19.531 8.017,34.722 0,15.15 -2.672,26.724 -8.017,34.722 -5.305,7.957 -13.001,11.935 -23.088,11.935 -10.087,0 -17.803,-3.978 -23.148,-11.935 -5.305,-7.998 -7.957,-19.572 -7.957,-34.722 0,-15.191 2.652,-26.765 7.957,-34.722 5.345,-7.998 13.061,-11.996 23.148,-11.996 m 0,9.645 c -6.269,0 -10.991,3.094 -14.166,9.283 -3.135,6.149 -4.702,15.412 -4.702,27.79 0,12.337 1.567,21.601 4.702,27.789 3.175,6.149 7.897,9.223 14.166,9.223 6.309,0 11.031,-3.074 14.166,-9.223 3.175,-6.188 4.762,-15.452 4.762,-27.789 0,-12.378 -1.587,-21.641 -4.762,-27.79 -3.135,-6.189 -7.857,-9.283 -14.166,-9.283"
       inkscape:connector-curvature="0" />
  </g>
</svg>
