<?xml version="1.0" encoding="UTF-8" standalone="no"?>
<!-- Created with Inkscape (http://www.inkscape.org/) -->

<svg
   xmlns:dc="http://purl.org/dc/elements/1.1/"
   xmlns:cc="http://creativecommons.org/ns#"
   xmlns:rdf="http://www.w3.org/1999/02/22-rdf-syntax-ns#"
   xmlns:svg="http://www.w3.org/2000/svg"
   xmlns="http://www.w3.org/2000/svg"
   xmlns:sodipodi="http://sodipodi.sourceforge.net/DTD/sodipodi-0.dtd"
   xmlns:inkscape="http://www.inkscape.org/namespaces/inkscape"
   width="1792.4688"
   height="604.86786"
   id="svg2"
   version="1.1"
   inkscape:version="0.48.5 r10040"
   sodipodi:docname="White 3.svg">
  <defs
     id="defs4" />
  <sodipodi:namedview
     id="base"
     pagecolor="#ffffff"
     bordercolor="#666666"
     borderopacity="1.0"
     inkscape:pageopacity="0.0"
     inkscape:pageshadow="2"
     inkscape:zoom="0.098050432"
     inkscape:cx="-2252.7103"
     inkscape:cy="-2399.9888"
     inkscape:document-units="in"
     inkscape:current-layer="layer1"
     showgrid="false"
     units="in"
     inkscape:window-width="2445"
     inkscape:window-height="1343"
     inkscape:window-x="0"
     inkscape:window-y="0"
     inkscape:window-maximized="0"
     fit-margin-top="0"
     fit-margin-left="0"
     fit-margin-right="0"
     fit-margin-bottom="0"
     showguides="true"
     inkscape:guide-bbox="true" />
  <metadata
     id="metadata7">
    <rdf:RDF>
      <cc:Work
         rdf:about="">
        <dc:format>image/svg+xml</dc:format>
        <dc:type
           rdf:resource="http://purl.org/dc/dcmitype/StillImage" />
        <dc:title />
      </cc:Work>
    </rdf:RDF>
  </metadata>
  <g
     inkscape:label="Layer 1"
     inkscape:groupmode="layer"
     id="layer1"
     transform="translate(-10725,3134.3991)">
    <g
       transform="matrix(1.25,0,0,1.25,1046.4795,-8017.6529)"
       id="g3029" />
    <g
       transform="matrix(1.25,0,0,1.25,1046.4795,-8017.6529)"
       id="g3033" />
    <g
       transform="matrix(1.25,0,0,1.25,1046.4795,-8017.6529)"
       id="g3037" />
    <g
       transform="matrix(1.25,0,0,1.25,1046.4795,-8017.6529)"
       id="g3041" />
    <g
       transform="matrix(1.25,0,0,1.25,1046.4795,-8017.6529)"
       id="g3045" />
    <g
       transform="matrix(1.25,0,0,1.25,1046.4795,-8017.6529)"
       id="g3049" />
    <g
       transform="matrix(1.25,0,0,1.25,1046.4795,-8017.6529)"
       id="g3053" />
    <g
       transform="matrix(1.25,0,0,1.25,1046.4795,-8017.6529)"
       id="g3057" />
    <g
       transform="matrix(1.25,0,0,1.25,1046.4795,-8017.6529)"
       id="g3061" />
    <g
       transform="matrix(1.25,0,0,1.25,1046.4795,-8017.6529)"
       id="g3065" />
    <g
       transform="matrix(1.25,0,0,1.25,1046.4795,-8017.6529)"
       id="g3069" />
    <g
       transform="matrix(1.25,0,0,1.25,1046.4795,-8017.6529)"
       id="g3073" />
    <g
       transform="matrix(1.25,0,0,1.25,1046.4795,-8017.6529)"
       id="g3077" />
    <g
       transform="matrix(1.25,0,0,1.25,1046.4795,-8017.6529)"
       id="g3081" />
    <g
       transform="matrix(1.25,0,0,1.25,1046.4795,-8017.6529)"
       id="g3085" />
    <g
       transform="matrix(1.25,0,0,1.25,1046.4795,-8017.6529)"
       id="g3089" />
    <g
       transform="matrix(1.25,0,0,1.25,1046.4795,-8017.6529)"
       id="g3093" />
    <g
       transform="matrix(1.25,0,0,1.25,1046.4795,-8017.6529)"
       id="g3097" />
    <g
       transform="matrix(1.25,0,0,1.25,1046.4795,-8017.6529)"
       id="g3101" />
    <g
       transform="matrix(1.25,0,0,1.25,1046.4795,-8017.6529)"
       id="g3105" />
    <g
       transform="matrix(1.25,0,0,1.25,1046.4795,-8017.6529)"
       id="g3109" />
    <g
       transform="matrix(1.25,0,0,1.25,1046.4795,-8017.6529)"
       id="g3113" />
    <g
       transform="matrix(1.25,0,0,1.25,1046.4795,-8017.6529)"
       id="g3117" />
    <g
       transform="matrix(1.25,0,0,1.25,1046.4795,-8017.6529)"
       id="g3121" />
    <g
       transform="matrix(1.25,0,0,1.25,1046.4795,-8017.6529)"
       id="g3125" />
    <g
       transform="matrix(1.25,0,0,1.25,1046.4795,-8017.6529)"
       id="g3129" />
    <g
       transform="matrix(1.25,0,0,1.25,1046.4795,-8017.6529)"
       id="g3133" />
    <g
       transform="matrix(1.25,0,0,1.25,1046.4795,-8017.6529)"
       id="g3137" />
    <g
       transform="matrix(1.25,0,0,1.25,1046.4795,-8017.6529)"
       id="g3141" />
    <g
       transform="matrix(1.25,0,0,1.25,1046.4795,-8017.6529)"
       id="g3145" />
    <g
       transform="matrix(1.25,0,0,1.25,1046.4795,-8017.6529)"
       id="g3149" />
    <g
       transform="matrix(1.25,0,0,1.25,1046.4795,-8017.6529)"
       id="g3153" />
    <g
       transform="matrix(1.25,0,0,1.25,1046.4795,-8017.6529)"
       id="g3157" />
    <g
       transform="matrix(1.25,0,0,1.25,1046.4795,-8017.6529)"
       id="g3161" />
    <g
       transform="matrix(1.25,0,0,1.25,1046.4795,-8017.6529)"
       id="g3165" />
    <g
       transform="matrix(1.25,0,0,1.25,1046.4795,-8017.6529)"
       id="g3169" />
    <g
       transform="matrix(1.25,0,0,1.25,1046.4795,-8017.6529)"
       id="g3173" />
    <g
       transform="matrix(1.25,0,0,1.25,1046.4795,-8017.6529)"
       id="g3177" />
    <g
       transform="matrix(1.25,0,0,1.25,1046.4795,-8017.6529)"
       id="g3181" />
    <g
       transform="matrix(1.25,0,0,1.25,1046.4795,-8017.6529)"
       id="g3185" />
    <g
       transform="matrix(1.25,0,0,1.25,1046.4795,-8017.6529)"
       id="g3189" />
    <g
       transform="matrix(1.25,0,0,1.25,1046.4795,-8017.6529)"
       id="g3193" />
    <g
       transform="matrix(1.25,0,0,1.25,1046.4795,-8017.6529)"
       id="g3197" />
    <g
       transform="matrix(1.25,0,0,1.25,1046.4795,-8017.6529)"
       id="g3201" />
    <g
       transform="matrix(1.25,0,0,1.25,1046.4795,-8017.6529)"
       id="g3205" />
    <g
       transform="matrix(1.25,0,0,1.25,1046.4795,-8017.6529)"
       id="g3209" />
    <g
       transform="matrix(1.25,0,0,1.25,1046.4795,-8017.6529)"
       id="g3213" />
    <g
       transform="matrix(1.25,0,0,1.25,1046.4795,-8017.6529)"
       id="g3217" />
    <g
       transform="matrix(1.25,0,0,1.25,1046.4795,-8017.6529)"
       id="g3221" />
    <g
       transform="matrix(1.25,0,0,1.25,1046.4795,-8017.6529)"
       id="g3225" />
    <g
       transform="matrix(1.25,0,0,1.25,1046.4795,-8017.6529)"
       id="g3229" />
    <g
       transform="matrix(1.25,0,0,1.25,1046.4795,-8017.6529)"
       id="g3233" />
    <g
       transform="matrix(1.25,0,0,1.25,1046.4795,-8017.6529)"
       id="g3237" />
    <g
       transform="matrix(1.25,0,0,1.25,1046.4795,-8017.6529)"
       id="g3241" />
    <g
       transform="matrix(1.25,0,0,1.25,1046.4795,-8017.6529)"
       id="g3245" />
    <g
       transform="matrix(1.25,0,0,1.25,1046.4795,-8017.6529)"
       id="g3249" />
    <g
       transform="matrix(1.25,0,0,1.25,1046.4795,-8017.6529)"
       id="g3253" />
    <g
       transform="matrix(1.25,0,0,1.25,1046.4795,-8017.6529)"
       id="g3257" />
    <g
       transform="matrix(1.25,0,0,1.25,1046.4795,-8017.6529)"
       id="g3261" />
    <g
       transform="matrix(1.25,0,0,1.25,1046.4795,-8017.6529)"
       id="g3265" />
    <g
       transform="matrix(1.25,0,0,1.25,1046.4795,-8017.6529)"
       id="g3269" />
    <g
       transform="matrix(1.25,0,0,1.25,1046.4795,-8017.6529)"
       id="g3273" />
    <g
       transform="matrix(1.25,0,0,1.25,1046.4795,-8017.6529)"
       id="g3277" />
    <g
       transform="matrix(1.25,0,0,1.25,1046.4795,-8017.6529)"
       id="g3281" />
    <g
       transform="matrix(1.25,0,0,1.25,1046.4795,-8017.6529)"
       id="g3285" />
    <g
       transform="matrix(1.25,0,0,1.25,1046.4795,-8017.6529)"
       id="g3289" />
    <g
       transform="matrix(1.25,0,0,1.25,1046.4795,-8017.6529)"
       id="g3293" />
    <g
       transform="matrix(1.25,0,0,1.25,1046.4795,-8017.6529)"
       id="g3297" />
    <g
       transform="matrix(1.25,0,0,1.25,1046.4795,-8017.6529)"
       id="g3301" />
    <g
       transform="matrix(1.25,0,0,1.25,1046.4795,-8017.6529)"
       id="g3305" />
    <g
       transform="matrix(1.25,0,0,1.25,1046.4795,-8017.6529)"
       id="g3309" />
    <g
       transform="matrix(1.25,0,0,1.25,1046.4795,-8017.6529)"
       id="g3313" />
    <g
       transform="matrix(1.25,0,0,1.25,1046.4795,-8017.6529)"
       id="g3317" />
    <g
       transform="matrix(1.25,0,0,1.25,1046.4795,-8017.6529)"
       id="g3321" />
    <g
       transform="matrix(1.25,0,0,1.25,1046.4795,-8017.6529)"
       id="g3325" />
    <g
       transform="matrix(1.25,0,0,1.25,1046.4795,-8017.6529)"
       id="g3329" />
    <g
       transform="matrix(1.25,0,0,1.25,1046.4795,-8017.6529)"
       id="g3333" />
    <g
       transform="matrix(1.25,0,0,1.25,1046.4795,-8017.6529)"
       id="g3337" />
    <g
       transform="matrix(1.25,0,0,1.25,1046.4795,-8017.6529)"
       id="g3341" />
    <g
       transform="matrix(1.25,0,0,1.25,1046.4795,-8017.6529)"
       id="g3345" />
    <g
       transform="matrix(1.25,0,0,1.25,1046.4795,-8017.6529)"
       id="g3349" />
    <g
       transform="matrix(1.25,0,0,1.25,1046.4795,-8017.6529)"
       id="g3353" />
    <g
       transform="matrix(1.25,0,0,1.25,1046.4795,-8017.6529)"
       id="g3361" />
    <g
       transform="matrix(1.25,0,0,1.25,1046.4795,-8017.6529)"
       id="g3365" />
    <g
       transform="matrix(1.25,0,0,1.25,1046.4795,-8017.6529)"
       id="g3373" />
    <g
       transform="matrix(1.25,0,0,1.25,1046.4795,-8017.6529)"
       id="g3377" />
    <g
       transform="matrix(1.25,0,0,1.25,1046.4795,-8017.6529)"
       id="g3381" />
    <g
       transform="matrix(1.25,0,0,1.25,1046.4795,-8017.6529)"
       id="g3385" />
    <g
       transform="matrix(1.25,0,0,1.25,1046.4795,-8017.6529)"
       id="g3389" />
    <g
       transform="matrix(1.25,0,0,1.25,1046.4795,-8017.6529)"
       id="g3393" />
    <g
       transform="matrix(1.25,0,0,1.25,1046.4795,-8017.6529)"
       id="g3397" />
    <g
       transform="matrix(1.25,0,0,1.25,1046.4795,-8017.6529)"
       id="g3401" />
    <g
       transform="matrix(1.25,0,0,1.25,1046.4795,-8017.6529)"
       id="g3405" />
    <g
       transform="matrix(1.25,0,0,1.25,1046.4795,-8017.6529)"
       id="g3409" />
    <g
       transform="matrix(1.25,0,0,1.25,1046.4795,-8017.6529)"
       id="g3413" />
    <g
       transform="matrix(1.25,0,0,1.25,1046.4795,-8017.6529)"
       id="g3417" />
    <g
       transform="matrix(1.25,0,0,1.25,1046.4795,-8017.6529)"
       id="g3421" />
    <g
       transform="matrix(1.25,0,0,1.25,1046.4795,-8017.6529)"
       id="g3425" />
    <g
       transform="matrix(1.25,0,0,1.25,1046.4795,-8017.6529)"
       id="g3429" />
    <g
       transform="matrix(1.25,0,0,1.25,1046.4795,-8017.6529)"
       id="g3433" />
    <g
       transform="matrix(1.25,0,0,1.25,1046.4795,-8017.6529)"
       id="g3437" />
    <g
       transform="matrix(1.25,0,0,1.25,1046.4795,-8017.6529)"
       id="g3441" />
    <g
       transform="matrix(1.25,0,0,1.25,1046.4795,-8017.6529)"
       id="g3445" />
    <g
       transform="matrix(1.25,0,0,1.25,1046.4795,-8017.6529)"
       id="g3449" />
    <g
       transform="matrix(1.25,0,0,1.25,1046.4795,-8017.6529)"
       id="g3453" />
    <g
       transform="matrix(1.25,0,0,1.25,1046.4795,-8017.6529)"
       id="g3457" />
    <g
       transform="matrix(1.25,0,0,1.25,1046.4795,-8017.6529)"
       id="g3461" />
    <g
       transform="matrix(1.25,0,0,1.25,1046.4795,-8017.6529)"
       id="g3465" />
    <g
       transform="matrix(1.25,0,0,1.25,1046.4795,-8017.6529)"
       id="g3469" />
    <g
       transform="matrix(1.25,0,0,1.25,1046.4795,-8017.6529)"
       id="g3473" />
    <g
       transform="matrix(1.25,0,0,1.25,1046.4795,-8017.6529)"
       id="g3477" />
    <g
       transform="matrix(1.25,0,0,1.25,1046.4795,-8017.6529)"
       id="g3481" />
    <g
       transform="matrix(1.25,0,0,1.25,1046.4795,-8017.6529)"
       id="g3485" />
    <g
       transform="matrix(1.25,0,0,1.25,1046.4795,-8017.6529)"
       id="g3489" />
    <g
       transform="matrix(1.25,0,0,1.25,1046.4795,-8017.6529)"
       id="g3493" />
    <g
       transform="matrix(1.25,0,0,1.25,1046.4795,-8017.6529)"
       id="g3497" />
    <g
       transform="matrix(1.25,0,0,1.25,1046.4795,-8017.6529)"
       id="g3501" />
    <g
       transform="matrix(1.25,0,0,1.25,1046.4795,-8017.6529)"
       id="g3505" />
    <g
       transform="matrix(1.25,0,0,1.25,1046.4795,-8017.6529)"
       id="g3509" />
    <g
       transform="matrix(1.25,0,0,1.25,1046.4795,-8017.6529)"
       id="g3513" />
    <g
       transform="matrix(1.25,0,0,1.25,1046.4795,-8017.6529)"
       id="g3517" />
    <g
       transform="matrix(1.25,0,0,1.25,1046.4795,-8017.6529)"
       id="g3525" />
    <g
       transform="matrix(1.25,0,0,1.25,1046.4795,-8017.6529)"
       id="g3529" />
    <g
       transform="matrix(1.25,0,0,1.25,1046.4795,-8017.6529)"
       id="g3533" />
    <g
       transform="matrix(1.25,0,0,1.25,1046.4795,-8017.6529)"
       id="g3537" />
    <g
       transform="matrix(1.25,0,0,1.25,1046.4795,-8017.6529)"
       id="g3541" />
    <g
       transform="matrix(1.25,0,0,1.25,1046.4795,-8017.6529)"
       id="g3545" />
    <g
       transform="matrix(1.25,0,0,1.25,1046.4795,-8017.6529)"
       id="g3549" />
    <g
       transform="matrix(1.25,0,0,1.25,1046.4795,-8017.6529)"
       id="g3553" />
    <g
       transform="matrix(1.25,0,0,1.25,1046.4795,-8017.6529)"
       id="g3557" />
    <g
       transform="matrix(1.25,0,0,1.25,1046.4795,-8017.6529)"
       id="g3561" />
    <g
       transform="matrix(1.25,0,0,1.25,1046.4795,-8017.6529)"
       id="g3565" />
    <g
       transform="matrix(1.25,0,0,1.25,1046.4795,-8017.6529)"
       id="g3569" />
    <g
       transform="matrix(1.25,0,0,1.25,1046.4795,-8017.6529)"
       id="g3573" />
    <g
       transform="matrix(1.25,0,0,1.25,1046.4795,-8017.6529)"
       id="g3581" />
    <g
       transform="matrix(1.25,0,0,1.25,1046.4795,-8017.6529)"
       id="g3585" />
    <g
       transform="matrix(1.25,0,0,1.25,1046.4795,-8017.6529)"
       id="g3589" />
    <g
       transform="matrix(1.25,0,0,1.25,1046.4795,-8017.6529)"
       id="g3593" />
    <g
       transform="matrix(1.25,0,0,1.25,1046.4795,-8017.6529)"
       id="g3597" />
    <g
       transform="matrix(1.25,0,0,1.25,1046.4795,-8017.6529)"
       id="g3601" />
    <g
       transform="matrix(1.25,0,0,1.25,1046.4795,-8017.6529)"
       id="g3605" />
    <g
       transform="matrix(1.25,0,0,1.25,1046.4795,-8017.6529)"
       id="g3609" />
    <g
       transform="matrix(1.25,0,0,1.25,1046.4795,-8017.6529)"
       id="g3613" />
    <g
       transform="matrix(1.25,0,0,1.25,1046.4795,-8017.6529)"
       id="g3617" />
    <g
       transform="matrix(1.25,0,0,1.25,1046.4795,-8017.6529)"
       id="g3621" />
    <g
       transform="matrix(1.25,0,0,1.25,1046.4795,-8017.6529)"
       id="g3625" />
    <g
       transform="matrix(1.25,0,0,1.25,1046.4795,-8017.6529)"
       id="g3629" />
    <g
       transform="matrix(1.25,0,0,1.25,1046.4795,-8017.6529)"
       id="g3633" />
    <g
       transform="matrix(1.25,0,0,1.25,1046.4795,-8017.6529)"
       id="g3637" />
    <g
       transform="matrix(1.25,0,0,1.25,1046.4795,-8017.6529)"
       id="g3641" />
    <g
       transform="matrix(1.25,0,0,1.25,1046.4795,-8017.6529)"
       id="g3645" />
    <g
       transform="matrix(1.25,0,0,1.25,1046.4795,-8017.6529)"
       id="g3649" />
    <g
       transform="matrix(1.25,0,0,1.25,1046.4795,-8017.6529)"
       id="g3653" />
    <g
       transform="matrix(1.25,0,0,1.25,1046.4795,-8017.6529)"
       id="g3657" />
    <g
       transform="matrix(1.25,0,0,1.25,1046.4795,-8017.6529)"
       id="g3661" />
    <g
       transform="matrix(1.25,0,0,1.25,1046.4795,-8017.6529)"
       id="g3665" />
    <g
       transform="matrix(1.25,0,0,1.25,1046.4795,-8017.6529)"
       id="g3669" />
    <g
       transform="matrix(1.25,0,0,1.25,1046.4795,-8017.6529)"
       id="g3673" />
    <g
       transform="matrix(1.25,0,0,1.25,1046.4795,-8017.6529)"
       id="g3677" />
    <g
       transform="matrix(1.25,0,0,1.25,1046.4795,-8017.6529)"
       id="g3681" />
    <g
       transform="matrix(1.25,0,0,1.25,1046.4795,-8017.6529)"
       id="g3685" />
    <g
       transform="matrix(1.25,0,0,1.25,1046.4795,-8017.6529)"
       id="g3689" />
    <g
       transform="matrix(1.25,0,0,1.25,1046.4795,-8017.6529)"
       id="g3693" />
    <g
       transform="matrix(1.25,0,0,1.25,1046.4795,-8017.6529)"
       id="g3697" />
    <g
       transform="matrix(1.25,0,0,1.25,1046.4795,-8017.6529)"
       id="g3701" />
    <g
       transform="matrix(1.25,0,0,1.25,1046.4795,-8017.6529)"
       id="g3705" />
    <g
       transform="matrix(1.25,0,0,1.25,1046.4795,-8017.6529)"
       id="g3709" />
    <g
       transform="matrix(1.25,0,0,1.25,1046.4795,-8017.6529)"
       id="g3713" />
    <g
       transform="matrix(1.25,0,0,1.25,1046.4795,-8017.6529)"
       id="g3717" />
    <g
       transform="matrix(1.25,0,0,1.25,1046.4795,-8017.6529)"
       id="g3721" />
    <g
       transform="matrix(1.25,0,0,1.25,1046.4795,-8017.6529)"
       id="g3725" />
    <g
       transform="matrix(1.25,0,0,1.25,1046.4795,-8017.6529)"
       id="g3729" />
    <g
       transform="matrix(1.25,0,0,1.25,1046.4795,-8017.6529)"
       id="g3733" />
    <g
       transform="matrix(1.25,0,0,1.25,1046.4795,-8017.6529)"
       id="g3737" />
    <g
       transform="matrix(1.25,0,0,1.25,1046.4795,-8017.6529)"
       id="g3741" />
    <g
       transform="matrix(1.25,0,0,1.25,1046.4795,-8017.6529)"
       id="g3745" />
    <g
       transform="matrix(1.25,0,0,1.25,1046.4795,-8017.6529)"
       id="g3749" />
    <g
       transform="matrix(1.25,0,0,1.25,1046.4795,-8017.6529)"
       id="g3753" />
    <g
       transform="matrix(1.25,0,0,1.25,1046.4795,-8017.6529)"
       id="g3757" />
    <g
       transform="matrix(1.25,0,0,1.25,1046.4795,-8017.6529)"
       id="g3761" />
    <g
       transform="matrix(1.25,0,0,1.25,1046.4795,-8017.6529)"
       id="g3765" />
    <g
       transform="matrix(1.25,0,0,1.25,1046.4795,-8017.6529)"
       id="g3769" />
    <g
       transform="matrix(1.25,0,0,1.25,1046.4795,-8017.6529)"
       id="g3773" />
    <g
       transform="matrix(1.25,0,0,1.25,1046.4795,-8017.6529)"
       id="g3777" />
    <g
       transform="matrix(1.25,0,0,1.25,1046.4795,-8017.6529)"
       id="g3781" />
    <g
       transform="matrix(1.25,0,0,1.25,1046.4795,-8017.6529)"
       id="g3785" />
    <g
       transform="matrix(1.25,0,0,1.25,1046.4795,-8017.6529)"
       id="g3789" />
    <g
       transform="matrix(1.25,0,0,1.25,1046.4795,-8017.6529)"
       id="g3793" />
    <g
       transform="matrix(1.25,0,0,1.25,1046.4795,-8017.6529)"
       id="g3797" />
    <g
       transform="matrix(1.25,0,0,1.25,1046.4795,-8017.6529)"
       id="g3803" />
    <g
       transform="matrix(1.25,0,0,1.25,1046.4795,-8017.6529)"
       id="g3807" />
    <g
       transform="matrix(1.25,0,0,1.25,1046.4795,-8017.6529)"
       id="g3811" />
    <g
       transform="matrix(1.25,0,0,1.25,1046.4795,-8017.6529)"
       id="g3817" />
    <g
       transform="matrix(1.25,0,0,1.25,1046.4795,-8017.6529)"
       id="g3821" />
    <g
       transform="matrix(1.25,0,0,1.25,1046.4795,-8017.6529)"
       id="g3833" />
    <g
       transform="matrix(1.25,0,0,1.25,1046.4795,-8017.6529)"
       id="g3837" />
    <g
       transform="matrix(1.25,0,0,1.25,1046.4795,-8017.6529)"
       id="g3841" />
    <g
       transform="matrix(1.25,0,0,1.25,1046.4795,-8017.6529)"
       id="g3845" />
    <g
       transform="matrix(1.25,0,0,1.25,1046.4795,-8017.6529)"
       id="g3849" />
    <g
       transform="matrix(1.25,0,0,1.25,1046.4795,-8017.6529)"
       id="g3853" />
    <g
       transform="matrix(1.25,0,0,1.25,1046.4795,-8017.6529)"
       id="g3857" />
    <g
       transform="matrix(1.25,0,0,1.25,1046.4795,-8017.6529)"
       id="g3865" />
    <g
       transform="matrix(1.25,0,0,1.25,1046.4795,-8017.6529)"
       id="g3869" />
    <g
       transform="matrix(1.25,0,0,1.25,1046.4795,-8017.6529)"
       id="g3885" />
    <g
       style="font-size:123.45613098px;font-style:normal;font-weight:normal;line-height:125%;letter-spacing:0px;word-spacing:0px;fill:#000000;fill-opacity:1;stroke:none;font-family:Sans"
       id="text9034" />
    <g
       style="font-size:123.45613098px;font-style:normal;font-weight:normal;line-height:125%;letter-spacing:0px;word-spacing:0px;fill:#000000;fill-opacity:1;stroke:none;font-family:Sans"
       id="text9039">
      <path
         id="path22296"
         d="m 12351.839,-3132.7715 57.87,0 0,5.1842 -32.672,84.8158 -12.72,0 30.744,-79.7522 -43.222,0 0,-10.2478 m -1316.822,40.1474 c -5.466,0 -9.806,1.8687 -13.021,5.6061 -3.175,3.7375 -4.762,8.8614 -4.762,15.3718 0,6.4702 1.587,11.5941 4.762,15.3717 3.215,3.7375 7.555,5.6062 13.021,5.6062 5.465,0 9.785,-1.8687 12.96,-5.6062 3.215,-3.7776 4.823,-8.9015 4.823,-15.3717 0,-6.5104 -1.608,-11.6343 -4.823,-15.3718 -3.175,-3.7374 -7.495,-5.6061 -12.96,-5.6061 m 24.173,-38.1581 0,11.0918 c -3.055,-1.4467 -6.149,-2.5519 -9.284,-3.3155 -3.094,-0.7635 -6.169,-1.1453 -9.223,-1.1454 -8.037,1e-4 -14.186,2.7128 -18.446,8.138 -4.22,5.4254 -6.631,13.6237 -7.234,24.5948 2.371,-3.4963 5.345,-6.1687 8.922,-8.0174 3.577,-1.8888 7.515,-2.8332 11.815,-2.8332 9.042,0 16.176,2.7529 21.4,8.2585 5.265,5.4656 7.897,12.9203 7.897,22.3644 0,9.2431 -2.733,16.6577 -8.198,22.2438 -5.466,5.586 -12.74,8.3791 -21.822,8.3791 -10.409,0 -18.366,-3.9786 -23.872,-11.9357 -5.505,-7.9973 -8.258,-19.5713 -8.258,-34.7221 0,-14.2263 3.376,-25.5592 10.127,-33.9986 6.752,-8.4795 15.814,-12.7193 27.187,-12.7194 3.054,1e-4 6.129,0.3015 9.223,0.9042 3.135,0.6029 6.39,1.5072 9.766,2.7127 m 814.082,110.9468 c 0.526,4.58 0.107,8.6037 -1.236,12.08 l 104.307,0.415 0,-7.525 c -3.184,-1.7187 -6.406,-3.2563 -9.669,-4.6088 -0.287,-0.1312 -0.561,-0.2387 -0.845,-0.3612 l -46.977,0 c -6.576,2.3825 -14.273,5.4687 -23.228,9.345 l -1.298,-1.8113 c 3.652,-2.6125 7.002,-5.1262 10.04,-7.5337 l -31.094,0 z m -167.486,0 -15.8,11.3625 9.78,0.039 c 0.02,-0.012 0.04,-0.025 0.06,-0.039 2.759,-1.9725 6.22,-4.0625 10.385,-6.26 4.17,-2.2025 8.087,-2.92 11.763,-2.1537 3.609,0.7474 7.599,3.6187 11.969,8.5887 l 97.382,0.3812 -8.535,-11.9187 -117.012,0 0,0 z m -21.01,0 -13.965,8.8238 c -1.865,1.0049 -3.599,1.8062 -5.22,2.4462 l 12.118,0.044 6.324,-4.5212 3.75,-2.6863 5.733,-4.1062 -8.74,0 z m -139.639,0 7.749,10.825 100.107,0.3912 c -2.436,-1.5187 -5.112,-3.96 -8.042,-7.3587 l -3.028,-3.8575 -96.786,0 z m -161.47,0 c 1.211,1.445 2.382,2.925 3.486,4.4625 1.358,1.9 2.636,3.8037 3.833,5.7225 l 69.371,0.2737 c 1.132,-2.9637 1.996,-5.9474 2.554,-8.96 0.09,-0.4975 0.156,-1.0012 0.233,-1.4987 l -79.477,0 z m -89.038,0 -13.56,9.7512 48.569,0.19 -7.119,-9.9412 -27.89,0 z m -68.78,0 3.985,6.1088 c 0.703,1.1962 1.299,2.3387 1.835,3.4462 l 37.418,0.1475 13.56,-9.7025 -56.798,0 z m -180.991,0 6.334,8.8425 96.537,0.3813 -6.601,-9.2238 -96.27,0 z m -160.376,0 c -3.848,2.49 -7.895,5.205 -12.139,8.14 l 114.449,0.4487 c -1.396,-2.7487 -2.974,-5.3762 -4.751,-7.8562 -0.175,-0.2487 -0.362,-0.4888 -0.542,-0.7325 l -97.017,0 z m -21.884,0 -11.236,6.7825 c -0.879,0.4687 -1.729,0.8837 -2.567,1.2637 l 11.664,0.045 7.803,-5.5812 -1.797,-2.51 -3.867,0 z m -136.631,0 5.43,7.5825 99.946,0.3962 c -2.379,-1.5237 -4.83,-3.7212 -7.364,-6.6462 l -1.045,-1.3325 -96.967,0 z m 1788.018,469.2238 0,20.9074 2.983,-8.4425 c -0.986,-4.1737 -1.977,-8.33 -2.978,-12.4649 l 0,0 z m -1.227,-463.0038 -27.367,0.02 0,123.0175 c -7.603,5.825 -15.205,10.61 -22.803,14.36 -7.7,3.755 -15.352,5.63 -22.955,5.63 -7.992,0 -14.116,-1.0888 -18.359,-3.2613 -4.243,-2.07 -7.5,-5.23 -9.77,-9.4725 -2.076,-3.95 -3.408,-9.2287 -4,-15.845 -0.692,-6.5137 -1.035,-13.4225 -1.035,-20.7275 l 0,-93.6325 -27.841,0.024 0,105.3037 c 0,2.9638 0.103,5.9225 0.298,8.8863 0.185,2.8812 0.42,5.385 0.693,7.5687 9.122,13.09 17.949,27.1575 26.484,42.1625 7.226,3.6625 15.786,5.4975 25.684,5.4975 9.771,0 19.004,-2.0262 27.686,-6.0737 8.589,-4.0425 17.231,-9.6725 25.918,-16.875 l 0,18.36 27.27,0 0.1,-164.9425 z m -213.046,0.1762 -27.841,0.025 0,21.5762 c 9.501,4.7612 18.778,10.3225 27.841,16.67 l 0,-38.2713 z m -81.44,0.069 -27.842,0.024 0,1.1475 c 9.458,0.2 18.734,1.0838 27.842,2.6375 l 0,-3.8087 z m 241.796,174.3213 c -10.561,0 -20.484,2.1187 -29.76,6.3674 -3.716,1.6601 -7.599,3.7638 -11.631,6.2788 3.354,6.485 6.665,13.11 9.926,19.8925 0.07,-0.034 0.146,-0.077 0.22,-0.1125 7.803,-3.95 15.6,-5.9225 23.399,-5.9225 7.997,0 14.116,1.0837 18.359,3.2562 4.243,2.1738 7.505,5.3813 9.771,9.625 2.075,3.95 3.407,9.2275 3.999,15.8438 0.693,6.6112 1.04,13.4725 1.04,20.5812 l 0,94.17 27.157,0 0.07,-119.36 c -1.46,-14.0625 -5.591,-25.415 -12.426,-34.0387 -8.589,-11.0538 -21.964,-16.5813 -40.128,-16.5813 z m 27.808,188.2912 c 8.701,28.5737 16.905,58.54 24.61,89.8137 l 0.06,-89.8137 -24.668,0 z"
         style="fill:none;stroke:#000000;stroke-opacity:1;stroke-width:0.99;stroke-miterlimit:4;stroke-dasharray:none" />
    </g>
    <text
       xml:space="preserve"
       style="font-size:123.45613098px;font-style:normal;font-weight:normal;line-height:125%;letter-spacing:0px;word-spacing:0px;fill:#000000;fill-opacity:1;stroke:none;font-family:Sans"
       x="14825.353"
       y="-3042.7715"
       id="text9052"
       sodipodi:linespacing="125%"><tspan
         sodipodi:role="line"
         id="tspan9054"
         x="14825.353"
         y="-3042.7715" /></text>
  </g>
</svg>
