<?xml version="1.0" encoding="UTF-8" standalone="no"?>
<!-- Created with Inkscape (http://www.inkscape.org/) -->

<svg
   xmlns:dc="http://purl.org/dc/elements/1.1/"
   xmlns:cc="http://creativecommons.org/ns#"
   xmlns:rdf="http://www.w3.org/1999/02/22-rdf-syntax-ns#"
   xmlns:svg="http://www.w3.org/2000/svg"
   xmlns="http://www.w3.org/2000/svg"
   xmlns:sodipodi="http://sodipodi.sourceforge.net/DTD/sodipodi-0.dtd"
   xmlns:inkscape="http://www.inkscape.org/namespaces/inkscape"
   width="174.62399"
   height="3264.7561"
   id="svg2"
   version="1.1"
   inkscape:version="0.48.5 r10040"
   sodipodi:docname="Black 9.svg">
  <defs
     id="defs4" />
  <sodipodi:namedview
     id="base"
     pagecolor="#ffffff"
     bordercolor="#666666"
     borderopacity="1.0"
     inkscape:pageopacity="0.0"
     inkscape:pageshadow="2"
     inkscape:zoom="0.098050432"
     inkscape:cx="-6996.3713"
     inkscape:cy="3669.3577"
     inkscape:document-units="in"
     inkscape:current-layer="layer1"
     showgrid="false"
     units="in"
     inkscape:window-width="2445"
     inkscape:window-height="1343"
     inkscape:window-x="52"
     inkscape:window-y="0"
     inkscape:window-maximized="0"
     fit-margin-top="0"
     fit-margin-left="0"
     fit-margin-right="0"
     fit-margin-bottom="0"
     showguides="true"
     inkscape:guide-bbox="true" />
  <metadata
     id="metadata7">
    <rdf:RDF>
      <cc:Work
         rdf:about="">
        <dc:format>image/svg+xml</dc:format>
        <dc:type
           rdf:resource="http://purl.org/dc/dcmitype/StillImage" />
        <dc:title />
      </cc:Work>
    </rdf:RDF>
  </metadata>
  <g
     inkscape:label="Layer 1"
     inkscape:groupmode="layer"
     id="layer1"
     transform="translate(-15591.047,962.43995)">
    <g
       transform="matrix(1.25,0,0,1.25,1046.4795,-8017.6529)"
       id="g3029" />
    <g
       transform="matrix(1.25,0,0,1.25,1046.4795,-8017.6529)"
       id="g3033" />
    <g
       transform="matrix(1.25,0,0,1.25,1046.4795,-8017.6529)"
       id="g3037" />
    <g
       transform="matrix(1.25,0,0,1.25,1046.4795,-8017.6529)"
       id="g3041" />
    <g
       transform="matrix(1.25,0,0,1.25,1046.4795,-8017.6529)"
       id="g3045" />
    <g
       transform="matrix(1.25,0,0,1.25,1046.4795,-8017.6529)"
       id="g3049" />
    <g
       transform="matrix(1.25,0,0,1.25,1046.4795,-8017.6529)"
       id="g3053" />
    <g
       transform="matrix(1.25,0,0,1.25,1046.4795,-8017.6529)"
       id="g3057" />
    <g
       transform="matrix(1.25,0,0,1.25,1046.4795,-8017.6529)"
       id="g3061" />
    <g
       transform="matrix(1.25,0,0,1.25,1046.4795,-8017.6529)"
       id="g3065" />
    <g
       transform="matrix(1.25,0,0,1.25,1046.4795,-8017.6529)"
       id="g3069" />
    <g
       transform="matrix(1.25,0,0,1.25,1046.4795,-8017.6529)"
       id="g3073" />
    <g
       transform="matrix(1.25,0,0,1.25,1046.4795,-8017.6529)"
       id="g3077" />
    <g
       transform="matrix(1.25,0,0,1.25,1046.4795,-8017.6529)"
       id="g3081" />
    <g
       transform="matrix(1.25,0,0,1.25,1046.4795,-8017.6529)"
       id="g3085" />
    <g
       transform="matrix(1.25,0,0,1.25,1046.4795,-8017.6529)"
       id="g3089" />
    <g
       transform="matrix(1.25,0,0,1.25,1046.4795,-8017.6529)"
       id="g3093" />
    <g
       transform="matrix(1.25,0,0,1.25,1046.4795,-8017.6529)"
       id="g3097" />
    <g
       transform="matrix(1.25,0,0,1.25,1046.4795,-8017.6529)"
       id="g3101" />
    <g
       transform="matrix(1.25,0,0,1.25,1046.4795,-8017.6529)"
       id="g3105" />
    <g
       transform="matrix(1.25,0,0,1.25,1046.4795,-8017.6529)"
       id="g3109" />
    <g
       transform="matrix(1.25,0,0,1.25,1046.4795,-8017.6529)"
       id="g3113" />
    <g
       transform="matrix(1.25,0,0,1.25,1046.4795,-8017.6529)"
       id="g3117" />
    <g
       transform="matrix(1.25,0,0,1.25,1046.4795,-8017.6529)"
       id="g3121" />
    <g
       transform="matrix(1.25,0,0,1.25,1046.4795,-8017.6529)"
       id="g3125" />
    <g
       transform="matrix(1.25,0,0,1.25,1046.4795,-8017.6529)"
       id="g3129" />
    <g
       transform="matrix(1.25,0,0,1.25,1046.4795,-8017.6529)"
       id="g3133" />
    <g
       transform="matrix(1.25,0,0,1.25,1046.4795,-8017.6529)"
       id="g3137" />
    <g
       transform="matrix(1.25,0,0,1.25,1046.4795,-8017.6529)"
       id="g3141" />
    <g
       transform="matrix(1.25,0,0,1.25,1046.4795,-8017.6529)"
       id="g3145" />
    <g
       transform="matrix(1.25,0,0,1.25,1046.4795,-8017.6529)"
       id="g3149" />
    <g
       transform="matrix(1.25,0,0,1.25,1046.4795,-8017.6529)"
       id="g3153" />
    <g
       transform="matrix(1.25,0,0,1.25,1046.4795,-8017.6529)"
       id="g3157" />
    <g
       transform="matrix(1.25,0,0,1.25,1046.4795,-8017.6529)"
       id="g3161" />
    <g
       transform="matrix(1.25,0,0,1.25,1046.4795,-8017.6529)"
       id="g3165" />
    <g
       transform="matrix(1.25,0,0,1.25,1046.4795,-8017.6529)"
       id="g3169" />
    <g
       transform="matrix(1.25,0,0,1.25,1046.4795,-8017.6529)"
       id="g3173" />
    <g
       transform="matrix(1.25,0,0,1.25,1046.4795,-8017.6529)"
       id="g3177" />
    <g
       transform="matrix(1.25,0,0,1.25,1046.4795,-8017.6529)"
       id="g3181" />
    <g
       transform="matrix(1.25,0,0,1.25,1046.4795,-8017.6529)"
       id="g3185" />
    <g
       transform="matrix(1.25,0,0,1.25,1046.4795,-8017.6529)"
       id="g3189" />
    <g
       transform="matrix(1.25,0,0,1.25,1046.4795,-8017.6529)"
       id="g3193" />
    <g
       transform="matrix(1.25,0,0,1.25,1046.4795,-8017.6529)"
       id="g3197" />
    <g
       transform="matrix(1.25,0,0,1.25,1046.4795,-8017.6529)"
       id="g3201" />
    <g
       transform="matrix(1.25,0,0,1.25,1046.4795,-8017.6529)"
       id="g3205" />
    <g
       transform="matrix(1.25,0,0,1.25,1046.4795,-8017.6529)"
       id="g3209" />
    <g
       transform="matrix(1.25,0,0,1.25,1046.4795,-8017.6529)"
       id="g3213" />
    <g
       transform="matrix(1.25,0,0,1.25,1046.4795,-8017.6529)"
       id="g3217" />
    <g
       transform="matrix(1.25,0,0,1.25,1046.4795,-8017.6529)"
       id="g3221" />
    <g
       transform="matrix(1.25,0,0,1.25,1046.4795,-8017.6529)"
       id="g3225" />
    <g
       transform="matrix(1.25,0,0,1.25,1046.4795,-8017.6529)"
       id="g3229" />
    <g
       transform="matrix(1.25,0,0,1.25,1046.4795,-8017.6529)"
       id="g3233" />
    <g
       transform="matrix(1.25,0,0,1.25,1046.4795,-8017.6529)"
       id="g3237" />
    <g
       transform="matrix(1.25,0,0,1.25,1046.4795,-8017.6529)"
       id="g3241" />
    <g
       transform="matrix(1.25,0,0,1.25,1046.4795,-8017.6529)"
       id="g3245" />
    <g
       transform="matrix(1.25,0,0,1.25,1046.4795,-8017.6529)"
       id="g3249" />
    <g
       transform="matrix(1.25,0,0,1.25,1046.4795,-8017.6529)"
       id="g3253" />
    <g
       transform="matrix(1.25,0,0,1.25,1046.4795,-8017.6529)"
       id="g3257" />
    <g
       transform="matrix(1.25,0,0,1.25,1046.4795,-8017.6529)"
       id="g3261" />
    <g
       transform="matrix(1.25,0,0,1.25,1046.4795,-8017.6529)"
       id="g3265" />
    <g
       transform="matrix(1.25,0,0,1.25,1046.4795,-8017.6529)"
       id="g3269" />
    <g
       transform="matrix(1.25,0,0,1.25,1046.4795,-8017.6529)"
       id="g3273" />
    <g
       transform="matrix(1.25,0,0,1.25,1046.4795,-8017.6529)"
       id="g3277" />
    <g
       transform="matrix(1.25,0,0,1.25,1046.4795,-8017.6529)"
       id="g3281" />
    <g
       transform="matrix(1.25,0,0,1.25,1046.4795,-8017.6529)"
       id="g3285" />
    <g
       transform="matrix(1.25,0,0,1.25,1046.4795,-8017.6529)"
       id="g3289" />
    <g
       transform="matrix(1.25,0,0,1.25,1046.4795,-8017.6529)"
       id="g3293" />
    <g
       transform="matrix(1.25,0,0,1.25,1046.4795,-8017.6529)"
       id="g3297" />
    <g
       transform="matrix(1.25,0,0,1.25,1046.4795,-8017.6529)"
       id="g3301" />
    <g
       transform="matrix(1.25,0,0,1.25,1046.4795,-8017.6529)"
       id="g3305" />
    <g
       transform="matrix(1.25,0,0,1.25,1046.4795,-8017.6529)"
       id="g3309" />
    <g
       transform="matrix(1.25,0,0,1.25,1046.4795,-8017.6529)"
       id="g3313" />
    <g
       transform="matrix(1.25,0,0,1.25,1046.4795,-8017.6529)"
       id="g3317" />
    <g
       transform="matrix(1.25,0,0,1.25,1046.4795,-8017.6529)"
       id="g3321" />
    <g
       transform="matrix(1.25,0,0,1.25,1046.4795,-8017.6529)"
       id="g3325" />
    <g
       transform="matrix(1.25,0,0,1.25,1046.4795,-8017.6529)"
       id="g3329" />
    <g
       transform="matrix(1.25,0,0,1.25,1046.4795,-8017.6529)"
       id="g3333" />
    <g
       transform="matrix(1.25,0,0,1.25,1046.4795,-8017.6529)"
       id="g3337" />
    <g
       transform="matrix(1.25,0,0,1.25,1046.4795,-8017.6529)"
       id="g3341" />
    <g
       transform="matrix(1.25,0,0,1.25,1046.4795,-8017.6529)"
       id="g3345" />
    <g
       transform="matrix(1.25,0,0,1.25,1046.4795,-8017.6529)"
       id="g3349" />
    <g
       transform="matrix(1.25,0,0,1.25,1046.4795,-8017.6529)"
       id="g3353" />
    <g
       transform="matrix(1.25,0,0,1.25,1046.4795,-8017.6529)"
       id="g3361" />
    <g
       transform="matrix(1.25,0,0,1.25,1046.4795,-8017.6529)"
       id="g3365" />
    <g
       transform="matrix(1.25,0,0,1.25,1046.4795,-8017.6529)"
       id="g3373" />
    <g
       transform="matrix(1.25,0,0,1.25,1046.4795,-8017.6529)"
       id="g3377" />
    <g
       transform="matrix(1.25,0,0,1.25,1046.4795,-8017.6529)"
       id="g3381" />
    <g
       transform="matrix(1.25,0,0,1.25,1046.4795,-8017.6529)"
       id="g3385" />
    <g
       transform="matrix(1.25,0,0,1.25,1046.4795,-8017.6529)"
       id="g3389" />
    <g
       transform="matrix(1.25,0,0,1.25,1046.4795,-8017.6529)"
       id="g3393" />
    <g
       transform="matrix(1.25,0,0,1.25,1046.4795,-8017.6529)"
       id="g3397" />
    <g
       transform="matrix(1.25,0,0,1.25,1046.4795,-8017.6529)"
       id="g3401" />
    <g
       transform="matrix(1.25,0,0,1.25,1046.4795,-8017.6529)"
       id="g3405" />
    <g
       transform="matrix(1.25,0,0,1.25,1046.4795,-8017.6529)"
       id="g3409" />
    <g
       transform="matrix(1.25,0,0,1.25,1046.4795,-8017.6529)"
       id="g3413" />
    <g
       transform="matrix(1.25,0,0,1.25,1046.4795,-8017.6529)"
       id="g3417" />
    <g
       transform="matrix(1.25,0,0,1.25,1046.4795,-8017.6529)"
       id="g3421" />
    <g
       transform="matrix(1.25,0,0,1.25,1046.4795,-8017.6529)"
       id="g3425" />
    <g
       transform="matrix(1.25,0,0,1.25,1046.4795,-8017.6529)"
       id="g3429" />
    <g
       transform="matrix(1.25,0,0,1.25,1046.4795,-8017.6529)"
       id="g3433" />
    <g
       transform="matrix(1.25,0,0,1.25,1046.4795,-8017.6529)"
       id="g3437" />
    <g
       transform="matrix(1.25,0,0,1.25,1046.4795,-8017.6529)"
       id="g3441" />
    <g
       transform="matrix(1.25,0,0,1.25,1046.4795,-8017.6529)"
       id="g3445" />
    <g
       transform="matrix(1.25,0,0,1.25,1046.4795,-8017.6529)"
       id="g3449" />
    <g
       transform="matrix(1.25,0,0,1.25,1046.4795,-8017.6529)"
       id="g3453" />
    <g
       transform="matrix(1.25,0,0,1.25,1046.4795,-8017.6529)"
       id="g3457" />
    <g
       transform="matrix(1.25,0,0,1.25,1046.4795,-8017.6529)"
       id="g3461" />
    <g
       transform="matrix(1.25,0,0,1.25,1046.4795,-8017.6529)"
       id="g3465" />
    <g
       transform="matrix(1.25,0,0,1.25,1046.4795,-8017.6529)"
       id="g3469" />
    <g
       transform="matrix(1.25,0,0,1.25,1046.4795,-8017.6529)"
       id="g3473" />
    <g
       transform="matrix(1.25,0,0,1.25,1046.4795,-8017.6529)"
       id="g3477" />
    <g
       transform="matrix(1.25,0,0,1.25,1046.4795,-8017.6529)"
       id="g3481" />
    <g
       transform="matrix(1.25,0,0,1.25,1046.4795,-8017.6529)"
       id="g3485" />
    <g
       transform="matrix(1.25,0,0,1.25,1046.4795,-8017.6529)"
       id="g3489" />
    <g
       transform="matrix(1.25,0,0,1.25,1046.4795,-8017.6529)"
       id="g3493" />
    <g
       transform="matrix(1.25,0,0,1.25,1046.4795,-8017.6529)"
       id="g3497" />
    <g
       transform="matrix(1.25,0,0,1.25,1046.4795,-8017.6529)"
       id="g3501" />
    <g
       transform="matrix(1.25,0,0,1.25,1046.4795,-8017.6529)"
       id="g3505" />
    <g
       transform="matrix(1.25,0,0,1.25,1046.4795,-8017.6529)"
       id="g3509" />
    <g
       transform="matrix(1.25,0,0,1.25,1046.4795,-8017.6529)"
       id="g3513" />
    <g
       transform="matrix(1.25,0,0,1.25,1046.4795,-8017.6529)"
       id="g3517" />
    <g
       transform="matrix(1.25,0,0,1.25,1046.4795,-8017.6529)"
       id="g3525" />
    <g
       transform="matrix(1.25,0,0,1.25,1046.4795,-8017.6529)"
       id="g3529" />
    <g
       transform="matrix(1.25,0,0,1.25,1046.4795,-8017.6529)"
       id="g3533" />
    <g
       transform="matrix(1.25,0,0,1.25,1046.4795,-8017.6529)"
       id="g3537" />
    <g
       transform="matrix(1.25,0,0,1.25,1046.4795,-8017.6529)"
       id="g3541" />
    <g
       transform="matrix(1.25,0,0,1.25,1046.4795,-8017.6529)"
       id="g3545" />
    <g
       transform="matrix(1.25,0,0,1.25,1046.4795,-8017.6529)"
       id="g3549" />
    <g
       transform="matrix(1.25,0,0,1.25,1046.4795,-8017.6529)"
       id="g3553" />
    <g
       transform="matrix(1.25,0,0,1.25,1046.4795,-8017.6529)"
       id="g3557" />
    <g
       transform="matrix(1.25,0,0,1.25,1046.4795,-8017.6529)"
       id="g3561" />
    <g
       transform="matrix(1.25,0,0,1.25,1046.4795,-8017.6529)"
       id="g3565" />
    <g
       transform="matrix(1.25,0,0,1.25,1046.4795,-8017.6529)"
       id="g3569" />
    <g
       transform="matrix(1.25,0,0,1.25,1046.4795,-8017.6529)"
       id="g3573" />
    <g
       transform="matrix(1.25,0,0,1.25,1046.4795,-8017.6529)"
       id="g3581" />
    <g
       transform="matrix(1.25,0,0,1.25,1046.4795,-8017.6529)"
       id="g3585" />
    <g
       transform="matrix(1.25,0,0,1.25,1046.4795,-8017.6529)"
       id="g3589" />
    <g
       transform="matrix(1.25,0,0,1.25,1046.4795,-8017.6529)"
       id="g3593" />
    <g
       transform="matrix(1.25,0,0,1.25,1046.4795,-8017.6529)"
       id="g3597" />
    <g
       transform="matrix(1.25,0,0,1.25,1046.4795,-8017.6529)"
       id="g3601" />
    <g
       transform="matrix(1.25,0,0,1.25,1046.4795,-8017.6529)"
       id="g3605" />
    <g
       transform="matrix(1.25,0,0,1.25,1046.4795,-8017.6529)"
       id="g3609" />
    <g
       transform="matrix(1.25,0,0,1.25,1046.4795,-8017.6529)"
       id="g3613" />
    <g
       transform="matrix(1.25,0,0,1.25,1046.4795,-8017.6529)"
       id="g3617" />
    <g
       transform="matrix(1.25,0,0,1.25,1046.4795,-8017.6529)"
       id="g3621" />
    <g
       transform="matrix(1.25,0,0,1.25,1046.4795,-8017.6529)"
       id="g3625" />
    <g
       transform="matrix(1.25,0,0,1.25,1046.4795,-8017.6529)"
       id="g3629" />
    <g
       transform="matrix(1.25,0,0,1.25,1046.4795,-8017.6529)"
       id="g3633" />
    <g
       transform="matrix(1.25,0,0,1.25,1046.4795,-8017.6529)"
       id="g3637" />
    <g
       transform="matrix(1.25,0,0,1.25,1046.4795,-8017.6529)"
       id="g3641" />
    <g
       transform="matrix(1.25,0,0,1.25,1046.4795,-8017.6529)"
       id="g3645" />
    <g
       transform="matrix(1.25,0,0,1.25,1046.4795,-8017.6529)"
       id="g3649" />
    <g
       transform="matrix(1.25,0,0,1.25,1046.4795,-8017.6529)"
       id="g3653" />
    <g
       transform="matrix(1.25,0,0,1.25,1046.4795,-8017.6529)"
       id="g3657" />
    <g
       transform="matrix(1.25,0,0,1.25,1046.4795,-8017.6529)"
       id="g3661" />
    <g
       transform="matrix(1.25,0,0,1.25,1046.4795,-8017.6529)"
       id="g3665" />
    <g
       transform="matrix(1.25,0,0,1.25,1046.4795,-8017.6529)"
       id="g3669" />
    <g
       transform="matrix(1.25,0,0,1.25,1046.4795,-8017.6529)"
       id="g3673" />
    <g
       transform="matrix(1.25,0,0,1.25,1046.4795,-8017.6529)"
       id="g3677" />
    <g
       transform="matrix(1.25,0,0,1.25,1046.4795,-8017.6529)"
       id="g3681" />
    <g
       transform="matrix(1.25,0,0,1.25,1046.4795,-8017.6529)"
       id="g3685" />
    <g
       transform="matrix(1.25,0,0,1.25,1046.4795,-8017.6529)"
       id="g3689" />
    <g
       transform="matrix(1.25,0,0,1.25,1046.4795,-8017.6529)"
       id="g3693" />
    <g
       transform="matrix(1.25,0,0,1.25,1046.4795,-8017.6529)"
       id="g3697" />
    <g
       transform="matrix(1.25,0,0,1.25,1046.4795,-8017.6529)"
       id="g3701" />
    <g
       transform="matrix(1.25,0,0,1.25,1046.4795,-8017.6529)"
       id="g3705" />
    <g
       transform="matrix(1.25,0,0,1.25,1046.4795,-8017.6529)"
       id="g3709" />
    <g
       transform="matrix(1.25,0,0,1.25,1046.4795,-8017.6529)"
       id="g3713" />
    <g
       transform="matrix(1.25,0,0,1.25,1046.4795,-8017.6529)"
       id="g3717" />
    <g
       transform="matrix(1.25,0,0,1.25,1046.4795,-8017.6529)"
       id="g3721" />
    <g
       transform="matrix(1.25,0,0,1.25,1046.4795,-8017.6529)"
       id="g3725" />
    <g
       transform="matrix(1.25,0,0,1.25,1046.4795,-8017.6529)"
       id="g3729" />
    <g
       transform="matrix(1.25,0,0,1.25,1046.4795,-8017.6529)"
       id="g3733" />
    <g
       transform="matrix(1.25,0,0,1.25,1046.4795,-8017.6529)"
       id="g3737" />
    <g
       transform="matrix(1.25,0,0,1.25,1046.4795,-8017.6529)"
       id="g3741" />
    <g
       transform="matrix(1.25,0,0,1.25,1046.4795,-8017.6529)"
       id="g3745" />
    <g
       transform="matrix(1.25,0,0,1.25,1046.4795,-8017.6529)"
       id="g3749" />
    <g
       transform="matrix(1.25,0,0,1.25,1046.4795,-8017.6529)"
       id="g3753" />
    <g
       transform="matrix(1.25,0,0,1.25,1046.4795,-8017.6529)"
       id="g3757" />
    <g
       transform="matrix(1.25,0,0,1.25,1046.4795,-8017.6529)"
       id="g3761" />
    <g
       transform="matrix(1.25,0,0,1.25,1046.4795,-8017.6529)"
       id="g3765" />
    <g
       transform="matrix(1.25,0,0,1.25,1046.4795,-8017.6529)"
       id="g3769" />
    <g
       transform="matrix(1.25,0,0,1.25,1046.4795,-8017.6529)"
       id="g3773" />
    <g
       transform="matrix(1.25,0,0,1.25,1046.4795,-8017.6529)"
       id="g3777" />
    <g
       transform="matrix(1.25,0,0,1.25,1046.4795,-8017.6529)"
       id="g3781" />
    <g
       transform="matrix(1.25,0,0,1.25,1046.4795,-8017.6529)"
       id="g3785" />
    <g
       transform="matrix(1.25,0,0,1.25,1046.4795,-8017.6529)"
       id="g3789" />
    <g
       transform="matrix(1.25,0,0,1.25,1046.4795,-8017.6529)"
       id="g3793" />
    <g
       transform="matrix(1.25,0,0,1.25,1046.4795,-8017.6529)"
       id="g3797" />
    <g
       transform="matrix(1.25,0,0,1.25,1046.4795,-8017.6529)"
       id="g3803" />
    <g
       transform="matrix(1.25,0,0,1.25,1046.4795,-8017.6529)"
       id="g3807" />
    <g
       transform="matrix(1.25,0,0,1.25,1046.4795,-8017.6529)"
       id="g3811" />
    <g
       transform="matrix(1.25,0,0,1.25,1046.4795,-8017.6529)"
       id="g3817" />
    <g
       transform="matrix(1.25,0,0,1.25,1046.4795,-8017.6529)"
       id="g3821" />
    <g
       transform="matrix(1.25,0,0,1.25,1046.4795,-8017.6529)"
       id="g3833" />
    <g
       transform="matrix(1.25,0,0,1.25,1046.4795,-8017.6529)"
       id="g3837" />
    <g
       transform="matrix(1.25,0,0,1.25,1046.4795,-8017.6529)"
       id="g3841" />
    <g
       transform="matrix(1.25,0,0,1.25,1046.4795,-8017.6529)"
       id="g3845" />
    <g
       transform="matrix(1.25,0,0,1.25,1046.4795,-8017.6529)"
       id="g3849" />
    <g
       transform="matrix(1.25,0,0,1.25,1046.4795,-8017.6529)"
       id="g3853" />
    <g
       transform="matrix(1.25,0,0,1.25,1046.4795,-8017.6529)"
       id="g3857" />
    <g
       transform="matrix(1.25,0,0,1.25,1046.4795,-8017.6529)"
       id="g3865" />
    <g
       transform="matrix(1.25,0,0,1.25,1046.4795,-8017.6529)"
       id="g3869" />
    <g
       transform="matrix(1.25,0,0,1.25,1046.4795,-8017.6529)"
       id="g3885" />
    <g
       style="font-size:123.45613098px;font-style:normal;font-weight:normal;line-height:125%;letter-spacing:0px;word-spacing:0px;fill:#000000;fill-opacity:1;stroke:none;font-family:Sans"
       id="text8123" />
    <g
       style="font-size:123.45613098px;font-style:normal;font-weight:normal;line-height:125%;letter-spacing:0px;word-spacing:0px;fill:#000000;fill-opacity:1;stroke:none;font-family:Sans"
       id="text8129">
      <path
         id="path17239"
         d="m 15642.648,807.44105 c 0,-5.465 -1.869,-9.805 -5.606,-13.02 -3.738,-3.175 -8.862,-4.763 -15.372,-4.763 -6.47,0 -11.594,1.588 -15.372,4.763 -3.737,3.215 -5.606,7.555 -5.606,13.02 0,5.466 1.869,9.786 5.606,12.961 3.778,3.215 8.902,4.822 15.372,4.822 6.51,0 11.634,-1.607 15.372,-4.822 3.737,-3.175 5.606,-7.495 5.606,-12.961 m 38.158,24.173 -11.092,0 c 1.447,-3.054 2.552,-6.148 3.316,-9.283 0.763,-3.095 1.145,-6.169 1.145,-9.223 0,-8.038 -2.713,-14.186 -8.138,-18.446 -5.425,-4.22 -13.624,-6.631 -24.595,-7.234 3.496,2.371 6.169,5.345 8.018,8.922 1.888,3.576 2.833,7.515 2.833,11.815 0,9.042 -2.753,16.175 -8.259,21.4 -5.465,5.264 -12.92,7.896 -22.364,7.897 -9.243,0 -16.658,-2.733 -22.244,-8.199 -5.586,-5.465 -8.379,-12.739 -8.379,-21.822 0,-10.408 3.979,-18.365 11.936,-23.871 7.997,-5.506 19.571,-8.258 34.722,-8.258 14.226,0 25.559,3.375 33.998,10.127 8.48,6.751 12.72,15.814 12.72,27.187 0,3.054 -0.302,6.128 -0.904,9.223 -0.603,3.134 -1.508,6.389 -2.713,9.765 m 1.989,-1790.256 0,47.803 -10.248,0 0,-36.651 -22.063,0 c 0.603,1.768 1.045,3.537 1.327,5.305 0.321,1.768 0.482,3.536 0.482,5.305 0,10.047 -2.753,18.004 -8.259,23.871 -5.505,5.867 -12.96,8.801 -22.364,8.801 -9.685,0 -17.22,-3.014 -22.606,-9.042 -5.345,-6.028 -8.017,-14.528 -8.017,-25.499 0,-3.778 0.322,-7.636 0.965,-11.574 0.643,-3.898 1.607,-7.937 2.893,-12.117 l 12.237,0 c -1.969,3.617 -3.436,7.355 -4.4,11.213 -0.965,3.858 -1.447,7.937 -1.447,12.237 0,6.952 1.828,12.458 5.485,16.517 3.657,4.059 8.621,6.088 14.89,6.088 6.269,0 11.232,-2.029 14.889,-6.088 3.657,-4.059 5.486,-9.565 5.486,-16.517 0,-3.255 -0.362,-6.51 -1.085,-9.766 -0.723,-3.215 -1.849,-6.51 -3.376,-9.886 l 45.211,0 m 82.876,3260.95795 -0.541,-136.67 c -4.116,-3.784 -8.843,-7.196 -14.19,-10.2289 -2.47,-1.3281 -5.336,-2.553 -8.54,-3.6861 l 0,13.129 c 0.342,0.269 0.674,0.537 0.981,0.816 4.449,4.053 6.67,8.515 6.67,13.403 0,2.652 -0.815,7.955 -2.446,15.913 -2.661,14.063 -4.38,24.312 -5.205,30.933 l 0,12.202 c 1.045,5.9871 3.511,14.693 7.427,26.177 -2.496,-3.125 -4.971,-6.0639 -7.427,-8.8329 l 0,20.098 c 8.496,6.591 16.25,15.522 23.271,26.747 z m -1.43,-222.383 -0.03,-7.167 -2.982,1.625 3.012,5.542 z m -0.64,-160.917 -0.07,-18.985 -21.673,11.787 0,19.024 21.752,-11.826 0,0 z m -0.215,-54.971 -0.161,-40.81 -14.858,-27.335 14.717,-7.998 -0.07,-18.983 -21.156,11.498 0,44.019 21.532,39.609 z m -0.981,-248.297 -0.08,-18.988 -20.473,11.132 0,19.029 20.551,-11.173 z m -0.234,-58.973 -0.161,-41.089 -14.316,-26.339 14.178,-7.71 -0.07,-18.984 -19.946,10.845 0,45.898 20.317,37.379 z m -0.46,-116.158 -0.07,-18.985 -19.785,10.753 0,0.112 7.938,14.609 11.919,-6.484 z m -0.175,-44.4 -0.161,-40.805 -19.521,-35.914 0,40.514 19.682,36.205 z m -0.835,-210.151 -0.117,-29.658 -18.73,10.185 0,19.024 14.365,-7.807 4.482,8.256 z m -0.2,-51.709 -0.08,-18.989 -18.568,10.098 0,0.62 7.723,14.209 10.924,-5.938 z m -0.181,-45.41 -0.166,-41.084 -18.3,-33.672 0,40.786 18.466,33.97 z m -0.336,966.435 -7.984,-14.687 -10.146,5.517 0,19.029 18.13,-9.859 z m -0.215,-306.806 -7.984,-14.688 -9.931,5.4 0,19.029 17.915,-9.741 z m -5.015,-915.59995 -0.02,-0.03 -12.88,0 0,7.041 12.9,-7.011 z m 4.565,-0.932 -0.09,-22.028 c -5.806,-1.391 -11.596,-2.797 -17.377,-4.214 l 0,22.91 c 3.202,1.114 6.406,2.213 9.613,3.332 l 7.852,0 z m -0.175,-44.567 -0.108,-26.103 c -5.025,0 -10.727,0.04 -17.182,0.156 l 0,24.561 c 5.761,0.484 11.522,0.966 17.29,1.386 z m -0.225,-56.035 -0.02,-5.468 -6.612,-25.635 6.519,3.017 -0.09,-23.857 -16.86,-5.908 0,47.954 17.065,9.897 z m -0.293,-73.842 -0.255,-64.165 -16.517,-2.227 0,20.142 1.152,0.312 6.01,21.035 -7.162,-2.026 0,20.625 16.772,6.304 z m -0.342,-87.075 -0.1,-24.644 c -5.459,-1.309 -10.899,-2.638 -16.332,-3.965 l 0,22.905 c 5.473,1.905 10.946,3.794 16.425,5.704 l 0,0 z m -0.185,-47.013 -0.108,-26.025 c -4.79,0 -10.112,0.04 -16.137,0.151 l 0,24.565 c 5.415,0.455 10.825,0.909 16.245,1.309 z m -0.225,-56.562 -0.04,-8.974 -5.547,-21.524 5.473,2.529 -0.09,-23.735 -15.815,-5.542 0,47.954 16.02,9.292 z m -0.293,-73.633 -0.254,-63.911 -15.473,-2.085 0,20.141 1.152,0.313 6.01,21.036 -7.162,-2.028 0,20.622 15.727,5.912 z m -0.347,-87.041 -0.09,-24.536 c -5.107,-1.225 -10.2,-2.465 -15.287,-3.71 l 0,22.905 c 5.121,1.782 10.248,3.555 15.38,5.341 z m -0.18,-46.729 -0.108,-25.941 c -4.536,0 -9.497,0.05 -15.092,0.146 l 0,24.565 c 5.062,0.425 10.131,0.845 15.2,1.23 z m -0.23,-57.089 -0.05,-12.486 -4.17,-16.176 -10.751,0 0,19.975 14.97,8.687 z m -0.108,-27.847 0,-0.815 -1.762,0 1.767,0.815 0,0 z m -0.107,-27.359 -0.07,-17.705 c -0.679,0.05 -1.387,0.07 -2.12,0.07 l -12.562,0 0,17.549 12.562,0 c 0.758,0 1.49,0.02 2.193,0.09 l 0,0 z m -0.278,-69.921 -0.05,-11.988 -1.188,-0.595 c -3.964,7.007 -8.384,13.208 -13.241,18.608 l 0,28.34 14.477,-34.365 z m -0.151,-37.964 -0.07,-18.101 -14.257,-6.005 0,9.951 c 5.482,4.321 10.254,9.043 14.326,14.155 z m -0.284,-71.567 -0.561,-142.378 -0.09,0 0,142.104 0.654,0.274 z m -12.676,-142.378 -1.366,0 0,71.635 1.366,0 0,-71.635 z m 12.095,-0.904 -0.01,-3.652 c -0.62,0 -1.23,-0.02 -1.85,-0.02 -3.867,0 -7.735,0.234 -11.601,0.702 l 0,2.984 13.461,0 0,0 z m -0.02,-4.922 -0.341,-85.751 -13.105,0 0,82.871 c 4.286,1.347 8.768,2.309 13.446,2.88 z m -0.4,-101.313 -0.234,-58.916 c -0.406,0 -0.806,-0.02 -1.211,-0.02 -3.868,0 -7.735,0.235 -11.601,0.704 l 0,57.119 c 1.757,-0.41 3.378,-0.615 4.848,-0.615 3.013,0 5.747,0.581 8.198,1.728 z m -0.239,-60.263 -0.342,-85.664 -12.465,0 0,82.87 c 4.091,1.29 8.363,2.217 12.807,2.794 z m -0.405,-101.504 -0.23,-58.647 c -0.19,0 -0.381,0 -0.571,0 -3.868,0 -7.735,0.233 -11.601,0.702 l 0,57.12 c 1.757,-0.41 3.378,-0.62 4.848,-0.62 2.754,0 5.268,0.498 7.554,1.46 l 0,0 z m -0.235,-60.079 -0.341,-85.566 -11.826,0 0,82.871 c 3.891,1.225 7.953,2.114 12.167,2.695 z m -0.386,-97.348 -0.195,-49.609 c -3.428,0.131 -6.914,0.205 -10.484,0.205 l -1.102,0 0,49.409 11.781,0 0,0 z m -0.473,-119.649 -0.532,-134.404 c -6.416,20.425 -9.624,42.92 -9.624,67.48 0,13.868 1.128,26.524 3.384,37.974 1.87,10.356 4.13,20 6.772,28.95 z m -10.977,-66.684 c 0,-4.262 -0.121,-8.452 -0.331,-12.592 l 0,25.077 c 0.215,-4.16 0.331,-8.32 0.331,-12.485 z"
         inkscape:connector-curvature="0"
         style="fill:none;stroke:#000000;stroke-opacity:1" />
    </g>
    <g
       style="font-size:123.45613098px;font-style:normal;font-weight:normal;line-height:125%;letter-spacing:0px;word-spacing:0px;fill:#000000;fill-opacity:1;stroke:none;font-family:Sans"
       id="text9052" />
  </g>
</svg>
