<?xml version="1.0" encoding="UTF-8" standalone="no"?>
<!-- Created with Inkscape (http://www.inkscape.org/) -->

<svg
   xmlns:dc="http://purl.org/dc/elements/1.1/"
   xmlns:cc="http://creativecommons.org/ns#"
   xmlns:rdf="http://www.w3.org/1999/02/22-rdf-syntax-ns#"
   xmlns:svg="http://www.w3.org/2000/svg"
   xmlns="http://www.w3.org/2000/svg"
   xmlns:sodipodi="http://sodipodi.sourceforge.net/DTD/sodipodi-0.dtd"
   xmlns:inkscape="http://www.inkscape.org/namespaces/inkscape"
   width="1887.9148"
   height="3938.3359"
   id="svg2"
   version="1.1"
   inkscape:version="0.48.5 r10040"
   sodipodi:docname="Black 1.svg">
  <defs
     id="defs4" />
  <sodipodi:namedview
     id="base"
     pagecolor="#ffffff"
     bordercolor="#666666"
     borderopacity="1.0"
     inkscape:pageopacity="0.0"
     inkscape:pageshadow="2"
     inkscape:zoom="0.098050432"
     inkscape:cx="6496.6567"
     inkscape:cy="1110.2997"
     inkscape:document-units="in"
     inkscape:current-layer="layer1"
     showgrid="false"
     units="in"
     inkscape:window-width="2445"
     inkscape:window-height="1343"
     inkscape:window-x="35"
     inkscape:window-y="0"
     inkscape:window-maximized="0"
     fit-margin-top="0"
     fit-margin-left="0"
     fit-margin-right="0"
     fit-margin-bottom="0"
     showguides="true"
     inkscape:guide-bbox="true" />
  <metadata
     id="metadata7">
    <rdf:RDF>
      <cc:Work
         rdf:about="">
        <dc:format>image/svg+xml</dc:format>
        <dc:type
           rdf:resource="http://purl.org/dc/dcmitype/StillImage" />
        <dc:title />
      </cc:Work>
    </rdf:RDF>
  </metadata>
  <g
     inkscape:label="Layer 1"
     inkscape:groupmode="layer"
     id="layer1"
     transform="translate(-1302.51,3134.3991)">
    <g
       transform="matrix(1.25,0,0,1.25,1046.4795,-8017.6529)"
       id="g3029"
       style="fill:none;stroke:#000000;stroke-opacity:1" />
    <g
       transform="matrix(1.25,0,0,1.25,1046.4795,-8017.6529)"
       id="g3033"
       style="fill:none;stroke:#000000;stroke-opacity:1" />
    <g
       transform="matrix(1.25,0,0,1.25,1046.4795,-8017.6529)"
       id="g3037"
       style="fill:none;stroke:#000000;stroke-opacity:1" />
    <g
       transform="matrix(1.25,0,0,1.25,1046.4795,-8017.6529)"
       id="g3041"
       style="fill:none;stroke:#000000;stroke-opacity:1" />
    <g
       transform="matrix(1.25,0,0,1.25,1046.4795,-8017.6529)"
       id="g3045"
       style="fill:none;stroke:#000000;stroke-opacity:1" />
    <g
       transform="matrix(1.25,0,0,1.25,1046.4795,-8017.6529)"
       id="g3049"
       style="fill:none;stroke:#000000;stroke-opacity:1" />
    <g
       transform="matrix(1.25,0,0,1.25,1046.4795,-8017.6529)"
       id="g3053"
       style="fill:none;stroke:#000000;stroke-opacity:1" />
    <g
       transform="matrix(1.25,0,0,1.25,1046.4795,-8017.6529)"
       id="g3057"
       style="fill:none;stroke:#000000;stroke-opacity:1" />
    <g
       transform="matrix(1.25,0,0,1.25,1046.4795,-8017.6529)"
       id="g3061"
       style="fill:none;stroke:#000000;stroke-opacity:1" />
    <g
       transform="matrix(1.25,0,0,1.25,1046.4795,-8017.6529)"
       id="g3065"
       style="fill:none;stroke:#000000;stroke-opacity:1" />
    <g
       transform="matrix(1.25,0,0,1.25,1046.4795,-8017.6529)"
       id="g3069"
       style="fill:none;stroke:#000000;stroke-opacity:1" />
    <g
       transform="matrix(1.25,0,0,1.25,1046.4795,-8017.6529)"
       id="g3073"
       style="fill:none;stroke:#000000;stroke-opacity:1" />
    <g
       transform="matrix(1.25,0,0,1.25,1046.4795,-8017.6529)"
       id="g3077"
       style="fill:none;stroke:#000000;stroke-opacity:1" />
    <g
       transform="matrix(1.25,0,0,1.25,1046.4795,-8017.6529)"
       id="g3081"
       style="fill:none;stroke:#000000;stroke-opacity:1" />
    <g
       transform="matrix(1.25,0,0,1.25,1046.4795,-8017.6529)"
       id="g3085"
       style="fill:none;stroke:#000000;stroke-opacity:1" />
    <g
       transform="matrix(1.25,0,0,1.25,1046.4795,-8017.6529)"
       id="g3089"
       style="fill:none;stroke:#000000;stroke-opacity:1" />
    <g
       transform="matrix(1.25,0,0,1.25,1046.4795,-8017.6529)"
       id="g3093"
       style="fill:none;stroke:#000000;stroke-opacity:1" />
    <g
       transform="matrix(1.25,0,0,1.25,1046.4795,-8017.6529)"
       id="g3097"
       style="fill:none;stroke:#000000;stroke-opacity:1" />
    <g
       transform="matrix(1.25,0,0,1.25,1046.4795,-8017.6529)"
       id="g3101"
       style="fill:none;stroke:#000000;stroke-opacity:1" />
    <g
       transform="matrix(1.25,0,0,1.25,1046.4795,-8017.6529)"
       id="g3105"
       style="fill:none;stroke:#000000;stroke-opacity:1" />
    <g
       transform="matrix(1.25,0,0,1.25,1046.4795,-8017.6529)"
       id="g3109"
       style="fill:none;stroke:#000000;stroke-opacity:1" />
    <g
       transform="matrix(1.25,0,0,1.25,1046.4795,-8017.6529)"
       id="g3113"
       style="fill:none;stroke:#000000;stroke-opacity:1" />
    <g
       transform="matrix(1.25,0,0,1.25,1046.4795,-8017.6529)"
       id="g3117"
       style="fill:none;stroke:#000000;stroke-opacity:1" />
    <g
       transform="matrix(1.25,0,0,1.25,1046.4795,-8017.6529)"
       id="g3121"
       style="fill:none;stroke:#000000;stroke-opacity:1" />
    <g
       transform="matrix(1.25,0,0,1.25,1046.4795,-8017.6529)"
       id="g3125"
       style="fill:none;stroke:#000000;stroke-opacity:1" />
    <g
       transform="matrix(1.25,0,0,1.25,1046.4795,-8017.6529)"
       id="g3129"
       style="fill:none;stroke:#000000;stroke-opacity:1" />
    <g
       transform="matrix(1.25,0,0,1.25,1046.4795,-8017.6529)"
       id="g3133"
       style="fill:none;stroke:#000000;stroke-opacity:1" />
    <g
       transform="matrix(1.25,0,0,1.25,1046.4795,-8017.6529)"
       id="g3137"
       style="fill:none;stroke:#000000;stroke-opacity:1" />
    <g
       transform="matrix(1.25,0,0,1.25,1046.4795,-8017.6529)"
       id="g3141"
       style="fill:none;stroke:#000000;stroke-opacity:1" />
    <g
       transform="matrix(1.25,0,0,1.25,1046.4795,-8017.6529)"
       id="g3145"
       style="fill:none;stroke:#000000;stroke-opacity:1" />
    <g
       transform="matrix(1.25,0,0,1.25,1046.4795,-8017.6529)"
       id="g3149"
       style="fill:none;stroke:#000000;stroke-opacity:1" />
    <g
       transform="matrix(1.25,0,0,1.25,1046.4795,-8017.6529)"
       id="g3153"
       style="fill:none;stroke:#000000;stroke-opacity:1" />
    <g
       transform="matrix(1.25,0,0,1.25,1046.4795,-8017.6529)"
       id="g3157"
       style="fill:none;stroke:#000000;stroke-opacity:1" />
    <g
       transform="matrix(1.25,0,0,1.25,1046.4795,-8017.6529)"
       id="g3161"
       style="fill:none;stroke:#000000;stroke-opacity:1" />
    <g
       transform="matrix(1.25,0,0,1.25,1046.4795,-8017.6529)"
       id="g3165"
       style="fill:none;stroke:#000000;stroke-opacity:1" />
    <g
       transform="matrix(1.25,0,0,1.25,1046.4795,-8017.6529)"
       id="g3169"
       style="fill:none;stroke:#000000;stroke-opacity:1" />
    <g
       transform="matrix(1.25,0,0,1.25,1046.4795,-8017.6529)"
       id="g3173"
       style="fill:none;stroke:#000000;stroke-opacity:1" />
    <g
       transform="matrix(1.25,0,0,1.25,1046.4795,-8017.6529)"
       id="g3177"
       style="fill:none;stroke:#000000;stroke-opacity:1" />
    <g
       transform="matrix(1.25,0,0,1.25,1046.4795,-8017.6529)"
       id="g3181"
       style="fill:none;stroke:#000000;stroke-opacity:1" />
    <g
       transform="matrix(1.25,0,0,1.25,1046.4795,-8017.6529)"
       id="g3185"
       style="fill:none;stroke:#000000;stroke-opacity:1" />
    <g
       transform="matrix(1.25,0,0,1.25,1046.4795,-8017.6529)"
       id="g3189"
       style="fill:none;stroke:#000000;stroke-opacity:1" />
    <g
       transform="matrix(1.25,0,0,1.25,1046.4795,-8017.6529)"
       id="g3193"
       style="fill:none;stroke:#000000;stroke-opacity:1" />
    <g
       transform="matrix(1.25,0,0,1.25,1046.4795,-8017.6529)"
       id="g3197"
       style="fill:none;stroke:#000000;stroke-opacity:1" />
    <g
       transform="matrix(1.25,0,0,1.25,1046.4795,-8017.6529)"
       id="g3201"
       style="fill:none;stroke:#000000;stroke-opacity:1" />
    <g
       transform="matrix(1.25,0,0,1.25,1046.4795,-8017.6529)"
       id="g3205"
       style="fill:none;stroke:#000000;stroke-opacity:1" />
    <g
       transform="matrix(1.25,0,0,1.25,1046.4795,-8017.6529)"
       id="g3209"
       style="fill:none;stroke:#000000;stroke-opacity:1" />
    <g
       transform="matrix(1.25,0,0,1.25,1046.4795,-8017.6529)"
       id="g3213"
       style="fill:none;stroke:#000000;stroke-opacity:1" />
    <g
       transform="matrix(1.25,0,0,1.25,1046.4795,-8017.6529)"
       id="g3217"
       style="fill:none;stroke:#000000;stroke-opacity:1" />
    <g
       transform="matrix(1.25,0,0,1.25,1046.4795,-8017.6529)"
       id="g3221"
       style="fill:none;stroke:#000000;stroke-opacity:1" />
    <g
       transform="matrix(1.25,0,0,1.25,1046.4795,-8017.6529)"
       id="g3225"
       style="fill:none;stroke:#000000;stroke-opacity:1" />
    <g
       transform="matrix(1.25,0,0,1.25,1046.4795,-8017.6529)"
       id="g3229"
       style="fill:none;stroke:#000000;stroke-opacity:1" />
    <g
       transform="matrix(1.25,0,0,1.25,1046.4795,-8017.6529)"
       id="g3233"
       style="fill:none;stroke:#000000;stroke-opacity:1" />
    <g
       transform="matrix(1.25,0,0,1.25,1046.4795,-8017.6529)"
       id="g3237"
       style="fill:none;stroke:#000000;stroke-opacity:1" />
    <g
       transform="matrix(1.25,0,0,1.25,1046.4795,-8017.6529)"
       id="g3241"
       style="fill:none;stroke:#000000;stroke-opacity:1" />
    <g
       transform="matrix(1.25,0,0,1.25,1046.4795,-8017.6529)"
       id="g3245"
       style="fill:none;stroke:#000000;stroke-opacity:1" />
    <g
       transform="matrix(1.25,0,0,1.25,1046.4795,-8017.6529)"
       id="g3249"
       style="fill:none;stroke:#000000;stroke-opacity:1" />
    <g
       transform="matrix(1.25,0,0,1.25,1046.4795,-8017.6529)"
       id="g3253"
       style="fill:none;stroke:#000000;stroke-opacity:1" />
    <g
       transform="matrix(1.25,0,0,1.25,1046.4795,-8017.6529)"
       id="g3257"
       style="fill:none;stroke:#000000;stroke-opacity:1" />
    <g
       transform="matrix(1.25,0,0,1.25,1046.4795,-8017.6529)"
       id="g3261"
       style="fill:none;stroke:#000000;stroke-opacity:1" />
    <g
       transform="matrix(1.25,0,0,1.25,1046.4795,-8017.6529)"
       id="g3265"
       style="fill:none;stroke:#000000;stroke-opacity:1" />
    <g
       transform="matrix(1.25,0,0,1.25,1046.4795,-8017.6529)"
       id="g3269"
       style="fill:none;stroke:#000000;stroke-opacity:1" />
    <g
       transform="matrix(1.25,0,0,1.25,1046.4795,-8017.6529)"
       id="g3273"
       style="fill:none;stroke:#000000;stroke-opacity:1" />
    <g
       transform="matrix(1.25,0,0,1.25,1046.4795,-8017.6529)"
       id="g3277"
       style="fill:none;stroke:#000000;stroke-opacity:1" />
    <g
       transform="matrix(1.25,0,0,1.25,1046.4795,-8017.6529)"
       id="g3281"
       style="fill:none;stroke:#000000;stroke-opacity:1" />
    <g
       transform="matrix(1.25,0,0,1.25,1046.4795,-8017.6529)"
       id="g3285"
       style="fill:none;stroke:#000000;stroke-opacity:1" />
    <g
       transform="matrix(1.25,0,0,1.25,1046.4795,-8017.6529)"
       id="g3289"
       style="fill:none;stroke:#000000;stroke-opacity:1" />
    <g
       transform="matrix(1.25,0,0,1.25,1046.4795,-8017.6529)"
       id="g3293"
       style="fill:none;stroke:#000000;stroke-opacity:1" />
    <g
       transform="matrix(1.25,0,0,1.25,1046.4795,-8017.6529)"
       id="g3297"
       style="fill:none;stroke:#000000;stroke-opacity:1" />
    <g
       transform="matrix(1.25,0,0,1.25,1046.4795,-8017.6529)"
       id="g3301"
       style="fill:none;stroke:#000000;stroke-opacity:1" />
    <g
       transform="matrix(1.25,0,0,1.25,1046.4795,-8017.6529)"
       id="g3305"
       style="fill:none;stroke:#000000;stroke-opacity:1" />
    <g
       transform="matrix(1.25,0,0,1.25,1046.4795,-8017.6529)"
       id="g3309"
       style="fill:none;stroke:#000000;stroke-opacity:1" />
    <g
       transform="matrix(1.25,0,0,1.25,1046.4795,-8017.6529)"
       id="g3313"
       style="fill:none;stroke:#000000;stroke-opacity:1" />
    <g
       transform="matrix(1.25,0,0,1.25,1046.4795,-8017.6529)"
       id="g3317"
       style="fill:none;stroke:#000000;stroke-opacity:1" />
    <g
       transform="matrix(1.25,0,0,1.25,1046.4795,-8017.6529)"
       id="g3321"
       style="fill:none;stroke:#000000;stroke-opacity:1" />
    <g
       transform="matrix(1.25,0,0,1.25,1046.4795,-8017.6529)"
       id="g3325"
       style="fill:none;stroke:#000000;stroke-opacity:1" />
    <g
       transform="matrix(1.25,0,0,1.25,1046.4795,-8017.6529)"
       id="g3329"
       style="fill:none;stroke:#000000;stroke-opacity:1" />
    <g
       transform="matrix(1.25,0,0,1.25,1046.4795,-8017.6529)"
       id="g3333"
       style="fill:none;stroke:#000000;stroke-opacity:1" />
    <g
       transform="matrix(1.25,0,0,1.25,1046.4795,-8017.6529)"
       id="g3337"
       style="fill:none;stroke:#000000;stroke-opacity:1" />
    <g
       transform="matrix(1.25,0,0,1.25,1046.4795,-8017.6529)"
       id="g3341"
       style="fill:none;stroke:#000000;stroke-opacity:1" />
    <g
       transform="matrix(1.25,0,0,1.25,1046.4795,-8017.6529)"
       id="g3345"
       style="fill:none;stroke:#000000;stroke-opacity:1" />
    <g
       transform="matrix(1.25,0,0,1.25,1046.4795,-8017.6529)"
       id="g3349"
       style="fill:none;stroke:#000000;stroke-opacity:1" />
    <g
       transform="matrix(1.25,0,0,1.25,1046.4795,-8017.6529)"
       id="g3353"
       style="fill:none;stroke:#000000;stroke-opacity:1" />
    <g
       transform="matrix(1.25,0,0,1.25,1046.4795,-8017.6529)"
       id="g3357"
       style="fill:none;stroke:#000000;stroke-opacity:1" />
    <g
       transform="matrix(1.25,0,0,1.25,1046.4795,-8017.6529)"
       id="g3361"
       style="fill:none;stroke:#000000;stroke-opacity:1" />
    <g
       transform="matrix(1.25,0,0,1.25,1046.4795,-8017.6529)"
       id="g3365"
       style="fill:none;stroke:#000000;stroke-opacity:1" />
    <g
       transform="matrix(1.25,0,0,1.25,1046.4795,-8017.6529)"
       id="g3373"
       style="fill:none;stroke:#000000;stroke-opacity:1" />
    <g
       transform="matrix(1.25,0,0,1.25,1046.4795,-8017.6529)"
       id="g3377"
       style="fill:none;stroke:#000000;stroke-opacity:1" />
    <g
       transform="matrix(1.25,0,0,1.25,1046.4795,-8017.6529)"
       id="g3381"
       style="fill:none;stroke:#000000;stroke-opacity:1" />
    <g
       transform="matrix(1.25,0,0,1.25,1046.4795,-8017.6529)"
       id="g3385"
       style="fill:none;stroke:#000000;stroke-opacity:1" />
    <g
       transform="matrix(1.25,0,0,1.25,1046.4795,-8017.6529)"
       id="g3389"
       style="fill:none;stroke:#000000;stroke-opacity:1" />
    <g
       transform="matrix(1.25,0,0,1.25,1046.4795,-8017.6529)"
       id="g3393"
       style="fill:none;stroke:#000000;stroke-opacity:1" />
    <g
       transform="matrix(1.25,0,0,1.25,1046.4795,-8017.6529)"
       id="g3397"
       style="fill:none;stroke:#000000;stroke-opacity:1" />
    <g
       transform="matrix(1.25,0,0,1.25,1046.4795,-8017.6529)"
       id="g3401"
       style="fill:none;stroke:#000000;stroke-opacity:1" />
    <g
       transform="matrix(1.25,0,0,1.25,1046.4795,-8017.6529)"
       id="g3405"
       style="fill:none;stroke:#000000;stroke-opacity:1" />
    <g
       transform="matrix(1.25,0,0,1.25,1046.4795,-8017.6529)"
       id="g3409"
       style="fill:none;stroke:#000000;stroke-opacity:1" />
    <g
       transform="matrix(1.25,0,0,1.25,1046.4795,-8017.6529)"
       id="g3413"
       style="fill:none;stroke:#000000;stroke-opacity:1" />
    <g
       transform="matrix(1.25,0,0,1.25,1046.4795,-8017.6529)"
       id="g3417"
       style="fill:none;stroke:#000000;stroke-opacity:1" />
    <g
       transform="matrix(1.25,0,0,1.25,1046.4795,-8017.6529)"
       id="g3421"
       style="fill:none;stroke:#000000;stroke-opacity:1" />
    <g
       transform="matrix(1.25,0,0,1.25,1046.4795,-8017.6529)"
       id="g3425"
       style="fill:none;stroke:#000000;stroke-opacity:1" />
    <g
       transform="matrix(1.25,0,0,1.25,1046.4795,-8017.6529)"
       id="g3429"
       style="fill:none;stroke:#000000;stroke-opacity:1" />
    <g
       transform="matrix(1.25,0,0,1.25,1046.4795,-8017.6529)"
       id="g3433"
       style="fill:none;stroke:#000000;stroke-opacity:1" />
    <g
       transform="matrix(1.25,0,0,1.25,1046.4795,-8017.6529)"
       id="g3437"
       style="fill:none;stroke:#000000;stroke-opacity:1" />
    <g
       transform="matrix(1.25,0,0,1.25,1046.4795,-8017.6529)"
       id="g3441"
       style="fill:none;stroke:#000000;stroke-opacity:1" />
    <g
       transform="matrix(1.25,0,0,1.25,1046.4795,-8017.6529)"
       id="g3445"
       style="fill:none;stroke:#000000;stroke-opacity:1" />
    <g
       transform="matrix(1.25,0,0,1.25,1046.4795,-8017.6529)"
       id="g3449"
       style="fill:none;stroke:#000000;stroke-opacity:1" />
    <g
       transform="matrix(1.25,0,0,1.25,1046.4795,-8017.6529)"
       id="g3453"
       style="fill:none;stroke:#000000;stroke-opacity:1" />
    <g
       transform="matrix(1.25,0,0,1.25,1046.4795,-8017.6529)"
       id="g3457"
       style="fill:none;stroke:#000000;stroke-opacity:1" />
    <g
       transform="matrix(1.25,0,0,1.25,1046.4795,-8017.6529)"
       id="g3461"
       style="fill:none;stroke:#000000;stroke-opacity:1" />
    <g
       transform="matrix(1.25,0,0,1.25,1046.4795,-8017.6529)"
       id="g3465"
       style="fill:none;stroke:#000000;stroke-opacity:1" />
    <g
       transform="matrix(1.25,0,0,1.25,1046.4795,-8017.6529)"
       id="g3469"
       style="fill:none;stroke:#000000;stroke-opacity:1" />
    <g
       transform="matrix(1.25,0,0,1.25,1046.4795,-8017.6529)"
       id="g3473"
       style="fill:none;stroke:#000000;stroke-opacity:1" />
    <g
       transform="matrix(1.25,0,0,1.25,1046.4795,-8017.6529)"
       id="g3477"
       style="fill:none;stroke:#000000;stroke-opacity:1" />
    <g
       transform="matrix(1.25,0,0,1.25,1046.4795,-8017.6529)"
       id="g3481"
       style="fill:none;stroke:#000000;stroke-opacity:1" />
    <g
       transform="matrix(1.25,0,0,1.25,1046.4795,-8017.6529)"
       id="g3485"
       style="fill:none;stroke:#000000;stroke-opacity:1" />
    <g
       transform="matrix(1.25,0,0,1.25,1046.4795,-8017.6529)"
       id="g3489"
       style="fill:none;stroke:#000000;stroke-opacity:1" />
    <g
       transform="matrix(1.25,0,0,1.25,1046.4795,-8017.6529)"
       id="g3493"
       style="fill:none;stroke:#000000;stroke-opacity:1" />
    <g
       transform="matrix(1.25,0,0,1.25,1046.4795,-8017.6529)"
       id="g3497"
       style="fill:none;stroke:#000000;stroke-opacity:1" />
    <g
       transform="matrix(1.25,0,0,1.25,1046.4795,-8017.6529)"
       id="g3501"
       style="fill:none;stroke:#000000;stroke-opacity:1" />
    <g
       transform="matrix(1.25,0,0,1.25,1046.4795,-8017.6529)"
       id="g3505"
       style="fill:none;stroke:#000000;stroke-opacity:1" />
    <g
       transform="matrix(1.25,0,0,1.25,1046.4795,-8017.6529)"
       id="g3509"
       style="fill:none;stroke:#000000;stroke-opacity:1" />
    <g
       transform="matrix(1.25,0,0,1.25,1046.4795,-8017.6529)"
       id="g3513"
       style="fill:none;stroke:#000000;stroke-opacity:1" />
    <g
       transform="matrix(1.25,0,0,1.25,1046.4795,-8017.6529)"
       id="g3517"
       style="fill:none;stroke:#000000;stroke-opacity:1" />
    <g
       transform="matrix(1.25,0,0,1.25,1046.4795,-8017.6529)"
       id="g3525"
       style="fill:none;stroke:#000000;stroke-opacity:1" />
    <g
       transform="matrix(1.25,0,0,1.25,1046.4795,-8017.6529)"
       id="g3529"
       style="fill:none;stroke:#000000;stroke-opacity:1" />
    <g
       transform="matrix(1.25,0,0,1.25,1046.4795,-8017.6529)"
       id="g3533"
       style="fill:none;stroke:#000000;stroke-opacity:1" />
    <g
       transform="matrix(1.25,0,0,1.25,1046.4795,-8017.6529)"
       id="g3537"
       style="fill:none;stroke:#000000;stroke-opacity:1" />
    <g
       transform="matrix(1.25,0,0,1.25,1046.4795,-8017.6529)"
       id="g3541"
       style="fill:none;stroke:#000000;stroke-opacity:1" />
    <g
       transform="matrix(1.25,0,0,1.25,1046.4795,-8017.6529)"
       id="g3545"
       style="fill:none;stroke:#000000;stroke-opacity:1" />
    <g
       transform="matrix(1.25,0,0,1.25,1046.4795,-8017.6529)"
       id="g3549"
       style="fill:none;stroke:#000000;stroke-opacity:1" />
    <g
       transform="matrix(1.25,0,0,1.25,1046.4795,-8017.6529)"
       id="g3553"
       style="fill:none;stroke:#000000;stroke-opacity:1" />
    <g
       transform="matrix(1.25,0,0,1.25,1046.4795,-8017.6529)"
       id="g3557"
       style="fill:none;stroke:#000000;stroke-opacity:1" />
    <g
       transform="matrix(1.25,0,0,1.25,1046.4795,-8017.6529)"
       id="g3561"
       style="fill:none;stroke:#000000;stroke-opacity:1" />
    <g
       transform="matrix(1.25,0,0,1.25,1046.4795,-8017.6529)"
       id="g3565"
       style="fill:none;stroke:#000000;stroke-opacity:1" />
    <g
       transform="matrix(1.25,0,0,1.25,1046.4795,-8017.6529)"
       id="g3569"
       style="fill:none;stroke:#000000;stroke-opacity:1" />
    <g
       transform="matrix(1.25,0,0,1.25,1046.4795,-8017.6529)"
       id="g3573"
       style="fill:none;stroke:#000000;stroke-opacity:1" />
    <g
       transform="matrix(1.25,0,0,1.25,1046.4795,-8017.6529)"
       id="g3581"
       style="fill:none;stroke:#000000;stroke-opacity:1" />
    <g
       transform="matrix(1.25,0,0,1.25,1046.4795,-8017.6529)"
       id="g3585"
       style="fill:none;stroke:#000000;stroke-opacity:1" />
    <g
       transform="matrix(1.25,0,0,1.25,1046.4795,-8017.6529)"
       id="g3589"
       style="fill:none;stroke:#000000;stroke-opacity:1" />
    <g
       transform="matrix(1.25,0,0,1.25,1046.4795,-8017.6529)"
       id="g3593"
       style="fill:none;stroke:#000000;stroke-opacity:1" />
    <g
       transform="matrix(1.25,0,0,1.25,1046.4795,-8017.6529)"
       id="g3597"
       style="fill:none;stroke:#000000;stroke-opacity:1" />
    <g
       transform="matrix(1.25,0,0,1.25,1046.4795,-8017.6529)"
       id="g3601"
       style="fill:none;stroke:#000000;stroke-opacity:1" />
    <g
       transform="matrix(1.25,0,0,1.25,1046.4795,-8017.6529)"
       id="g3605"
       style="fill:none;stroke:#000000;stroke-opacity:1" />
    <g
       transform="matrix(1.25,0,0,1.25,1046.4795,-8017.6529)"
       id="g3609"
       style="fill:none;stroke:#000000;stroke-opacity:1" />
    <g
       transform="matrix(1.25,0,0,1.25,1046.4795,-8017.6529)"
       id="g3613"
       style="fill:none;stroke:#000000;stroke-opacity:1" />
    <g
       transform="matrix(1.25,0,0,1.25,1046.4795,-8017.6529)"
       id="g3617"
       style="fill:none;stroke:#000000;stroke-opacity:1" />
    <g
       transform="matrix(1.25,0,0,1.25,1046.4795,-8017.6529)"
       id="g3621"
       style="fill:none;stroke:#000000;stroke-opacity:1" />
    <g
       transform="matrix(1.25,0,0,1.25,1046.4795,-8017.6529)"
       id="g3625"
       style="fill:none;stroke:#000000;stroke-opacity:1" />
    <g
       transform="matrix(1.25,0,0,1.25,1046.4795,-8017.6529)"
       id="g3629"
       style="fill:none;stroke:#000000;stroke-opacity:1" />
    <g
       transform="matrix(1.25,0,0,1.25,1046.4795,-8017.6529)"
       id="g3633"
       style="fill:none;stroke:#000000;stroke-opacity:1" />
    <g
       transform="matrix(1.25,0,0,1.25,1046.4795,-8017.6529)"
       id="g3637"
       style="fill:none;stroke:#000000;stroke-opacity:1" />
    <g
       transform="matrix(1.25,0,0,1.25,1046.4795,-8017.6529)"
       id="g3641"
       style="fill:none;stroke:#000000;stroke-opacity:1" />
    <g
       transform="matrix(1.25,0,0,1.25,1046.4795,-8017.6529)"
       id="g3645"
       style="fill:none;stroke:#000000;stroke-opacity:1" />
    <g
       transform="matrix(1.25,0,0,1.25,1046.4795,-8017.6529)"
       id="g3649"
       style="fill:none;stroke:#000000;stroke-opacity:1" />
    <g
       transform="matrix(1.25,0,0,1.25,1046.4795,-8017.6529)"
       id="g3653"
       style="fill:none;stroke:#000000;stroke-opacity:1" />
    <g
       transform="matrix(1.25,0,0,1.25,1046.4795,-8017.6529)"
       id="g3657"
       style="fill:none;stroke:#000000;stroke-opacity:1" />
    <g
       transform="matrix(1.25,0,0,1.25,1046.4795,-8017.6529)"
       id="g3661"
       style="fill:none;stroke:#000000;stroke-opacity:1" />
    <g
       transform="matrix(1.25,0,0,1.25,1046.4795,-8017.6529)"
       id="g3665"
       style="fill:none;stroke:#000000;stroke-opacity:1" />
    <g
       transform="matrix(1.25,0,0,1.25,1046.4795,-8017.6529)"
       id="g3669"
       style="fill:none;stroke:#000000;stroke-opacity:1" />
    <g
       transform="matrix(1.25,0,0,1.25,1046.4795,-8017.6529)"
       id="g3673"
       style="fill:none;stroke:#000000;stroke-opacity:1" />
    <g
       transform="matrix(1.25,0,0,1.25,1046.4795,-8017.6529)"
       id="g3677"
       style="fill:none;stroke:#000000;stroke-opacity:1" />
    <g
       transform="matrix(1.25,0,0,1.25,1046.4795,-8017.6529)"
       id="g3681"
       style="fill:none;stroke:#000000;stroke-opacity:1" />
    <g
       transform="matrix(1.25,0,0,1.25,1046.4795,-8017.6529)"
       id="g3685"
       style="fill:none;stroke:#000000;stroke-opacity:1" />
    <g
       transform="matrix(1.25,0,0,1.25,1046.4795,-8017.6529)"
       id="g3689"
       style="fill:none;stroke:#000000;stroke-opacity:1" />
    <g
       transform="matrix(1.25,0,0,1.25,1046.4795,-8017.6529)"
       id="g3693"
       style="fill:none;stroke:#000000;stroke-opacity:1" />
    <g
       transform="matrix(1.25,0,0,1.25,1046.4795,-8017.6529)"
       id="g3697"
       style="fill:none;stroke:#000000;stroke-opacity:1" />
    <g
       transform="matrix(1.25,0,0,1.25,1046.4795,-8017.6529)"
       id="g3701"
       style="fill:none;stroke:#000000;stroke-opacity:1" />
    <g
       transform="matrix(1.25,0,0,1.25,1046.4795,-8017.6529)"
       id="g3705"
       style="fill:none;stroke:#000000;stroke-opacity:1" />
    <g
       transform="matrix(1.25,0,0,1.25,1046.4795,-8017.6529)"
       id="g3709"
       style="fill:none;stroke:#000000;stroke-opacity:1" />
    <g
       transform="matrix(1.25,0,0,1.25,1046.4795,-8017.6529)"
       id="g3713"
       style="fill:none;stroke:#000000;stroke-opacity:1" />
    <g
       transform="matrix(1.25,0,0,1.25,1046.4795,-8017.6529)"
       id="g3717"
       style="fill:none;stroke:#000000;stroke-opacity:1" />
    <g
       transform="matrix(1.25,0,0,1.25,1046.4795,-8017.6529)"
       id="g3721"
       style="fill:none;stroke:#000000;stroke-opacity:1" />
    <g
       transform="matrix(1.25,0,0,1.25,1046.4795,-8017.6529)"
       id="g3725"
       style="fill:none;stroke:#000000;stroke-opacity:1" />
    <g
       transform="matrix(1.25,0,0,1.25,1046.4795,-8017.6529)"
       id="g3729"
       style="fill:none;stroke:#000000;stroke-opacity:1" />
    <g
       transform="matrix(1.25,0,0,1.25,1046.4795,-8017.6529)"
       id="g3733"
       style="fill:none;stroke:#000000;stroke-opacity:1" />
    <g
       transform="matrix(1.25,0,0,1.25,1046.4795,-8017.6529)"
       id="g3737"
       style="fill:none;stroke:#000000;stroke-opacity:1" />
    <g
       transform="matrix(1.25,0,0,1.25,1046.4795,-8017.6529)"
       id="g3741"
       style="fill:none;stroke:#000000;stroke-opacity:1" />
    <g
       transform="matrix(1.25,0,0,1.25,1046.4795,-8017.6529)"
       id="g3745"
       style="fill:none;stroke:#000000;stroke-opacity:1" />
    <g
       transform="matrix(1.25,0,0,1.25,1046.4795,-8017.6529)"
       id="g3749"
       style="fill:none;stroke:#000000;stroke-opacity:1" />
    <g
       transform="matrix(1.25,0,0,1.25,1046.4795,-8017.6529)"
       id="g3753"
       style="fill:none;stroke:#000000;stroke-opacity:1" />
    <g
       transform="matrix(1.25,0,0,1.25,1046.4795,-8017.6529)"
       id="g3757"
       style="fill:none;stroke:#000000;stroke-opacity:1" />
    <g
       transform="matrix(1.25,0,0,1.25,1046.4795,-8017.6529)"
       id="g3761"
       style="fill:none;stroke:#000000;stroke-opacity:1" />
    <g
       transform="matrix(1.25,0,0,1.25,1046.4795,-8017.6529)"
       id="g3765"
       style="fill:none;stroke:#000000;stroke-opacity:1" />
    <g
       transform="matrix(1.25,0,0,1.25,1046.4795,-8017.6529)"
       id="g3769"
       style="fill:none;stroke:#000000;stroke-opacity:1" />
    <g
       transform="matrix(1.25,0,0,1.25,1046.4795,-8017.6529)"
       id="g3773"
       style="fill:none;stroke:#000000;stroke-opacity:1" />
    <g
       transform="matrix(1.25,0,0,1.25,1046.4795,-8017.6529)"
       id="g3777"
       style="fill:none;stroke:#000000;stroke-opacity:1" />
    <g
       transform="matrix(1.25,0,0,1.25,1046.4795,-8017.6529)"
       id="g3781"
       style="fill:none;stroke:#000000;stroke-opacity:1" />
    <g
       transform="matrix(1.25,0,0,1.25,1046.4795,-8017.6529)"
       id="g3785"
       style="fill:none;stroke:#000000;stroke-opacity:1" />
    <g
       transform="matrix(1.25,0,0,1.25,1046.4795,-8017.6529)"
       id="g3789"
       style="fill:none;stroke:#000000;stroke-opacity:1" />
    <g
       transform="matrix(1.25,0,0,1.25,1046.4795,-8017.6529)"
       id="g3793"
       style="fill:none;stroke:#000000;stroke-opacity:1" />
    <g
       transform="matrix(1.25,0,0,1.25,1046.4795,-8017.6529)"
       id="g3797"
       style="fill:none;stroke:#000000;stroke-opacity:1" />
    <g
       transform="matrix(1.25,0,0,1.25,1046.4795,-8017.6529)"
       id="g3803"
       style="fill:none;stroke:#000000;stroke-opacity:1" />
    <g
       transform="matrix(1.25,0,0,1.25,1046.4795,-8017.6529)"
       id="g3807"
       style="fill:none;stroke:#000000;stroke-opacity:1" />
    <g
       transform="matrix(1.25,0,0,1.25,1046.4795,-8017.6529)"
       id="g3811"
       style="fill:none;stroke:#000000;stroke-opacity:1" />
    <g
       transform="matrix(1.25,0,0,1.25,1046.4795,-8017.6529)"
       id="g3817"
       style="fill:none;stroke:#000000;stroke-opacity:1" />
    <g
       transform="matrix(1.25,0,0,1.25,1046.4795,-8017.6529)"
       id="g3821"
       style="fill:none;stroke:#000000;stroke-opacity:1" />
    <g
       transform="matrix(1.25,0,0,1.25,1046.4795,-8017.6529)"
       id="g3833"
       style="fill:none;stroke:#000000;stroke-opacity:1" />
    <g
       transform="matrix(1.25,0,0,1.25,1046.4795,-8017.6529)"
       id="g3837"
       style="fill:none;stroke:#000000;stroke-opacity:1" />
    <g
       transform="matrix(1.25,0,0,1.25,1046.4795,-8017.6529)"
       id="g3841"
       style="fill:none;stroke:#000000;stroke-opacity:1" />
    <g
       transform="matrix(1.25,0,0,1.25,1046.4795,-8017.6529)"
       id="g3845"
       style="fill:none;stroke:#000000;stroke-opacity:1" />
    <g
       transform="matrix(1.25,0,0,1.25,1046.4795,-8017.6529)"
       id="g3849"
       style="fill:none;stroke:#000000;stroke-opacity:1" />
    <g
       transform="matrix(1.25,0,0,1.25,1046.4795,-8017.6529)"
       id="g3853"
       style="fill:none;stroke:#000000;stroke-opacity:1" />
    <g
       transform="matrix(1.25,0,0,1.25,1046.4795,-8017.6529)"
       id="g3857"
       style="fill:none;stroke:#000000;stroke-opacity:1" />
    <g
       transform="matrix(1.25,0,0,1.25,1046.4795,-8017.6529)"
       id="g3865"
       style="fill:none;stroke:#000000;stroke-opacity:1" />
    <g
       transform="matrix(1.25,0,0,1.25,1046.4795,-8017.6529)"
       id="g3869"
       style="fill:none;stroke:#000000;stroke-opacity:1" />
    <g
       transform="matrix(1.25,0,0,1.25,1046.4795,-8017.6529)"
       id="g3885"
       style="fill:none;stroke:#000000;stroke-opacity:1" />
    <g
       style="font-size:123.45613097999998331px;font-style:normal;font-weight:normal;line-height:125%;letter-spacing:0px;word-spacing:0px;fill:none;fill-opacity:1;stroke:#000000;font-family:Sans;stroke-opacity:1"
       id="text6869" />
    <g
       style="font-size:123.45613097999998331px;font-style:normal;font-weight:normal;line-height:125%;letter-spacing:0px;word-spacing:0px;fill:none;fill-opacity:1;stroke:#000000;font-family:Sans;stroke-opacity:1"
       id="text6875" />
    <g
       style="font-size:123.45613097999998331px;font-style:normal;font-weight:normal;line-height:125%;letter-spacing:0px;word-spacing:0px;fill:none;fill-opacity:1;stroke:#000000;font-family:Sans;stroke-opacity:1"
       id="text9052" />
    <g
       style="font-size:123.45613097999998331px;font-style:normal;font-weight:normal;line-height:125%;letter-spacing:0px;word-spacing:0px;fill:none;fill-opacity:1;stroke:#000000;font-family:Sans;stroke-opacity:1"
       id="text10801" />
    <g
       style="font-size:123.45613097999998331px;font-style:normal;font-weight:normal;line-height:125%;letter-spacing:0px;word-spacing:0px;fill:none;fill-opacity:1;stroke:#000000;font-family:Sans;stroke-opacity:1"
       id="text10805">
      <path
         id="path10810"
         style="fill:none;stroke:#000000;stroke-opacity:1"
         d="m 1333.6152,720.20601 c -6.2693,8e-5 -10.9913,3.09452 -14.1661,9.28332 -3.1347,6.14876 -4.702,15.41198 -4.7019,27.78969 -10e-5,12.33761 1.5672,21.60083 4.7019,27.78969 3.1748,6.1487 7.8968,9.22304 14.1661,9.22304 6.3094,0 11.0314,-3.07434 14.1661,-9.22304 3.1748,-6.18886 4.7622,-15.45208 4.7622,-27.78969 0,-12.37771 -1.5874,-21.64093 -4.7622,-27.78969 -3.1347,-6.1888 -7.8567,-9.28324 -14.1661,-9.28332 m 0,-9.64501 c 10.087,9e-5 17.7829,3.99875 23.0877,11.99598 5.3449,7.95721 8.0174,19.53121 8.0175,34.72204 -10e-5,15.15073 -2.6726,26.72473 -8.0175,34.72204 -5.3048,7.95713 -13.0007,11.93569 -23.0877,11.9357 -10.0871,-1e-5 -17.8031,-3.97857 -23.148,-11.9357 -5.3048,-7.99731 -7.9572,-19.57131 -7.9572,-34.72204 0,-15.19083 2.6524,-26.76483 7.9572,-34.72204 5.3449,-7.99723 13.0609,-11.99589 23.148,-11.99598 m 1772.0695,81.37978 19.8929,0 0,-68.66042 -21.641,4.34025 0,-11.09176 21.5204,-4.34025 12.1768,0 0,79.75218 19.8929,0 0,10.24782 -51.842,0 0,-10.24782 M 1333.6152,-3124.7541 c -6.2693,1e-4 -10.9913,3.0945 -14.1661,9.2834 -3.1347,6.1487 -4.702,15.4119 -4.7019,27.7896 -10e-5,12.3376 1.5672,21.6009 4.7019,27.7897 3.1748,6.1487 7.8968,9.2231 14.1661,9.2231 6.3094,0 11.0314,-3.0744 14.1661,-9.2231 3.1748,-6.1888 4.7622,-15.4521 4.7622,-27.7897 0,-12.3777 -1.5874,-21.6409 -4.7622,-27.7896 -3.1347,-6.1889 -7.8567,-9.2833 -14.1661,-9.2834 m 0,-9.645 c 10.087,1e-4 17.7829,3.9988 23.0877,11.996 5.3449,7.9572 8.0174,19.5312 8.0175,34.722 -10e-5,15.1508 -2.6726,26.7248 -8.0175,34.7221 -5.3048,7.9571 -13.0007,11.9357 -23.0877,11.9357 -10.0871,0 -17.8031,-3.9786 -23.148,-11.9357 -5.3048,-7.9973 -7.9572,-19.5713 -7.9572,-34.7221 0,-15.1908 2.6524,-26.7648 7.9572,-34.722 5.3449,-7.9972 13.0609,-11.9959 23.148,-11.996 m 1772.0695,81.3798 19.8929,0 0,-68.6604 -21.641,4.3402 0,-11.0917 21.5204,-4.3403 12.1768,0 0,79.7522 19.8929,0 0,10.2478 -51.842,0 0,-10.2478 m -302.4427,3674.69265 -119.9463,-177.2075 -100.6737,0.3275 119.2625,176.885 101.3575,0 z m 207.3638,0 118.535,-178.6725 -100.6738,0.3325 -118.3787,178.34 100.5175,0 z m -367.6125,0 -130.435,-193.6525 214.6737,-323.59375 -100.6737,0.3325 -171.275,258.03125 -173.8913,-256.90375 -58.745,0.19 0,62.325 181.85,269.71125 -120.2587,183.56 100.7425,0 77.72,-118.335 79.3937,118.335 100.8988,0 z m 385.4737,-902.1675 -171.28,258.03625 -173.8912,-256.90875 -100.6738,0.3275 223.78,331.90375 -236.3575,360.77625 100.6737,-0.33125 193.8863,-295.225 197.2075,293.945 101.1375,-0.3275 -248.4813,-368.935 214.6726,-323.59375 -100.6738,0.3325 m -805.82,355.375 46.1663,-0.15125 193.8875,-295.22375 197.2062,293.945 101.1375,-0.3275 -248.4862,-368.935 214.6737,-323.58875 -100.6737,0.32625 -171.275,258.0375 -173.8913,-256.90875 -58.745,0.19 0,62.32375 181.85,269.7175 -181.85,277.5725 0,83.0225 z m 805.82,-1079.20875 -171.28,258.0375 -173.8912,-256.9088 -100.6738,0.3313 223.78,331.9 -236.3575,360.77625 100.6737,-0.3275 193.8863,-295.225 197.2075,293.94625 101.1375,-0.3325 -248.4813,-368.935 214.6726,-323.59 -100.6738,0.3275 m -805.82,355.38125 46.1663,-0.15125 193.8875,-295.225 197.2062,293.945 101.1375,-0.33125 -248.4862,-368.93125 214.6737,-323.5938 -100.6737,0.3275 -171.275,258.0375 -173.8913,-256.905 -58.745,0.19 0,62.325 181.85,269.7113 -181.85,277.57875 0,83.0225 z m 805.82,-1079.20875 -171.28,258.0363 -173.8912,-256.9088 -100.6738,0.3275 223.78,331.8987 -236.3575,360.7763 100.6737,-0.3263 193.8863,-295.225 197.2075,293.945 101.1375,-0.3312 -248.4813,-368.9313 214.6726,-323.5937 -100.6738,0.3325 m -805.82,355.375 46.1663,-0.1513 193.8875,-295.2237 197.2062,293.945 101.1375,-0.3275 -248.4862,-368.935 214.6737,-323.5938 -100.6737,0.3313 -171.275,258.0375 -173.8913,-256.9088 -58.745,0.19 0,62.3238 181.85,269.7175 -181.85,277.5725 0,83.0225 z m 805.82,-1079.2088 -171.28,258.0375 -173.8912,-256.9087 -100.6738,0.3312 223.78,331.9 -236.3575,360.7763 100.6737,-0.3325 193.8863,-295.22 197.2075,293.9462 101.1375,-0.3325 -248.4813,-368.935 214.6726,-323.5887 -100.6738,0.3262 m -805.82,355.3763 46.1663,-0.1462 193.8875,-295.2251 197.2062,293.945 101.1375,-0.3312 -248.4862,-368.9363 214.6737,-323.5887 -100.6737,0.3275 -171.275,258.0375 -173.8913,-256.91 -58.745,0.1962 0,62.3188 181.85,269.7162 -181.85,277.5738 0,83.0225 z m 866.3575,-902.3187 -117.0562,178.6662 100.6737,-0.3275 117.1238,-178.3387 -100.7413,0 z m -388.1012,0 105.4987,156.4687 -236.3575,360.7763 100.6737,-0.3263 193.8863,-295.225 197.2075,293.945 101.1375,-0.3313 -248.4813,-368.9312 97.1038,-146.3763 -100.5175,0 -53.8675,81.1475 -54.9262,-81.1475 -101.3576,0 z m -478.2563,178.4912 46.1663,-0.1525 117.1237,-178.3387 -100.7462,0 -62.5438,95.4687 0,83.0225 z m 318.4713,-178.4912 118.7887,177.0599 101.1375,-0.3324 -119.0325,-176.7275 -100.8937,0 z m -322.1,1693.8374 9.8687,5.0388 -9.8687,-83.75 M 1312.4657,320.81835 c 52.9788,-63.33 106.9926,-79.4575 162.0413,-48.37375 41.6013,23.49125 58.6525,65.5275 51.1475,126.11375 -5.1463,41.5725 -25.3763,110.45875 -60.6888,206.66 l -53.6087,0.47875 c 25.8063,-78.50625 40.1613,-137.53 43.0662,-177.08 3.0188,-41.02625 -9.6475,-69.54125 -37.9975,-85.5475 -35.845,-20.23875 -70.4974,-12.55875 -103.96,23.0525 l 0,-45.30375 z m 246.7088,285.0975 178.8137,-174.50125 113.765,64.23875 -157.1237,110.24375 -135.455,0.0187 z m -246.6988,-147.84125 66.5425,37.57875 -66.5325,46.68375 -0.01,-84.2625 z m 0.024,-824.6825 c 44.1512,-64.20375 81.8512,-87.48 113.0963,-69.83875 27.9787,15.8 29.7075,45.42 5.1762,88.8625 -23.6825,41.9375 -63.0763,85.36125 -118.1838,130.2725 l -0.089,-149.29625 z m -0.024,625.205 6.885,3.88625 c -2.29,4.0575 -4.585,8.0225 -6.8799,11.9 l -0.01,-15.78625 z m 0.01,-167.6125 384.775,-269.985 c 22.5438,-52.8175 44.3113,-97.8225 65.3075,-135.005 58.4188,-103.4575 106.9538,-144.2725 145.61,-122.44125 27.9838,15.8 29.7075,45.42 5.1763,88.8625 -32.0113,56.69875 -92.7538,116.1125 -182.2163,178.24625 -21.8362,57.58875 -46.5875,127.8575 -74.2437,210.80625 -27.6613,82.94875 -42.9925,144.94125 -46.01,185.96625 -3.0138,41.02625 9.6525,69.54125 37.9975,85.5475 46.3912,26.19625 90.7862,5.62 133.1787,-61.72375 l 19.8825,11.225 c -68.6037,121.495 -138.9837,161.87 -211.1475,121.12375 -41.6012,-23.49125 -58.6525,-65.5275 -51.1475,-126.11375 7.505,-60.58625 47.0413,-179.18875 118.6138,-355.82 l -330.9425,322.96375 -14.8388,-8.37875 0.01,-125.27375 z m 905.2201,253.29125 c -50.455,55.76625 -101.8513,68.8775 -154.1751,39.33125 -41.6062,-23.49125 -58.6525,-65.5275 -51.1525,-126.11375 7.505,-60.58625 47.0463,-179.18875 118.6125,-355.82 L 1800.0482,224.6371 1686.2845,160.39835 2169.9857,-179.0004 c 16.3088,-38.20875 32.2113,-72.32875 47.71,-102.35375 l 0.3263,102.03125 c -4.6388,3.32 -9.355,6.645 -14.16,9.985 -21.835,57.58875 -46.5813,127.8575 -74.2425,210.80625 -27.6563,82.94875 -42.9937,144.94125 -46.0113,185.96625 -3.0124,41.02625 9.6538,69.54125 38.0025,85.5475 33.0476,18.6625 65.0838,13.58875 96.1038,-15.225 l -0.014,46.51875 z m 0,-758.06125 -81.4651,57.1625 c -22.5437,52.8175 -44.3125,97.8225 -65.3074,135.005 -58.4188,103.4575 -106.9538,144.2725 -145.6113,122.44125 -27.9825,-15.8 -29.7063,-45.42 -5.175,-88.8625 32.0112,-56.69875 92.7537,-116.1125 182.2162,-178.24625 21.8363,-57.58875 46.5875,-127.85625 74.2438,-210.80625 20.4487,-61.3325 34.165,-111.20625 41.1425,-149.61875 l 0.215,180.89875 c -12.6813,33.34 -26.9237,69.51125 -42.725,108.515 l 42.4663,-41.445 0,64.95625 z m 0.175,-395.04375 c -5.9526,-17.35375 -17.0363,-30.61625 -33.2613,-39.77625 -46.3912,-26.19625 -90.7863,-5.62 -133.1788,61.72375 l -19.8824,-11.225 c 60.6537,-107.4225 122.6999,-151.42625 186.1374,-132.0175 l 0.1851,121.295 z m -194.2826,48.56875 113.765,64.23875 -483.7012,339.39875 c -22.5438,52.8175 -44.3112,97.8225 -65.3075,135.005 -58.4175,103.4575 -106.9525,144.2725 -145.61,122.44125 -27.9838,-15.8 -29.7075,-45.42 -5.1762,-88.8625 32.0125,-56.69875 92.7537,-116.1125 182.2174,-178.24625 21.8351,-57.58875 46.5813,-127.85625 74.2425,-210.80625 27.6563,-82.94875 42.9938,-144.94125 46.0113,-185.96625 3.0125,-41.02625 -9.6538,-69.54125 -38.0038,-85.5475 -46.3862,-26.19625 -90.7812,-5.62 -133.1787,61.72375 l -19.8775,-11.225 c 68.5988,-121.495 138.985,-161.87 211.1425,-121.12375 41.6062,23.49125 58.6525,65.5275 51.1525,126.11375 -7.505,60.58125 -47.0463,179.18875 -118.6138,355.82 l 330.9375,-322.96375 z m -711.0487,-139.44875 c 23.0763,24.64375 31.7425,60.17125 25.9913,106.5925 -3.1013,25.04875 -11.68,60.015 -25.7325,104.9025 l -0.2588,-211.495 z m -0.054,372.07625 238.3737,-232.6275 113.765,64.23875 -352.1437,247.085 0.01,-78.69625 z m -0.025,-1354.8 61.1238,-59.6538 113.7637,64.2338 -174.8824,122.715 -0.01,-127.295 z m 0.01,660.3025 197.6612,-138.6963 c 22.5437,-52.8225 44.3112,-97.8225 65.3075,-135.01 58.4175,-103.4525 106.9525,-144.2675 145.615,-122.4362 27.9788,15.7962 29.7025,45.42 5.1712,88.8625 -32.0112,56.6988 -92.7537,116.1125 -182.2175,178.2425 -21.835,57.5925 -46.5812,127.8612 -74.2425,210.81 -27.6562,82.9488 -42.9937,144.93625 -46.0112,185.96125 -3.0125,41.03125 9.6538,69.54625 38.0037,85.5525 46.3863,26.19625 90.7813,5.62 133.1788,-61.72375 l 19.8775,11.225 c -68.5988,121.495 -138.985,161.87125 -211.1425,121.12375 -41.6063,-23.49125 -58.6525,-65.5275 -51.1525,-126.11375 7.505,-60.585 47.0462,-179.1887 118.6137,-355.82 l -158.6624,154.8388 0,-96.8163 z m 905.3862,-325.3863 c -2.4613,5.7425 -5.4738,11.7775 -9.0487,18.1063 -32.0163,56.6987 -92.7538,116.1125 -182.2213,178.2425 -21.8362,57.5925 -46.5825,127.8612 -74.2438,210.81 -27.6562,82.9487 -42.9924,144.93625 -46.0099,185.96125 -3.0126,41.03125 9.6524,69.54625 38.0025,85.5525 46.3875,26.19625 90.7812,5.62 133.1787,-61.72375 l 19.8825,11.225 c -68.6025,121.495 -138.9837,161.87125 -211.1475,121.12375 -41.6012,-23.49125 -58.6512,-65.5275 -51.1475,-126.11375 7.5,-60.585 47.0413,-179.1887 118.6137,-355.82 l -330.9425,322.96375 -113.765,-64.23875 483.7013,-339.3988 c 22.545,-52.8224 44.3175,-97.8224 65.3125,-135.0099 58.4137,-103.4525 106.9537,-144.2675 145.6112,-122.4363 5.8588,3.305 10.5713,7.2263 14.125,11.7475 l 0.099,59.0088 z m -0.1613,471.08 -122.1925,119.24755 -113.765,-64.23875 235.9663,-165.5663 -0.01,110.5575 z m 0.01,-650.4737 -268.5901,188.4562 c -22.5387,52.8225 -44.3112,97.8275 -65.3074,135.01 -58.4175,103.4575 -106.9525,144.2675 -145.61,122.4413 -27.9788,-15.8 -29.7075,-45.42 -5.1763,-88.8663 32.0175,-56.695 92.755,-116.1087 182.2225,-178.2424 21.8363,-57.5875 46.5813,-127.8613 74.2375,-210.8113 27.6613,-82.9488 42.9988,-144.9363 46.0113,-185.9613 3.0175,-41.025 -9.6488,-69.5412 -37.9975,-85.5525 -46.3925,-26.1912 -90.7813,-5.615 -133.1788,61.7288 l -19.8837,-11.225 c 68.6037,-121.495 138.985,-161.87 211.1475,-121.1238 41.6025,23.4913 58.6525,65.5275 51.1475,126.1138 -7.5051,60.5812 -47.04,179.19 -118.6125,355.815 l 229.5937,-224.0575 -0,116.275 z m -905.4301,287.9387 c 33.0275,-35.4 76.435,-71.7775 130.2338,-109.14 21.8362,-57.5875 46.5875,-127.8612 74.2437,-210.8112 27.6613,-82.9488 42.9926,-144.9363 46.01,-185.9613 3.0138,-41.025 -9.6525,-69.5412 -37.9974,-85.5525 -46.3913,-26.1912 -90.7863,-5.615 -133.1788,61.7288 l -19.8825,-11.225 c 68.6037,-121.495 138.9837,-161.87 211.1475,-121.1238 41.6013,23.4913 58.6525,65.5275 51.1475,126.1138 -7.505,60.5812 -47.0413,179.19 -118.6138,355.815 l 330.9426,-322.9588 113.7599,64.2338 -483.7012,339.3987 c -22.5438,52.8225 -44.3113,97.8275 -65.3075,135.01 -36.7925,65.1613 -69.6688,105.4688 -98.6188,120.9325 l -0.1849,-156.46 z m 0.215,-1086.45 10.5225,-7.3825 c 22.5438,-52.8225 44.3163,-97.8225 65.3125,-135.01 58.4125,-103.4525 106.9525,-144.2675 145.6101,-122.4412 27.9787,15.8012 29.7075,45.425 5.1762,88.8675 -32.0175,56.6987 -92.755,116.1125 -182.2225,178.2412 -13.6225,35.9338 -28.3788,76.8025 -44.2725,122.6075 l -0.1263,-124.8825 z m 0.01,495.6013 c 32.8212,0.3212 64.5937,-23.9213 95.3212,-72.725 l 19.8837,11.225 c -37.8612,67.0462 -76.265,109.39 -115.2049,127.0275 l 0,-65.5275 z m 123.1587,-99.3463 -113.765,-64.2387 483.7062,-339.3988 c 22.5438,-52.8225 44.3113,-97.8225 65.3075,-135.01 58.4188,-103.4525 106.9538,-144.2675 145.61,-122.4412 27.9838,15.8012 29.7075,45.425 5.1763,88.8675 -32.0163,56.6987 -92.7538,116.1125 -182.2213,178.2412 -21.8362,57.5938 -46.5825,127.8625 -74.2387,210.8113 -27.6612,82.9487 -42.9975,144.9362 -46.01,185.9612 -3.0188,41.0263 9.6475,69.5463 37.9975,85.5525 46.3913,26.1913 90.7813,5.62 133.1788,-61.7237 l 19.8824,11.225 c -68.6037,121.495 -138.9837,161.8662 -211.1474,121.1237 -41.6013,-23.4912 -58.6526,-65.5325 -51.1476,-126.1137 7.505,-60.5863 47.0413,-179.1888 118.6138,-355.82 l -330.9425,322.9637 z m 782.055,173.96 c -15.2,-1.3187 -30.4825,-6.3187 -45.8488,-14.99 -41.6012,-23.4912 -58.6525,-65.5325 -51.1475,-126.1137 6.7038,-54.1213 38.9751,-154.55 96.8063,-301.2788 l 0.079,150.0825 c -14.9274,51.235 -23.4825,91.6113 -25.65,121.1325 -2.5337,34.4738 6.0063,60.1075 25.6101,76.92 l 0.1512,94.2475 z m 0,-475.825 -309.3213,301.865 -113.7587,-64.2387 423.08,-296.865 0,59.2387 z m -0.057,-219.2487 c -13.0712,27.735 -25.865,52.6862 -38.3837,74.8587 -58.4188,103.4575 -106.9538,144.2675 -145.6113,122.4413 -27.9825,-15.8 -29.7063,-45.425 -5.175,-88.8663 32.0112,-56.7 92.7537,-116.1137 182.2162,-178.2425 2.2613,-5.9525 4.5463,-12.0462 6.865,-18.2662 l 0.089,88.075 z m -43.795,-349.14 -411.86,288.9888 c -22.5437,52.8224 -44.3112,97.8224 -65.3125,135.0099 -58.4125,103.4575 -106.9525,144.2675 -145.61,122.4413 -27.9788,-15.8 -29.7025,-45.425 -5.1763,-88.8662 32.0175,-56.7 92.7588,-116.1138 182.2226,-178.2425 21.835,-57.5888 46.5812,-127.8613 74.2424,-210.8113 8.2626,-24.785 15.4251,-47.695 21.4901,-68.74 l 56.235,-0.3125 c -19.4338,57.0613 -45.7963,126.675 -79.0976,208.8475 l 213.4575,-208.305 159.4088,-0.012 z m -472.7287,0 -388.6475,272.7 -0.059,-153.1 c 5.605,-16.455 11.3425,-33.4825 17.2075,-51.08 8.2663,-24.78 15.4288,-47.695 21.4938,-68.735 l 56.23,-0.3175 c -19.4288,57.0563 -45.79,126.675 -79.0913,208.8475 l 213.4475,-208.3 159.4188,-0.015 z m 340.6349,3605.33625 175.9325,-171.69375 0.01,143.26625 -40.4788,28.39875 -135.4638,0.0287 z m 177.1963,-1888.81745 c -24.9412,-16.2163 -25.62,-45.205 -2.04,-86.9675 0.6638,-1.1725 1.3375,-2.3438 2.0262,-3.5213 M 1895.2545,605.6971 c 25.805,-78.50625 40.16,-137.53 43.0662,-177.08 3.0175,-41.02625 -9.6487,-69.54125 -37.9987,-85.5475 -46.3912,-26.19625 -90.7813,-5.62 -133.1788,61.72375 l -19.8824,-11.225 c 68.6037,-121.495 138.985,-161.87125 211.1475,-121.12375 41.6012,23.49125 58.6525,65.5275 51.1475,126.11375 -5.1463,41.5725 -25.3813,110.45875 -60.6938,206.665 l -53.6075,0.47375 z" />
    </g>
  </g>
</svg>
