<?xml version="1.0" encoding="UTF-8" standalone="no"?>
<!-- Created with Inkscape (http://www.inkscape.org/) -->

<svg
   xmlns:dc="http://purl.org/dc/elements/1.1/"
   xmlns:cc="http://creativecommons.org/ns#"
   xmlns:rdf="http://www.w3.org/1999/02/22-rdf-syntax-ns#"
   xmlns:svg="http://www.w3.org/2000/svg"
   xmlns="http://www.w3.org/2000/svg"
   xmlns:sodipodi="http://sodipodi.sourceforge.net/DTD/sodipodi-0.dtd"
   xmlns:inkscape="http://www.inkscape.org/namespaces/inkscape"
   width="1600.125"
   height="3757.0938"
   id="svg2"
   version="1.1"
   inkscape:version="0.48.5 r10040"
   sodipodi:docname="Black 3.svg">
  <defs
     id="defs4" />
  <sodipodi:namedview
     id="base"
     pagecolor="#ffffff"
     bordercolor="#666666"
     borderopacity="1.0"
     inkscape:pageopacity="0.0"
     inkscape:pageshadow="2"
     inkscape:zoom="0.098050432"
     inkscape:cx="4010.6757"
     inkscape:cy="1989.2291"
     inkscape:document-units="in"
     inkscape:current-layer="layer1"
     showgrid="false"
     units="in"
     inkscape:window-width="2445"
     inkscape:window-height="1343"
     inkscape:window-x="11"
     inkscape:window-y="0"
     inkscape:window-maximized="0"
     fit-margin-top="0"
     fit-margin-left="0"
     fit-margin-right="0"
     fit-margin-bottom="0"
     showguides="true"
     inkscape:guide-bbox="true" />
  <metadata
     id="metadata7">
    <rdf:RDF>
      <cc:Work
         rdf:about="">
        <dc:format>image/svg+xml</dc:format>
        <dc:type
           rdf:resource="http://purl.org/dc/dcmitype/StillImage" />
        <dc:title />
      </cc:Work>
    </rdf:RDF>
  </metadata>
  <g
     inkscape:label="Layer 1"
     inkscape:groupmode="layer"
     id="layer1"
     transform="translate(-4584,3134.9063)">
    <g
       transform="matrix(1.25,0,0,1.25,1046.4795,-8017.6529)"
       id="g3029" />
    <g
       transform="matrix(1.25,0,0,1.25,1046.4795,-8017.6529)"
       id="g3033" />
    <g
       transform="matrix(1.25,0,0,1.25,1046.4795,-8017.6529)"
       id="g3037" />
    <g
       transform="matrix(1.25,0,0,1.25,1046.4795,-8017.6529)"
       id="g3041" />
    <g
       transform="matrix(1.25,0,0,1.25,1046.4795,-8017.6529)"
       id="g3045" />
    <g
       transform="matrix(1.25,0,0,1.25,1046.4795,-8017.6529)"
       id="g3049" />
    <g
       transform="matrix(1.25,0,0,1.25,1046.4795,-8017.6529)"
       id="g3053" />
    <g
       transform="matrix(1.25,0,0,1.25,1046.4795,-8017.6529)"
       id="g3057" />
    <g
       transform="matrix(1.25,0,0,1.25,1046.4795,-8017.6529)"
       id="g3061" />
    <g
       transform="matrix(1.25,0,0,1.25,1046.4795,-8017.6529)"
       id="g3065" />
    <g
       transform="matrix(1.25,0,0,1.25,1046.4795,-8017.6529)"
       id="g3069" />
    <g
       transform="matrix(1.25,0,0,1.25,1046.4795,-8017.6529)"
       id="g3073" />
    <g
       transform="matrix(1.25,0,0,1.25,1046.4795,-8017.6529)"
       id="g3077" />
    <g
       transform="matrix(1.25,0,0,1.25,1046.4795,-8017.6529)"
       id="g3081" />
    <g
       transform="matrix(1.25,0,0,1.25,1046.4795,-8017.6529)"
       id="g3085" />
    <g
       transform="matrix(1.25,0,0,1.25,1046.4795,-8017.6529)"
       id="g3089" />
    <g
       transform="matrix(1.25,0,0,1.25,1046.4795,-8017.6529)"
       id="g3093" />
    <g
       transform="matrix(1.25,0,0,1.25,1046.4795,-8017.6529)"
       id="g3097" />
    <g
       transform="matrix(1.25,0,0,1.25,1046.4795,-8017.6529)"
       id="g3101" />
    <g
       transform="matrix(1.25,0,0,1.25,1046.4795,-8017.6529)"
       id="g3105" />
    <g
       transform="matrix(1.25,0,0,1.25,1046.4795,-8017.6529)"
       id="g3109" />
    <g
       transform="matrix(1.25,0,0,1.25,1046.4795,-8017.6529)"
       id="g3113" />
    <g
       transform="matrix(1.25,0,0,1.25,1046.4795,-8017.6529)"
       id="g3117" />
    <g
       transform="matrix(1.25,0,0,1.25,1046.4795,-8017.6529)"
       id="g3121" />
    <g
       transform="matrix(1.25,0,0,1.25,1046.4795,-8017.6529)"
       id="g3125" />
    <g
       transform="matrix(1.25,0,0,1.25,1046.4795,-8017.6529)"
       id="g3129" />
    <g
       transform="matrix(1.25,0,0,1.25,1046.4795,-8017.6529)"
       id="g3133" />
    <g
       transform="matrix(1.25,0,0,1.25,1046.4795,-8017.6529)"
       id="g3137" />
    <g
       transform="matrix(1.25,0,0,1.25,1046.4795,-8017.6529)"
       id="g3141" />
    <g
       transform="matrix(1.25,0,0,1.25,1046.4795,-8017.6529)"
       id="g3145" />
    <g
       transform="matrix(1.25,0,0,1.25,1046.4795,-8017.6529)"
       id="g3149" />
    <g
       transform="matrix(1.25,0,0,1.25,1046.4795,-8017.6529)"
       id="g3153" />
    <g
       transform="matrix(1.25,0,0,1.25,1046.4795,-8017.6529)"
       id="g3157" />
    <g
       transform="matrix(1.25,0,0,1.25,1046.4795,-8017.6529)"
       id="g3161" />
    <g
       transform="matrix(1.25,0,0,1.25,1046.4795,-8017.6529)"
       id="g3165" />
    <g
       transform="matrix(1.25,0,0,1.25,1046.4795,-8017.6529)"
       id="g3169" />
    <g
       transform="matrix(1.25,0,0,1.25,1046.4795,-8017.6529)"
       id="g3173" />
    <g
       transform="matrix(1.25,0,0,1.25,1046.4795,-8017.6529)"
       id="g3177" />
    <g
       transform="matrix(1.25,0,0,1.25,1046.4795,-8017.6529)"
       id="g3181" />
    <g
       transform="matrix(1.25,0,0,1.25,1046.4795,-8017.6529)"
       id="g3185" />
    <g
       transform="matrix(1.25,0,0,1.25,1046.4795,-8017.6529)"
       id="g3189" />
    <g
       transform="matrix(1.25,0,0,1.25,1046.4795,-8017.6529)"
       id="g3193" />
    <g
       transform="matrix(1.25,0,0,1.25,1046.4795,-8017.6529)"
       id="g3197" />
    <g
       transform="matrix(1.25,0,0,1.25,1046.4795,-8017.6529)"
       id="g3201" />
    <g
       transform="matrix(1.25,0,0,1.25,1046.4795,-8017.6529)"
       id="g3205" />
    <g
       transform="matrix(1.25,0,0,1.25,1046.4795,-8017.6529)"
       id="g3209" />
    <g
       transform="matrix(1.25,0,0,1.25,1046.4795,-8017.6529)"
       id="g3213" />
    <g
       transform="matrix(1.25,0,0,1.25,1046.4795,-8017.6529)"
       id="g3217" />
    <g
       transform="matrix(1.25,0,0,1.25,1046.4795,-8017.6529)"
       id="g3221" />
    <g
       transform="matrix(1.25,0,0,1.25,1046.4795,-8017.6529)"
       id="g3225" />
    <g
       transform="matrix(1.25,0,0,1.25,1046.4795,-8017.6529)"
       id="g3229" />
    <g
       transform="matrix(1.25,0,0,1.25,1046.4795,-8017.6529)"
       id="g3233" />
    <g
       transform="matrix(1.25,0,0,1.25,1046.4795,-8017.6529)"
       id="g3237" />
    <g
       transform="matrix(1.25,0,0,1.25,1046.4795,-8017.6529)"
       id="g3241" />
    <g
       transform="matrix(1.25,0,0,1.25,1046.4795,-8017.6529)"
       id="g3245" />
    <g
       transform="matrix(1.25,0,0,1.25,1046.4795,-8017.6529)"
       id="g3249" />
    <g
       transform="matrix(1.25,0,0,1.25,1046.4795,-8017.6529)"
       id="g3253" />
    <g
       transform="matrix(1.25,0,0,1.25,1046.4795,-8017.6529)"
       id="g3257" />
    <g
       transform="matrix(1.25,0,0,1.25,1046.4795,-8017.6529)"
       id="g3261" />
    <g
       transform="matrix(1.25,0,0,1.25,1046.4795,-8017.6529)"
       id="g3265" />
    <g
       transform="matrix(1.25,0,0,1.25,1046.4795,-8017.6529)"
       id="g3269" />
    <g
       transform="matrix(1.25,0,0,1.25,1046.4795,-8017.6529)"
       id="g3273" />
    <g
       transform="matrix(1.25,0,0,1.25,1046.4795,-8017.6529)"
       id="g3277" />
    <g
       transform="matrix(1.25,0,0,1.25,1046.4795,-8017.6529)"
       id="g3281" />
    <g
       transform="matrix(1.25,0,0,1.25,1046.4795,-8017.6529)"
       id="g3285" />
    <g
       transform="matrix(1.25,0,0,1.25,1046.4795,-8017.6529)"
       id="g3289" />
    <g
       transform="matrix(1.25,0,0,1.25,1046.4795,-8017.6529)"
       id="g3293" />
    <g
       transform="matrix(1.25,0,0,1.25,1046.4795,-8017.6529)"
       id="g3297" />
    <g
       transform="matrix(1.25,0,0,1.25,1046.4795,-8017.6529)"
       id="g3301" />
    <g
       transform="matrix(1.25,0,0,1.25,1046.4795,-8017.6529)"
       id="g3305" />
    <g
       transform="matrix(1.25,0,0,1.25,1046.4795,-8017.6529)"
       id="g3309" />
    <g
       transform="matrix(1.25,0,0,1.25,1046.4795,-8017.6529)"
       id="g3313" />
    <g
       transform="matrix(1.25,0,0,1.25,1046.4795,-8017.6529)"
       id="g3317" />
    <g
       transform="matrix(1.25,0,0,1.25,1046.4795,-8017.6529)"
       id="g3321" />
    <g
       transform="matrix(1.25,0,0,1.25,1046.4795,-8017.6529)"
       id="g3325" />
    <g
       transform="matrix(1.25,0,0,1.25,1046.4795,-8017.6529)"
       id="g3329" />
    <g
       transform="matrix(1.25,0,0,1.25,1046.4795,-8017.6529)"
       id="g3333" />
    <g
       transform="matrix(1.25,0,0,1.25,1046.4795,-8017.6529)"
       id="g3337" />
    <g
       transform="matrix(1.25,0,0,1.25,1046.4795,-8017.6529)"
       id="g3341" />
    <g
       transform="matrix(1.25,0,0,1.25,1046.4795,-8017.6529)"
       id="g3345" />
    <g
       transform="matrix(1.25,0,0,1.25,1046.4795,-8017.6529)"
       id="g3349" />
    <g
       transform="matrix(1.25,0,0,1.25,1046.4795,-8017.6529)"
       id="g3353" />
    <g
       transform="matrix(1.25,0,0,1.25,1046.4795,-8017.6529)"
       id="g3361" />
    <g
       transform="matrix(1.25,0,0,1.25,1046.4795,-8017.6529)"
       id="g3365" />
    <g
       transform="matrix(1.25,0,0,1.25,1046.4795,-8017.6529)"
       id="g3373" />
    <g
       transform="matrix(1.25,0,0,1.25,1046.4795,-8017.6529)"
       id="g3377" />
    <g
       transform="matrix(1.25,0,0,1.25,1046.4795,-8017.6529)"
       id="g3381" />
    <g
       transform="matrix(1.25,0,0,1.25,1046.4795,-8017.6529)"
       id="g3385" />
    <g
       transform="matrix(1.25,0,0,1.25,1046.4795,-8017.6529)"
       id="g3389" />
    <g
       transform="matrix(1.25,0,0,1.25,1046.4795,-8017.6529)"
       id="g3393" />
    <g
       transform="matrix(1.25,0,0,1.25,1046.4795,-8017.6529)"
       id="g3397" />
    <g
       transform="matrix(1.25,0,0,1.25,1046.4795,-8017.6529)"
       id="g3401" />
    <g
       transform="matrix(1.25,0,0,1.25,1046.4795,-8017.6529)"
       id="g3405" />
    <g
       transform="matrix(1.25,0,0,1.25,1046.4795,-8017.6529)"
       id="g3409" />
    <g
       transform="matrix(1.25,0,0,1.25,1046.4795,-8017.6529)"
       id="g3413" />
    <g
       transform="matrix(1.25,0,0,1.25,1046.4795,-8017.6529)"
       id="g3417" />
    <g
       transform="matrix(1.25,0,0,1.25,1046.4795,-8017.6529)"
       id="g3421" />
    <g
       transform="matrix(1.25,0,0,1.25,1046.4795,-8017.6529)"
       id="g3425" />
    <g
       transform="matrix(1.25,0,0,1.25,1046.4795,-8017.6529)"
       id="g3429" />
    <g
       transform="matrix(1.25,0,0,1.25,1046.4795,-8017.6529)"
       id="g3433" />
    <g
       transform="matrix(1.25,0,0,1.25,1046.4795,-8017.6529)"
       id="g3437" />
    <g
       transform="matrix(1.25,0,0,1.25,1046.4795,-8017.6529)"
       id="g3441" />
    <g
       transform="matrix(1.25,0,0,1.25,1046.4795,-8017.6529)"
       id="g3445" />
    <g
       transform="matrix(1.25,0,0,1.25,1046.4795,-8017.6529)"
       id="g3449" />
    <g
       transform="matrix(1.25,0,0,1.25,1046.4795,-8017.6529)"
       id="g3453" />
    <g
       transform="matrix(1.25,0,0,1.25,1046.4795,-8017.6529)"
       id="g3457" />
    <g
       transform="matrix(1.25,0,0,1.25,1046.4795,-8017.6529)"
       id="g3461" />
    <g
       transform="matrix(1.25,0,0,1.25,1046.4795,-8017.6529)"
       id="g3465" />
    <g
       transform="matrix(1.25,0,0,1.25,1046.4795,-8017.6529)"
       id="g3469" />
    <g
       transform="matrix(1.25,0,0,1.25,1046.4795,-8017.6529)"
       id="g3473" />
    <g
       transform="matrix(1.25,0,0,1.25,1046.4795,-8017.6529)"
       id="g3477" />
    <g
       transform="matrix(1.25,0,0,1.25,1046.4795,-8017.6529)"
       id="g3481" />
    <g
       transform="matrix(1.25,0,0,1.25,1046.4795,-8017.6529)"
       id="g3485" />
    <g
       transform="matrix(1.25,0,0,1.25,1046.4795,-8017.6529)"
       id="g3489" />
    <g
       transform="matrix(1.25,0,0,1.25,1046.4795,-8017.6529)"
       id="g3493" />
    <g
       transform="matrix(1.25,0,0,1.25,1046.4795,-8017.6529)"
       id="g3497" />
    <g
       transform="matrix(1.25,0,0,1.25,1046.4795,-8017.6529)"
       id="g3501" />
    <g
       transform="matrix(1.25,0,0,1.25,1046.4795,-8017.6529)"
       id="g3505" />
    <g
       transform="matrix(1.25,0,0,1.25,1046.4795,-8017.6529)"
       id="g3509" />
    <g
       transform="matrix(1.25,0,0,1.25,1046.4795,-8017.6529)"
       id="g3513" />
    <g
       transform="matrix(1.25,0,0,1.25,1046.4795,-8017.6529)"
       id="g3517" />
    <g
       transform="matrix(1.25,0,0,1.25,1046.4795,-8017.6529)"
       id="g3521" />
    <g
       transform="matrix(1.25,0,0,1.25,1046.4795,-8017.6529)"
       id="g3525" />
    <g
       transform="matrix(1.25,0,0,1.25,1046.4795,-8017.6529)"
       id="g3529" />
    <g
       transform="matrix(1.25,0,0,1.25,1046.4795,-8017.6529)"
       id="g3533" />
    <g
       transform="matrix(1.25,0,0,1.25,1046.4795,-8017.6529)"
       id="g3537" />
    <g
       transform="matrix(1.25,0,0,1.25,1046.4795,-8017.6529)"
       id="g3541" />
    <g
       transform="matrix(1.25,0,0,1.25,1046.4795,-8017.6529)"
       id="g3545" />
    <g
       transform="matrix(1.25,0,0,1.25,1046.4795,-8017.6529)"
       id="g3549" />
    <g
       transform="matrix(1.25,0,0,1.25,1046.4795,-8017.6529)"
       id="g3553" />
    <g
       transform="matrix(1.25,0,0,1.25,1046.4795,-8017.6529)"
       id="g3557" />
    <g
       transform="matrix(1.25,0,0,1.25,1046.4795,-8017.6529)"
       id="g3561" />
    <g
       transform="matrix(1.25,0,0,1.25,1046.4795,-8017.6529)"
       id="g3565" />
    <g
       transform="matrix(1.25,0,0,1.25,1046.4795,-8017.6529)"
       id="g3569" />
    <g
       transform="matrix(1.25,0,0,1.25,1046.4795,-8017.6529)"
       id="g3573" />
    <g
       transform="matrix(1.25,0,0,1.25,1046.4795,-8017.6529)"
       id="g3581" />
    <g
       transform="matrix(1.25,0,0,1.25,1046.4795,-8017.6529)"
       id="g3585" />
    <g
       transform="matrix(1.25,0,0,1.25,1046.4795,-8017.6529)"
       id="g3589" />
    <g
       transform="matrix(1.25,0,0,1.25,1046.4795,-8017.6529)"
       id="g3593" />
    <g
       transform="matrix(1.25,0,0,1.25,1046.4795,-8017.6529)"
       id="g3597" />
    <g
       transform="matrix(1.25,0,0,1.25,1046.4795,-8017.6529)"
       id="g3601" />
    <g
       transform="matrix(1.25,0,0,1.25,1046.4795,-8017.6529)"
       id="g3605" />
    <g
       transform="matrix(1.25,0,0,1.25,1046.4795,-8017.6529)"
       id="g3609" />
    <g
       transform="matrix(1.25,0,0,1.25,1046.4795,-8017.6529)"
       id="g3613" />
    <g
       transform="matrix(1.25,0,0,1.25,1046.4795,-8017.6529)"
       id="g3617" />
    <g
       transform="matrix(1.25,0,0,1.25,1046.4795,-8017.6529)"
       id="g3621" />
    <g
       transform="matrix(1.25,0,0,1.25,1046.4795,-8017.6529)"
       id="g3625" />
    <g
       transform="matrix(1.25,0,0,1.25,1046.4795,-8017.6529)"
       id="g3629" />
    <g
       transform="matrix(1.25,0,0,1.25,1046.4795,-8017.6529)"
       id="g3633" />
    <g
       transform="matrix(1.25,0,0,1.25,1046.4795,-8017.6529)"
       id="g3637" />
    <g
       transform="matrix(1.25,0,0,1.25,1046.4795,-8017.6529)"
       id="g3641" />
    <g
       transform="matrix(1.25,0,0,1.25,1046.4795,-8017.6529)"
       id="g3645" />
    <g
       transform="matrix(1.25,0,0,1.25,1046.4795,-8017.6529)"
       id="g3649" />
    <g
       transform="matrix(1.25,0,0,1.25,1046.4795,-8017.6529)"
       id="g3653" />
    <g
       transform="matrix(1.25,0,0,1.25,1046.4795,-8017.6529)"
       id="g3657" />
    <g
       transform="matrix(1.25,0,0,1.25,1046.4795,-8017.6529)"
       id="g3661" />
    <g
       transform="matrix(1.25,0,0,1.25,1046.4795,-8017.6529)"
       id="g3665" />
    <g
       transform="matrix(1.25,0,0,1.25,1046.4795,-8017.6529)"
       id="g3669" />
    <g
       transform="matrix(1.25,0,0,1.25,1046.4795,-8017.6529)"
       id="g3673" />
    <g
       transform="matrix(1.25,0,0,1.25,1046.4795,-8017.6529)"
       id="g3677" />
    <g
       transform="matrix(1.25,0,0,1.25,1046.4795,-8017.6529)"
       id="g3681" />
    <g
       transform="matrix(1.25,0,0,1.25,1046.4795,-8017.6529)"
       id="g3685" />
    <g
       transform="matrix(1.25,0,0,1.25,1046.4795,-8017.6529)"
       id="g3689" />
    <g
       transform="matrix(1.25,0,0,1.25,1046.4795,-8017.6529)"
       id="g3693" />
    <g
       transform="matrix(1.25,0,0,1.25,1046.4795,-8017.6529)"
       id="g3697" />
    <g
       transform="matrix(1.25,0,0,1.25,1046.4795,-8017.6529)"
       id="g3701" />
    <g
       transform="matrix(1.25,0,0,1.25,1046.4795,-8017.6529)"
       id="g3705" />
    <g
       transform="matrix(1.25,0,0,1.25,1046.4795,-8017.6529)"
       id="g3709" />
    <g
       transform="matrix(1.25,0,0,1.25,1046.4795,-8017.6529)"
       id="g3713" />
    <g
       transform="matrix(1.25,0,0,1.25,1046.4795,-8017.6529)"
       id="g3717" />
    <g
       transform="matrix(1.25,0,0,1.25,1046.4795,-8017.6529)"
       id="g3721" />
    <g
       transform="matrix(1.25,0,0,1.25,1046.4795,-8017.6529)"
       id="g3725" />
    <g
       transform="matrix(1.25,0,0,1.25,1046.4795,-8017.6529)"
       id="g3729" />
    <g
       transform="matrix(1.25,0,0,1.25,1046.4795,-8017.6529)"
       id="g3733" />
    <g
       transform="matrix(1.25,0,0,1.25,1046.4795,-8017.6529)"
       id="g3737" />
    <g
       transform="matrix(1.25,0,0,1.25,1046.4795,-8017.6529)"
       id="g3741" />
    <g
       transform="matrix(1.25,0,0,1.25,1046.4795,-8017.6529)"
       id="g3745" />
    <g
       transform="matrix(1.25,0,0,1.25,1046.4795,-8017.6529)"
       id="g3749" />
    <g
       transform="matrix(1.25,0,0,1.25,1046.4795,-8017.6529)"
       id="g3753" />
    <g
       transform="matrix(1.25,0,0,1.25,1046.4795,-8017.6529)"
       id="g3757" />
    <g
       transform="matrix(1.25,0,0,1.25,1046.4795,-8017.6529)"
       id="g3761" />
    <g
       transform="matrix(1.25,0,0,1.25,1046.4795,-8017.6529)"
       id="g3765" />
    <g
       transform="matrix(1.25,0,0,1.25,1046.4795,-8017.6529)"
       id="g3769" />
    <g
       transform="matrix(1.25,0,0,1.25,1046.4795,-8017.6529)"
       id="g3773" />
    <g
       transform="matrix(1.25,0,0,1.25,1046.4795,-8017.6529)"
       id="g3777" />
    <g
       transform="matrix(1.25,0,0,1.25,1046.4795,-8017.6529)"
       id="g3781" />
    <g
       transform="matrix(1.25,0,0,1.25,1046.4795,-8017.6529)"
       id="g3785" />
    <g
       transform="matrix(1.25,0,0,1.25,1046.4795,-8017.6529)"
       id="g3789" />
    <g
       transform="matrix(1.25,0,0,1.25,1046.4795,-8017.6529)"
       id="g3793" />
    <g
       transform="matrix(1.25,0,0,1.25,1046.4795,-8017.6529)"
       id="g3797" />
    <g
       transform="matrix(1.25,0,0,1.25,1046.4795,-8017.6529)"
       id="g3803" />
    <g
       transform="matrix(1.25,0,0,1.25,1046.4795,-8017.6529)"
       id="g3807" />
    <g
       transform="matrix(1.25,0,0,1.25,1046.4795,-8017.6529)"
       id="g3811" />
    <g
       transform="matrix(1.25,0,0,1.25,1046.4795,-8017.6529)"
       id="g3817" />
    <g
       transform="matrix(1.25,0,0,1.25,1046.4795,-8017.6529)"
       id="g3821" />
    <g
       transform="matrix(1.25,0,0,1.25,1046.4795,-8017.6529)"
       id="g3833" />
    <g
       transform="matrix(1.25,0,0,1.25,1046.4795,-8017.6529)"
       id="g3837" />
    <g
       transform="matrix(1.25,0,0,1.25,1046.4795,-8017.6529)"
       id="g3841" />
    <g
       transform="matrix(1.25,0,0,1.25,1046.4795,-8017.6529)"
       id="g3845" />
    <g
       transform="matrix(1.25,0,0,1.25,1046.4795,-8017.6529)"
       id="g3849" />
    <g
       transform="matrix(1.25,0,0,1.25,1046.4795,-8017.6529)"
       id="g3853" />
    <g
       transform="matrix(1.25,0,0,1.25,1046.4795,-8017.6529)"
       id="g3857" />
    <g
       transform="matrix(1.25,0,0,1.25,1046.4795,-8017.6529)"
       id="g3865" />
    <g
       transform="matrix(1.25,0,0,1.25,1046.4795,-8017.6529)"
       id="g3869" />
    <g
       transform="matrix(1.25,0,0,1.25,1046.4795,-8017.6529)"
       id="g3885" />
    <g
       style="font-size:123.45613098px;font-style:normal;font-weight:normal;line-height:125%;letter-spacing:0px;word-spacing:0px;fill:#000000;fill-opacity:1;stroke:none;font-family:Sans"
       id="text6907" />
    <g
       style="font-size:123.45613098px;font-style:normal;font-weight:normal;line-height:125%;letter-spacing:0px;word-spacing:0px;fill:#000000;fill-opacity:1;stroke:none;font-family:Sans"
       id="text6920">
      <path
         id="path12417"
         style="fill:none;stroke:#000000;stroke-width:0.99;stroke-miterlimit:4;stroke-opacity:1;stroke-dasharray:none"
         d="m 6135.2334,-3091.2979 c 5.8272,1.2458 10.3683,3.8379 13.6236,7.7762 3.2953,3.9385 4.943,8.8012 4.9431,14.5881 -1e-4,8.8815 -3.0544,15.7536 -9.1628,20.6162 -6.1086,4.8627 -14.7891,7.2941 -26.0415,7.2941 -3.7777,0 -7.6759,-0.3818 -11.6946,-1.1454 -3.9786,-0.7233 -8.0978,-1.8285 -12.3577,-3.3154 l 0,-11.7549 c 3.3758,1.9692 7.073,3.4561 11.0918,4.4608 4.0187,1.0047 8.2183,1.5071 12.5988,1.5071 7.6356,0 13.4427,-1.5071 17.4213,-4.5211 4.0187,-3.0141 6.0281,-7.3945 6.0281,-13.1414 0,-5.3047 -1.8688,-9.444 -5.6061,-12.4179 -3.6973,-3.014 -8.8614,-4.5211 -15.4923,-4.5211 l -10.489,0 0,-10.0067 10.9712,0 c 5.9879,0 10.5693,-1.1855 13.7442,-3.5566 3.1747,-2.4112 4.7621,-5.8673 4.7622,-10.3684 -1e-4,-4.6215 -1.6478,-8.158 -4.9431,-10.6095 -3.2552,-2.4916 -7.9371,-3.7374 -14.0455,-3.7375 -3.3356,1e-4 -6.9123,0.3618 -10.7301,1.0851 -3.8179,0.7235 -8.0174,1.8487 -12.5988,3.3758 l 0,-10.8507 c 4.6215,-1.2859 8.9417,-2.2504 12.9605,-2.8935 4.0589,-0.6429 7.8767,-0.9644 11.4534,-0.9645 9.2431,1e-4 16.5572,2.11 21.9424,6.3296 5.3851,4.1795 8.0777,9.846 8.0777,16.9993 0,4.9833 -1.4267,9.203 -4.28,12.6591 -2.8533,3.416 -6.9123,5.787 -12.1768,7.1132 m -1389.0326,38.2786 42.4983,0 0,10.2478 -57.1466,0 0,-10.2478 c 4.6215,-4.7823 10.9108,-11.1922 18.868,-19.2297 7.9973,-8.0777 13.0207,-13.282 15.0703,-15.6129 3.8982,-4.3804 6.6108,-8.0777 8.138,-11.0918 1.5673,-3.0542 2.3509,-6.0481 2.351,-8.9819 -1e-4,-4.7822 -1.6879,-8.6804 -5.0637,-11.6946 -3.3356,-3.0139 -7.6959,-4.521 -13.081,-4.5211 -3.8178,1e-4 -7.8567,0.6632 -12.1165,1.9893 -4.2198,1.3263 -8.7408,3.3357 -13.5633,6.0282 l 0,-12.2974 c 4.9028,-1.9691 9.4842,-3.4561 13.7441,-4.4608 4.2599,-1.0046 8.158,-1.507 11.6946,-1.5071 9.3234,1e-4 16.7581,2.331 22.3041,6.9927 5.5458,4.6618 8.3187,10.8908 8.3188,18.6872 -1e-4,3.6973 -0.7034,7.2137 -2.1099,10.5492 -1.3664,3.2954 -3.8781,7.1936 -7.5351,11.6946 -1.0048,1.1654 -4.1997,4.5412 -9.5848,10.1272 -5.3851,5.5459 -12.9806,13.3222 -22.7863,23.3289 m 1276.9724,3657.28515 0,-53.91125 c 0,-72.85125 -20.815,-133.67125 -62.4462,-182.45625 -46.835,-55.9375 -113.505,-83.91 -200.0188,-83.91 -85.8599,0 -152.2075,27.9725 -199.0387,83.91 -11.9863,14.04875 -22.25,29.0925 -29.9263,44.0775 l 0.8551,193.735 26.3962,-0.7225 0.7225,-55.61 c 0,-58.54 15.61,-106.675 46.8363,-144.40375 35.7762,-44.22875 87.1574,-66.34875 154.155,-66.34875 66.9962,0 118.7112,22.12 155.1362,66.34875 31.2263,38.37875 46.8363,86.51375 46.8363,144.40375 l 0,54.8875 60.4924,0 z m -490.385,-3612.57255 26.9188,0.2238 0.012,94.9762 32.2363,-94.815 62.8662,-0.1362 -77.285,224.2625 c -9.38,28.755 -24.4587,43.6963 -44.995,44.2387 l 0.2487,-268.75 z m 429.8925,-0.4112 0,178.9362 c 0,10.41 3.2525,18.54 9.7563,24.395 5.8537,4.55 12.685,6.825 20.4875,6.825 8.4575,0 15.6112,-2.5975 21.465,-7.8025 5.855,-5.8537 8.7837,-13.6575 8.7837,-23.4175 l 0,-179.0675 -60.4925,0.1313 z m 156.8463,-0.3413 -74.0238,214.79 c -3.2525,10.405 -2.9249,19.5113 0.9763,27.32 3.9012,7.1525 9.7562,12.0313 17.5638,14.6338 8.4562,2.6025 16.2599,2.275 23.4124,-0.9775 8.4575,-4.55 13.99,-12.0313 16.5925,-22.4363 l 79.375,-233.4662 -63.8962,0.1362 z m -587.5588,1036.665 c 20.9513,-0.9862 36.1425,-15.9275 45.5663,-44.8287 l 228.31,-662.495 c 3.2525,-10.4063 2.925,-19.5125 -0.9763,-27.32 -3.9012,-7.1525 -9.7562,-12.0313 -17.5637,-14.6338 -8.4562,-2.6025 -16.26,-2.275 -23.4125,0.9763 -8.4575,4.5512 -13.985,12.0312 -16.5875,22.4375 l -187.5875,551.7237 0,-370.3712 c 0,-58.54 15.61,-106.675 46.8363,-144.405 35.7762,-44.2288 87.1574,-66.3475 154.1549,-66.3475 66.9963,0 118.7113,22.1187 155.1363,66.3475 31.2263,38.3787 46.8362,86.5137 46.8362,144.405 l 0,453.6962 c 0,10.405 3.2525,18.54 9.7563,24.3938 5.8537,4.5512 12.685,6.8262 20.4875,6.8262 8.4575,0 15.6112,-2.5975 21.465,-7.8025 5.855,-5.855 8.7837,-13.6625 8.7837,-23.4175 l 0,-452.72 c 0,-72.8512 -20.815,-133.6725 -62.4462,-182.4562 -46.835,-55.9375 -113.505,-83.9113 -200.0188,-83.9113 -85.8599,0 -152.2075,27.9738 -199.0387,83.9113 -11.4112,13.3687 -21.255,27.6462 -29.5362,42.8225 l -0.1651,683.1687 z m -0.3174,766.5875 c 21.1174,-0.85 36.4112,-15.8012 45.8837,-44.8437 l 228.31,-662.4963 c 3.2525,-10.41 2.925,-19.5112 -0.9763,-27.3187 -3.9012,-7.1538 -9.7562,-12.0363 -17.5637,-14.6388 -8.4562,-2.5975 -16.26,-2.275 -23.4125,0.9763 -8.4575,4.5562 -13.985,12.0362 -16.5875,22.4412 l -187.5875,551.7238 0,-370.3713 c 0,-58.54 15.61,-106.6787 46.8363,-144.4037 35.7762,-44.2338 87.1574,-66.3475 154.1549,-66.3475 66.9963,0 118.7113,22.1137 155.1363,66.3475 31.2263,38.3737 46.8362,86.5137 46.8362,144.4037 l 0,453.6975 c 0,10.405 3.2525,18.54 9.7563,24.3938 5.8537,4.5512 12.685,6.8262 20.4875,6.8262 8.4575,0 15.6112,-2.6025 21.465,-7.8025 5.855,-5.855 8.7837,-13.6625 8.7837,-23.4175 l 0,-452.725 c 0,-72.8512 -20.815,-133.6675 -62.4462,-182.4512 -46.835,-55.9425 -113.505,-83.9113 -200.0188,-83.9113 -85.8599,0 -152.2075,27.9688 -199.0387,83.9113 -11.5575,13.54 -21.5038,28.0025 -29.8525,43.3987 l -0.1662,682.6075 z m -0.3176,766.5813 c 21.2838,-0.7125 36.68,-15.66375 46.2013,-44.85375 l 228.31,-662.49505 c 3.2525,-10.41 2.925,-19.5162 -0.9763,-27.3187 -3.9012,-7.1588 -9.7562,-12.0363 -17.5637,-14.6388 -8.4562,-2.5975 -16.26,-2.275 -23.4125,0.9763 -8.4575,4.5562 -13.985,12.0362 -16.5875,22.4412 l -187.5875,551.7238 0,-370.37625 c 0,-58.54005 15.61,-106.67375 46.8363,-144.39875 35.7762,-44.2338 87.1574,-66.3475 154.1549,-66.3475 66.9963,0 118.7113,22.1137 155.1363,66.3475 31.2263,38.3737 46.8362,86.5087 46.8362,144.39875 l 0,453.70125 c 0,10.40625 3.2525,18.535 9.7563,24.39 5.8537,4.55625 12.685,6.83125 20.4875,6.83125 8.4575,0 15.6112,-2.6025 21.465,-7.8075 5.855,-5.855 8.7837,-13.6575 8.7837,-23.41375 l 0,-452.72375 c 0,-72.85255 -20.815,-133.66755 -62.4462,-182.45125 -46.835,-55.9425 -113.505,-83.9113 -200.0188,-83.9113 -85.8599,0 -152.2075,27.9688 -199.0387,83.9113 -11.6987,13.7062 -21.7525,28.3637 -30.165,43.9737 l -0.1713,682.0413 z m -0.3174,766.5825 c 21.4449,-0.57625 36.9524,-15.5325 46.5187,-44.86375 l 228.31,-662.5 c 3.2525,-10.405 2.925,-19.51125 -0.9762,-27.31875 -3.9013,-7.15375 -9.7563,-12.03125 -17.5638,-14.63375 -8.4562,-2.6025 -16.26,-2.27625 -23.4125,0.97625 -8.4575,4.555 -13.985,12.03125 -16.5875,22.44125 l -187.5875,551.71875 0,-370.37125 c 0,-58.54 15.61,-106.675 46.8363,-144.40375 35.7762,-44.22875 87.1574,-66.3475 154.155,-66.3475 66.9962,0 118.7112,22.11875 155.1362,66.3475 31.2263,38.37875 46.8363,86.51375 46.8363,144.40375 l 0,453.69625 c 0,10.41 3.2524,18.54 9.7562,24.395 5.8537,4.55 12.685,6.83125 20.4875,6.83125 8.4575,0 15.6113,-2.6025 21.465,-7.8075 5.855,-5.855 8.7837,-13.6625 8.7837,-23.41875 l 0,-452.72 c 0,-72.85125 -20.8149,-133.67125 -62.4462,-182.455 -46.835,-55.9375 -113.505,-83.91125 -200.0187,-83.91125 -85.86,0 -152.2075,27.97375 -199.0388,83.91125 -11.845,13.88125 -22.0012,28.73 -30.4737,44.555 l -0.18,681.475 z m 199.805,276.90875 75.0237,-217.7 c 3.2525,-10.405 2.925,-19.51125 -0.9763,-27.31875 -3.9012,-7.15375 -9.7562,-12.03125 -17.5637,-14.63375 -8.4562,-2.60375 -16.26,-2.27625 -23.4125,0.97625 -8.4575,4.555 -13.985,12.03125 -16.5875,22.44125 l -80.3225,236.235 63.8388,0 z m 157.8462,0 0,-182.1875 c 0,-10.41 -3.2525,-18.54 -9.7562,-24.39375 -5.8538,-4.55125 -12.68,-6.83125 -20.4875,-6.83125 -8.4575,0 -15.6113,2.6075 -21.465,7.8075 -5.8551,5.85375 -8.78,13.66125 -8.78,23.4175 l 0,182.1875 60.4887,0 z m -668.6425,17.4125 -119.9462,-177.2125 -100.6738,0.3275 119.2575,176.885 101.3625,0 z m 305.205,-178.60375 -79.985,0.26375 -118.3738,178.34 100.5175,0 97.8413,-147.485 0,-31.11875 z m -465.4588,178.59875 -130.43,-193.6525 214.6725,-323.59375 -100.6737,0.3325 -171.2788,258.03125 -173.8875,-256.90375 -100.6737,0.3275 223.775,331.89875 -120.2538,183.56 100.7425,0 77.7188,-118.335 79.39,118.335 100.8987,0 z m 465.4588,-902.43125 -79.985,0.26375 -171.275,258.03625 -173.8912,-256.90875 -100.6738,0.3275 223.7738,331.90375 -236.3575,360.77625 100.6749,-0.33125 193.8913,-295.225 197.2062,293.945 46.6363,-0.15125 0,-81.09875 -193.9838,-288.0125 193.9838,-292.4025 0,-31.1225 z m -481.89,-338.31625 -171.2788,258.0375 -173.8875,-256.90875 -100.6737,0.32625 223.775,331.905 -236.3575,360.77625 100.6737,-0.3325 193.8913,-295.22375 197.2075,293.945 101.1375,-0.3275 -248.4863,-368.935 214.6725,-323.58875 -100.6737,0.32625 m 481.89,-385.51245 -79.985,0.2587 -171.275,258.0375 -173.8913,-256.9087 -100.6737,0.3312 223.7737,331.9 -236.3575,360.77625 100.675,-0.3275 193.8913,-295.225 197.2062,293.94625 46.6363,-0.15125 0,-81.09875 -193.9838,-288.0175 193.9838,-292.4025 0,-31.1187 z m -481.89,-338.32 -171.2788,258.0375 -173.8875,-256.905 -100.6737,0.3275 223.775,331.8987 -236.3575,360.77625 100.6737,-0.32625 193.8913,-295.225 197.2075,293.945 101.1375,-0.33125 -248.4863,-368.93125 214.6725,-323.5938 -100.6737,0.3275 m 481.89,-385.5125 -79.985,0.2638 -171.275,258.0363 -173.8913,-256.9088 -100.6737,0.3275 223.7737,331.8987 -236.3575,360.7763 100.675,-0.3263 193.8913,-295.225 197.2062,293.945 46.6363,-0.1512 0,-81.0988 -193.9838,-288.0125 193.9838,-292.4075 0,-31.1175 z m -481.89,-338.3162 -171.2788,258.0375 -173.8875,-256.9088 -100.6737,0.3263 223.775,331.905 -236.3575,360.7763 100.6737,-0.3325 193.8913,-295.2238 197.2075,293.945 101.1375,-0.3275 -248.4863,-368.935 214.6725,-323.5937 -100.6737,0.3312 m 481.89,-385.5125 -79.985,0.2588 -171.275,258.0375 -173.8913,-256.9088 -100.6737,0.3313 223.7737,331.9 -236.3575,360.7762 100.675,-0.3325 193.8913,-295.22 197.2062,293.9463 46.6363,-0.1563 0,-81.0987 -193.9838,-288.0125 193.9838,-292.4025 0,-31.1188 z m -481.89,-338.32 -171.2788,258.0375 -173.8875,-256.91 -100.6737,0.3325 223.775,331.8988 -236.3575,360.7775 100.6737,-0.3275 193.8913,-295.225 197.2075,293.945 101.1375,-0.3313 -248.4863,-368.9362 214.6725,-323.5888 -100.6737,0.3275 m 74.3412,-208.3637 105.4975,156.4687 -236.3575,360.7763 100.675,-0.3263 193.8913,-295.225 197.2062,293.945 46.6363,-0.1513 0,-81.0987 -193.9838,-288.0125 97.1088,-146.3762 -100.5225,0 -53.8625,81.1475 -54.9313,-81.1475 -101.3575,0 z m -159.785,0 118.7938,177.06 101.1375,-0.3325 -119.0325,-176.7275 -100.8988,0 z"
         inkscape:connector-curvature="0" />
    </g>
    <text
       xml:space="preserve"
       style="font-size:123.45613098px;font-style:normal;font-weight:normal;line-height:125%;letter-spacing:0px;word-spacing:0px;fill:#000000;fill-opacity:1;stroke:none;font-family:Sans"
       x="14825.353"
       y="-3042.7715"
       id="text9052"
       sodipodi:linespacing="125%"><tspan
         sodipodi:role="line"
         id="tspan9054"
         x="14825.353"
         y="-3042.7715" /></text>
  </g>
</svg>
