<?xml version="1.0" encoding="UTF-8" standalone="no"?>
<!-- Created with Inkscape (http://www.inkscape.org/) -->

<svg
   xmlns:dc="http://purl.org/dc/elements/1.1/"
   xmlns:cc="http://creativecommons.org/ns#"
   xmlns:rdf="http://www.w3.org/1999/02/22-rdf-syntax-ns#"
   xmlns:svg="http://www.w3.org/2000/svg"
   xmlns="http://www.w3.org/2000/svg"
   xmlns:sodipodi="http://sodipodi.sourceforge.net/DTD/sodipodi-0.dtd"
   xmlns:inkscape="http://www.inkscape.org/namespaces/inkscape"
   width="1799.4143"
   height="3889.9009"
   id="svg2"
   version="1.1"
   inkscape:version="0.48.5 r10040"
   sodipodi:docname="Black 4.svg">
  <defs
     id="defs4" />
  <sodipodi:namedview
     id="base"
     pagecolor="#ffffff"
     bordercolor="#666666"
     borderopacity="1.0"
     inkscape:pageopacity="0.0"
     inkscape:pageshadow="2"
     inkscape:zoom="0.098050432"
     inkscape:cx="2766.9855"
     inkscape:cy="2122.5435"
     inkscape:document-units="in"
     inkscape:current-layer="layer1"
     showgrid="false"
     units="in"
     inkscape:window-width="2445"
     inkscape:window-height="1343"
     inkscape:window-x="0"
     inkscape:window-y="0"
     inkscape:window-maximized="0"
     fit-margin-top="0"
     fit-margin-left="0"
     fit-margin-right="0"
     fit-margin-bottom="0"
     showguides="true"
     inkscape:guide-bbox="true" />
  <metadata
     id="metadata7">
    <rdf:RDF>
      <cc:Work
         rdf:about="">
        <dc:format>image/svg+xml</dc:format>
        <dc:type
           rdf:resource="http://purl.org/dc/dcmitype/StillImage" />
        <dc:title />
      </cc:Work>
    </rdf:RDF>
  </metadata>
  <g
     inkscape:label="Layer 1"
     inkscape:groupmode="layer"
     id="layer1"
     transform="translate(-5827.6903,3134.3991)">
    <g
       transform="matrix(1.25,0,0,1.25,1046.4795,-8017.6529)"
       id="g3029" />
    <g
       transform="matrix(1.25,0,0,1.25,1046.4795,-8017.6529)"
       id="g3033" />
    <g
       transform="matrix(1.25,0,0,1.25,1046.4795,-8017.6529)"
       id="g3037" />
    <g
       transform="matrix(1.25,0,0,1.25,1046.4795,-8017.6529)"
       id="g3041" />
    <g
       transform="matrix(1.25,0,0,1.25,1046.4795,-8017.6529)"
       id="g3045" />
    <g
       transform="matrix(1.25,0,0,1.25,1046.4795,-8017.6529)"
       id="g3049" />
    <g
       transform="matrix(1.25,0,0,1.25,1046.4795,-8017.6529)"
       id="g3053" />
    <g
       transform="matrix(1.25,0,0,1.25,1046.4795,-8017.6529)"
       id="g3057" />
    <g
       transform="matrix(1.25,0,0,1.25,1046.4795,-8017.6529)"
       id="g3061" />
    <g
       transform="matrix(1.25,0,0,1.25,1046.4795,-8017.6529)"
       id="g3065" />
    <g
       transform="matrix(1.25,0,0,1.25,1046.4795,-8017.6529)"
       id="g3069" />
    <g
       transform="matrix(1.25,0,0,1.25,1046.4795,-8017.6529)"
       id="g3073" />
    <g
       transform="matrix(1.25,0,0,1.25,1046.4795,-8017.6529)"
       id="g3077" />
    <g
       transform="matrix(1.25,0,0,1.25,1046.4795,-8017.6529)"
       id="g3081" />
    <g
       transform="matrix(1.25,0,0,1.25,1046.4795,-8017.6529)"
       id="g3085" />
    <g
       transform="matrix(1.25,0,0,1.25,1046.4795,-8017.6529)"
       id="g3089" />
    <g
       transform="matrix(1.25,0,0,1.25,1046.4795,-8017.6529)"
       id="g3093" />
    <g
       transform="matrix(1.25,0,0,1.25,1046.4795,-8017.6529)"
       id="g3097" />
    <g
       transform="matrix(1.25,0,0,1.25,1046.4795,-8017.6529)"
       id="g3101" />
    <g
       transform="matrix(1.25,0,0,1.25,1046.4795,-8017.6529)"
       id="g3105" />
    <g
       transform="matrix(1.25,0,0,1.25,1046.4795,-8017.6529)"
       id="g3109" />
    <g
       transform="matrix(1.25,0,0,1.25,1046.4795,-8017.6529)"
       id="g3113" />
    <g
       transform="matrix(1.25,0,0,1.25,1046.4795,-8017.6529)"
       id="g3117" />
    <g
       transform="matrix(1.25,0,0,1.25,1046.4795,-8017.6529)"
       id="g3121" />
    <g
       transform="matrix(1.25,0,0,1.25,1046.4795,-8017.6529)"
       id="g3125" />
    <g
       transform="matrix(1.25,0,0,1.25,1046.4795,-8017.6529)"
       id="g3129" />
    <g
       transform="matrix(1.25,0,0,1.25,1046.4795,-8017.6529)"
       id="g3133" />
    <g
       transform="matrix(1.25,0,0,1.25,1046.4795,-8017.6529)"
       id="g3137" />
    <g
       transform="matrix(1.25,0,0,1.25,1046.4795,-8017.6529)"
       id="g3141" />
    <g
       transform="matrix(1.25,0,0,1.25,1046.4795,-8017.6529)"
       id="g3145" />
    <g
       transform="matrix(1.25,0,0,1.25,1046.4795,-8017.6529)"
       id="g3149" />
    <g
       transform="matrix(1.25,0,0,1.25,1046.4795,-8017.6529)"
       id="g3153" />
    <g
       transform="matrix(1.25,0,0,1.25,1046.4795,-8017.6529)"
       id="g3157" />
    <g
       transform="matrix(1.25,0,0,1.25,1046.4795,-8017.6529)"
       id="g3161" />
    <g
       transform="matrix(1.25,0,0,1.25,1046.4795,-8017.6529)"
       id="g3165" />
    <g
       transform="matrix(1.25,0,0,1.25,1046.4795,-8017.6529)"
       id="g3169" />
    <g
       transform="matrix(1.25,0,0,1.25,1046.4795,-8017.6529)"
       id="g3173" />
    <g
       transform="matrix(1.25,0,0,1.25,1046.4795,-8017.6529)"
       id="g3177" />
    <g
       transform="matrix(1.25,0,0,1.25,1046.4795,-8017.6529)"
       id="g3181" />
    <g
       transform="matrix(1.25,0,0,1.25,1046.4795,-8017.6529)"
       id="g3185" />
    <g
       transform="matrix(1.25,0,0,1.25,1046.4795,-8017.6529)"
       id="g3189" />
    <g
       transform="matrix(1.25,0,0,1.25,1046.4795,-8017.6529)"
       id="g3193" />
    <g
       transform="matrix(1.25,0,0,1.25,1046.4795,-8017.6529)"
       id="g3197" />
    <g
       transform="matrix(1.25,0,0,1.25,1046.4795,-8017.6529)"
       id="g3201" />
    <g
       transform="matrix(1.25,0,0,1.25,1046.4795,-8017.6529)"
       id="g3205" />
    <g
       transform="matrix(1.25,0,0,1.25,1046.4795,-8017.6529)"
       id="g3209" />
    <g
       transform="matrix(1.25,0,0,1.25,1046.4795,-8017.6529)"
       id="g3213" />
    <g
       transform="matrix(1.25,0,0,1.25,1046.4795,-8017.6529)"
       id="g3217" />
    <g
       transform="matrix(1.25,0,0,1.25,1046.4795,-8017.6529)"
       id="g3221" />
    <g
       transform="matrix(1.25,0,0,1.25,1046.4795,-8017.6529)"
       id="g3225" />
    <g
       transform="matrix(1.25,0,0,1.25,1046.4795,-8017.6529)"
       id="g3229" />
    <g
       transform="matrix(1.25,0,0,1.25,1046.4795,-8017.6529)"
       id="g3233" />
    <g
       transform="matrix(1.25,0,0,1.25,1046.4795,-8017.6529)"
       id="g3237" />
    <g
       transform="matrix(1.25,0,0,1.25,1046.4795,-8017.6529)"
       id="g3241" />
    <g
       transform="matrix(1.25,0,0,1.25,1046.4795,-8017.6529)"
       id="g3245" />
    <g
       transform="matrix(1.25,0,0,1.25,1046.4795,-8017.6529)"
       id="g3249" />
    <g
       transform="matrix(1.25,0,0,1.25,1046.4795,-8017.6529)"
       id="g3253" />
    <g
       transform="matrix(1.25,0,0,1.25,1046.4795,-8017.6529)"
       id="g3257" />
    <g
       transform="matrix(1.25,0,0,1.25,1046.4795,-8017.6529)"
       id="g3261" />
    <g
       transform="matrix(1.25,0,0,1.25,1046.4795,-8017.6529)"
       id="g3265" />
    <g
       transform="matrix(1.25,0,0,1.25,1046.4795,-8017.6529)"
       id="g3269" />
    <g
       transform="matrix(1.25,0,0,1.25,1046.4795,-8017.6529)"
       id="g3273" />
    <g
       transform="matrix(1.25,0,0,1.25,1046.4795,-8017.6529)"
       id="g3277" />
    <g
       transform="matrix(1.25,0,0,1.25,1046.4795,-8017.6529)"
       id="g3281" />
    <g
       transform="matrix(1.25,0,0,1.25,1046.4795,-8017.6529)"
       id="g3285" />
    <g
       transform="matrix(1.25,0,0,1.25,1046.4795,-8017.6529)"
       id="g3289" />
    <g
       transform="matrix(1.25,0,0,1.25,1046.4795,-8017.6529)"
       id="g3293" />
    <g
       transform="matrix(1.25,0,0,1.25,1046.4795,-8017.6529)"
       id="g3297" />
    <g
       transform="matrix(1.25,0,0,1.25,1046.4795,-8017.6529)"
       id="g3301" />
    <g
       transform="matrix(1.25,0,0,1.25,1046.4795,-8017.6529)"
       id="g3305" />
    <g
       transform="matrix(1.25,0,0,1.25,1046.4795,-8017.6529)"
       id="g3309" />
    <g
       transform="matrix(1.25,0,0,1.25,1046.4795,-8017.6529)"
       id="g3313" />
    <g
       transform="matrix(1.25,0,0,1.25,1046.4795,-8017.6529)"
       id="g3317" />
    <g
       transform="matrix(1.25,0,0,1.25,1046.4795,-8017.6529)"
       id="g3321" />
    <g
       transform="matrix(1.25,0,0,1.25,1046.4795,-8017.6529)"
       id="g3325" />
    <g
       transform="matrix(1.25,0,0,1.25,1046.4795,-8017.6529)"
       id="g3329" />
    <g
       transform="matrix(1.25,0,0,1.25,1046.4795,-8017.6529)"
       id="g3333" />
    <g
       transform="matrix(1.25,0,0,1.25,1046.4795,-8017.6529)"
       id="g3337" />
    <g
       transform="matrix(1.25,0,0,1.25,1046.4795,-8017.6529)"
       id="g3341" />
    <g
       transform="matrix(1.25,0,0,1.25,1046.4795,-8017.6529)"
       id="g3345" />
    <g
       transform="matrix(1.25,0,0,1.25,1046.4795,-8017.6529)"
       id="g3349" />
    <g
       transform="matrix(1.25,0,0,1.25,1046.4795,-8017.6529)"
       id="g3353" />
    <g
       transform="matrix(1.25,0,0,1.25,1046.4795,-8017.6529)"
       id="g3361" />
    <g
       transform="matrix(1.25,0,0,1.25,1046.4795,-8017.6529)"
       id="g3365" />
    <g
       transform="matrix(1.25,0,0,1.25,1046.4795,-8017.6529)"
       id="g3373" />
    <g
       transform="matrix(1.25,0,0,1.25,1046.4795,-8017.6529)"
       id="g3377" />
    <g
       transform="matrix(1.25,0,0,1.25,1046.4795,-8017.6529)"
       id="g3381" />
    <g
       transform="matrix(1.25,0,0,1.25,1046.4795,-8017.6529)"
       id="g3385" />
    <g
       transform="matrix(1.25,0,0,1.25,1046.4795,-8017.6529)"
       id="g3389" />
    <g
       transform="matrix(1.25,0,0,1.25,1046.4795,-8017.6529)"
       id="g3393" />
    <g
       transform="matrix(1.25,0,0,1.25,1046.4795,-8017.6529)"
       id="g3397" />
    <g
       transform="matrix(1.25,0,0,1.25,1046.4795,-8017.6529)"
       id="g3401" />
    <g
       transform="matrix(1.25,0,0,1.25,1046.4795,-8017.6529)"
       id="g3405" />
    <g
       transform="matrix(1.25,0,0,1.25,1046.4795,-8017.6529)"
       id="g3409" />
    <g
       transform="matrix(1.25,0,0,1.25,1046.4795,-8017.6529)"
       id="g3413" />
    <g
       transform="matrix(1.25,0,0,1.25,1046.4795,-8017.6529)"
       id="g3417" />
    <g
       transform="matrix(1.25,0,0,1.25,1046.4795,-8017.6529)"
       id="g3421" />
    <g
       transform="matrix(1.25,0,0,1.25,1046.4795,-8017.6529)"
       id="g3425" />
    <g
       transform="matrix(1.25,0,0,1.25,1046.4795,-8017.6529)"
       id="g3429" />
    <g
       transform="matrix(1.25,0,0,1.25,1046.4795,-8017.6529)"
       id="g3433" />
    <g
       transform="matrix(1.25,0,0,1.25,1046.4795,-8017.6529)"
       id="g3437" />
    <g
       transform="matrix(1.25,0,0,1.25,1046.4795,-8017.6529)"
       id="g3441" />
    <g
       transform="matrix(1.25,0,0,1.25,1046.4795,-8017.6529)"
       id="g3445" />
    <g
       transform="matrix(1.25,0,0,1.25,1046.4795,-8017.6529)"
       id="g3449" />
    <g
       transform="matrix(1.25,0,0,1.25,1046.4795,-8017.6529)"
       id="g3453" />
    <g
       transform="matrix(1.25,0,0,1.25,1046.4795,-8017.6529)"
       id="g3457" />
    <g
       transform="matrix(1.25,0,0,1.25,1046.4795,-8017.6529)"
       id="g3461" />
    <g
       transform="matrix(1.25,0,0,1.25,1046.4795,-8017.6529)"
       id="g3465" />
    <g
       transform="matrix(1.25,0,0,1.25,1046.4795,-8017.6529)"
       id="g3469" />
    <g
       transform="matrix(1.25,0,0,1.25,1046.4795,-8017.6529)"
       id="g3473" />
    <g
       transform="matrix(1.25,0,0,1.25,1046.4795,-8017.6529)"
       id="g3477" />
    <g
       transform="matrix(1.25,0,0,1.25,1046.4795,-8017.6529)"
       id="g3481" />
    <g
       transform="matrix(1.25,0,0,1.25,1046.4795,-8017.6529)"
       id="g3485" />
    <g
       transform="matrix(1.25,0,0,1.25,1046.4795,-8017.6529)"
       id="g3489" />
    <g
       transform="matrix(1.25,0,0,1.25,1046.4795,-8017.6529)"
       id="g3493" />
    <g
       transform="matrix(1.25,0,0,1.25,1046.4795,-8017.6529)"
       id="g3497" />
    <g
       transform="matrix(1.25,0,0,1.25,1046.4795,-8017.6529)"
       id="g3501" />
    <g
       transform="matrix(1.25,0,0,1.25,1046.4795,-8017.6529)"
       id="g3505" />
    <g
       transform="matrix(1.25,0,0,1.25,1046.4795,-8017.6529)"
       id="g3509" />
    <g
       transform="matrix(1.25,0,0,1.25,1046.4795,-8017.6529)"
       id="g3513" />
    <g
       transform="matrix(1.25,0,0,1.25,1046.4795,-8017.6529)"
       id="g3517" />
    <g
       transform="matrix(1.25,0,0,1.25,1046.4795,-8017.6529)"
       id="g3525" />
    <g
       transform="matrix(1.25,0,0,1.25,1046.4795,-8017.6529)"
       id="g3529" />
    <g
       transform="matrix(1.25,0,0,1.25,1046.4795,-8017.6529)"
       id="g3533" />
    <g
       transform="matrix(1.25,0,0,1.25,1046.4795,-8017.6529)"
       id="g3537" />
    <g
       transform="matrix(1.25,0,0,1.25,1046.4795,-8017.6529)"
       id="g3541" />
    <g
       transform="matrix(1.25,0,0,1.25,1046.4795,-8017.6529)"
       id="g3545" />
    <g
       transform="matrix(1.25,0,0,1.25,1046.4795,-8017.6529)"
       id="g3549" />
    <g
       transform="matrix(1.25,0,0,1.25,1046.4795,-8017.6529)"
       id="g3553" />
    <g
       transform="matrix(1.25,0,0,1.25,1046.4795,-8017.6529)"
       id="g3557" />
    <g
       transform="matrix(1.25,0,0,1.25,1046.4795,-8017.6529)"
       id="g3561" />
    <g
       transform="matrix(1.25,0,0,1.25,1046.4795,-8017.6529)"
       id="g3565" />
    <g
       transform="matrix(1.25,0,0,1.25,1046.4795,-8017.6529)"
       id="g3569" />
    <g
       transform="matrix(1.25,0,0,1.25,1046.4795,-8017.6529)"
       id="g3573" />
    <g
       transform="matrix(1.25,0,0,1.25,1046.4795,-8017.6529)"
       id="g3577"
       style="fill:none;stroke:#000000;stroke-opacity:1" />
    <g
       transform="matrix(1.25,0,0,1.25,1046.4795,-8017.6529)"
       id="g3581" />
    <g
       transform="matrix(1.25,0,0,1.25,1046.4795,-8017.6529)"
       id="g3585" />
    <g
       transform="matrix(1.25,0,0,1.25,1046.4795,-8017.6529)"
       id="g3589" />
    <g
       transform="matrix(1.25,0,0,1.25,1046.4795,-8017.6529)"
       id="g3593" />
    <g
       transform="matrix(1.25,0,0,1.25,1046.4795,-8017.6529)"
       id="g3597" />
    <g
       transform="matrix(1.25,0,0,1.25,1046.4795,-8017.6529)"
       id="g3601" />
    <g
       transform="matrix(1.25,0,0,1.25,1046.4795,-8017.6529)"
       id="g3605" />
    <g
       transform="matrix(1.25,0,0,1.25,1046.4795,-8017.6529)"
       id="g3609" />
    <g
       transform="matrix(1.25,0,0,1.25,1046.4795,-8017.6529)"
       id="g3613" />
    <g
       transform="matrix(1.25,0,0,1.25,1046.4795,-8017.6529)"
       id="g3617" />
    <g
       transform="matrix(1.25,0,0,1.25,1046.4795,-8017.6529)"
       id="g3621" />
    <g
       transform="matrix(1.25,0,0,1.25,1046.4795,-8017.6529)"
       id="g3625" />
    <g
       transform="matrix(1.25,0,0,1.25,1046.4795,-8017.6529)"
       id="g3629" />
    <g
       transform="matrix(1.25,0,0,1.25,1046.4795,-8017.6529)"
       id="g3633" />
    <g
       transform="matrix(1.25,0,0,1.25,1046.4795,-8017.6529)"
       id="g3637" />
    <g
       transform="matrix(1.25,0,0,1.25,1046.4795,-8017.6529)"
       id="g3641" />
    <g
       transform="matrix(1.25,0,0,1.25,1046.4795,-8017.6529)"
       id="g3645" />
    <g
       transform="matrix(1.25,0,0,1.25,1046.4795,-8017.6529)"
       id="g3649" />
    <g
       transform="matrix(1.25,0,0,1.25,1046.4795,-8017.6529)"
       id="g3653" />
    <g
       transform="matrix(1.25,0,0,1.25,1046.4795,-8017.6529)"
       id="g3657" />
    <g
       transform="matrix(1.25,0,0,1.25,1046.4795,-8017.6529)"
       id="g3661" />
    <g
       transform="matrix(1.25,0,0,1.25,1046.4795,-8017.6529)"
       id="g3665" />
    <g
       transform="matrix(1.25,0,0,1.25,1046.4795,-8017.6529)"
       id="g3669" />
    <g
       transform="matrix(1.25,0,0,1.25,1046.4795,-8017.6529)"
       id="g3673" />
    <g
       transform="matrix(1.25,0,0,1.25,1046.4795,-8017.6529)"
       id="g3677" />
    <g
       transform="matrix(1.25,0,0,1.25,1046.4795,-8017.6529)"
       id="g3681" />
    <g
       transform="matrix(1.25,0,0,1.25,1046.4795,-8017.6529)"
       id="g3685" />
    <g
       transform="matrix(1.25,0,0,1.25,1046.4795,-8017.6529)"
       id="g3689" />
    <g
       transform="matrix(1.25,0,0,1.25,1046.4795,-8017.6529)"
       id="g3693" />
    <g
       transform="matrix(1.25,0,0,1.25,1046.4795,-8017.6529)"
       id="g3697" />
    <g
       transform="matrix(1.25,0,0,1.25,1046.4795,-8017.6529)"
       id="g3701" />
    <g
       transform="matrix(1.25,0,0,1.25,1046.4795,-8017.6529)"
       id="g3705" />
    <g
       transform="matrix(1.25,0,0,1.25,1046.4795,-8017.6529)"
       id="g3709" />
    <g
       transform="matrix(1.25,0,0,1.25,1046.4795,-8017.6529)"
       id="g3713" />
    <g
       transform="matrix(1.25,0,0,1.25,1046.4795,-8017.6529)"
       id="g3717" />
    <g
       transform="matrix(1.25,0,0,1.25,1046.4795,-8017.6529)"
       id="g3721" />
    <g
       transform="matrix(1.25,0,0,1.25,1046.4795,-8017.6529)"
       id="g3725" />
    <g
       transform="matrix(1.25,0,0,1.25,1046.4795,-8017.6529)"
       id="g3729" />
    <g
       transform="matrix(1.25,0,0,1.25,1046.4795,-8017.6529)"
       id="g3733" />
    <g
       transform="matrix(1.25,0,0,1.25,1046.4795,-8017.6529)"
       id="g3737" />
    <g
       transform="matrix(1.25,0,0,1.25,1046.4795,-8017.6529)"
       id="g3741" />
    <g
       transform="matrix(1.25,0,0,1.25,1046.4795,-8017.6529)"
       id="g3745" />
    <g
       transform="matrix(1.25,0,0,1.25,1046.4795,-8017.6529)"
       id="g3749" />
    <g
       transform="matrix(1.25,0,0,1.25,1046.4795,-8017.6529)"
       id="g3753" />
    <g
       transform="matrix(1.25,0,0,1.25,1046.4795,-8017.6529)"
       id="g3757" />
    <g
       transform="matrix(1.25,0,0,1.25,1046.4795,-8017.6529)"
       id="g3761" />
    <g
       transform="matrix(1.25,0,0,1.25,1046.4795,-8017.6529)"
       id="g3765" />
    <g
       transform="matrix(1.25,0,0,1.25,1046.4795,-8017.6529)"
       id="g3769" />
    <g
       transform="matrix(1.25,0,0,1.25,1046.4795,-8017.6529)"
       id="g3773" />
    <g
       transform="matrix(1.25,0,0,1.25,1046.4795,-8017.6529)"
       id="g3777" />
    <g
       transform="matrix(1.25,0,0,1.25,1046.4795,-8017.6529)"
       id="g3781" />
    <g
       transform="matrix(1.25,0,0,1.25,1046.4795,-8017.6529)"
       id="g3785" />
    <g
       transform="matrix(1.25,0,0,1.25,1046.4795,-8017.6529)"
       id="g3789" />
    <g
       transform="matrix(1.25,0,0,1.25,1046.4795,-8017.6529)"
       id="g3793" />
    <g
       transform="matrix(1.25,0,0,1.25,1046.4795,-8017.6529)"
       id="g3797" />
    <g
       transform="matrix(1.25,0,0,1.25,1046.4795,-8017.6529)"
       id="g3803" />
    <g
       transform="matrix(1.25,0,0,1.25,1046.4795,-8017.6529)"
       id="g3807" />
    <g
       transform="matrix(1.25,0,0,1.25,1046.4795,-8017.6529)"
       id="g3811" />
    <g
       transform="matrix(1.25,0,0,1.25,1046.4795,-8017.6529)"
       id="g3817" />
    <g
       transform="matrix(1.25,0,0,1.25,1046.4795,-8017.6529)"
       id="g3821" />
    <g
       transform="matrix(1.25,0,0,1.25,1046.4795,-8017.6529)"
       id="g3833" />
    <g
       transform="matrix(1.25,0,0,1.25,1046.4795,-8017.6529)"
       id="g3837" />
    <g
       transform="matrix(1.25,0,0,1.25,1046.4795,-8017.6529)"
       id="g3841" />
    <g
       transform="matrix(1.25,0,0,1.25,1046.4795,-8017.6529)"
       id="g3845" />
    <g
       transform="matrix(1.25,0,0,1.25,1046.4795,-8017.6529)"
       id="g3849" />
    <g
       transform="matrix(1.25,0,0,1.25,1046.4795,-8017.6529)"
       id="g3853" />
    <g
       transform="matrix(1.25,0,0,1.25,1046.4795,-8017.6529)"
       id="g3857" />
    <g
       transform="matrix(1.25,0,0,1.25,1046.4795,-8017.6529)"
       id="g3865" />
    <g
       transform="matrix(1.25,0,0,1.25,1046.4795,-8017.6529)"
       id="g3869" />
    <g
       transform="matrix(1.25,0,0,1.25,1046.4795,-8017.6529)"
       id="g3885" />
    <g
       style="font-size:123.45613097999998331px;font-style:normal;font-weight:normal;line-height:125%;letter-spacing:0px;word-spacing:0px;fill:none;fill-opacity:1;stroke:#000000;font-family:Sans;stroke-opacity:1"
       id="text6920" />
    <g
       style="font-size:123.45613097999998331px;font-style:normal;font-weight:normal;line-height:125%;letter-spacing:0px;word-spacing:0px;fill:none;fill-opacity:1;stroke:#000000;font-family:Sans;stroke-opacity:1"
       id="text6925" />
    <g
       style="font-size:123.45613097999998331px;font-style:normal;font-weight:normal;line-height:125%;letter-spacing:0px;word-spacing:0px;fill:none;fill-opacity:1;stroke:#000000;font-family:Sans;stroke-opacity:1"
       id="text6932">
      <path
         id="path13217"
         style="fill:none;stroke:#000000;stroke-opacity:1"
         d="m 7116.6825,745.25407 19.8929,0 0,-68.66042 -21.641,4.34026 0,-11.09177 21.5204,-4.34025 12.1768,0 0,79.75218 19.8929,0 0,10.24782 -51.842,0 0,-10.24782 m 465.2106,-3867.41607 -30.7435,48.0442 30.7435,0 0,-48.0442 m -3.1949,-10.6095 15.3114,0 0,58.6537 12.84,0 0,10.1273 -12.84,0 0,21.219 -12.1165,0 0,-21.219 -40.6296,0 0,-11.7549 37.4347,-57.0261 m -1443.4648,41.4736 c 5.8272,1.2458 10.3683,3.8379 13.6236,7.7762 3.2953,3.9385 4.943,8.8012 4.9431,14.5881 -1e-4,8.8815 -3.0544,15.7536 -9.1628,20.6162 -6.1086,4.8627 -14.7891,7.2941 -26.0415,7.2941 -3.7777,0 -7.6759,-0.3818 -11.6946,-1.1454 -3.9786,-0.7233 -8.0978,-1.8285 -12.3577,-3.3154 l 0,-11.7549 c 3.3758,1.9692 7.073,3.4561 11.0918,4.4608 4.0187,1.0047 8.2183,1.5071 12.5988,1.5071 7.6356,0 13.4427,-1.5071 17.4213,-4.5211 4.0187,-3.0141 6.0281,-7.3945 6.0281,-13.1414 0,-5.3047 -1.8688,-9.444 -5.6061,-12.4179 -3.6973,-3.014 -8.8614,-4.5211 -15.4923,-4.5211 l -10.489,0 0,-10.0067 10.9712,0 c 5.9879,0 10.5693,-1.1855 13.7442,-3.5566 3.1747,-2.4112 4.7621,-5.8673 4.7622,-10.3684 -1e-4,-4.6215 -1.6478,-8.158 -4.9431,-10.6095 -3.2552,-2.4916 -7.9371,-3.7374 -14.0455,-3.7375 -3.3356,1e-4 -6.9123,0.3618 -10.7301,1.0851 -3.8179,0.7235 -8.0174,1.8487 -12.5988,3.3758 l 0,-10.8507 c 4.6215,-1.2859 8.9417,-2.2504 12.9605,-2.8935 4.0589,-0.6429 7.8767,-0.9644 11.4534,-0.9645 9.2431,1e-4 16.5572,2.11 21.9424,6.3296 5.3851,4.1795 8.0777,9.846 8.0777,16.9993 0,4.9833 -1.4267,9.203 -4.28,12.6591 -2.8533,3.416 -6.9123,5.787 -12.1768,7.1132 m 1419.3223,2492.22375 c -17.2212,-12.94375 -31.3725,-29.8 -42.4612,-50.56625 -10.8537,-20.16625 -19.1112,-43.04125 -24.77,-68.6225 -5.6637,-25.28375 -8.4912,-51.47 -8.4912,-78.555 l 0,-303.3888 25.1212,0 c 0.4738,7.2213 1.4162,17.7588 2.8325,31.6013 1.65,13.8475 3.54,23.78 5.6588,29.795 3.3062,9.3312 7.6662,15.9525 13.0962,19.8688 5.6587,3.9112 12.8562,5.825 21.5825,5.8687 l 9.0375,0.049 c 0.61,31.6363 1.2162,63.5213 1.7525,95.8788 l -6.1863,0.24 c -14.8625,0 -26.0687,7.67 -33.6175,23.0225 -7.5487,15.35125 -11.3237,36.71875 -11.3237,64.11125 0,44.84375 10.2587,79.155 30.7862,102.93375 6.8213,7.90125 14.7125,14.4925 23.7838,19.825 0.67,37.88 1.1825,75.86875 1.5387,113.72 -2.925,-1.92375 -5.6687,-3.77375 -8.34,-5.78125 z m -26.6649,-1550.47875 c -5.8988,4.5175 -10.6151,12.0412 -14.1551,22.5737 -1.885,6.3238 -4.0087,16.5525 -6.3675,30.7038 -2.1237,14.4425 -3.3062,26.635 -3.5399,36.5662 l -25.1226,0 0,-288.49 25.1226,0 c 0.4737,8.125 1.1812,19.8625 2.1237,35.2138 0.9425,15.3525 2.3587,26.1875 4.2437,32.505 1.7576,5.6937 3.8663,10.4987 6.3175,14.38 4.82,36.7775 9.0088,75.2 12.545,115.5225 -0.3662,0.4887 -0.7725,0.7525 -1.1674,1.025 z m -16.2801,546.7337 c -28.7787,-41.84 -43.1687,-93.76 -43.1687,-155.7612 0,-28.5888 3.4187,-57.1825 10.2637,-85.7763 7.075,-28.5937 15.5663,-53.2712 25.4788,-74.0437 l -25.835,-19.4138 0,-36.1175 61.1675,-2.0562 c 1.1525,33.1937 1.845,67.1487 2.0062,102.3725 -12.4075,15.03 -22.3487,31.905 -29.9125,50.9287 -8.2562,21.0688 -12.3825,45.4488 -12.3825,73.1388 0,20.7675 2.1238,38.8237 6.3675,54.175 4.2475,15.65 10.2638,28.2912 18.0463,37.925 5.9825,7.3975 12.725,13.2862 20.2012,17.6125 0.3313,23.6137 0.7325,48.8525 1.2013,73.6425 -12.095,-9.6438 -23.2475,-21.8263 -33.4338,-36.6263 z m 39.0875,326.3725 -1.9287,0.039 c -7.7875,0 -14.7463,2.11 -20.8787,6.3237 -5.8988,4.5113 -10.6151,12.0413 -14.1551,22.5725 -1.885,6.3188 -4.0087,16.5525 -6.3675,30.6988 -2.1237,14.4475 -3.3062,26.64 -3.5399,36.5725 l -25.1226,0 0,-288.4913 25.1226,0 c 0.4737,8.125 1.1812,19.8626 2.1237,35.215 0.9425,15.3513 2.3587,26.1863 4.2437,32.505 3.0663,9.9313 7.1963,17.1575 12.3875,21.6688 5.425,4.5175 12.8563,6.9287 22.295,6.7725 l 3.8626,-0.057 c 0.5712,29.355 1.2787,63.3587 1.9574,96.1862 l 0,0 z m 13.965,1222.8763 c -17.28,-13.19875 -30.425,-25.035 -39.605,-35.46875 -3.7737,-4.21375 -6.9575,-10.835 -9.55,-19.86875 -2.3637,-8.725 -4.2487,-18.35875 -5.665,-28.89125 -1.415,-10.835 -2.3575,-22.27125 -2.8312,-34.31125 -0.4688,-12.04125 -0.7088,-23.62875 -0.7088,-34.76625 0,-24.6775 0.5913,-43.94 1.7725,-57.7875 1.4113,-13.54 4.2438,-23.775 8.4913,-30.69875 4.7175,-7.22125 11.3237,-11.89 19.815,-13.99375 7.1137,-1.475 16.4937,-2.34375 28.4812,-2.4275 0.215,-32.25 0.029,-64.77 -0.22,-96.88375 l -17.6462,0.43875 c -9.1988,0 -16.7475,-2.10875 -22.6463,-6.32375 -5.8987,-3.91 -10.3762,-10.38 -13.4475,-19.41375 -1.885,-5.415 -3.4175,-15.04875 -4.6,-28.89125 -1.1762,-13.545 -2.0012,-23.92625 -2.475,-31.1525 l -25.1225,0 0,500.68375 85.5125,7.74875 c 0.25,-22.56375 0.45,-45.24375 0.445,-67.9925 z m 9.2288,299.52125 c -15.0975,0 -27.0125,1.3525 -35.7375,4.0625 -8.7313,2.71 -15.3375,7.97875 -19.82,15.8 -4.4825,7.8275 -7.4313,18.51125 -8.8425,32.05625 -1.1812,13.545 -1.7725,32.8075 -1.7725,57.7875 l 0,39.2775 c 0,16.255 0.4737,29.94625 1.4162,41.085 0.9426,11.44 2.5976,23.17375 4.9563,35.21375 2.5925,12.34375 6.015,21.07 10.2587,26.1875 11.3225,13.8425 28.4276,28.29 51.3088,43.33875 23.12,15.3525 40.1075,25.1325 50.9563,29.34625 l 0,32.505 -147.9101,-12.1875 0,-531.83125 25.1226,0 c 0.4737,9.02875 1.4162,21.07 2.8324,36.11875 1.65,15.04875 3.3,24.82875 4.95,29.34 3.5413,9.63375 8.14,16.255 13.8038,19.86875 5.66,3.91125 12.8575,5.89375 21.5825,5.86875 l 28.6425,-0.0775 c 7.7437,37.52375 19.1312,69.73125 33.0525,96.27375 l -34.8,-0.0337 z m -101.05,-2741.80625 c -15.825,-62.2912 -34.185,-120.3963 -53.8475,-172.6612 l -220.7525,640.8149 c -3.2513,10.4101 -2.925,19.5163 0.9762,27.3238 3.9025,7.1538 9.7563,12.0313 17.5638,14.6338 8.4525,2.6025 16.26,2.2762 23.4187,-0.9763 8.4513,-4.5512 13.9788,-12.0312 16.5813,-22.4412 l 187.5887,-551.7238 0,370.3763 c 0,58.54 -15.6112,106.675 -46.8362,144.3987 -35.7713,44.2338 -87.1638,66.3488 -154.16,66.3488 -66.9975,0 -118.7063,-22.115 -155.1325,-66.3488 -31.225,-38.3737 -46.8363,-86.5087 -46.8363,-144.3987 l 0,-453.6963 c 0,-10.41 -3.2512,-18.54 -9.755,-24.395 -5.855,-4.55 -12.6862,-6.8312 -20.4887,-6.8312 -8.4575,0 -15.61,2.6025 -21.465,7.8075 -5.8538,5.855 -8.7838,13.6575 -8.7838,23.4187 l 0,452.72 c 0,72.8513 20.815,133.6713 62.4463,182.455 46.8312,55.9425 113.5063,83.9063 200.015,83.9063 85.8637,0 152.2112,-27.9638 199.0425,-83.9063 11.7087,-13.72 21.7725,-28.3925 30.185,-44.0175 l 0.24,-442.8075 z m 0.18,3100.0575 0.049,-273.14875 c -21.425,0.7275 -36.9425,15.68375 -46.5125,45.03375 l -78.6387,228.17875 62.8375,0 33.6137,-98.8625 0.1563,98.82875 28.495,-0.03 z m -492.1088,-3615.1075 0,52.8475 c 0,72.8513 20.815,133.6713 62.4463,182.4563 46.8312,55.9425 113.5063,83.9112 200.015,83.9112 58.5837,0 108.085,-13.0225 148.6812,-39.0875 -8.4425,-18.0512 -17.31,-35.0925 -26.5137,-51.1375 -32.4463,23.735 -73.125,35.5863 -122.1675,35.5863 -66.9975,0 -118.7063,-22.12 -155.1325,-66.3488 -31.225,-38.3787 -46.8363,-86.5125 -46.8363,-144.4037 l 0,-53.9551 -60.4925,0.1313 z m 134.2238,5.5225 0.2825,175.6012 c 0,10.4101 3.2525,18.5401 9.7562,24.3951 5.855,4.55 12.685,6.825 20.4888,6.825 8.4562,0 15.61,-2.5976 21.465,-7.8026 5.8537,-5.8537 8.8225,-13.6575 8.7837,-23.4175 l -0.63,-153.0375 c -20.7912,-10.64 -40.825,-17.9837 -60.1462,-22.5637 z m -557.7975,-4.6137 78.29,226.2012 c 8.4525,29.9213 24.0675,44.8825 46.8312,44.8825 22.115,0 38.0525,-14.9612 47.8075,-44.8825 l 78.145,-226.7437 -62.8762,0.1375 -33.0813,97.29 0,-97.2175 -60.4925,0.1275 0,95.615 -32.4862,-95.5463 -62.1375,0.1363 z m -729.1613,1.5675 0,50.3712 c 0,72.8513 20.8113,133.6713 62.4425,182.4563 46.83,55.9425 113.505,83.9112 200.0188,83.9112 85.86,0 152.2075,-27.9687 199.0387,-83.9112 41.63,-48.785 62.4463,-109.605 62.4463,-182.4563 l 0,-51.4987 -60.4938,0.1312 0,52.3438 c 0,58.5449 -15.61,106.6749 -46.8312,144.4037 -35.7763,44.2288 -87.1625,66.3488 -154.16,66.3488 -67.0013,0 -118.7113,-22.12 -155.1363,-66.3488 -31.2212,-38.3787 -46.8362,-86.5125 -46.8362,-144.4037 l 0,-51.48 -60.4888,0.1324 z m 631.4463,-1.3575 79.58,234.0575 c 3.9062,10.405 9.76,17.8862 17.5625,22.4362 7.8087,3.9063 15.6112,4.5563 23.4187,1.9538 7.8025,-2.6025 13.6575,-7.4813 17.5638,-14.6338 3.9012,-8.4575 3.9012,-17.8913 0,-28.2962 l -74.6388,-215.6538 -63.4862,0.1362 z m 453.8275,227.49 c -85.8638,0 -152.2113,27.9737 -199.0425,83.9112 -41.6313,48.7838 -62.4463,109.605 -62.4463,182.4563 l 0,367.915 -187.08,-550.2438 c -3.9062,-10.4062 -9.7612,-17.8862 -17.5637,-22.4375 -7.8075,-3.9012 -15.61,-4.555 -23.4175,-1.9525 -7.8038,2.6025 -13.6575,7.48 -17.5588,14.6338 -3.9062,8.4575 -3.9062,17.89 0,28.2962 l 229.2863,662.495 c 8.4525,29.9213 24.0675,44.8825 46.8312,44.8825 22.115,0 38.0525,-14.9612 47.8075,-44.8825 l 228.3163,-662.495 c 3.2512,-10.4062 2.9237,-19.5125 -0.9775,-27.32 -3.9013,-7.1525 -9.755,-12.0312 -17.5625,-14.6337 -8.4525,-2.6025 -16.26,-2.275 -23.4188,0.9762 -8.4525,4.5513 -13.9837,12.0313 -16.5812,22.4375 l -187.5888,551.7188 0,-370.3663 c 0,-58.54 15.6113,-106.675 46.8363,-144.405 35.7712,-44.2287 87.1587,-66.3475 154.16,-66.3475 66.9975,0 118.7062,22.1188 155.1325,66.3475 31.22,38.3788 46.835,86.5138 46.835,144.405 l 0,453.6963 c 0,10.405 3.2525,18.54 9.7562,24.3937 5.855,4.5513 12.685,6.8263 20.4888,6.8263 8.4562,0 15.61,-2.5975 21.465,-7.8025 5.8537,-5.855 8.7837,-13.6625 8.7837,-23.4175 l 0,-452.72 c 0,-72.8513 -20.815,-133.6725 -62.4462,-182.4563 -46.8313,-55.9375 -113.5063,-83.9112 -200.015,-83.9112 m -591.8263,47.2225 c -22.1137,0 -38.0512,14.955 -47.8075,44.8775 l -228.315,662.495 c -3.2525,10.41 -2.925,19.5162 0.9763,27.3237 3.9012,7.1538 9.7562,12.0313 17.5637,14.6338 8.4563,2.6025 16.26,2.2762 23.4125,-0.9763 8.4575,-4.5512 13.99,-12.0312 16.5925,-22.4412 l 187.5825,-551.7138 0,370.3663 c 0,58.54 -15.61,106.675 -46.8312,144.3987 -35.7763,44.2338 -87.1625,66.3488 -154.16,66.3488 -67.0013,0 -118.7113,-22.115 -155.1363,-66.3488 -31.2212,-38.3737 -46.8362,-86.5087 -46.8362,-144.3987 l 0,-453.6963 c 0,-10.41 -3.2525,-18.54 -9.7563,-24.395 -5.8537,-4.55 -12.68,-6.8312 -20.4875,-6.8312 -8.4575,0 -15.6112,2.6025 -21.465,7.8075 -5.855,5.855 -8.78,13.6575 -8.78,23.4187 l 0,452.72 c 0,72.8513 20.8113,133.6713 62.4425,182.455 46.83,55.9425 113.505,83.9063 200.0188,83.9063 85.86,0 152.2075,-27.9638 199.0387,-83.9063 41.63,-48.7837 62.4463,-109.6037 62.4463,-182.455 l 0,-367.915 187.08,550.2388 c 3.9062,10.41 9.76,17.89 17.5625,22.4412 7.8087,3.9063 15.6112,4.5563 23.4187,1.9538 7.8025,-2.6025 13.6575,-7.4813 17.5638,-14.6338 3.9012,-8.4575 3.9012,-17.8912 0,-28.3012 l -229.2925,-662.495 c -8.4575,-29.9225 -24.0675,-44.8775 -46.8313,-44.8775 m 591.8263,719.35 c -85.8638,0 -152.2113,27.9687 -199.0425,83.9112 -41.6313,48.7838 -62.4463,109.6 -62.4463,182.4513 l 0,367.92 -187.08,-550.245 c -3.9062,-10.405 -9.7612,-17.885 -17.5637,-22.4413 -7.8075,-3.9012 -15.61,-4.55 -23.4175,-1.9475 -7.8038,2.6025 -13.6575,7.48 -17.5588,14.6338 -3.9062,8.4562 -3.9062,17.885 0,28.295 l 229.2863,662.4962 c 8.4525,29.9213 24.0675,44.8825 46.8312,44.8825 22.115,0 38.0525,-14.9612 47.8075,-44.8825 l 228.3163,-662.4962 c 3.2512,-10.41 2.9237,-19.5113 -0.9775,-27.3188 -3.9013,-7.1537 -9.755,-12.0362 -17.5625,-14.6387 -8.4525,-2.5975 -16.26,-2.275 -23.4188,0.9762 -8.4525,4.5563 -13.9837,12.0363 -16.5812,22.4413 l -187.5888,551.7187 0,-370.3662 c 0,-58.54 15.6113,-106.6788 46.8363,-144.4038 35.7712,-44.2337 87.1587,-66.3475 154.16,-66.3475 66.9975,0 118.7062,22.1138 155.1325,66.3475 31.22,38.3738 46.835,86.5138 46.835,144.4038 l 0,453.6975 c 0,10.405 3.2525,18.54 9.7562,24.3937 5.855,4.5513 12.685,6.8263 20.4888,6.8263 8.4562,0 15.61,-2.6025 21.465,-7.8025 5.8537,-5.855 8.7837,-13.6625 8.7837,-23.4175 l 0,-452.725 c 0,-72.8513 -20.815,-133.6675 -62.4462,-182.4513 -46.8313,-55.9425 -113.5063,-83.9112 -200.015,-83.9112 m -591.8263,47.2162 c -22.1137,0 -38.0512,14.9613 -47.8075,44.8838 l -228.315,662.495 c -3.2525,10.41 -2.925,19.5162 0.9763,27.3187 3.9012,7.1588 9.7562,12.0363 17.5637,14.6388 8.4563,2.6025 16.26,2.275 23.4125,-0.9763 8.4575,-4.5562 13.99,-12.0362 16.5925,-22.4412 l 187.5825,-551.7188 0,370.3713 c 0,58.54 -15.61,106.675 -46.8312,144.3987 -35.7763,44.2338 -87.1625,66.3475 -154.16,66.3475 -67.0013,0 -118.7113,-22.1137 -155.1363,-66.3475 -31.2212,-38.3737 -46.8362,-86.5087 -46.8362,-144.3987 l 0,-453.7013 c 0,-10.405 -3.2525,-18.535 -9.7563,-24.39 -5.8537,-4.5512 -12.68,-6.8312 -20.4875,-6.8312 -8.4575,0 -15.6112,2.6025 -21.465,7.8075 -5.855,5.855 -8.78,13.6575 -8.78,23.4137 l 0,452.7238 c 0,72.8525 20.8113,133.6725 62.4425,182.4562 46.83,55.9375 113.505,83.9063 200.0188,83.9063 85.86,0 152.2075,-27.9688 199.0387,-83.9063 41.63,-48.7837 62.4463,-109.6037 62.4463,-182.4562 l 0,-367.915 187.08,550.24 c 3.9062,10.405 9.76,17.885 17.5625,22.4412 7.8087,3.9013 15.6112,4.5513 23.4187,1.9488 7.8025,-2.5988 13.6575,-7.4763 17.5638,-14.635 3.9012,-8.4563 3.9012,-17.885 0,-28.295 l -229.2925,-662.495 c -8.4575,-29.9225 -24.0675,-44.8838 -46.8313,-44.8838 m 1150.8888,0.04 c -21.1575,0.815 -36.475,15.7663 -45.9563,44.8438 l -228.3162,662.495 c -3.2513,10.41 -2.925,19.5162 0.9762,27.3187 3.9025,7.1588 9.7563,12.0363 17.5638,14.6388 8.4525,2.6025 16.26,2.275 23.4187,-0.9763 8.4513,-4.5562 13.9788,-12.0362 16.5813,-22.4412 l 187.5887,-551.7238 0,370.3763 c 0,58.54 -15.6112,106.675 -46.8362,144.3987 -35.7713,44.2338 -87.1638,66.3475 -154.16,66.3475 -66.9975,0 -118.7063,-22.1137 -155.1325,-66.3475 -31.225,-38.3737 -46.8363,-86.5087 -46.8363,-144.3987 l 0,-453.7013 c 0,-10.405 -3.2512,-18.535 -9.755,-24.39 -5.855,-4.5512 -12.6862,-6.8312 -20.4887,-6.8312 -8.4575,0 -15.61,2.6025 -21.465,7.8075 -5.8538,5.855 -8.7838,13.6575 -8.7838,23.4137 l 0,452.7238 c 0,72.8525 20.815,133.6725 62.4463,182.4562 46.8312,55.9375 113.5062,83.9063 200.015,83.9063 85.8637,0 152.2112,-27.9688 199.0425,-83.9063 11.8012,-13.8275 21.9287,-28.6225 30.3812,-44.385 l -0.2837,-681.625 z m -559.0625,719.3163 c -85.8638,0 -152.2113,27.9687 -199.0425,83.9112 -41.6313,48.7838 -62.4463,109.5988 -62.4463,182.45125 l 0,367.915 -187.08,-550.23995 c -3.9062,-10.405 -9.7612,-17.885 -17.5637,-22.4413 -7.8075,-3.9012 -15.61,-4.55 -23.4175,-1.9525 -7.8038,2.6025 -13.6575,7.48 -17.5588,14.6388 -3.9062,8.4512 -3.9062,17.885 0,28.295 l 229.2863,662.49495 c 8.4525,29.9225 24.0675,44.88375 46.8312,44.88375 22.115,0 38.0525,-14.96125 47.8075,-44.88375 l 228.3163,-662.49495 c 3.2512,-10.41 2.9237,-19.5163 -0.9775,-27.3188 -3.9013,-7.1587 -9.755,-12.0362 -17.5625,-14.6387 -8.4525,-2.5975 -16.26,-2.275 -23.4188,0.9762 -8.4525,4.5563 -13.9837,12.0363 -16.5812,22.4413 l -187.5888,551.7187 0,-370.37125 c 0,-58.53995 15.6113,-106.67375 46.8363,-144.39875 35.7712,-44.2337 87.1587,-66.3475 154.16,-66.3475 66.9975,0 118.7062,22.1138 155.1325,66.3475 31.22,38.3738 46.835,86.5088 46.835,144.39875 l 0,453.70125 c 0,10.40625 3.2525,18.535 9.7562,24.39 5.855,4.55625 12.685,6.83125 20.4888,6.83125 8.4562,0 15.61,-2.6025 21.465,-7.8075 5.8537,-5.855 8.7837,-13.6575 8.7837,-23.41375 l 0,-452.72375 c 0,-72.85245 -20.815,-133.66745 -62.4462,-182.45125 -46.8313,-55.9425 -113.5063,-83.9112 -200.015,-83.9112 m -591.8263,47.2162 c -22.1137,0 -38.0512,14.9613 -47.8075,44.8825 l -228.315,662.49625 c -3.2525,10.41 -2.925,19.51625 0.9763,27.31875 3.9012,7.15875 9.7562,12.03625 17.5637,14.63375 8.4563,2.6025 16.26,2.28 23.4125,-0.97625 8.4575,-4.55125 13.99,-12.03125 16.5925,-22.43625 l 187.5825,-551.71875 0,370.36625 c 0,58.545 -15.61,106.67875 -46.8312,144.40375 -35.7763,44.23375 -87.1625,66.3475 -154.16,66.3475 -67.0013,0 -118.7113,-22.11375 -155.1363,-66.3475 -31.2212,-38.37875 -46.8362,-86.50875 -46.8362,-144.40375 l 0,-453.69625 c 0,-10.4062 -3.2525,-18.5362 -9.7563,-24.39 -5.8537,-4.5562 -12.68,-6.8312 -20.4875,-6.8312 -8.4575,0 -15.6112,2.6025 -21.465,7.8025 -5.855,5.855 -8.78,13.6625 -8.78,23.4187 l 0,452.71875 c 0,72.8525 20.8113,133.6725 62.4425,182.45625 46.83,55.9425 113.505,83.91125 200.0188,83.91125 85.86,0 152.2075,-27.96875 199.0387,-83.91125 41.63,-48.78375 62.4463,-109.60375 62.4463,-182.45625 l 0,-367.90995 187.08,550.23995 c 3.9062,10.405 9.76,17.885 17.5625,22.43625 7.8087,3.90625 15.6112,4.555 23.4187,1.9525 7.8025,-2.5975 13.6575,-7.48 17.5638,-14.63375 3.9012,-8.45625 3.9012,-17.885 0,-28.295 L 6368.457,-1157.0529 c -8.4575,-29.9213 -24.0675,-44.8825 -46.8313,-44.8825 m 1151.0888,0.03 c -21.26,0.7325 -36.645,15.6787 -46.1563,44.8525 l -228.3162,662.49625 c -3.2512,10.41 -2.925,19.51625 0.9762,27.31875 3.9025,7.15875 9.7563,12.03625 17.5638,14.63375 8.4525,2.6025 16.26,2.28 23.4187,-0.97625 8.4513,-4.55125 13.9788,-12.03125 16.5813,-22.43625 l 187.5887,-551.72375 0,370.37125 c 0,58.545 -15.6112,106.67875 -46.8362,144.40375 -35.7713,44.23375 -87.1638,66.3475 -154.16,66.3475 -66.9975,0 -118.7063,-22.11375 -155.1325,-66.3475 -31.225,-38.37875 -46.8363,-86.50875 -46.8363,-144.40375 l 0,-453.69625 c 0,-10.4062 -3.2512,-18.5362 -9.755,-24.39 -5.855,-4.5562 -12.6862,-6.8312 -20.4887,-6.8312 -8.4575,0 -15.61,2.6025 -21.465,7.8025 -5.8538,5.855 -8.7838,13.6625 -8.7838,23.4187 l 0,452.71875 c 0,72.8525 20.815,133.6725 62.4463,182.45625 46.8313,55.9425 113.5063,83.91125 200.015,83.91125 85.8637,0 152.2112,-27.96875 199.0425,-83.91125 11.89,-13.93 22.085,-28.8475 30.5763,-44.74625 l -0.2788,-681.26875 z m -559.2625,719.32125 c -85.8637,0 -152.2112,27.97375 -199.0425,83.91125 -41.6313,48.78375 -62.4463,109.60375 -62.4463,182.455 l 0,367.915 -187.08,-550.23875 c -3.9062,-10.41 -9.7612,-17.88625 -17.5637,-22.44125 -7.8075,-3.90125 -15.61,-4.55125 -23.4175,-1.95375 -7.8038,2.6025 -13.6575,7.48125 -17.5588,14.63875 -3.9062,8.4525 -3.9062,17.88625 0,28.29125 l 229.2863,662.5 c 8.4525,29.9225 24.0675,44.8825 46.8312,44.8825 22.115,0 38.0525,-14.96 47.8075,-44.8825 l 228.3163,-662.5 c 3.2512,-10.405 2.9238,-19.51125 -0.9775,-27.31875 -3.9013,-7.15375 -9.755,-12.03125 -17.5625,-14.63375 -8.4525,-2.6025 -16.26,-2.27625 -23.4188,0.97625 -8.4525,4.555 -13.9837,12.03125 -16.5812,22.44125 l -187.5888,551.71375 0,-370.36625 c 0,-58.54 15.6113,-106.675 46.8363,-144.40375 35.7712,-44.22875 87.1587,-66.3475 154.16,-66.3475 66.9975,0 118.7063,22.11875 155.1325,66.3475 31.22,38.37875 46.835,86.51375 46.835,144.40375 l 0,453.69625 c 0,10.41 3.2525,18.54 9.7562,24.395 5.855,4.55 12.685,6.83125 20.4888,6.83125 8.4562,0 15.61,-2.6025 21.465,-7.8075 5.8537,-5.855 8.7837,-13.6625 8.7837,-23.41875 l 0,-452.72 c 0,-72.85125 -20.815,-133.67125 -62.4462,-182.455 -46.8313,-55.9375 -113.5063,-83.91125 -200.015,-83.91125 m -591.8263,47.22125 c -22.1137,0 -38.0512,14.96125 -47.8075,44.8825 l -228.315,662.495 c -3.2525,10.41125 -2.925,19.5175 0.9763,27.32 3.9012,7.1575 9.7562,12.03625 17.5637,14.63375 8.4563,2.6025 16.26,2.28 23.4125,-0.97625 8.4575,-4.55125 13.99,-12.03125 16.5925,-22.4375 l 187.5825,-551.71875 0,370.36625 c 0,58.545 -15.61,106.68 -46.8312,144.405 -35.7763,44.23375 -87.1625,66.3475 -154.16,66.3475 -67.0013,0 -118.7113,-22.11375 -155.1363,-66.3475 -31.2212,-38.37875 -46.8362,-86.50875 -46.8362,-144.405 l 0,-453.69625 c 0,-10.405 -3.2525,-18.535 -9.7563,-24.38875 -5.8537,-4.55625 -12.68,-6.83125 -20.4875,-6.83125 -8.4575,0 -15.6112,2.6025 -21.465,7.8025 -5.855,5.855 -8.78,13.6625 -8.78,23.4175 l 0,452.72 c 0,72.85125 20.8113,133.6725 62.4425,182.45625 46.83,55.9425 113.505,83.91125 200.0188,83.91125 85.86,0 152.2075,-27.96875 199.0387,-83.91125 41.63,-48.78375 62.4463,-109.605 62.4463,-182.45625 l 0,-367.91 187.08,550.23875 c 3.9062,10.40625 9.76,17.88625 17.5625,22.4375 7.8087,3.90625 15.6112,4.555 23.4187,1.9525 7.8025,-2.5975 13.6575,-7.48 17.5638,-14.63375 3.9012,-8.4575 3.9012,-17.885 0,-28.29625 l -229.2925,-662.495 c -8.4575,-29.92125 -24.0675,-44.8825 -46.8313,-44.8825 m 1151.2888,0.025 c -21.3663,0.63875 -36.8163,15.595 -46.3563,44.8575 l -228.3162,662.495 c -3.2513,10.41125 -2.925,19.5175 0.9762,27.32 3.9025,7.1575 9.7563,12.03625 17.5638,14.63375 8.4525,2.6025 16.26,2.28 23.4187,-0.97625 8.4513,-4.55125 13.9788,-12.03125 16.5813,-22.4375 l 187.5887,-551.7225 0,370.37 c 0,58.545 -15.6112,106.68 -46.8362,144.405 -35.7713,44.23375 -87.1638,66.3475 -154.16,66.3475 -66.9975,0 -118.7063,-22.11375 -155.1325,-66.3475 -31.225,-38.37875 -46.8363,-86.50875 -46.8363,-144.405 l 0,-453.69625 c 0,-10.405 -3.2512,-18.535 -9.755,-24.38875 -5.855,-4.55625 -12.6862,-6.83125 -20.4887,-6.83125 -8.4575,0 -15.61,2.6025 -21.465,7.8025 -5.8538,5.855 -8.7838,13.6625 -8.7838,23.4175 l 0,452.72 c 0,72.85125 20.815,133.6725 62.4463,182.45625 46.8312,55.9425 113.5063,83.91125 200.015,83.91125 85.8637,0 152.2112,-27.96875 199.0425,-83.91125 11.9825,-14.0375 22.2362,-29.0725 30.7712,-45.1075 l -0.2737,-680.9125 z m -927.7138,1039.60375 -80.3175,-236.235 c -3.9062,-10.41 -9.7612,-17.88625 -17.5637,-22.44125 -7.8075,-3.90125 -15.61,-4.55625 -23.4175,-1.95375 -7.8038,2.6025 -13.6575,7.48125 -17.5588,14.63875 -3.9062,8.4525 -3.9062,17.88625 0,28.29125 l 75.3413,217.7 63.5162,0 z m 338.3588,0 75.025,-217.7 c 3.2512,-10.405 2.9237,-19.51125 -0.9775,-27.31875 -3.9013,-7.15375 -9.755,-12.03125 -17.5625,-14.63375 -8.4525,-2.60375 -16.26,-2.27625 -23.4188,0.97625 -8.4525,4.555 -13.9837,12.03125 -16.5812,22.44125 l -80.3225,236.235 63.8375,0 z m 292.3537,0 0,-53.91125 c 0,-72.85125 -20.815,-133.67125 -62.4462,-182.45625 -46.8313,-55.9375 -113.5063,-83.91 -200.015,-83.91 -85.8638,0 -152.2113,27.9725 -199.0425,83.91 -41.6313,48.785 -62.4463,109.605 -62.4463,182.45625 l 0,53.91125 60.4925,0 0,-54.8875 c 0,-58.54 15.6113,-106.675 46.8363,-144.40375 35.7712,-44.22875 87.1587,-66.34875 154.16,-66.34875 66.9975,0 118.7062,22.12 155.1325,66.34875 31.22,38.37875 46.835,86.51375 46.835,144.40375 l 0,54.8875 60.4937,0 z m -728.4862,0 -78.97,-228.17875 c -8.4575,-29.91625 -24.0675,-44.8775 -46.8313,-44.8775 -22.1137,0 -38.0512,14.96125 -47.8075,44.8775 l -78.6375,228.17875 62.8363,0 33.6137,-98.8575 0,98.8575 60.4938,0 0,-97.3825 33.11,97.3825 62.1925,0 z m 593.9787,0 0,-182.1875 c 0,-10.41 -3.2512,-18.54 -9.755,-24.39375 -5.855,-4.55125 -12.6862,-6.83125 -20.4887,-6.83125 -8.4575,0 -15.61,2.6075 -21.465,7.8075 -5.8538,5.85375 -8.7838,13.66125 -8.7838,23.4175 l 0,182.1875 60.4925,0 z m 204.79,-3538.44745 -47.9537,139.9125 c -3.2513,10.405 -2.925,19.5112 0.9762,27.32 3.9025,7.1525 9.7563,12.0312 17.5638,14.6337 8.4525,2.6025 16.26,2.275 23.4187,-0.9775 8.4513,-4.55 13.9788,-12.0312 16.5813,-22.4362 l 37.285,-109.6975 c -16.0638,-18.8525 -31.5713,-34.6188 -47.8712,-48.755 z m 119.3513,152.1975 c -0.044,0.035 -0.092,0.069 -0.1413,0.1025 m 26.4688,51.1237 c 0.074,-0.045 0.1425,-0.089 0.215,-0.1375 m 27.1387,61.9588 -0.1612,0.4687 m 49.38,2800.87375 0,66.41625" />
    </g>
    <text
       xml:space="preserve"
       style="font-size:123.45613098px;font-style:normal;font-weight:normal;line-height:125%;letter-spacing:0px;word-spacing:0px;fill:#000000;fill-opacity:1;stroke:none;font-family:Sans"
       x="14825.353"
       y="-3042.7715"
       id="text9052"
       sodipodi:linespacing="125%"><tspan
         sodipodi:role="line"
         id="tspan9054"
         x="14825.353"
         y="-3042.7715" /></text>
  </g>
</svg>
